<svg width="20" height="20" viewBox="0 0 20 20" fill="none" xmlns="http://www.w3.org/2000/svg">
<g clip-path="url(#clip0_1645_561)">
<path d="M9.41875 0.370117C4.2125 0.370117 0 4.03512 0 8.55512C0 11.3289 1.61 13.7951 4.04125 15.3026V17.8376C4.04125 18.1789 4.28125 18.3851 4.55625 18.3851C4.65153 18.3832 4.74512 18.3597 4.83 18.3164L7.39875 16.6039C8.05 16.7414 8.70125 16.7764 9.385 16.7764C14.5912 16.7764 18.8025 13.1101 18.8025 8.59012C18.8375 4.03512 14.625 0.370117 9.41875 0.370117ZM9.41875 15.4051C8.83625 15.4051 8.25375 15.3364 7.6725 15.2339L7.39875 15.1651C7.2203 15.1326 7.03616 15.1693 6.88375 15.2676L6.645 15.4389L5.41125 16.2626V14.9251C5.41167 14.8064 5.38023 14.6897 5.32021 14.5872C5.26019 14.4848 5.17378 14.4003 5.07 14.3426L4.7275 14.1376C2.60375 12.8701 1.3375 10.7814 1.3375 8.59012C1.3375 4.82262 4.93375 1.77512 9.38625 1.77512C13.84 1.77512 17.4338 4.82262 17.4338 8.59012C17.4688 12.3226 13.8375 15.4051 9.41875 15.4051ZM4.075 8.79512C4.06996 8.94659 4.09544 9.09753 4.14993 9.23895C4.20442 9.38038 4.2868 9.50939 4.39217 9.61833C4.49754 9.72726 4.62374 9.81389 4.76328 9.87305C4.90281 9.93221 5.05282 9.9627 5.20437 9.9627C5.35593 9.9627 5.50594 9.93221 5.64547 9.87305C5.78501 9.81389 5.91121 9.72726 6.01658 9.61833C6.12195 9.50939 6.20433 9.38038 6.25882 9.23895C6.31331 9.09753 6.33879 8.94659 6.33375 8.79512C6.324 8.50209 6.20074 8.22433 5.99001 8.02049C5.77927 7.81665 5.49756 7.7027 5.20437 7.7027C4.91119 7.7027 4.62948 7.81665 4.41874 8.02049C4.20801 8.22433 4.08475 8.50209 4.075 8.79512ZM8.3575 8.79512C8.3575 9.09481 8.47655 9.38223 8.68847 9.59415C8.90039 9.80606 9.18781 9.92512 9.4875 9.92512C9.7872 9.92512 10.0746 9.80606 10.2865 9.59415C10.4984 9.38223 10.6175 9.09481 10.6175 8.79512C10.6175 8.49542 10.4984 8.208 10.2865 7.99609C10.0746 7.78417 9.7872 7.66512 9.4875 7.66512C9.18781 7.66512 8.90039 7.78417 8.68847 7.99609C8.47655 8.208 8.3575 8.49542 8.3575 8.79512ZM12.5013 8.79512C12.4962 8.94659 12.5217 9.09753 12.5762 9.23895C12.6307 9.38038 12.713 9.50939 12.8184 9.61833C12.9238 9.72726 13.05 9.81389 13.1895 9.87305C13.3291 9.93221 13.4791 9.9627 13.6306 9.9627C13.7822 9.9627 13.9322 9.93221 14.0717 9.87305C14.2113 9.81389 14.3375 9.72726 14.4428 9.61833C14.5482 9.50939 14.6306 9.38038 14.6851 9.23895C14.7396 9.09753 14.765 8.94659 14.76 8.79512C14.7502 8.50209 14.627 8.22433 14.4163 8.02049C14.2055 7.81665 13.9238 7.7027 13.6306 7.7027C13.3374 7.7027 13.0557 7.81665 12.845 8.02049C12.6343 8.22433 12.511 8.50209 12.5013 8.79512ZM18.9888 10.5651L18.9263 10.4889C18.7776 11.0467 18.5685 11.5865 18.3025 12.0989C18.315 12.1251 18.3287 12.1476 18.3387 12.1726C18.5187 12.5851 18.615 13.0314 18.615 13.4964C18.615 14.7276 17.9037 15.9026 16.71 16.6139L16.52 16.7289C16.4612 16.761 16.4122 16.8084 16.3782 16.866C16.3441 16.9236 16.3261 16.9894 16.3263 17.0564V17.8076L15.6337 17.3451L15.4988 17.2501C15.4141 17.194 15.3109 17.1734 15.2112 17.1926L15.0575 17.2301C13.9945 17.4394 12.8926 17.3064 11.91 16.8501C11.2572 17.002 10.592 17.0944 9.9225 17.1264C10.9938 18.0489 12.4675 18.6201 14.0963 18.6201C14.5288 18.6201 14.9375 18.5976 15.3463 18.5126L16.9638 19.5889C17.0168 19.616 17.0754 19.6306 17.135 19.6314C17.3088 19.6314 17.4587 19.5014 17.4587 19.2876V17.6926C18.9862 16.7426 20 15.1889 20 13.4451C20 12.3776 19.6275 11.3864 18.9888 10.5651Z" fill="#4767E7"/>
</g>
<defs>
<clipPath id="clip0_1645_561">
<rect width="20" height="20" fill="white"/>
</clipPath>
</defs>
</svg>
