<svg width="20" height="20" viewBox="0 0 20 20" fill="none" xmlns="http://www.w3.org/2000/svg">
<g clip-path="url(#clip0_1645_569)">
<path d="M19.2034 15.445C18.6273 14.8697 18.1503 14.2031 17.7919 13.472C18.0578 13.1562 18.2035 12.7566 18.2031 12.3438V8.78906C18.2031 7.17359 16.8889 5.85938 15.2734 5.85938H12.9297C12.214 5.85895 11.5231 6.12165 10.9884 6.5975C10.5734 5.48344 9.49906 4.6875 8.24219 4.6875H3.55469C1.93922 4.6875 0.625 6.00172 0.625 7.61719V12.3438C0.625 13.313 1.41359 14.1016 2.38281 14.1016C2.67219 14.1016 2.94531 14.0308 3.18641 13.9062C3.22734 13.9394 3.27313 13.968 3.32391 13.9897L4.14063 14.3397V18.2422C4.14063 19.2114 4.92922 20 5.89844 20H14.1016C15.0708 20 15.8594 19.2114 15.8594 18.2422V16.4453H18.7891C18.905 16.4453 19.0183 16.411 19.1147 16.3466C19.211 16.2822 19.2861 16.1907 19.3305 16.0836C19.3749 15.9765 19.3865 15.8587 19.3638 15.745C19.3412 15.6314 19.2854 15.5269 19.2034 15.445ZM11.1719 10V8.78906C11.1719 7.81984 11.9605 7.03125 12.9297 7.03125H15.2734C16.2427 7.03125 17.0313 7.81984 17.0313 8.78906V12.3438C17.0311 12.4991 16.9693 12.648 16.8595 12.7579C16.7496 12.8677 16.6007 12.9295 16.4453 12.9297C16.29 12.9295 16.141 12.8677 16.0312 12.7579C15.9213 12.648 15.8595 12.4991 15.8594 12.3438V10.0002C15.8594 9.84476 15.7976 9.69572 15.6878 9.58584C15.5779 9.47595 15.4288 9.41422 15.2734 9.41422C15.118 9.41422 14.969 9.47595 14.8591 9.58584C14.7492 9.69572 14.6875 9.84476 14.6875 10.0002V10.5152L11.7575 11.7708L11.7578 11.7578C11.7578 11.1498 11.525 10.5953 11.1441 10.1783C11.162 10.122 11.1719 10.0622 11.1719 10ZM10.5859 11.7578C10.5859 12.4041 10.0602 12.9297 9.41406 12.9297C8.76797 12.9297 8.24219 12.4041 8.24219 11.7578C8.24219 11.1116 8.76797 10.5859 9.41406 10.5859C10.0602 10.5859 10.5859 11.1116 10.5859 11.7578ZM3.55469 8.20328C3.39929 8.20328 3.25025 8.26501 3.14037 8.3749C3.03048 8.48478 2.96875 8.63382 2.96875 8.78922V12.3438C2.96859 12.4991 2.9068 12.648 2.79695 12.7579C2.6871 12.8677 2.53816 12.9295 2.38281 12.9297C2.22746 12.9295 2.07852 12.8677 1.96868 12.7579C1.85883 12.648 1.79704 12.4991 1.79688 12.3438V7.61719C1.79688 6.64797 2.58547 5.85938 3.55469 5.85938H8.24219C9.21141 5.85938 10 6.64797 10 7.61719V9.48828C9.80861 9.43889 9.61173 9.41395 9.41406 9.41406C8.12172 9.41406 7.07031 10.4655 7.07031 11.7578L7.07063 11.7708L4.14063 10.5152V8.78922C4.14063 8.63382 4.07889 8.48478 3.96901 8.3749C3.85912 8.26501 3.71009 8.20328 3.55469 8.20328ZM6.48438 18.8281H5.89844C5.74309 18.828 5.59415 18.7662 5.4843 18.6563C5.37445 18.5465 5.31267 18.3975 5.3125 18.2422V14.8419L6.48438 15.3442V18.8281ZM11.1719 14.9578V18.8281H7.65625V14.9578C7.65625 14.8431 7.6226 14.731 7.55947 14.6352C7.49634 14.5395 7.4065 14.4644 7.30109 14.4192L4.00969 13.0086C4.09391 12.8034 4.14063 12.5789 4.14063 12.3438V11.7902L7.64422 13.2917C8.07422 13.7872 8.70797 14.1016 9.41406 14.1016C10.1203 14.1016 10.7539 13.7872 11.1839 13.2916L14.6875 11.79V12.3438C14.6875 12.5789 14.7344 12.8034 14.8184 13.0086L11.527 14.4192C11.4216 14.4644 11.3318 14.5395 11.2687 14.6352C11.2055 14.731 11.1719 14.8431 11.1719 14.9578ZM15.2734 15.2734C15.118 15.2734 14.969 15.3352 14.8591 15.4451C14.7492 15.5549 14.6875 15.704 14.6875 15.8594V18.2422C14.6873 18.3975 14.6256 18.5465 14.5157 18.6563C14.4059 18.7662 14.2569 18.828 14.1016 18.8281H12.3438V15.3442L15.3711 14.0467C15.4573 14.0098 15.5333 13.9527 15.5927 13.8802C15.9537 14.0818 16.3745 14.1488 16.7803 14.0692C16.9921 14.4903 17.2383 14.8931 17.5166 15.2734H15.2734ZM6.48438 0C7.77672 0 8.82813 1.05141 8.82813 2.34375C8.82813 3.63609 7.77672 4.6875 6.48438 4.6875C5.19203 4.6875 4.14063 3.63609 4.14063 2.34375C4.14063 1.05141 5.19203 0 6.48438 0ZM6.48438 3.51562C7.13047 3.51562 7.65625 2.99 7.65625 2.34375C7.65625 1.6975 7.13047 1.17188 6.48438 1.17188C5.83828 1.17188 5.3125 1.6975 5.3125 2.34375C5.3125 2.99 5.83828 3.51562 6.48438 3.51562ZM13.5156 1.17188C14.808 1.17188 15.8594 2.22328 15.8594 3.51562C15.8594 4.80797 14.808 5.85938 13.5156 5.85938C12.2233 5.85938 11.1719 4.80797 11.1719 3.51562C11.1719 2.22328 12.2233 1.17188 13.5156 1.17188ZM13.5156 4.6875C14.1617 4.6875 14.6875 4.16188 14.6875 3.51562C14.6875 2.86937 14.1617 2.34375 13.5156 2.34375C12.8695 2.34375 12.3438 2.86937 12.3438 3.51562C12.3438 4.16188 12.8695 4.6875 13.5156 4.6875Z" fill="#4767E7"/>
</g>
<defs>
<clipPath id="clip0_1645_569">
<rect width="20" height="20" fill="white"/>
</clipPath>
</defs>
</svg>

