<svg width="24" height="21" viewBox="0 0 24 21" fill="none" xmlns="http://www.w3.org/2000/svg">
<path d="M5.85203 11.494C5.32232 11.4934 4.81447 11.2827 4.4399 10.9081C4.06534 10.5335 3.85463 10.0257 3.854 9.49598V7.8408C3.854 7.31089 4.06451 6.80269 4.43921 6.42798C4.81392 6.05328 5.32212 5.84277 5.85203 5.84277C6.38194 5.84277 6.89015 6.05328 7.26485 6.42798C7.63956 6.80269 7.85006 7.31089 7.85006 7.8408V9.49598C7.84944 10.0257 7.63873 10.5335 7.26416 10.9081C6.8896 11.2827 6.38175 11.4934 5.85203 11.494ZM5.85203 6.56396C5.51045 6.56458 5.18303 6.70055 4.9415 6.94209C4.69996 7.18363 4.56399 7.51104 4.56336 7.85263V9.5078C4.56336 9.84957 4.69913 10.1774 4.94081 10.419C5.18248 10.6607 5.51026 10.7965 5.85203 10.7965C6.19381 10.7965 6.52159 10.6607 6.76326 10.419C7.00493 10.1774 7.1407 9.84957 7.1407 9.5078V7.85263C7.14008 7.51104 7.00411 7.18363 6.76257 6.94209C6.52103 6.70055 6.19362 6.56458 5.85203 6.56396Z" fill="#4767E7" stroke="#4767E7" stroke-width="0.5"/>
<path d="M8.59763 13.369V18.8453H1.47803V13.369C1.4799 12.7883 1.71143 12.2318 2.12209 11.8212C2.53275 11.4105 3.08919 11.179 3.66995 11.1771H6.40808L11.8843 6.24707L11.9103 6.32274C12.0723 6.80931 12.1182 7.32704 12.0443 7.83451C11.9704 8.34199 11.7788 8.82513 11.4847 9.2453L8.59763 13.369Z" stroke="#4767E7" stroke-width="0.5"/>
<path d="M8.59733 19.2H1.47773C1.38366 19.2 1.29345 19.1627 1.22693 19.0962C1.16041 19.0296 1.12305 18.9394 1.12305 18.8454V13.3691C1.12367 12.6939 1.39218 12.0465 1.86962 11.5691C2.34707 11.0916 2.99444 10.8231 3.66965 10.8225H6.27063L11.6476 5.98467C11.6913 5.9457 11.7439 5.918 11.8008 5.90399C11.8576 5.88998 11.9171 5.89008 11.9739 5.90428C12.0293 5.92194 12.0797 5.95262 12.1209 5.99376C12.162 6.0349 12.1927 6.0853 12.2103 6.14073L12.234 6.21403C12.412 6.75365 12.462 7.3273 12.3799 7.88956C12.2978 8.45182 12.0859 8.98724 11.7611 9.45344L8.95201 13.4802V18.8454C8.95201 18.8919 8.94284 18.9381 8.92501 18.9811C8.90719 19.0241 8.88106 19.0632 8.84813 19.0962C8.81519 19.1291 8.77609 19.1552 8.73306 19.173C8.69003 19.1909 8.64391 19.2 8.59733 19.2ZM1.83241 18.4907H8.24265V13.3691C8.2428 13.2961 8.26597 13.2249 8.30886 13.1658L11.1936 9.04202C11.625 8.4222 11.8019 7.66041 11.6878 6.91394L6.64423 11.442C6.5789 11.4996 6.49488 11.5316 6.40778 11.5319H3.66965C3.18238 11.5319 2.71507 11.7254 2.37052 12.07C2.02597 12.4145 1.83241 12.8818 1.83241 13.3691V18.4907Z" fill="#4767E7" stroke="#4767E7" stroke-width="0.5"/>
<path d="M3.94159 19.2C3.84753 19.2 3.75731 19.1626 3.6908 19.0961C3.62428 19.0296 3.58691 18.9394 3.58691 18.8453V13.9153C3.58691 13.8212 3.62428 13.731 3.6908 13.6645C3.75731 13.598 3.84753 13.5606 3.94159 13.5606C4.03566 13.5606 4.12588 13.598 4.19239 13.6645C4.25891 13.731 4.29627 13.8212 4.29627 13.9153V18.8453C4.29627 18.9394 4.25891 19.0296 4.19239 19.0961C4.12588 19.1626 4.03566 19.2 3.94159 19.2ZM18.1477 11.494C17.618 11.4934 17.1101 11.2827 16.7356 10.9081C16.361 10.5335 16.1503 10.0257 16.1497 9.49598V7.8408C16.1497 7.31089 16.3602 6.80269 16.7349 6.42798C17.1096 6.05328 17.6178 5.84277 18.1477 5.84277C18.6776 5.84277 19.1858 6.05328 19.5605 6.42798C19.9352 6.80269 20.1457 7.31089 20.1457 7.8408V9.49598C20.1451 10.0257 19.9344 10.5335 19.5598 10.9081C19.1853 11.2827 18.6774 11.4934 18.1477 11.494ZM18.1477 6.56396C17.8061 6.56458 17.4787 6.70055 17.2372 6.94209C16.9956 7.18363 16.8597 7.51104 16.859 7.85263V9.5078C16.859 9.84957 16.9948 10.1774 17.2365 10.419C17.4781 10.6607 17.8059 10.7965 18.1477 10.7965C18.4895 10.7965 18.8173 10.6607 19.0589 10.419C19.3006 10.1774 19.4364 9.84957 19.4364 9.5078V7.85263C19.4357 7.51104 19.2998 7.18363 19.0582 6.94209C18.8167 6.70055 18.4893 6.56458 18.1477 6.56396Z" fill="#4767E7" stroke="#4767E7" stroke-width="0.5"/>
<path d="M15.4024 13.369V18.8453H22.522V13.369C22.5201 12.7883 22.2886 12.2318 21.8779 11.8212C21.4672 11.4105 20.9108 11.179 20.33 11.1771H17.5919L12.1157 6.24707L12.0896 6.32274C11.9277 6.80931 11.8818 7.32704 11.9557 7.83451C12.0296 8.34199 12.2212 8.82513 12.5153 9.2453L15.4024 13.369Z" stroke="#4767E7" stroke-width="0.5"/>
<path d="M22.522 19.2001H15.4024C15.3083 19.2001 15.2181 19.1627 15.1516 19.0962C15.0851 19.0297 15.0477 18.9395 15.0477 18.8454V13.4803L12.2363 9.44878C11.9114 8.98258 11.6996 8.44715 11.6175 7.88489C11.5354 7.32263 11.5854 6.74898 11.7634 6.20937L11.787 6.13607C11.8047 6.08064 11.8354 6.03024 11.8765 5.9891C11.9176 5.94796 11.968 5.91728 12.0235 5.89962C12.0806 5.88458 12.1406 5.88406 12.198 5.8981C12.2554 5.91214 12.3084 5.94029 12.3522 5.98001L17.7291 10.8226H20.3301C21.0053 10.8232 21.6527 11.0917 22.1301 11.5691C22.6076 12.0466 22.8761 12.694 22.8767 13.3692V18.8454C22.8767 18.9395 22.8393 19.0297 22.7728 19.0962C22.7063 19.1627 22.6161 19.2001 22.522 19.2001ZM15.7571 18.4908H22.1673V13.3692C22.1673 12.8819 21.9738 12.4146 21.6292 12.0701C21.2847 11.7255 20.8173 11.5319 20.3301 11.5319H17.592C17.5049 11.5316 17.4208 11.4997 17.3555 11.4421L12.312 6.90218C12.1979 7.64866 12.3748 8.41045 12.8061 9.03026L15.6909 13.1706C15.7338 13.2297 15.7569 13.3008 15.7571 13.3739V18.4908Z" fill="#4767E7" stroke="#4767E7" stroke-width="0.5"/>
<path d="M20.0581 19.1999C19.964 19.1999 19.8738 19.1625 19.8073 19.096C19.7408 19.0295 19.7034 18.9393 19.7034 18.8452V13.9152C19.7034 13.8211 19.7408 13.7309 19.8073 13.6644C19.8738 13.5978 19.964 13.5605 20.0581 13.5605C20.1522 13.5605 20.2424 13.5978 20.3089 13.6644C20.3754 13.7309 20.4128 13.8211 20.4128 13.9152V18.8452C20.4128 18.9393 20.3754 19.0295 20.3089 19.096C20.2424 19.1625 20.1522 19.1999 20.0581 19.1999ZM11.9998 3.47575C11.9057 3.47575 11.8155 3.43838 11.749 3.37186C11.6825 3.30535 11.6451 3.21513 11.6451 3.12107V0.756535C11.6451 0.662468 11.6825 0.572254 11.749 0.505739C11.8155 0.439223 11.9057 0.401855 11.9998 0.401855C12.0938 0.401855 12.184 0.439223 12.2506 0.505739C12.3171 0.572254 12.3544 0.662468 12.3544 0.756535V3.12107C12.3544 3.21513 12.3171 3.30535 12.2506 3.37186C12.184 3.43838 12.0938 3.47575 11.9998 3.47575ZM9.49573 4.0456C9.44962 4.04675 9.40374 4.03878 9.36073 4.02214C9.31772 4.00551 9.27841 3.98053 9.24509 3.94865L8.33947 3.0454C8.27111 2.97861 8.23209 2.88741 8.23098 2.79185C8.22987 2.69629 8.26677 2.6042 8.33356 2.53585C8.40035 2.46749 8.49155 2.42847 8.58711 2.42736C8.68267 2.42625 8.77476 2.46315 8.84312 2.52993L9.74873 3.43319C9.81458 3.49999 9.85149 3.59002 9.85149 3.68383C9.85149 3.77763 9.81458 3.86766 9.74873 3.93447C9.71623 3.96909 9.67706 3.99678 9.63358 4.01587C9.5901 4.03497 9.54321 4.04508 9.49573 4.0456ZM14.5038 4.0456C14.4573 4.04694 14.411 4.03906 14.3676 4.02242C14.3242 4.00578 14.2845 3.98071 14.2508 3.94865C14.185 3.88185 14.148 3.79181 14.148 3.69801C14.148 3.60421 14.185 3.51418 14.2508 3.44737L15.1564 2.52993C15.2229 2.46315 15.3132 2.4255 15.4074 2.42528C15.5016 2.42506 15.5921 2.46228 15.6589 2.52875C15.7257 2.59523 15.7633 2.68551 15.7635 2.77974C15.7638 2.87397 15.7265 2.96443 15.6601 3.03122L14.7544 3.94865C14.7211 3.98053 14.6818 4.00551 14.6388 4.02214C14.5958 4.03878 14.5499 4.04675 14.5038 4.0456Z" fill="#4767E7" stroke="#4767E7" stroke-width="0.5"/>
</svg>
