<svg width="20" height="20" viewBox="0 0 20 20" fill="none" xmlns="http://www.w3.org/2000/svg">
<path d="M10.0165 3.71173C14.2565 3.81393 18.3787 5.23653 19.3073 6.99743C20.3879 9.04643 19.5142 13.9516 17.3065 15.4463C15.9951 16.3341 12.7424 16.8913 11.6212 16.342C11.4364 16.2513 11.2578 16.1487 11.0864 16.0349C10.9051 15.9151 10.4112 15.5423 10.3254 15.4871C10.1587 15.3796 10.042 15.3389 9.89826 15.3389C9.69396 15.3389 9.55366 15.41 9.31886 15.6279C9.26816 15.6751 8.94646 15.9938 8.83436 16.0963C8.76773 16.1575 8.69937 16.2168 8.62936 16.274C7.65626 17.0673 4.47436 16.7682 2.88056 15.549C0.121356 13.4385 -0.652943 9.04583 0.726156 6.95123C1.92546 5.12983 6.03466 3.61573 10.0165 3.71173ZM9.98976 4.81773C6.35216 4.73003 2.60456 6.11083 1.65076 7.55933C0.592656 9.16633 1.25276 12.9107 3.55316 14.6703C4.19446 15.1608 5.15386 15.4765 6.17156 15.5722C7.00986 15.651 7.76456 15.5512 7.92976 15.4166C7.98136 15.3745 8.03316 15.3296 8.08706 15.2802C8.17846 15.1966 8.49616 14.8818 8.56566 14.8173C8.98636 14.4267 9.36936 14.2325 9.89826 14.2325C10.2764 14.2325 10.5923 14.3427 10.9252 14.5572C11.0553 14.641 11.5559 15.0188 11.6966 15.1118C11.8286 15.1996 11.9661 15.2787 12.1084 15.3486C12.8294 15.7018 15.6754 15.2143 16.6858 14.5302C18.397 13.3716 19.1598 9.08983 18.3282 7.51323C17.6436 6.21513 13.8648 4.91103 9.98976 4.81753V4.81773Z" fill="#4767E7"/>
<path d="M6.53407 9.49399C6.24807 9.33089 5.57527 9.28859 4.87727 9.39529C4.55827 9.44399 4.26957 9.51899 4.07437 9.60119C4.05557 9.60919 4.03817 9.61689 4.02237 9.62429C4.08017 10.572 4.81637 11.222 5.98617 11.5029C6.50807 11.6283 7.05517 11.6545 7.47117 11.5853C7.62237 11.5602 7.74297 11.5241 7.82117 11.4857C7.75767 10.7128 7.17667 9.86119 6.53407 9.49399ZM7.08307 8.53329C8.09127 9.10959 8.93377 10.3944 8.93147 11.6733C8.83997 12.6806 7.25197 12.9447 5.72757 12.5786C4.02907 12.1706 2.86637 11.0672 2.91297 9.42779C2.91297 8.33529 5.92797 7.87459 7.08297 8.53329H7.08307ZM12.7826 8.53359C13.9381 7.87459 16.9531 8.33529 16.9529 9.41219C16.9997 11.0672 15.8369 12.1707 14.1385 12.5786C12.6141 12.9447 11.0261 12.6806 10.9324 11.6234C10.9324 10.3944 11.7748 9.10959 12.7826 8.53359ZM15.7916 9.60119C15.5965 9.51899 15.3079 9.44399 14.9888 9.39519C14.2908 9.28859 13.6179 9.33089 13.3316 9.49419C12.6778 9.86779 12.0874 10.7438 12.04 11.4832C12.118 11.5225 12.2405 11.5596 12.395 11.5853C12.8109 11.6545 13.358 11.6283 13.8799 11.5029C15.0446 11.2232 15.7795 10.5777 15.8427 9.62389C15.8258 9.61598 15.8088 9.60841 15.7917 9.60119H15.7916Z" fill="#4767E7"/>
</svg>
