<svg width="20" height="20" viewBox="0 0 20 20" fill="none" xmlns="http://www.w3.org/2000/svg">
<g clip-path="url(#clip0_2020_6326)">
<path d="M10 15.3125C8.875 15.3125 7.96875 14.4062 7.96875 13.2812C7.96875 13.0625 8 12.8594 8.0625 12.6562C8.14062 12.4062 8.40625 12.2812 8.65625 12.3594C8.90625 12.4375 9.03125 12.7031 8.95312 12.9531C8.92187 13.0469 8.90625 13.1719 8.90625 13.2812C8.90625 13.8906 9.39062 14.375 10 14.375C10.6094 14.375 11.0938 13.8906 11.0938 13.2812C11.0938 12.6719 10.6094 12.1875 10 12.1875C9.73438 12.1875 9.53125 11.9844 9.53125 11.7188C9.53125 11.4531 9.73438 11.25 10 11.25C11.125 11.25 12.0312 12.1562 12.0312 13.2812C12.0312 14.4062 11.125 15.3125 10 15.3125Z" fill="#4767E7"/>
<path d="M6.875 8.4375C6.875 8.6447 6.95731 8.84341 7.10382 8.98993C7.25034 9.13644 7.44905 9.21875 7.65625 9.21875C7.86345 9.21875 8.06216 9.13644 8.20868 8.98993C8.35519 8.84341 8.4375 8.6447 8.4375 8.4375C8.4375 8.2303 8.35519 8.03159 8.20868 7.88507C8.06216 7.73856 7.86345 7.65625 7.65625 7.65625C7.44905 7.65625 7.25034 7.73856 7.10382 7.88507C6.95731 8.03159 6.875 8.2303 6.875 8.4375Z" fill="#4767E7"/>
<path d="M11.5625 8.4375C11.5625 8.6447 11.6448 8.84341 11.7913 8.98993C11.9378 9.13644 12.1365 9.21875 12.3438 9.21875C12.551 9.21875 12.7497 9.13644 12.8962 8.98993C13.0427 8.84341 13.125 8.6447 13.125 8.4375C13.125 8.2303 13.0427 8.03159 12.8962 7.88507C12.7497 7.73856 12.551 7.65625 12.3438 7.65625C12.1365 7.65625 11.9378 7.73856 11.7913 7.88507C11.6448 8.03159 11.5625 8.2303 11.5625 8.4375Z" fill="#4767E7"/>
<path d="M6.71875 14.2188C6.64062 14.2188 6.54688 14.2031 6.46875 14.1562C5.1875 13.3594 4.21875 12.1719 3.70312 10.7812C2.4375 10.75 1.40625 9.71875 1.40625 8.4375C1.40625 7.15625 2.4375 6.125 3.70312 6.09375C4.29688 4.5 5.5 3.15625 7.04688 2.40625C7.28125 2.29688 7.5625 2.39062 7.67188 2.625C7.78125 2.85938 7.6875 3.14062 7.45312 3.25C6.03125 3.9375 4.9375 5.21875 4.48438 6.71875C4.42188 6.9375 4.20312 7.07812 3.96875 7.04688C3.875 7.03125 3.8125 7.03125 3.75 7.03125C2.96875 7.03125 2.34375 7.65625 2.34375 8.4375C2.34375 9.21875 2.96875 9.84375 3.75 9.84375C3.8125 9.84375 3.875 9.84375 3.95312 9.82812C4.1875 9.79688 4.40625 9.9375 4.46875 10.1562C4.875 11.4844 5.76562 12.625 6.95312 13.3594C7.17188 13.5 7.23438 13.7812 7.10938 14C7.03125 14.1406 6.875 14.2188 6.71875 14.2188ZM13.2812 14.2188C13.125 14.2188 12.9688 14.1406 12.875 14C12.7344 13.7812 12.8125 13.4844 13.0312 13.3594C14.2188 12.625 15.1094 11.4844 15.5156 10.1562C15.5781 9.9375 15.7969 9.79688 16.0312 9.82812C16.1094 9.84375 16.1719 9.84375 16.2344 9.84375C17.0156 9.84375 17.6406 9.21875 17.6406 8.4375C17.6406 7.65625 17.0156 7.03125 16.2344 7.03125C16.1719 7.03125 16.1094 7.03125 16.0312 7.04688C15.7969 7.07812 15.5781 6.9375 15.5156 6.71875C14.7656 4.28125 12.5469 2.65625 10 2.65625C9.1875 2.65625 7.96875 2.10938 7.96875 0.625C7.96875 0.359375 8.17188 0.15625 8.4375 0.15625C8.70312 0.15625 8.90625 0.359375 8.90625 0.625C8.90625 1.65625 9.8125 1.71875 10 1.71875C12.8281 1.71875 15.3281 3.46875 16.2969 6.09375C17.5625 6.125 18.5938 7.15625 18.5938 8.4375C18.5938 9.71875 17.5625 10.75 16.2969 10.7812C15.7813 12.1719 14.8125 13.3594 13.5312 14.1562C13.4531 14.2031 13.375 14.2188 13.2812 14.2188Z" fill="#4767E7"/>
<path d="M13.1251 19.8438C12.8595 19.8438 12.6564 19.6406 12.6564 19.375V18.2656C12.6564 18.0625 12.7814 17.875 12.9845 17.8125C15.0314 17.1719 16.8282 15.8438 18.047 14.1094C18.1251 14 18.1564 13.875 18.1251 13.75C18.0939 13.625 18.0157 13.5156 17.9064 13.4531L17.8751 13.4375C17.672 13.3281 17.4064 13.3906 17.2657 13.5781C15.6251 15.9375 12.9064 17.3438 10.0001 17.3438C7.09385 17.3438 4.3751 15.9375 2.71885 13.5781C2.57823 13.375 2.3126 13.3125 2.10948 13.4375L2.07823 13.4531C1.96885 13.5156 1.89073 13.625 1.85948 13.75C1.82823 13.875 1.85948 14.0156 1.9376 14.1094C3.15635 15.8594 4.96885 17.1719 7.0001 17.8125C7.1876 17.875 7.32823 18.0625 7.32823 18.2656V19.375C7.32823 19.6406 7.1251 19.8438 6.85948 19.8438C6.59385 19.8438 6.39073 19.6406 6.39073 19.375V18.6094C4.28135 17.8594 2.4376 16.4688 1.15635 14.6563C0.921976 14.3281 0.843851 13.9219 0.937601 13.5469C1.03135 13.1719 1.26573 12.8281 1.60948 12.6406L1.64073 12.625C2.26573 12.2813 3.04698 12.4531 3.46885 13.0469C4.96885 15.1563 7.40635 16.4063 10.0001 16.4063C12.5939 16.4063 15.0314 15.1563 16.5157 13.0469C16.9376 12.4531 17.7189 12.2656 18.3439 12.625L18.3751 12.6406C18.7189 12.8281 18.9689 13.1563 19.047 13.5469C19.1407 13.9375 19.047 14.3438 18.8282 14.6563C17.547 16.4688 15.7032 17.875 13.5939 18.6094V19.375C13.5939 19.6406 13.3907 19.8438 13.1251 19.8438Z" fill="#4767E7"/>
</g>
<defs>
<clipPath id="clip0_2020_6326">
<rect width="20" height="20" fill="white"/>
</clipPath>
</defs>
</svg>
