<svg width="20" height="20" viewBox="0 0 20 20" fill="none" xmlns="http://www.w3.org/2000/svg">
<path d="M18.0988 6.7692L18.1 6.78352C18.0606 10.2518 16.0831 12.8278 14.0327 14.5506C13.0086 15.4111 11.98 16.0462 11.1993 16.4591C10.809 16.6654 10.4845 16.8142 10.2577 16.9068C10.193 16.9332 10.1382 16.9543 10.0936 16.9704C4.53251 14.1456 3.15071 11.1585 3.03352 10.8539L3.02274 10.8258L3.00868 10.7993C1.58998 8.1213 1.86413 6.31262 2.45257 5.17569C2.75427 4.59277 3.15235 4.1594 3.50074 3.86219C3.6746 3.71387 3.8339 3.60135 3.95878 3.52278C4.0212 3.4835 4.07383 3.45347 4.11412 3.43213C4.13424 3.42147 4.15042 3.41344 4.1625 3.40775C4.174 3.40234 4.17953 3.40011 4.17977 3.40001L4.19095 3.39571L4.20201 3.39083C5.71156 2.72485 6.9073 3.10428 7.75167 3.65608C8.18039 3.93625 8.51658 4.2613 8.74616 4.51814C8.79222 4.56967 8.83373 4.61817 8.87059 4.66265L7.83842 5.99362L7.57861 6.32864L7.86665 6.63973L9.24641 8.12988L8.17054 9.52851L7.91048 9.86659L8.20334 10.1767L9.6122 11.6684L8.60211 12.9975L8.28025 13.421L8.72283 13.716L8.92283 13.8494L9.28078 14.088L9.57016 13.7697L11.2368 11.9364L11.5113 11.6345L11.2705 11.305L10.2442 9.90048L11.5708 8.43567L11.8485 8.12903L11.5993 7.79882L10.5178 6.36584L11.8673 4.90612L12.153 4.59718L11.8974 4.26296L11.7278 4.04118C12.9107 2.93035 13.983 2.98094 14.3715 3.02951L14.3814 3.03074L14.3913 3.03158C16.1592 3.1814 17.0663 4.115 17.5521 5.01293C17.7996 5.47053 17.9382 5.92246 18.0144 6.26173C18.0524 6.43054 18.0744 6.56913 18.0867 6.66344C18.0929 6.71053 18.0966 6.74637 18.0988 6.7692Z" fill="#4767E7" stroke="#4767E7"/>
</svg>
