<svg width="20" height="20" viewBox="0 0 20 20" fill="none" xmlns="http://www.w3.org/2000/svg">
<g clip-path="url(#clip0_2049_3294)">
<path d="M9.41875 0.369995C4.2125 0.369995 0 4.035 0 8.555C0 11.3287 1.61 13.795 4.04125 15.3025V17.8375C4.04125 18.1787 4.28125 18.385 4.55625 18.385C4.65153 18.3831 4.74512 18.3596 4.83 18.3162L7.39875 16.6037C8.05 16.7412 8.70125 16.7762 9.385 16.7762C14.5912 16.7762 18.8025 13.11 18.8025 8.59C18.8375 4.035 14.625 0.369995 9.41875 0.369995ZM9.41875 15.405C8.83625 15.405 8.25375 15.3362 7.6725 15.2337L7.39875 15.165C7.2203 15.1325 7.03616 15.1691 6.88375 15.2675L6.645 15.4387L5.41125 16.2625V14.925C5.41167 14.8063 5.38023 14.6896 5.32021 14.5871C5.26019 14.4847 5.17378 14.4002 5.07 14.3425L4.7275 14.1375C2.60375 12.87 1.3375 10.7812 1.3375 8.59C1.3375 4.8225 4.93375 1.775 9.38625 1.775C13.84 1.775 17.4337 4.8225 17.4337 8.59C17.4687 12.3225 13.8375 15.405 9.41875 15.405ZM4.075 8.795C4.06996 8.94647 4.09544 9.09741 4.14993 9.23883C4.20442 9.38025 4.2868 9.50927 4.39217 9.61821C4.49754 9.72714 4.62374 9.81377 4.76328 9.87293C4.90281 9.93209 5.05282 9.96257 5.20437 9.96257C5.35593 9.96257 5.50594 9.93209 5.64547 9.87293C5.78501 9.81377 5.91121 9.72714 6.01658 9.61821C6.12195 9.50927 6.20433 9.38025 6.25882 9.23883C6.31331 9.09741 6.33879 8.94647 6.33375 8.795C6.324 8.50197 6.20074 8.2242 5.99001 8.02037C5.77927 7.81653 5.49756 7.70257 5.20437 7.70257C4.91119 7.70257 4.62948 7.81653 4.41874 8.02037C4.20801 8.2242 4.08475 8.50197 4.075 8.795ZM8.3575 8.795C8.3575 9.09469 8.47655 9.38211 8.68847 9.59403C8.90039 9.80594 9.18781 9.925 9.4875 9.925C9.78719 9.925 10.0746 9.80594 10.2865 9.59403C10.4984 9.38211 10.6175 9.09469 10.6175 8.795C10.6175 8.4953 10.4984 8.20788 10.2865 7.99596C10.0746 7.78405 9.78719 7.665 9.4875 7.665C9.18781 7.665 8.90039 7.78405 8.68847 7.99596C8.47655 8.20788 8.3575 8.4953 8.3575 8.795ZM12.5013 8.795C12.4962 8.94647 12.5217 9.09741 12.5762 9.23883C12.6307 9.38025 12.713 9.50927 12.8184 9.61821C12.9238 9.72714 13.05 9.81377 13.1895 9.87293C13.3291 9.93209 13.4791 9.96257 13.6306 9.96257C13.7822 9.96257 13.9322 9.93209 14.0717 9.87293C14.2113 9.81377 14.3375 9.72714 14.4428 9.61821C14.5482 9.50927 14.6306 9.38025 14.6851 9.23883C14.7396 9.09741 14.765 8.94647 14.76 8.795C14.7502 8.50197 14.627 8.2242 14.4163 8.02037C14.2055 7.81653 13.9238 7.70257 13.6306 7.70257C13.3374 7.70257 13.0557 7.81653 12.845 8.02037C12.6343 8.2242 12.511 8.50197 12.5013 8.795ZM18.9887 10.565L18.9262 10.4887C18.7776 11.0465 18.5685 11.5864 18.3025 12.0987C18.315 12.125 18.3287 12.1475 18.3387 12.1725C18.5187 12.585 18.615 13.0312 18.615 13.4962C18.615 14.7275 17.9038 15.9025 16.71 16.6137L16.52 16.7287C16.4612 16.7609 16.4122 16.8083 16.3782 16.8659C16.3441 16.9235 16.3261 16.9893 16.3262 17.0562V17.8075L15.6337 17.345L15.4988 17.25C15.4141 17.1939 15.3109 17.1733 15.2112 17.1925L15.0575 17.23C13.9945 17.4393 12.8926 17.3062 11.91 16.85C11.2572 17.0019 10.592 17.0943 9.9225 17.1262C10.9938 18.0487 12.4675 18.62 14.0963 18.62C14.5288 18.62 14.9375 18.5975 15.3463 18.5125L16.9638 19.5887C17.0168 19.6159 17.0754 19.6304 17.135 19.6312C17.3088 19.6312 17.4588 19.5012 17.4588 19.2875V17.6925C18.9863 16.7425 20 15.1887 20 13.445C20 12.3775 19.6275 11.3862 18.9887 10.565Z" fill="#4767E7"/>
</g>
<defs>
<clipPath id="clip0_2049_3294">
<rect width="20" height="20" fill="white"/>
</clipPath>
</defs>
</svg>
