<svg width="24" height="24" viewBox="0 0 24 24" fill="none" xmlns="http://www.w3.org/2000/svg">
<path d="M5.23852 9.72257C5.1033 9.72258 4.97061 9.68589 4.85461 9.6164C4.49906 9.40429 4.39242 8.93812 4.59984 8.57976C5.35443 7.27352 6.4388 6.18833 7.74447 5.43276C9.05013 4.67718 10.5313 4.2777 12.0398 4.27429C12.4535 4.27429 12.8046 4.59585 12.8133 5.00953C12.8152 5.10925 12.7973 5.20837 12.7605 5.30108C12.7237 5.39378 12.6687 5.47821 12.5989 5.54943C12.5291 5.62064 12.4457 5.67721 12.3537 5.71582C12.2618 5.75443 12.163 5.77431 12.0633 5.77429C10.8115 5.77664 9.58228 6.10788 8.49881 6.73485C7.41534 7.36181 6.51564 8.26249 5.88984 9.34664C5.82398 9.46109 5.72907 9.55613 5.6147 9.62214C5.50034 9.68815 5.37057 9.7228 5.23852 9.72257ZM18.8869 9.72234C18.755 9.72253 18.6255 9.68797 18.5112 9.62213C18.397 9.5563 18.3022 9.46152 18.2363 9.34734C17.9211 8.80038 17.535 8.29757 17.0878 7.85203C16.9469 7.71161 16.8676 7.52097 16.8673 7.32206C16.8669 7.12315 16.9456 6.93225 17.0861 6.79136C17.2265 6.65048 17.4171 6.57114 17.616 6.57081C17.8149 6.57048 18.0058 6.64918 18.1467 6.7896C18.6877 7.32873 19.1549 7.93715 19.5361 8.59898C19.6019 8.71297 19.6366 8.84228 19.6366 8.9739C19.6366 9.10553 19.602 9.23484 19.5362 9.34885C19.4704 9.46286 19.3757 9.55754 19.2618 9.62339C19.1478 9.68923 19.0185 9.72393 18.8869 9.72398V9.72234ZM22.5 12.589C22.4951 11.1448 21.3 9.98601 19.8558 9.98601C19.6654 9.98601 19.4829 10.0616 19.3483 10.1962C19.2137 10.3308 19.1381 10.5133 19.1381 10.7037V10.7557C19.1381 10.9494 19.2151 11.1351 19.352 11.2721C19.489 11.4091 19.6747 11.486 19.8684 11.486C20.4778 11.486 20.989 11.9681 21 12.5775C21.0027 12.7253 20.9759 12.8721 20.9212 13.0094C20.8665 13.1468 20.7851 13.2718 20.6816 13.3773C20.578 13.4829 20.4545 13.5667 20.3183 13.624C20.182 13.6812 20.0357 13.7108 19.8879 13.7109C19.6778 13.7107 19.4744 13.7845 19.3134 13.9195C19.1524 14.0544 19.0442 14.2419 19.0078 14.4487L19.0043 14.4691C18.2777 17.6801 15.3586 20.0098 12.0616 20.0098C8.76469 20.0098 5.84484 17.6796 5.11899 14.4691L5.11125 14.4279C5.07365 14.2266 4.9669 14.0448 4.80945 13.9139C4.652 13.7829 4.45375 13.7112 4.24899 13.7109C3.63961 13.7109 3.12844 13.2288 3.11742 12.6194C3.11487 12.4718 3.14174 12.325 3.19646 12.1878C3.25117 12.0506 3.33265 11.9257 3.43613 11.8203C3.53961 11.7149 3.66304 11.6311 3.79921 11.5739C3.93539 11.5167 4.08159 11.4871 4.2293 11.4869C4.42821 11.4869 4.61898 11.4079 4.75963 11.2673C4.90028 11.1266 4.9793 10.9359 4.9793 10.7369V10.7046C4.9793 10.6104 4.96073 10.517 4.92467 10.43C4.8886 10.3429 4.83574 10.2638 4.7691 10.1971C4.70246 10.1305 4.62335 10.0776 4.53628 10.0416C4.44921 10.0055 4.35589 9.98695 4.26164 9.98695C2.81602 9.98695 1.62024 11.1478 1.61719 12.5934C1.6167 13.2034 1.82937 13.7944 2.21843 14.2643C2.60749 14.7341 3.14849 15.0532 3.74789 15.1664C4.2469 16.9892 5.33108 18.5974 6.83358 19.7437C8.33608 20.89 10.1736 21.5108 12.0635 21.5105C13.9533 21.5102 15.7907 20.889 17.2929 19.7422C18.795 18.5955 19.8788 16.987 20.3773 15.1641C20.9756 15.0491 21.515 14.729 21.9025 14.2589C22.29 13.7888 22.5013 13.1982 22.5 12.589Z" fill="#4767E7"/>
<path d="M13.0781 7.91953C12.8884 7.91953 12.7065 7.84417 12.5723 7.71002C12.4382 7.57587 12.3628 7.39393 12.3628 7.20422V7.13391C12.363 6.94436 12.4385 6.76265 12.5726 6.62871C12.7068 6.49477 12.8886 6.41953 13.0781 6.41953H13.0882C13.9308 6.41953 14.6351 5.75063 14.6465 4.90805C14.6493 4.70474 14.6117 4.5029 14.5358 4.31425C14.4599 4.1256 14.3474 3.9539 14.2046 3.8091C14.0619 3.66431 13.8918 3.5493 13.7042 3.47076C13.5167 3.39221 13.3154 3.3517 13.1121 3.35156H13.0781C12.8884 3.35156 12.7065 3.2762 12.5723 3.14205C12.4382 3.00791 12.3628 2.82596 12.3628 2.63625V2.56594C12.363 2.37639 12.4385 2.19469 12.5726 2.06074C12.7068 1.9268 12.8886 1.85156 13.0781 1.85156H13.1128C13.5124 1.85208 13.908 1.93146 14.2769 2.08516C14.6458 2.23885 14.9808 2.46383 15.2625 2.7472C15.5443 3.03058 15.7674 3.36678 15.919 3.73653C16.0706 4.10629 16.1478 4.50233 16.1461 4.90195C16.1369 6.5768 14.7522 7.91953 13.0781 7.91953Z" fill="#4767E7"/>
<path d="M9.18822 10.7993H9.22291C9.60197 10.7993 9.7915 10.9888 9.7915 11.3679V12.7969C9.7915 13.176 9.60197 13.3655 9.22291 13.3655H9.18822C8.80916 13.3655 8.61963 13.176 8.61963 12.7969V11.3679C8.61963 10.9888 8.80916 10.7993 9.18822 10.7993Z" fill="#4767E7"/>
<path d="M14.8225 10.7993H14.8572C15.2362 10.7993 15.4258 10.9888 15.4258 11.3679V12.7969C15.4258 13.176 15.2362 13.3655 14.8572 13.3655H14.8225C14.4434 13.3655 14.2539 13.176 14.2539 12.7969V11.3679C14.2539 10.9888 14.4434 10.7993 14.8225 10.7993Z" fill="#4767E7"/>
<path d="M12.0095 16.9879C11.1965 16.9879 10.4364 16.5729 9.97584 15.8777C9.93335 15.8135 9.90392 15.7417 9.88921 15.6661C9.87451 15.5906 9.87483 15.5129 9.89015 15.4375C9.90547 15.3621 9.9355 15.2904 9.97851 15.2266C10.0215 15.1628 10.0767 15.1081 10.1408 15.0656C10.205 15.0231 10.2769 14.9937 10.3524 14.979C10.428 14.9643 10.5057 14.9646 10.5811 14.9799C10.6565 14.9952 10.7281 15.0253 10.7919 15.0683C10.8558 15.1113 10.9105 15.1664 10.953 15.2306C11.1958 15.5972 11.5907 15.8165 12.0095 15.8165C12.4349 15.8165 12.8333 15.5925 13.0755 15.217C13.1615 15.0907 13.2936 15.003 13.4434 14.9727C13.5932 14.9424 13.7489 14.9718 13.8773 15.0547C14.0057 15.1375 14.0967 15.2673 14.1308 15.4163C14.1649 15.5653 14.1394 15.7217 14.0598 15.8522C13.6012 16.5633 12.8348 16.9879 12.0095 16.9879Z" fill="#4767E7"/>
</svg>
