<svg width="20" height="20" viewBox="0 0 20 20" fill="none" xmlns="http://www.w3.org/2000/svg">
<g clip-path="url(#clip0_2041_3227)">
<mask id="path-1-inside-1_2041_3227" fill="white">
<path d="M12.5109 8.43753C12.4609 8.43753 12.4103 8.42503 12.3641 8.40097L10.0003 7.14472L7.63656 8.40097C7.585 8.42851 7.52675 8.44104 7.46842 8.43714C7.41009 8.43323 7.35403 8.41304 7.30661 8.37886C7.25918 8.34468 7.22229 8.29789 7.20013 8.24379C7.17797 8.1897 7.17143 8.13047 7.18125 8.07284L7.63375 5.4069L5.71813 3.51909C5.67678 3.47828 5.64763 3.42675 5.63396 3.37028C5.62028 3.31382 5.62261 3.25466 5.64069 3.19945C5.65877 3.14424 5.69188 3.09516 5.7363 3.05773C5.78073 3.02029 5.83471 2.99598 5.89219 2.98753L8.53625 2.59878L9.71969 0.175654C9.82406 -0.0393457 10.1766 -0.0393457 10.2809 0.175654L11.4644 2.59878L14.1081 2.98753C14.1656 2.99592 14.2196 3.02018 14.264 3.05758C14.3085 3.09498 14.3416 3.14404 14.3597 3.19924C14.3778 3.25444 14.3801 3.31359 14.3664 3.37004C14.3527 3.42649 14.3236 3.478 14.2822 3.51878L12.3669 5.4069L12.8194 8.07284C12.827 8.11769 12.8248 8.16367 12.8128 8.20757C12.8008 8.25146 12.7794 8.2922 12.75 8.32694C12.7206 8.36168 12.684 8.38958 12.6427 8.40868C12.6014 8.42779 12.5564 8.43763 12.5109 8.43753ZM10.0003 6.47815C10.0506 6.47815 10.1009 6.49034 10.1472 6.51472L12.0966 7.55097L11.7234 5.35097C11.7066 5.25034 11.7394 5.14753 11.8122 5.07597L13.3966 3.5144L11.2103 3.19347C11.16 3.18608 11.1123 3.16654 11.0713 3.13653C11.0303 3.10653 10.9972 3.06696 10.975 3.02128L10.0003 1.02472L9.02531 3.02128C9.00306 3.06687 8.97002 3.10634 8.92908 3.13629C8.88813 3.16624 8.8405 3.18576 8.79031 3.19315L6.60438 3.5144L8.18875 5.07597C8.26125 5.14753 8.29406 5.25034 8.27719 5.35097L7.90406 7.55097L9.85344 6.51472C9.89969 6.49034 9.95 6.47784 10.0003 6.47784V6.47815ZM2.51844 10.625C2.45159 10.625 2.38651 10.6036 2.33273 10.5639C2.27896 10.5242 2.23934 10.4683 2.21969 10.4044L1.74938 8.87472L0.220626 8.40253C0.164785 8.3854 0.114869 8.35294 0.076554 8.30886C0.0382386 8.26477 0.0130598 8.21082 0.00387987 8.15314C-0.00530009 8.09545 0.00188694 8.03635 0.024624 7.98255C0.0473611 7.92874 0.0847362 7.8824 0.132501 7.84878L1.44625 6.9194L1.43156 5.31534C1.43095 5.2571 1.44664 5.19985 1.47686 5.15006C1.50709 5.10027 1.55064 5.05992 1.60259 5.03359C1.65454 5.00726 1.71282 4.99598 1.77085 5.00104C1.82887 5.0061 1.88433 5.02729 1.93094 5.06222L3.2125 6.01847L4.73344 5.50034C4.78873 5.48148 4.84821 5.4785 4.90511 5.49174C4.96202 5.50498 5.01407 5.5339 5.05537 5.57523C5.09666 5.61656 5.12554 5.66863 5.13874 5.72555C5.15193 5.78246 5.1489 5.84194 5.13 5.89722L4.60938 7.4169L5.56375 8.69972C5.59811 8.74627 5.6189 8.80144 5.62381 8.85909C5.62872 8.91674 5.61756 8.97463 5.59156 9.02632C5.56557 9.07801 5.52576 9.12149 5.47656 9.15194C5.42735 9.18238 5.37067 9.19859 5.31281 9.19878H5.30969L3.70469 9.18159L2.77313 10.4935C2.74424 10.5341 2.70606 10.5673 2.66175 10.5902C2.61744 10.613 2.56831 10.625 2.51844 10.625ZM1.01125 7.99253L2.09156 8.3269C2.14024 8.34183 2.18453 8.36842 2.22058 8.40437C2.25664 8.44031 2.28337 8.48452 2.29844 8.53315L2.63063 9.6144L3.29 8.68628C3.34938 8.60284 3.45 8.54722 3.54813 8.55472L4.68563 8.56722L4.00938 7.65784C3.97917 7.61708 3.95932 7.56958 3.95153 7.51945C3.94375 7.46931 3.94826 7.41803 3.96469 7.37003L4.33219 6.2969L3.25844 6.66284C3.21045 6.67917 3.15922 6.68361 3.10914 6.67577C3.05907 6.66793 3.01164 6.64805 2.97094 6.61784L2.0625 5.93972L2.07281 7.07722C2.07325 7.12772 2.06146 7.17757 2.03844 7.22252C2.01542 7.26747 1.98186 7.30618 1.94063 7.33534L1.01125 7.99253ZM17.4822 10.625C17.4323 10.625 17.3832 10.6131 17.3389 10.5903C17.2946 10.5675 17.2564 10.5344 17.2275 10.4938L16.2956 9.18128L14.6913 9.19878C14.5741 9.18753 14.4631 9.13378 14.4091 9.02815C14.3827 8.97621 14.3714 8.91795 14.3764 8.85994C14.3814 8.80192 14.4024 8.74643 14.4372 8.69972L15.3913 7.4169L14.8706 5.89722C14.8518 5.84197 14.8487 5.78254 14.8619 5.72567C14.8751 5.6688 14.904 5.61675 14.9452 5.57544C14.9865 5.53413 15.0385 5.50519 15.0953 5.49192C15.1522 5.47865 15.2116 5.48156 15.2669 5.50034L16.7881 6.01847L18.0697 5.06222C18.1164 5.02766 18.1718 5.00677 18.2297 5.0019C18.2876 4.99703 18.3457 5.00836 18.3975 5.03463C18.4493 5.0609 18.4928 5.10107 18.5231 5.15064C18.5534 5.20022 18.5693 5.25724 18.5691 5.31534L18.5544 6.9194L19.8681 7.84878C19.916 7.88233 19.9535 7.92866 19.9763 7.98249C19.9991 8.03631 20.0063 8.09547 19.9971 8.1532C19.988 8.21093 19.9627 8.26492 19.9243 8.30901C19.8859 8.35309 19.8359 8.3855 19.78 8.40253L18.2513 8.87472L17.7809 10.4044C17.7613 10.4683 17.7217 10.5242 17.6679 10.5639C17.6141 10.6036 17.549 10.625 17.4822 10.625ZM16.4559 8.55472C16.5058 8.55478 16.555 8.56672 16.5993 8.58954C16.6436 8.61236 16.6819 8.64542 16.7109 8.68597L17.37 9.61472L17.7022 8.53347C17.7172 8.48478 17.7439 8.44051 17.78 8.4045C17.816 8.3685 17.8604 8.34186 17.9091 8.3269L18.9894 7.99253L18.06 7.33534C18.0188 7.30618 17.9852 7.26747 17.9622 7.22252C17.9392 7.17757 17.9274 7.12772 17.9278 7.07722L17.9381 5.93972L17.0297 6.61784C16.989 6.6481 16.9416 6.66801 16.8915 6.67585C16.8414 6.68369 16.7902 6.67922 16.7422 6.66284L15.6684 6.29722L16.0359 7.37003C16.0524 7.41798 16.0569 7.46921 16.0491 7.5193C16.0413 7.56939 16.0215 7.61683 15.9913 7.65753L15.315 8.5669L16.4525 8.55472H16.4559ZM10.0003 20C9.91743 20 9.83795 19.9671 9.77934 19.9085C9.72074 19.8499 9.68781 19.7704 9.68781 19.6875V19.5469C9.68276 16.1805 8.94641 12.8554 7.52969 9.80159C7.51076 9.76421 7.49954 9.7234 7.4967 9.6816C7.49386 9.63979 7.49945 9.59784 7.51315 9.55824C7.52685 9.51864 7.54837 9.4822 7.57644 9.45109C7.60451 9.41997 7.63855 9.39482 7.67653 9.37713C7.71452 9.35944 7.75567 9.34956 7.79755 9.3481C7.83942 9.34663 7.88117 9.3536 7.9203 9.3686C7.95942 9.38359 7.99514 9.4063 8.02531 9.43538C8.05549 9.46445 8.0795 9.4993 8.09594 9.53784C9.55128 12.6743 10.3077 16.0896 10.3128 19.5472V19.6875C10.3128 19.7704 10.2799 19.8499 10.2213 19.9085C10.1627 19.9671 10.0832 20 10.0003 20Z"/>
</mask>
<path d="M12.5109 8.43753C12.4609 8.43753 12.4103 8.42503 12.3641 8.40097L10.0003 7.14472L7.63656 8.40097C7.585 8.42851 7.52675 8.44104 7.46842 8.43714C7.41009 8.43323 7.35403 8.41304 7.30661 8.37886C7.25918 8.34468 7.22229 8.29789 7.20013 8.24379C7.17797 8.1897 7.17143 8.13047 7.18125 8.07284L7.63375 5.4069L5.71813 3.51909C5.67678 3.47828 5.64763 3.42675 5.63396 3.37028C5.62028 3.31382 5.62261 3.25466 5.64069 3.19945C5.65877 3.14424 5.69188 3.09516 5.7363 3.05773C5.78073 3.02029 5.83471 2.99598 5.89219 2.98753L8.53625 2.59878L9.71969 0.175654C9.82406 -0.0393457 10.1766 -0.0393457 10.2809 0.175654L11.4644 2.59878L14.1081 2.98753C14.1656 2.99592 14.2196 3.02018 14.264 3.05758C14.3085 3.09498 14.3416 3.14404 14.3597 3.19924C14.3778 3.25444 14.3801 3.31359 14.3664 3.37004C14.3527 3.42649 14.3236 3.478 14.2822 3.51878L12.3669 5.4069L12.8194 8.07284C12.827 8.11769 12.8248 8.16367 12.8128 8.20757C12.8008 8.25146 12.7794 8.2922 12.75 8.32694C12.7206 8.36168 12.684 8.38958 12.6427 8.40868C12.6014 8.42779 12.5564 8.43763 12.5109 8.43753ZM10.0003 6.47815C10.0506 6.47815 10.1009 6.49034 10.1472 6.51472L12.0966 7.55097L11.7234 5.35097C11.7066 5.25034 11.7394 5.14753 11.8122 5.07597L13.3966 3.5144L11.2103 3.19347C11.16 3.18608 11.1123 3.16654 11.0713 3.13653C11.0303 3.10653 10.9972 3.06696 10.975 3.02128L10.0003 1.02472L9.02531 3.02128C9.00306 3.06687 8.97002 3.10634 8.92908 3.13629C8.88813 3.16624 8.8405 3.18576 8.79031 3.19315L6.60438 3.5144L8.18875 5.07597C8.26125 5.14753 8.29406 5.25034 8.27719 5.35097L7.90406 7.55097L9.85344 6.51472C9.89969 6.49034 9.95 6.47784 10.0003 6.47784V6.47815ZM2.51844 10.625C2.45159 10.625 2.38651 10.6036 2.33273 10.5639C2.27896 10.5242 2.23934 10.4683 2.21969 10.4044L1.74938 8.87472L0.220626 8.40253C0.164785 8.3854 0.114869 8.35294 0.076554 8.30886C0.0382386 8.26477 0.0130598 8.21082 0.00387987 8.15314C-0.00530009 8.09545 0.00188694 8.03635 0.024624 7.98255C0.0473611 7.92874 0.0847362 7.8824 0.132501 7.84878L1.44625 6.9194L1.43156 5.31534C1.43095 5.2571 1.44664 5.19985 1.47686 5.15006C1.50709 5.10027 1.55064 5.05992 1.60259 5.03359C1.65454 5.00726 1.71282 4.99598 1.77085 5.00104C1.82887 5.0061 1.88433 5.02729 1.93094 5.06222L3.2125 6.01847L4.73344 5.50034C4.78873 5.48148 4.84821 5.4785 4.90511 5.49174C4.96202 5.50498 5.01407 5.5339 5.05537 5.57523C5.09666 5.61656 5.12554 5.66863 5.13874 5.72555C5.15193 5.78246 5.1489 5.84194 5.13 5.89722L4.60938 7.4169L5.56375 8.69972C5.59811 8.74627 5.6189 8.80144 5.62381 8.85909C5.62872 8.91674 5.61756 8.97463 5.59156 9.02632C5.56557 9.07801 5.52576 9.12149 5.47656 9.15194C5.42735 9.18238 5.37067 9.19859 5.31281 9.19878H5.30969L3.70469 9.18159L2.77313 10.4935C2.74424 10.5341 2.70606 10.5673 2.66175 10.5902C2.61744 10.613 2.56831 10.625 2.51844 10.625ZM1.01125 7.99253L2.09156 8.3269C2.14024 8.34183 2.18453 8.36842 2.22058 8.40437C2.25664 8.44031 2.28337 8.48452 2.29844 8.53315L2.63063 9.6144L3.29 8.68628C3.34938 8.60284 3.45 8.54722 3.54813 8.55472L4.68563 8.56722L4.00938 7.65784C3.97917 7.61708 3.95932 7.56958 3.95153 7.51945C3.94375 7.46931 3.94826 7.41803 3.96469 7.37003L4.33219 6.2969L3.25844 6.66284C3.21045 6.67917 3.15922 6.68361 3.10914 6.67577C3.05907 6.66793 3.01164 6.64805 2.97094 6.61784L2.0625 5.93972L2.07281 7.07722C2.07325 7.12772 2.06146 7.17757 2.03844 7.22252C2.01542 7.26747 1.98186 7.30618 1.94063 7.33534L1.01125 7.99253ZM17.4822 10.625C17.4323 10.625 17.3832 10.6131 17.3389 10.5903C17.2946 10.5675 17.2564 10.5344 17.2275 10.4938L16.2956 9.18128L14.6913 9.19878C14.5741 9.18753 14.4631 9.13378 14.4091 9.02815C14.3827 8.97621 14.3714 8.91795 14.3764 8.85994C14.3814 8.80192 14.4024 8.74643 14.4372 8.69972L15.3913 7.4169L14.8706 5.89722C14.8518 5.84197 14.8487 5.78254 14.8619 5.72567C14.8751 5.6688 14.904 5.61675 14.9452 5.57544C14.9865 5.53413 15.0385 5.50519 15.0953 5.49192C15.1522 5.47865 15.2116 5.48156 15.2669 5.50034L16.7881 6.01847L18.0697 5.06222C18.1164 5.02766 18.1718 5.00677 18.2297 5.0019C18.2876 4.99703 18.3457 5.00836 18.3975 5.03463C18.4493 5.0609 18.4928 5.10107 18.5231 5.15064C18.5534 5.20022 18.5693 5.25724 18.5691 5.31534L18.5544 6.9194L19.8681 7.84878C19.916 7.88233 19.9535 7.92866 19.9763 7.98249C19.9991 8.03631 20.0063 8.09547 19.9971 8.1532C19.988 8.21093 19.9627 8.26492 19.9243 8.30901C19.8859 8.35309 19.8359 8.3855 19.78 8.40253L18.2513 8.87472L17.7809 10.4044C17.7613 10.4683 17.7217 10.5242 17.6679 10.5639C17.6141 10.6036 17.549 10.625 17.4822 10.625ZM16.4559 8.55472C16.5058 8.55478 16.555 8.56672 16.5993 8.58954C16.6436 8.61236 16.6819 8.64542 16.7109 8.68597L17.37 9.61472L17.7022 8.53347C17.7172 8.48478 17.7439 8.44051 17.78 8.4045C17.816 8.3685 17.8604 8.34186 17.9091 8.3269L18.9894 7.99253L18.06 7.33534C18.0188 7.30618 17.9852 7.26747 17.9622 7.22252C17.9392 7.17757 17.9274 7.12772 17.9278 7.07722L17.9381 5.93972L17.0297 6.61784C16.989 6.6481 16.9416 6.66801 16.8915 6.67585C16.8414 6.68369 16.7902 6.67922 16.7422 6.66284L15.6684 6.29722L16.0359 7.37003C16.0524 7.41798 16.0569 7.46921 16.0491 7.5193C16.0413 7.56939 16.0215 7.61683 15.9913 7.65753L15.315 8.5669L16.4525 8.55472H16.4559ZM10.0003 20C9.91743 20 9.83795 19.9671 9.77934 19.9085C9.72074 19.8499 9.68781 19.7704 9.68781 19.6875V19.5469C9.68276 16.1805 8.94641 12.8554 7.52969 9.80159C7.51076 9.76421 7.49954 9.7234 7.4967 9.6816C7.49386 9.63979 7.49945 9.59784 7.51315 9.55824C7.52685 9.51864 7.54837 9.4822 7.57644 9.45109C7.60451 9.41997 7.63855 9.39482 7.67653 9.37713C7.71452 9.35944 7.75567 9.34956 7.79755 9.3481C7.83942 9.34663 7.88117 9.3536 7.9203 9.3686C7.95942 9.38359 7.99514 9.4063 8.02531 9.43538C8.05549 9.46445 8.0795 9.4993 8.09594 9.53784C9.55128 12.6743 10.3077 16.0896 10.3128 19.5472V19.6875C10.3128 19.7704 10.2799 19.8499 10.2213 19.9085C10.1627 19.9671 10.0832 20 10.0003 20Z" fill="#4767E7" stroke="#4767E7" stroke-width="2" mask="url(#path-1-inside-1_2041_3227)"/>
<mask id="path-2-inside-2_2041_3227" fill="white">
<path d="M10.0005 20C9.93046 20 9.86246 19.9765 9.80738 19.9333C9.7523 19.8901 9.71333 19.8296 9.69674 19.7616L9.49611 18.9381C8.72361 15.7703 6.99143 12.9856 4.48705 10.8853C4.42653 10.8311 4.38945 10.7556 4.38365 10.6745C4.37786 10.5935 4.40381 10.5134 4.45602 10.4512C4.50822 10.389 4.58258 10.3495 4.66338 10.3411C4.74417 10.3327 4.82505 10.3561 4.88893 10.4062C7.38986 12.5044 9.15143 15.2578 10.0005 18.3906C10.8499 15.2578 12.6111 12.5044 15.1121 10.4062C15.1756 10.353 15.2577 10.3272 15.3402 10.3344C15.4228 10.3417 15.4991 10.3815 15.5524 10.445C15.6056 10.5085 15.6314 10.5906 15.6242 10.6732C15.6169 10.7558 15.5771 10.8321 15.5136 10.8853C13.0096 12.9853 11.2774 15.7703 10.5049 18.9381L10.3042 19.7616C10.2876 19.8296 10.2487 19.8901 10.1936 19.9333C10.1385 19.9765 10.0705 20 10.0005 20ZM1.87549 2.5C1.79261 2.5 1.71312 2.46708 1.65452 2.40847C1.59591 2.34987 1.56299 2.27038 1.56299 2.1875V1.5625C1.56299 1.47962 1.59591 1.40013 1.65452 1.34153C1.71312 1.28292 1.79261 1.25 1.87549 1.25C1.95837 1.25 2.03785 1.28292 2.09646 1.34153C2.15506 1.40013 2.18799 1.47962 2.18799 1.5625V2.1875C2.18799 2.27038 2.15506 2.34987 2.09646 2.40847C2.03785 2.46708 1.95837 2.5 1.87549 2.5Z"/>
</mask>
<path d="M10.0005 20C9.93046 20 9.86246 19.9765 9.80738 19.9333C9.7523 19.8901 9.71333 19.8296 9.69674 19.7616L9.49611 18.9381C8.72361 15.7703 6.99143 12.9856 4.48705 10.8853C4.42653 10.8311 4.38945 10.7556 4.38365 10.6745C4.37786 10.5935 4.40381 10.5134 4.45602 10.4512C4.50822 10.389 4.58258 10.3495 4.66338 10.3411C4.74417 10.3327 4.82505 10.3561 4.88893 10.4062C7.38986 12.5044 9.15143 15.2578 10.0005 18.3906C10.8499 15.2578 12.6111 12.5044 15.1121 10.4062C15.1756 10.353 15.2577 10.3272 15.3402 10.3344C15.4228 10.3417 15.4991 10.3815 15.5524 10.445C15.6056 10.5085 15.6314 10.5906 15.6242 10.6732C15.6169 10.7558 15.5771 10.8321 15.5136 10.8853C13.0096 12.9853 11.2774 15.7703 10.5049 18.9381L10.3042 19.7616C10.2876 19.8296 10.2487 19.8901 10.1936 19.9333C10.1385 19.9765 10.0705 20 10.0005 20ZM1.87549 2.5C1.79261 2.5 1.71312 2.46708 1.65452 2.40847C1.59591 2.34987 1.56299 2.27038 1.56299 2.1875V1.5625C1.56299 1.47962 1.59591 1.40013 1.65452 1.34153C1.71312 1.28292 1.79261 1.25 1.87549 1.25C1.95837 1.25 2.03785 1.28292 2.09646 1.34153C2.15506 1.40013 2.18799 1.47962 2.18799 1.5625V2.1875C2.18799 2.27038 2.15506 2.34987 2.09646 2.40847C2.03785 2.46708 1.95837 2.5 1.87549 2.5Z" fill="#4767E7"/>
<path d="M10.0005 20L10.001 19L10 19L10.0005 20ZM9.69674 19.7616L8.72516 19.9983L8.72523 19.9986L9.69674 19.7616ZM9.49611 18.9381L10.4677 18.7014L10.4676 18.7012L9.49611 18.9381ZM4.48705 10.8853L3.82013 11.6304L3.83213 11.6412L3.84446 11.6515L4.48705 10.8853ZM4.88893 10.4062L5.53164 9.64014L5.51934 9.62983L5.50672 9.61991L4.88893 10.4062ZM10.0005 18.3906L9.03531 18.6522L10.0003 22.2128L10.9656 18.6523L10.0005 18.3906ZM15.1121 10.4062L14.4697 9.63988L14.4693 9.64014L15.1121 10.4062ZM15.5136 10.8853L14.8712 10.1189L14.871 10.1191L15.5136 10.8853ZM10.5049 18.9381L9.53333 18.7012L9.53329 18.7014L10.5049 18.9381ZM10.3042 19.7616L11.2757 19.9986L11.2758 19.9983L10.3042 19.7616ZM1.87549 1.25L1.87549 2.25L1.87549 1.25ZM2.18799 1.5625H1.18799H2.18799ZM10 19C10.1541 18.9999 10.3037 19.0516 10.4248 19.1467L9.18991 20.7199C9.42125 20.9015 9.70688 21.0001 10.001 21L10 19ZM10.4248 19.1467C10.546 19.2418 10.6317 19.3749 10.6682 19.5246L8.72523 19.9986C8.79493 20.2843 8.95858 20.5383 9.18991 20.7199L10.4248 19.1467ZM10.6683 19.5248L10.4677 18.7014L8.52454 19.1748L8.72516 19.9983L10.6683 19.5248ZM10.4676 18.7012C9.64454 15.3259 7.79681 12.3559 5.12964 10.1191L3.84446 11.6515C6.18605 13.6153 7.80269 16.2147 8.52458 19.175L10.4676 18.7012ZM5.15397 10.1402C5.28693 10.2592 5.36839 10.4252 5.38111 10.6032L3.3862 10.7458C3.41051 11.0859 3.56613 11.4031 3.82013 11.6304L5.15397 10.1402ZM5.38111 10.6032C5.39383 10.7812 5.33683 10.9572 5.22214 11.0939L3.68989 9.8085C3.4708 10.0697 3.36189 10.4058 3.3862 10.7458L5.38111 10.6032ZM5.22214 11.0939C5.10747 11.2306 4.94411 11.3173 4.76662 11.3357L4.56013 9.34643C4.22106 9.38162 3.90897 9.54733 3.68989 9.8085L5.22214 11.0939ZM4.76662 11.3357C4.58913 11.3542 4.41144 11.3028 4.27113 11.1926L5.50672 9.61991C5.23867 9.40931 4.8992 9.31123 4.56013 9.34643L4.76662 11.3357ZM4.24621 11.1724C6.59136 13.1398 8.23992 15.7175 9.03531 18.6522L10.9657 18.129C10.0629 14.7982 8.18836 11.869 5.53164 9.64014L4.24621 11.1724ZM10.9656 18.6523C11.7614 15.7174 13.4097 13.1397 15.7548 11.1724L14.4693 9.64014C11.8126 11.869 9.93837 14.7982 9.03533 18.1289L10.9656 18.6523ZM15.7544 11.1726C15.6147 11.2897 15.4342 11.3466 15.2526 11.3306L15.4279 9.33828C15.0811 9.30777 14.7364 9.41625 14.4697 9.63988L15.7544 11.1726ZM15.2526 11.3306C15.0709 11.3146 14.9031 11.2271 14.786 11.0874L16.3187 9.80261C16.0951 9.53582 15.7747 9.3688 15.4279 9.33828L15.2526 11.3306ZM14.786 11.0874C14.6689 10.9477 14.612 10.7671 14.628 10.5855L16.6203 10.7608C16.6508 10.4141 16.5424 10.0694 16.3187 9.80261L14.786 11.0874ZM14.628 10.5855C14.644 10.4039 14.7315 10.2361 14.8712 10.1189L16.156 11.6517C16.4228 11.4281 16.5898 11.1076 16.6203 10.7608L14.628 10.5855ZM14.871 10.1191C12.2041 12.3557 10.3564 15.3259 9.53333 18.7012L11.4764 19.175C12.1983 16.2147 13.815 13.615 16.1562 11.6515L14.871 10.1191ZM9.53329 18.7014L9.33266 19.5248L11.2758 19.9983L11.4764 19.1748L9.53329 18.7014ZM9.33273 19.5246C9.36924 19.3749 9.45496 19.2418 9.57613 19.1467L10.8111 20.7199C11.0424 20.5383 11.206 20.2843 11.2757 19.9986L9.33273 19.5246ZM9.57613 19.1467C9.69731 19.0516 9.84692 18.9999 10.001 19L10 21C10.2941 21.0001 10.5797 20.9015 10.8111 20.7199L9.57613 19.1467ZM1.87549 1.5C2.05783 1.5 2.23269 1.57243 2.36162 1.70136L0.947411 3.11558C1.19355 3.36172 1.52739 3.5 1.87549 3.5V1.5ZM2.36162 1.70136C2.49056 1.83029 2.56299 2.00516 2.56299 2.1875H0.562988C0.562988 2.5356 0.70127 2.86944 0.947411 3.11558L2.36162 1.70136ZM2.56299 2.1875V1.5625H0.562988V2.1875H2.56299ZM2.56299 1.5625C2.56299 1.74484 2.49056 1.91971 2.36162 2.04864L0.947411 0.634422C0.70127 0.880563 0.562988 1.2144 0.562988 1.5625H2.56299ZM2.36162 2.04864C2.23269 2.17757 2.05783 2.25 1.87549 2.25L1.87549 0.25C1.52739 0.25 1.19355 0.388281 0.947411 0.634422L2.36162 2.04864ZM1.87549 2.25C1.69315 2.25 1.51828 2.17757 1.38935 2.04864L2.80357 0.634422C2.55742 0.388281 2.22359 0.25 1.87549 0.25L1.87549 2.25ZM1.38935 2.04864C1.26042 1.9197 1.18799 1.74484 1.18799 1.5625L3.18799 1.5625C3.18799 1.2144 3.04971 0.880564 2.80357 0.634422L1.38935 2.04864ZM1.18799 1.5625V2.1875H3.18799V1.5625H1.18799ZM1.18799 2.1875C1.18799 2.00516 1.26042 1.8303 1.38935 1.70136L2.80357 3.11558C3.04971 2.86944 3.18799 2.5356 3.18799 2.1875H1.18799ZM1.38935 1.70136C1.51828 1.57243 1.69315 1.5 1.87549 1.5V3.5C2.22359 3.5 2.55742 3.36172 2.80357 3.11558L1.38935 1.70136Z" fill="#4767E7" mask="url(#path-2-inside-2_2041_3227)"/>
<path d="M16.2505 3.875C16.2799 3.875 16.3039 3.88108 16.322 3.88854C16.34 3.89599 16.357 3.90672 16.3725 3.9214L16.2505 4.05017L16.1285 3.9214C16.144 3.90672 16.161 3.89599 16.179 3.88854C16.1971 3.88108 16.221 3.875 16.2505 3.875ZM16.1094 3.9405L16.2338 4.05838L16.063 4.06076C16.0632 4.03211 16.0692 4.00876 16.0765 3.99103C16.084 3.97297 16.0947 3.956 16.1094 3.9405ZM16.1094 4.1845C16.0855 4.15929 16.063 4.11704 16.063 4.0625H16.2382L16.1094 4.1845ZM16.2505 4.25391C16.2221 4.25391 16.1706 4.24475 16.121 4.19631L16.2498 4.07349L16.2505 4.07418L16.3797 4.1966C16.3302 4.24479 16.2788 4.25391 16.2505 4.25391ZM16.3916 4.1845L16.2628 4.0625H16.438C16.438 4.11704 16.4155 4.15929 16.3916 4.1845ZM16.4379 4.05554L16.2661 4.05794L16.3905 3.93932C16.4204 3.97069 16.4373 4.0122 16.4379 4.05554ZM4.06299 3.5625C4.09243 3.5625 4.11637 3.56858 4.13446 3.57604C4.15252 3.58349 4.16949 3.59422 4.18499 3.6089L4.06299 3.73767L3.94099 3.6089C3.95649 3.59422 3.97346 3.58349 3.99151 3.57604C4.00961 3.56858 4.03354 3.5625 4.06299 3.5625ZM3.92189 3.628L4.05066 3.75L3.92189 3.872C3.90721 3.8565 3.89648 3.83953 3.88903 3.82147C3.88157 3.80338 3.87549 3.77944 3.87549 3.75C3.87549 3.72056 3.88157 3.69662 3.88903 3.67853C3.89648 3.66047 3.90721 3.6435 3.92189 3.628ZM4.06299 3.9414C4.03251 3.94114 3.98171 3.9307 3.93377 3.8841L4.06299 3.76168L4.1343 3.82924L4.18992 3.88636C4.14405 3.93103 4.09522 3.94141 4.06416 3.94141C4.06377 3.94141 4.06338 3.9414 4.06299 3.9414ZM4.20409 3.872L4.07531 3.75L4.20409 3.628C4.21877 3.6435 4.2295 3.66047 4.23695 3.67853C4.24441 3.69662 4.25049 3.72056 4.25049 3.75C4.25049 3.77944 4.24441 3.80338 4.23695 3.82147C4.2295 3.83953 4.21877 3.8565 4.20409 3.872ZM6.56299 0.75C6.59243 0.75 6.61637 0.756081 6.63446 0.763541C6.65252 0.770987 6.66949 0.781719 6.68499 0.796399L6.56299 0.925174L6.44099 0.796399C6.45649 0.781719 6.47346 0.770987 6.49151 0.763541C6.50961 0.756081 6.53354 0.75 6.56299 0.75ZM6.42189 0.815503L6.55066 0.9375L6.42189 1.0595C6.40721 1.044 6.39648 1.02703 6.38903 1.00897C6.38157 0.990882 6.37549 0.966943 6.37549 0.9375C6.37549 0.908057 6.38157 0.884118 6.38903 0.866027C6.39648 0.84797 6.40721 0.830998 6.42189 0.815503ZM6.56299 1.1289C6.53251 1.12864 6.48172 1.1182 6.43377 1.0716L6.56299 0.949178L6.6343 1.01674L6.68992 1.07386C6.64405 1.11853 6.59522 1.12891 6.56416 1.12891C6.56377 1.12891 6.56338 1.1289 6.56299 1.1289ZM6.70409 1.0595L6.57531 0.9375L6.70409 0.815503C6.71877 0.830998 6.7295 0.847969 6.73695 0.866025C6.74441 0.884117 6.75049 0.908055 6.75049 0.9375C6.75049 0.966945 6.74441 0.990883 6.73695 1.00897C6.7295 1.02703 6.71877 1.044 6.70409 1.0595Z" fill="#4767E7" stroke="#4767E7"/>
<path d="M18.1255 2.625C18.1549 2.625 18.1789 2.63108 18.197 2.63854C18.215 2.64599 18.232 2.65672 18.2475 2.6714L18.1255 2.80017L18.0035 2.6714C18.019 2.65672 18.036 2.64599 18.054 2.63854C18.0721 2.63108 18.096 2.625 18.1255 2.625ZM17.9844 2.6905L18.1088 2.80838L17.938 2.81076C17.9382 2.78211 17.9442 2.75876 17.9515 2.74103C17.959 2.72297 17.9697 2.706 17.9844 2.6905ZM17.9844 2.9345C17.9605 2.90929 17.938 2.86704 17.938 2.8125H18.1132L17.9844 2.9345ZM18.1255 3.0039C18.0949 3.00364 18.044 2.99316 17.996 2.94631L18.1248 2.82349L18.1255 2.82418L18.1968 2.89175L18.2524 2.94886C18.2066 2.99352 18.1577 3.00391 18.1267 3.00391C18.1263 3.00391 18.1259 3.0039 18.1255 3.0039ZM18.2666 2.9345L18.1378 2.8125H18.313C18.313 2.86704 18.2905 2.90929 18.2666 2.9345ZM18.3129 2.80554L18.1411 2.80794L18.2655 2.68932C18.2954 2.72069 18.3123 2.7622 18.3129 2.80554Z" fill="#4767E7" stroke="#4767E7"/>
</g>
<defs>
<clipPath id="clip0_2041_3227">
<rect width="20" height="20" fill="white"/>
</clipPath>
</defs>
</svg>
