<svg width="20" height="20" viewBox="0 0 20 20" fill="none" xmlns="http://www.w3.org/2000/svg">
<g clip-path="url(#clip0_2020_6343)">
<path d="M0.263184 7.08331C0.263184 5.83331 1.2281 4.83331 2.45617 4.62498V4.58331C2.45617 2.49998 4.21055 0.833313 6.40353 0.833313C7.71932 0.833313 8.90353 1.45831 9.64915 2.45831C10.1316 2.20831 10.6579 2.08331 11.2281 2.08331C12.8509 2.08331 14.2544 3.16665 14.6491 4.58331C15.9649 4.74998 16.9299 5.79165 16.9299 7.08331C16.9299 8.16665 16.1842 9.08331 15.1755 9.41665V9.99998H16.4913C17.9386 9.99998 19.1228 11.125 19.1228 12.5V14.1666C19.1228 15.5416 17.9386 16.6666 16.4913 16.6666H15.1755C15.1755 18.0416 13.9913 19.1666 12.5439 19.1666H4.64915C3.20178 19.1666 2.01757 18.0416 2.01757 16.6666V9.41665C1.0088 9.08331 0.263184 8.16665 0.263184 7.08331ZM2.89476 6.24998C2.41231 6.24998 2.01757 6.62498 2.01757 7.08331C2.01757 7.54165 2.41231 7.91665 2.89476 7.91665H14.2983C14.7807 7.91665 15.1755 7.54165 15.1755 7.08331C15.1755 6.62498 14.7807 6.24998 14.2983 6.24998C14.2544 6.24998 14.1667 6.24998 14.079 6.29165C13.8158 6.37498 13.5088 6.29165 13.3334 6.12498C13.1141 5.95831 12.9825 5.70831 12.9825 5.45831V5.37498C12.9825 4.49998 12.193 3.74998 11.2281 3.74998C10.7456 3.74998 10.307 3.91665 9.95617 4.24998C9.73687 4.45831 9.42985 4.54165 9.12283 4.49998C8.81581 4.41665 8.59652 4.20831 8.46494 3.95831C8.20178 3.08331 7.36845 2.49998 6.40353 2.49998C5.17546 2.49998 4.21055 3.41665 4.21055 4.58331C4.21055 4.79165 4.25441 5.04165 4.34213 5.24998C4.42985 5.54165 4.38599 5.87498 4.12283 6.12498C3.85967 6.33331 3.5088 6.41665 3.20178 6.29165C3.0702 6.24998 2.98248 6.24998 2.89476 6.24998ZM16.4913 11.6666H15.1755V15H16.4913C16.9737 15 17.3684 14.625 17.3684 14.1666V12.5C17.3684 12.0416 16.9737 11.6666 16.4913 11.6666ZM13.4211 16.6666V9.58331H3.77196V16.6666C3.77196 17.125 4.16669 17.5 4.64915 17.5H12.5439C13.0263 17.5 13.4211 17.125 13.4211 16.6666Z" fill="#4767E7"/>
</g>
<defs>
<clipPath id="clip0_2020_6343">
<rect width="20" height="20" fill="white"/>
</clipPath>
</defs>
</svg>
