<svg width="20" height="20" viewBox="0 0 20 20" fill="none" xmlns="http://www.w3.org/2000/svg">
<path d="M9.9376 0.666687C5.0126 0.666687 1.0001 4.32224 1.0001 8.81113V13.0334C0.987596 14.3667 2.2001 15.4667 3.7001 15.4778H4.8626C4.9001 15.4778 4.9376 15.4889 4.9626 15.5111C5.0001 15.5445 5.0126 15.5778 5.0126 15.6222V16.8667C5.0126 17.5222 5.3001 18.1556 5.8251 18.6222C6.3251 19.0667 7.00009 19.3222 7.71259 19.3222H7.7251L12.1626 19.3C13.6626 19.2778 14.8626 18.1889 14.8501 16.8556V15.6222C14.8501 15.5445 14.9126 15.4778 15.0001 15.4667H16.1876C17.6876 15.4556 18.9001 14.3556 18.8876 13.0222V8.80002C18.8751 4.32224 14.8626 0.666687 9.9376 0.666687ZM17.2751 13.0334C17.2876 13.5778 16.8001 14.0334 16.1876 14.0556H15.0001C14.0251 14.0667 13.2376 14.7667 13.2501 15.6334V16.8667C13.2626 17.4111 12.7751 17.8667 12.1626 17.8889H11.9126V16.9556H10.3126V17.9H9.45009V16.9556H7.82509V17.9111H7.71259C7.42509 17.9111 7.1501 17.8111 6.9501 17.6334C6.7251 17.4334 6.61259 17.1667 6.61259 16.9V15.6556C6.61259 15.2334 6.4251 14.8222 6.0876 14.5222C5.7626 14.2334 5.3251 14.0667 4.8626 14.0667H3.7001C3.0876 14.0556 2.5876 13.6 2.6126 13.0445V8.82224C2.6126 5.12224 5.9001 2.11113 9.95009 2.11113C14.0001 2.11113 17.2876 5.12224 17.2876 8.82224V13.0334H17.2751ZM9.02509 7.50002C8.5501 7.06669 7.8626 6.83335 7.0376 6.83335C5.9501 6.83335 4.8001 7.24447 4.1001 7.8778C2.9126 8.9778 2.9126 10.7111 4.1001 11.8111C5.2626 12.8778 7.1876 12.9111 8.3876 11.8778L8.46259 11.8111C9.56259 10.8 10.3126 8.6778 9.02509 7.50002ZM7.3126 10.8111C6.7626 11.3222 5.8626 11.3334 5.2876 10.8556L5.2376 10.8111C4.6501 10.2667 4.6501 9.41113 5.2376 8.8778C5.6251 8.52224 6.3751 8.26669 7.0251 8.26669C7.4001 8.26669 7.7001 8.35558 7.8626 8.50002C8.3751 8.95558 7.9751 10.2111 7.3126 10.8111ZM10.8626 7.50002C9.5751 8.6778 10.3251 10.8 11.4251 11.8111C12.5876 12.8778 14.5126 12.9111 15.7126 11.8778L15.7876 11.8111C16.9751 10.7111 16.9751 8.9778 15.7876 7.8778C15.1001 7.24447 13.9376 6.83335 12.8501 6.83335C12.0376 6.83335 11.3501 7.06669 10.8626 7.50002ZM14.6376 10.8111C14.0876 11.3222 13.1876 11.3334 12.6126 10.8556L12.5626 10.8111C11.9001 10.2111 11.5001 8.95558 12.0001 8.50002C12.1626 8.34446 12.4626 8.26669 12.8376 8.26669C13.4876 8.26669 14.2376 8.52224 14.6251 8.8778C15.2251 9.41113 15.2251 10.2667 14.6376 10.8111ZM10.8751 12.1778C10.5876 11.7222 9.9251 11.5556 9.4126 11.8111C9.2376 11.9 9.1001 12.0222 9.0001 12.1778L8.2751 13.3222C7.9876 13.7889 8.16259 14.3667 8.68759 14.6334C8.85009 14.7111 9.02509 14.7556 9.21259 14.7556H10.6626C11.2626 14.7556 11.7376 14.3222 11.7376 13.8C11.7376 13.6334 11.6876 13.4778 11.6001 13.3334L10.8751 12.1778Z" fill="#4767E7"/>
</svg>
