<svg width="20" height="20" viewBox="0 0 20 20" fill="none" xmlns="http://www.w3.org/2000/svg">
<g clip-path="url(#clip0_2049_3317)">
<path d="M16.7875 12.6283C17.9101 12.6308 18.6564 11.5468 18.6621 10.445L18.6621 10.4399C18.6565 9.33611 17.9134 8.24635 16.7875 8.25462C15.6514 8.24624 14.9046 9.33237 14.8996 10.4402L14.8996 10.4447C14.9046 11.5502 15.6545 12.6312 16.7875 12.6283ZM16.7875 12.6283C16.7869 12.6283 16.7864 12.6283 16.7859 12.6283L16.7874 12.1283L16.7891 12.6283C16.7886 12.6283 16.788 12.6283 16.7875 12.6283ZM5.049 10.4429C5.05017 9.335 4.30471 8.24632 3.17451 8.25462C2.04294 8.24627 1.29691 9.33346 1.29988 10.4424C1.29682 11.5492 2.04611 12.6312 3.17461 12.6283C4.30094 12.6308 5.0497 11.5486 5.049 10.4429ZM5.049 10.4429L4.54923 10.4424L5.049 10.4419C5.049 10.4422 5.049 10.4426 5.049 10.4429ZM17.9337 7.34548L18.3657 7.50649C18.812 7.77458 19.4069 8.44025 19.4105 9.59862C19.4105 9.59883 19.4105 9.59905 19.4105 9.59926L19.4105 15.4794H18.3218H17.8218V15.9794V18.016C17.8214 18.5439 17.666 18.8868 17.4828 19.0908C17.2989 19.2956 17.0624 19.3899 16.8314 19.3888C16.4083 19.3866 15.8355 19.0324 15.8326 18.0158V15.9794V15.4794H15.3326H4.61572H4.11572V15.9794V18.0164V18.0166C4.11606 19.0337 3.54452 19.3867 3.12409 19.3888C2.89419 19.3899 2.65879 19.2959 2.47582 19.0914C2.29354 18.8877 2.139 18.5451 2.13983 18.0172V18.0164V15.9794V15.4794H1.63983H0.551272L0.551272 9.59781L0.551272 9.59723C0.549534 8.10304 1.53787 7.42927 1.91582 7.37112L2.22018 7.32429L2.31532 7.03142L3.94358 2.01946L3.94383 2.01869C4.08086 1.59458 4.28574 1.23713 4.56271 0.988365C4.83023 0.748093 5.19054 0.585279 5.6981 0.582214H14.2502C14.7613 0.585284 15.1229 0.748543 15.3899 0.988375C15.6663 1.23659 15.8696 1.59316 16.0038 2.01619L16.0038 2.01619L16.0049 2.01942L17.6327 7.03142L18.0504 6.89578L17.9336 7.34546L17.9337 7.34548ZM3.05737 6.68127L2.85564 7.32979H3.53481H9.98092H16.427H17.1062L16.9044 6.68125L15.6788 2.74182C15.596 2.44462 15.4767 2.12295 15.2641 1.86966C15.0284 1.58893 14.7014 1.41987 14.2875 1.41235L14.2875 1.41227H14.2785H5.68379V1.41219L5.67487 1.41235C5.25947 1.41976 4.92946 1.58689 4.69203 1.86978C4.47849 2.12421 4.36143 2.44681 4.28196 2.74456L3.05737 6.68127Z" stroke="#4767E7"/>
</g>
<defs>
<clipPath id="clip0_2049_3317">
<rect width="20" height="20" fill="white"/>
</clipPath>
</defs>
</svg>
