<svg width="20" height="20" viewBox="0 0 20 20" fill="none" xmlns="http://www.w3.org/2000/svg">
<path d="M16.2305 16.4258C16.2305 16.7715 16.3678 17.1032 16.6123 17.3476C16.8568 17.5921 17.1884 17.7295 17.5342 17.7295C17.8799 17.7295 18.2115 17.5921 18.456 17.3476C18.7005 17.1032 18.8379 16.7715 18.8379 16.4258C18.8379 16.08 18.7005 15.7484 18.456 15.5039C18.2115 15.2594 17.8799 15.1221 17.5342 15.1221C17.1884 15.1221 16.8568 15.2594 16.6123 15.5039C16.3678 15.7484 16.2305 16.08 16.2305 16.4258Z" fill="#4767E7"/>
<path d="M19.7373 16.5638L11.3882 2.10282H11.3858C11.1307 1.62266 10.6257 1.29553 10.0441 1.29553C9.42559 1.29553 8.89379 1.66553 8.65703 2.19606L0.392267 16.5094C0.221757 16.7413 0.12998 17.0217 0.130372 17.3096C0.130372 18.0575 0.736642 18.6638 1.48453 18.6638C1.49545 18.6638 1.50623 18.6632 1.51709 18.6629V18.6658H18.5871C18.6031 18.6663 18.6192 18.667 18.6354 18.667C18.6516 18.667 18.6676 18.6664 18.6837 18.6658L18.8785 18.6446C19.5027 18.5302 19.9758 17.9839 19.9758 17.3267C19.9761 17.054 19.8929 16.7877 19.7373 16.5638ZM8.8676 6.77723C8.8676 6.16774 9.35266 5.67381 9.94824 5.67381C10.5464 5.67381 11.029 6.16772 11.029 6.77723V12.4645C11.029 13.0725 10.5464 13.5679 9.94824 13.5679C9.35268 13.5679 8.8676 13.0726 8.8676 12.4645V6.77723ZM10.0313 16.6673C9.46645 16.6673 9.00799 16.2087 9.00799 15.6428C9.00799 15.0779 9.46645 14.6216 10.0313 14.6216C10.5962 14.6216 11.0546 15.0779 11.0546 15.6428C11.0546 16.2076 10.5962 16.6673 10.0313 16.6673Z" fill="#4767E7"/>
</svg>
