<svg width="20" height="20" viewBox="0 0 20 20" fill="none" xmlns="http://www.w3.org/2000/svg">
<g clip-path="url(#clip0_2020_6359)">
<path d="M19.5693 14.0853L12.1993 5.96309C12.2092 5.83969 12.2205 5.71721 12.2205 5.5911C12.2205 2.65867 9.53661 0.272949 6.23735 0.272949C2.93786 0.272949 0.253906 2.65869 0.253906 5.5911C0.253906 8.52375 2.93786 10.9095 6.23735 10.9095C6.3785 10.9095 6.51704 10.8993 6.65562 10.8911L15.7922 17.4424C15.915 17.5298 16.0629 17.5731 16.2102 17.5731C16.3814 17.5731 16.5521 17.5151 16.681 17.4L17.202 16.9369C17.203 17.1155 17.1772 17.3042 17.1005 17.4893C16.9291 17.9009 16.5254 18.2287 15.9007 18.4616C15.1653 18.7369 14.0212 18.26 12.6965 17.7085C10.2573 16.692 6.91741 15.2997 3.34291 17.7895C3.05336 17.9911 3.00287 18.3641 3.22944 18.6209C3.45629 18.8778 3.87483 18.9229 4.16433 18.7213C7.09377 16.68 9.7699 17.7959 12.1314 18.7802C13.2891 19.2627 14.3985 19.7249 15.4208 19.7249C15.7632 19.7249 16.0962 19.6734 16.4176 19.5528C17.3949 19.1872 18.0449 18.6311 18.3492 17.899C18.6675 17.1348 18.5098 16.3743 18.3503 15.9157L19.5218 14.8743C19.7624 14.6607 19.7831 14.32 19.5693 14.0853ZM1.5855 5.5911C1.5855 3.31127 3.67226 1.45661 6.23735 1.45661C8.80219 1.45661 10.8889 3.31127 10.8889 5.5911C10.8889 7.87093 8.80219 9.72627 6.23735 9.72627C3.67226 9.72627 1.5855 7.87093 1.5855 5.5911ZM16.1626 16.1873L8.32698 10.5688C9.94554 10.0292 11.2302 8.88746 11.8365 7.44919L18.1574 14.4139L17.214 15.2527C17.1277 15.3015 17.0573 15.3641 17.0057 15.4378L16.1626 16.1873ZM12.1524 10.0845C11.8922 9.85334 11.4708 9.85334 11.2108 10.0845C10.9509 10.3155 10.9509 10.6903 11.2108 10.9214L12.6535 12.2041C12.7836 12.3192 12.9539 12.3772 13.1244 12.3772C13.2945 12.3772 13.4649 12.3192 13.5949 12.2041C13.8552 11.973 13.8552 11.5982 13.5949 11.3671L12.1524 10.0845Z" fill="#4767E7"/>
</g>
<defs>
<clipPath id="clip0_2020_6359">
<rect width="20" height="20" fill="white"/>
</clipPath>
</defs>
</svg>
