<svg width="20" height="20" viewBox="0 0 20 20" fill="none" xmlns="http://www.w3.org/2000/svg">
<g clip-path="url(#clip0_2020_6349)">
<path d="M10 11.0571C9.68 11.0571 9.35 10.9714 9.05 10.8143L0.37 6.28571C0.15 6.17143 0 5.87143 0 5.52857C0 5.18571 0.15 4.88571 0.37 4.77143L9.04 0.242855C9.66 -0.0714303 10.33 -0.0714303 10.95 0.242855L19.62 4.77143C19.84 4.88571 19.99 5.18571 19.99 5.52857C19.99 5.87143 19.84 6.17143 19.62 6.28571L10.95 10.8143C10.65 10.9714 10.32 11.0571 10 11.0571ZM9.43 9.28571C9.79 9.47143 10.2 9.47143 10.56 9.28571L17.78 5.51428L10.56 1.74286C10.1926 1.56897 9.7952 1.574 9.43 1.75714L2.22 5.52857L9.43 9.28571Z" fill="#4767E7"/>
<path d="M9.99992 20C8.25992 20 6.68992 19.1715 5.89992 18.6715C4.92992 18.0572 3.76992 17.1143 3.76992 16.1143V7.75717C3.76992 7.31431 4.01992 6.94288 4.33992 6.94288C4.64992 6.94288 4.90992 7.30002 4.90992 7.75717V15.9572C5.29992 16.5572 7.60992 18.3857 9.99992 18.3857C12.3899 18.3857 14.7099 16.5572 15.0899 15.9572V7.75717C15.0899 7.31431 15.3399 6.94288 15.6599 6.94288C15.9799 6.94288 16.2299 7.30002 16.2299 7.75717V16.1143C16.2299 17.1143 15.0699 18.0572 14.0999 18.6715C13.3099 19.1715 11.7399 20 9.99992 20ZM1.79992 14.7286C1.58992 14.7286 1.41992 14.4857 1.41992 14.1857V6.20002C1.41992 5.90002 1.58992 5.65717 1.79992 5.65717C2.00992 5.65717 2.17992 5.90002 2.17992 6.20002V14.1857C2.17992 14.4857 2.00992 14.7286 1.79992 14.7286Z" fill="#4767E7"/>
<path d="M0.859863 14.4143C0.859863 14.5906 0.884177 14.7652 0.931416 14.9282C0.978656 15.0911 1.0479 15.2391 1.13518 15.3638C1.22247 15.4885 1.32609 15.5874 1.44014 15.6549C1.55419 15.7224 1.67642 15.7571 1.79986 15.7571C1.92331 15.7571 2.04554 15.7224 2.15959 15.6549C2.27363 15.5874 2.37726 15.4885 2.46454 15.3638C2.55183 15.2391 2.62107 15.0911 2.66831 14.9282C2.71555 14.7652 2.73986 14.5906 2.73986 14.4143C2.73986 14.0581 2.64083 13.7166 2.46454 13.4647C2.28826 13.2129 2.04917 13.0714 1.79986 13.0714C1.55056 13.0714 1.31147 13.2129 1.13518 13.4647C0.958899 13.7166 0.859863 14.0581 0.859863 14.4143Z" fill="#4767E7"/>
</g>
<defs>
<clipPath id="clip0_2020_6349">
<rect width="20" height="20" fill="white"/>
</clipPath>
</defs>
</svg>
