<svg width="20" height="20" viewBox="0 0 20 20" fill="none" xmlns="http://www.w3.org/2000/svg">
<g clip-path="url(#clip0_2049_3298)">
<path d="M4.87694 11.494C4.43551 11.4934 4.0123 11.2827 3.70016 10.9081C3.38802 10.5335 3.21244 10.0257 3.21191 9.49598V7.8408C3.21191 7.31089 3.38734 6.80269 3.69959 6.42798C4.01184 6.05328 4.43535 5.84277 4.87694 5.84277C5.31853 5.84277 5.74204 6.05328 6.05429 6.42798C6.36654 6.80269 6.54196 7.31089 6.54196 7.8408V9.49598C6.54144 10.0257 6.36585 10.5335 6.05371 10.9081C5.74157 11.2827 5.31837 11.4934 4.87694 11.494ZM4.87694 6.56396C4.59229 6.56458 4.31944 6.70055 4.11816 6.94209C3.91688 7.18363 3.80357 7.51104 3.80305 7.85263V9.5078C3.80305 9.84957 3.91619 10.1774 4.11758 10.419C4.31898 10.6607 4.59213 10.7965 4.87694 10.7965C5.16175 10.7965 5.4349 10.6607 5.63629 10.419C5.83769 10.1774 5.95083 9.84957 5.95083 9.5078V7.85263C5.95031 7.51104 5.837 7.18363 5.63572 6.94209C5.43444 6.70055 5.16159 6.56458 4.87694 6.56396Z" fill="#4767E7" stroke="#4767E7" stroke-width="0.5"/>
<path d="M7.16445 13.369V18.8453H1.23145V13.369C1.233 12.7883 1.42595 12.2318 1.76817 11.8212C2.11038 11.4105 2.57408 11.179 3.05805 11.1771H5.33982L9.90337 6.24707L9.92504 6.32274C10.06 6.80931 10.0983 7.32704 10.0367 7.83451C9.97508 8.34199 9.81539 8.82513 9.57036 9.2453L7.16445 13.369Z" stroke="#4767E7" stroke-width="0.5"/>
<path d="M7.16461 19.2H1.2316C1.15321 19.2 1.07803 19.1626 1.0226 19.0961C0.967175 19.0296 0.936035 18.9394 0.936035 18.8453V13.369C0.936557 12.6938 1.16031 12.0465 1.55818 11.569C1.95605 11.0916 2.49553 10.8231 3.0582 10.8224H5.22569L9.70648 5.98461C9.74291 5.94564 9.78673 5.91794 9.83413 5.90393C9.88152 5.88992 9.93105 5.89002 9.9784 5.90422C10.0246 5.92188 10.0666 5.95256 10.1009 5.9937C10.1352 6.03484 10.1607 6.08524 10.1754 6.14067L10.1951 6.21397C10.3435 6.75359 10.3851 7.32723 10.3167 7.88949C10.2483 8.45175 10.0718 8.98718 9.80106 9.45338L7.46017 13.4802V18.8453C7.46017 18.8919 7.45253 18.938 7.43767 18.981C7.42282 19.0241 7.40105 19.0632 7.3736 19.0961C7.34616 19.129 7.31357 19.1552 7.27771 19.173C7.24186 19.1908 7.20342 19.2 7.16461 19.2ZM1.52717 18.4906H6.86904V13.369C6.86916 13.296 6.88847 13.2248 6.92421 13.1657L9.32815 9.04195C9.68763 8.42214 9.83505 7.66035 9.73998 6.91387L5.53702 11.442C5.48258 11.4996 5.41256 11.5315 5.33998 11.5318H3.0582C2.65215 11.5318 2.26272 11.7254 1.9756 12.0699C1.68847 12.4145 1.52717 12.8818 1.52717 13.369V18.4906Z" fill="#4767E7" stroke="#4767E7" stroke-width="0.5"/>
<path d="M3.28482 19.2C3.20644 19.2 3.13126 19.1626 3.07583 19.0961C3.0204 19.0296 2.98926 18.9394 2.98926 18.8453V13.9153C2.98926 13.8212 3.0204 13.731 3.07583 13.6645C3.13126 13.598 3.20644 13.5606 3.28482 13.5606C3.36321 13.5606 3.43839 13.598 3.49382 13.6645C3.54925 13.731 3.58039 13.8212 3.58039 13.9153V18.8453C3.58039 18.9394 3.54925 19.0296 3.49382 19.0961C3.43839 19.1626 3.36321 19.2 3.28482 19.2ZM15.1232 11.494C14.6818 11.4934 14.2586 11.2827 13.9465 10.9081C13.6343 10.5335 13.4587 10.0257 13.4582 9.49598V7.8408C13.4582 7.31089 13.6336 6.80269 13.9459 6.42798C14.2582 6.05328 14.6817 5.84277 15.1232 5.84277C15.5648 5.84277 15.9883 6.05328 16.3006 6.42798C16.6129 6.80269 16.7883 7.31089 16.7883 7.8408V9.49598C16.7878 10.0257 16.6122 10.5335 16.3 10.9081C15.9879 11.2827 15.5647 11.4934 15.1232 11.494ZM15.1232 6.56396C14.8386 6.56458 14.5658 6.70055 14.3645 6.94209C14.1632 7.18363 14.0499 7.51104 14.0494 7.85263V9.5078C14.0494 9.84957 14.1625 10.1774 14.3639 10.419C14.5653 10.6607 14.8384 10.7965 15.1232 10.7965C15.4081 10.7965 15.6812 10.6607 15.8826 10.419C16.084 10.1774 16.1971 9.84957 16.1971 9.5078V7.85263C16.1966 7.51104 16.0833 7.18363 15.882 6.94209C15.6807 6.70055 15.4079 6.56458 15.1232 6.56396Z" fill="#4767E7" stroke="#4767E7" stroke-width="0.5"/>
<path d="M12.8354 13.369V18.8453H18.7684V13.369C18.7668 12.7883 18.5739 12.2318 18.2317 11.8212C17.8894 11.4105 17.4257 11.179 16.9418 11.1771H14.66L10.0965 6.24707L10.0748 6.32274C9.9398 6.80931 9.90157 7.32704 9.96316 7.83451C10.0247 8.34199 10.1844 8.82513 10.4295 9.2453L12.8354 13.369Z" stroke="#4767E7" stroke-width="0.5"/>
<path d="M18.7685 19.2H12.8355C12.7571 19.2 12.6819 19.1626 12.6265 19.0961C12.5711 19.0296 12.5399 18.9394 12.5399 18.8453V13.4802L10.1971 9.44866C9.92636 8.98246 9.74981 8.44703 9.68141 7.88477C9.61301 7.32251 9.65463 6.74886 9.80298 6.20925L9.82269 6.13595C9.8374 6.08051 9.86297 6.03012 9.89725 5.98898C9.93154 5.94784 9.97353 5.91715 10.0197 5.8995C10.0674 5.88446 10.1173 5.88393 10.1652 5.89797C10.213 5.91201 10.2572 5.94017 10.2936 5.97989L14.7744 10.8225H16.9419C17.5046 10.8231 18.0441 11.0916 18.4419 11.569C18.8398 12.0465 19.0635 12.6938 19.0641 13.3691V18.8453C19.0641 18.9394 19.0329 19.0296 18.9775 19.0961C18.9221 19.1626 18.8469 19.2 18.7685 19.2ZM13.1311 18.4906H18.4729V13.3691C18.4729 12.8818 18.3116 12.4145 18.0245 12.0699C17.7374 11.7254 17.348 11.5318 16.9419 11.5318H14.6601C14.5875 11.5315 14.5175 11.4996 14.4631 11.442L10.2601 6.90206C10.1651 7.64854 10.3125 8.41032 10.6719 9.03014L13.0759 13.1704C13.1116 13.2296 13.1309 13.3007 13.1311 13.3738V18.4906Z" fill="#4767E7" stroke="#4767E7" stroke-width="0.5"/>
<path d="M16.7153 19.2C16.6369 19.2 16.5618 19.1626 16.5063 19.0961C16.4509 19.0296 16.4198 18.9394 16.4198 18.8453V13.9153C16.4198 13.8212 16.4509 13.731 16.5063 13.6645C16.5618 13.598 16.6369 13.5606 16.7153 13.5606C16.7937 13.5606 16.8689 13.598 16.9243 13.6645C16.9797 13.731 17.0109 13.8212 17.0109 13.9153V18.8453C17.0109 18.9394 16.9797 19.0296 16.9243 19.0961C16.8689 19.1626 16.7937 19.2 16.7153 19.2ZM10 3.47587C9.92166 3.47587 9.84648 3.4385 9.79105 3.37199C9.73562 3.30547 9.70448 3.21526 9.70448 3.12119V0.756657C9.70448 0.66259 9.73562 0.572376 9.79105 0.505861C9.84648 0.439345 9.92166 0.401978 10 0.401978C10.0784 0.401978 10.1536 0.439345 10.209 0.505861C10.2645 0.572376 10.2956 0.66259 10.2956 0.756657V3.12119C10.2956 3.21526 10.2645 3.30547 10.209 3.37199C10.1536 3.4385 10.0784 3.47587 10 3.47587ZM7.91335 4.04572C7.87493 4.04688 7.8367 4.0389 7.80085 4.02227C7.76501 4.00563 7.73226 3.98065 7.70448 3.94878L6.9498 3.04552C6.89284 2.97874 6.86032 2.88753 6.8594 2.79197C6.85847 2.69641 6.88922 2.60432 6.94488 2.53597C7.00053 2.46761 7.07654 2.42859 7.15617 2.42748C7.2358 2.42637 7.31254 2.46327 7.36951 2.53006L8.12419 3.43331C8.17906 3.50011 8.20982 3.59015 8.20982 3.68395C8.20982 3.77775 8.17906 3.86778 8.12419 3.93459C8.0971 3.96921 8.06446 3.9969 8.02823 4.016C7.992 4.03509 7.95292 4.0452 7.91335 4.04572ZM12.0867 4.04572C12.048 4.04706 12.0094 4.03918 11.9733 4.02254C11.9371 4.0059 11.904 3.98083 11.8759 3.94878C11.821 3.88197 11.7903 3.79194 11.7903 3.69814C11.7903 3.60433 11.821 3.5143 11.8759 3.4475L12.6306 2.53006C12.686 2.46327 12.7612 2.42562 12.8397 2.4254C12.9183 2.42518 12.9937 2.4624 13.0493 2.52887C13.105 2.59535 13.1363 2.68563 13.1365 2.77986C13.1367 2.87409 13.1057 2.96455 13.0503 3.03134L12.2956 3.94878C12.2678 3.98065 12.2351 4.00563 12.1992 4.02227C12.1634 4.0389 12.1252 4.04688 12.0867 4.04572Z" fill="#4767E7" stroke="#4767E7" stroke-width="0.5"/>
</g>
<defs>
<clipPath id="clip0_2049_3298">
<rect width="20" height="20" fill="white"/>
</clipPath>
</defs>
</svg>
