<svg width="20" height="20" viewBox="0 0 20 20" fill="none" xmlns="http://www.w3.org/2000/svg">
<g clip-path="url(#clip0_2020_6356)">
<path d="M6.52778 20H13.4721C13.6563 20 13.833 19.9342 13.9632 19.817C14.0934 19.6997 14.1666 19.5408 14.1666 19.375V17.2813C17.5568 15.8351 19.7221 12.7763 19.7221 9.37513C19.7221 9.20937 19.6489 9.0504 19.5187 8.93319C19.3884 8.81598 19.2118 8.75013 19.0276 8.75013H0.972282C0.788106 8.75013 0.611474 8.81598 0.481242 8.93319C0.35101 9.0504 0.277846 9.20937 0.277846 9.37513C0.274726 11.0316 0.795468 12.6547 1.77922 14.0547C2.76298 15.4547 4.16912 16.5738 5.83334 17.2813V19.375C5.83334 19.5408 5.9065 19.6997 6.03673 19.817C6.16697 19.9342 6.3436 20 6.52778 20ZM1.69519 10.0001H18.3047C18.1797 11.3704 17.6376 12.6831 16.7379 13.7942C15.8382 14.9054 14.6158 15.7719 13.2048 16.2988C13.0784 16.3462 12.9704 16.4263 12.8944 16.5288C12.8184 16.6313 12.7778 16.7518 12.7777 16.875V18.75H7.22221V16.875C7.22209 16.7518 7.18148 16.6313 7.10549 16.5288C7.0295 16.4263 6.92152 16.3462 6.79513 16.2988C5.384 15.772 4.16143 14.9055 3.26163 13.7944C2.36183 12.6832 1.81961 11.3704 1.6945 10.0001H1.69519ZM15.0985 0.0377329C14.9254 -0.0188323 14.7344 -0.0112439 14.5675 0.0588317C14.4005 0.128907 14.2713 0.255741 14.2082 0.411479L11.4305 7.2864C11.3993 7.36355 11.3853 7.44548 11.3893 7.5275C11.3933 7.60952 11.4152 7.69003 11.4538 7.76443C11.4923 7.83883 11.5468 7.90567 11.614 7.96112C11.6813 8.01658 11.76 8.05957 11.8458 8.08764C12.0189 8.14433 12.21 8.1368 12.3769 8.06671C12.5439 7.99662 12.673 7.86971 12.736 7.7139L15.5138 0.838974C15.545 0.761825 15.559 0.679897 15.555 0.59787C15.5511 0.515843 15.5292 0.435325 15.4906 0.360917C15.452 0.286509 15.3976 0.219669 15.3303 0.164216C15.263 0.108763 15.1843 0.0657831 15.0985 0.0377329ZM13.7499 8.00014C13.8228 8.04947 13.9059 8.08537 13.9942 8.10578C14.0826 8.1262 14.1745 8.13073 14.2648 8.11912C14.3551 8.10751 14.442 8.07998 14.5205 8.03812C14.5989 7.99625 14.6675 7.94087 14.7221 7.87514L18.8887 2.8752C18.9435 2.80954 18.9833 2.73482 19.0059 2.65532C19.0285 2.57581 19.0336 2.49307 19.0207 2.41182C19.0078 2.33057 18.9772 2.2524 18.9307 2.18178C18.8843 2.11115 18.8228 2.04946 18.7499 2.00021C18.6769 1.95097 18.5939 1.91514 18.5055 1.89477C18.4172 1.8744 18.3253 1.86989 18.235 1.88149C18.1447 1.8931 18.0579 1.9206 17.9794 1.96241C17.9009 2.00423 17.8324 2.05955 17.7776 2.12521L13.611 7.12515C13.5005 7.25776 13.4531 7.42444 13.4791 7.58854C13.5052 7.75263 13.6026 7.90069 13.7499 8.00014Z" fill="#4767E7"/>
<path d="M7.22218 14.0626C7.22218 13.9797 7.1856 13.9002 7.12049 13.8416C7.05537 13.783 6.96705 13.7501 6.87496 13.7501C5.5347 13.7501 4.44444 12.7689 4.44444 11.5626C4.44444 11.5216 4.43546 11.4809 4.41801 11.443C4.40056 11.4051 4.37498 11.3707 4.34274 11.3416C4.3105 11.3126 4.27222 11.2896 4.23009 11.2739C4.18797 11.2582 4.14282 11.2501 4.09722 11.2501C4.05162 11.2501 4.00647 11.2582 3.96434 11.2739C3.92222 11.2896 3.88394 11.3126 3.8517 11.3416C3.81946 11.3707 3.79388 11.4051 3.77643 11.443C3.75898 11.4809 3.75 11.5216 3.75 11.5626C3.75 13.1132 5.15207 14.3751 6.87496 14.3751C6.96705 14.3751 7.05537 14.3422 7.12049 14.2836C7.1856 14.225 7.22218 14.1455 7.22218 14.0626Z" fill="#4767E7"/>
</g>
<defs>
<clipPath id="clip0_2020_6356">
<rect width="20" height="20" fill="white"/>
</clipPath>
</defs>
</svg>
