<svg width="20" height="20" viewBox="0 0 20 20" fill="none" xmlns="http://www.w3.org/2000/svg">
<path d="M16.2991 2.85713C16.4134 2.85725 16.5236 2.91224 16.608 3.01133C16.6925 3.11042 16.7451 3.24648 16.7556 3.39284L17.7852 16.4881C17.7919 16.5707 17.7851 16.6543 17.7651 16.7333C17.7452 16.8123 17.7126 16.8851 17.6695 16.947C17.6267 17.0089 17.5742 17.0584 17.5155 17.0923C17.4568 17.1261 17.3931 17.1436 17.3287 17.1434H14.307C14.2275 17.143 14.1495 17.1161 14.0806 17.0654C14.0116 17.0147 13.954 16.9419 13.9134 16.8541L13.3051 15.5387C13.1121 15.123 12.8389 14.7785 12.5118 14.5386C12.1847 14.2987 11.815 14.1716 11.4384 14.1696H8.56437C8.18784 14.1716 7.81809 14.2987 7.49103 14.5386C7.16396 14.7785 6.89068 15.123 6.6977 15.5387L6.08937 16.8541C6.04877 16.9419 5.9912 17.0147 5.92224 17.0654C5.85328 17.1161 5.77529 17.143 5.69585 17.1434H2.67409C2.60971 17.1437 2.54602 17.1263 2.48727 17.0924C2.42853 17.0585 2.37606 17.009 2.33335 16.947C2.29021 16.8851 2.25763 16.8123 2.2377 16.7333C2.21776 16.6543 2.21092 16.5707 2.21761 16.4881L3.24724 3.39284C3.25763 3.24653 3.31015 3.11048 3.39451 3.01138C3.47887 2.91227 3.58899 2.85726 3.70326 2.85713H16.2991ZM16.2991 1.07141H3.70326C3.24688 1.0737 2.80742 1.29383 2.47013 1.68911C2.13284 2.08439 1.92174 2.62664 1.8778 3.2107L0.848166 16.3059C0.820981 16.6358 0.847884 16.9693 0.927138 17.2849C1.00639 17.6005 1.13624 17.8913 1.30829 18.1384C1.48035 18.3855 1.69079 18.5835 1.92604 18.7196C2.16129 18.8557 2.41613 18.9269 2.67409 18.9286H5.69585C6.01366 18.9279 6.32588 18.821 6.60185 18.6184C6.87782 18.4157 7.10805 18.1242 7.26993 17.7726L7.87826 16.4565C7.94896 16.3033 8.0494 16.1762 8.16975 16.0879C8.2901 15.9995 8.42624 15.9528 8.56483 15.9524H11.4389C11.5775 15.9528 11.7136 15.9995 11.834 16.0879C11.9543 16.1762 12.0548 16.3033 12.1255 16.4565L12.7338 17.7726C12.8956 18.1243 13.1258 18.4158 13.4018 18.6185C13.6778 18.8212 13.9901 18.928 14.3079 18.9286H17.3296C17.5876 18.9269 17.8424 18.8557 18.0777 18.7196C18.3129 18.5835 18.5234 18.3855 18.6954 18.1384C18.8675 17.8913 18.9973 17.6005 19.0766 17.2849C19.1559 16.9693 19.1828 16.6358 19.1556 16.3059L18.1259 3.2107C18.0819 2.62639 17.8706 2.08396 17.533 1.68867C17.1954 1.29337 16.7557 1.07339 16.2991 1.07141Z" fill="#4767E7"/>
<path d="M13.5009 11.1905C13.0889 11.1905 12.6861 11.0334 12.3435 10.739C12.0009 10.4447 11.7339 10.0264 11.5762 9.53693C11.4185 9.04749 11.3772 8.50891 11.4576 7.98932C11.538 7.46973 11.7364 6.99245 12.0278 6.61785C12.3191 6.24324 12.6904 5.98814 13.0945 5.88478C13.4986 5.78143 13.9175 5.83447 14.2982 6.03721C14.6789 6.23994 15.0042 6.58326 15.2332 7.02375C15.4621 7.46424 15.5843 7.98211 15.5843 8.51189C15.5843 9.22229 15.3648 9.90359 14.9741 10.4059C14.5834 10.9083 14.0535 11.1905 13.5009 11.1905ZM13.5009 7.61903C13.3636 7.61903 13.2293 7.67139 13.1151 7.7695C13.0009 7.86761 12.9119 8.00706 12.8593 8.1702C12.8068 8.33335 12.793 8.51288 12.8198 8.68607C12.8466 8.85927 12.9128 9.01836 13.0099 9.14323C13.107 9.2681 13.2307 9.35314 13.3654 9.38759C13.5002 9.42204 13.6398 9.40436 13.7667 9.33678C13.8936 9.2692 14.002 9.15476 14.0783 9.00793C14.1546 8.8611 14.1954 8.68848 14.1954 8.51189C14.1954 8.27508 14.1222 8.04798 13.992 7.88054C13.8617 7.7131 13.6851 7.61903 13.5009 7.61903ZM7.94537 9.40474H7.25092V10.2976C7.25092 10.5344 7.17776 10.7615 7.04752 10.9289C6.91729 11.0964 6.74066 11.1905 6.55648 11.1905C6.3723 11.1905 6.19567 11.0964 6.06543 10.9289C5.9352 10.7615 5.86203 10.5344 5.86203 10.2976V9.40474H5.16759C4.98341 9.40474 4.80678 9.31067 4.67654 9.14323C4.54631 8.97579 4.47314 8.74869 4.47314 8.51189C4.47314 8.27508 4.54631 8.04798 4.67654 7.88054C4.80678 7.7131 4.98341 7.61903 5.16759 7.61903H5.86203V6.72617C5.86203 6.48937 5.9352 6.26227 6.06543 6.09483C6.19567 5.92738 6.3723 5.83331 6.55648 5.83331C6.74066 5.83331 6.91729 5.92738 7.04752 6.09483C7.17776 6.26227 7.25092 6.48937 7.25092 6.72617V7.61903H7.94537C8.12954 7.61903 8.30618 7.7131 8.43641 7.88054C8.56665 8.04798 8.63981 8.27508 8.63981 8.51189C8.63981 8.74869 8.56665 8.97579 8.43641 9.14323C8.30618 9.31067 8.12954 9.40474 7.94537 9.40474Z" fill="#4767E7"/>
</svg>
