<svg width="20" height="20" viewBox="0 0 20 20" fill="none" xmlns="http://www.w3.org/2000/svg">
<g clip-path="url(#clip0_2020_6361)">
<path d="M6.77255 6.75L12.0928 1.425V5.46125C12.0928 5.69125 12.2793 5.87833 12.5099 5.87833C12.7401 5.87833 12.927 5.69125 12.927 5.46083V0H12.5124C12.5107 0 12.509 0 12.5074 0H7.47104C7.24085 0 7.05394 0.186667 7.05436 0.4175C7.05436 0.6475 7.24085 0.834583 7.47104 0.834583H11.5029L6.16856 6.17458C6.15566 6.1875 6.15066 6.20417 6.13984 6.21792C5.5117 5.795 4.75619 5.5475 3.94407 5.5475C1.76911 5.5475 0 7.31875 0 9.49542C0 11.6725 1.76911 13.4442 3.94407 13.4442C6.11861 13.4442 7.88771 11.6725 7.88813 9.49542C7.88813 8.42875 7.46146 7.46125 6.77255 6.75ZM3.94407 12.6092C2.22949 12.6092 0.833769 11.2121 0.833769 9.49542C0.833769 7.77917 2.22949 6.3825 3.94407 6.3825C5.65864 6.3825 7.05394 7.77917 7.05436 9.49542C7.05436 11.2121 5.65864 12.6092 3.94407 12.6092Z" fill="#4767E7"/>
<path d="M16.0366 7.06085C13.8616 7.06085 12.0921 8.8321 12.0921 11.0088C12.0921 11.9471 12.4222 12.8092 12.9708 13.4875L9.73817 16.7234L7.76552 14.7488C7.60234 14.585 7.33927 14.585 7.17609 14.7488C7.01292 14.9121 7.01292 15.1754 7.17609 15.3388L9.14875 17.3134L7.17651 19.2875C7.01333 19.4509 7.01333 19.7142 7.17651 19.8779C7.25768 19.9592 7.36424 20 7.47122 20C7.57778 20 7.68435 19.9592 7.76593 19.8779L9.73859 17.9034L11.7112 19.8779C11.7924 19.9592 11.899 20 12.006 20C12.1125 20 12.2191 19.9592 12.3007 19.8779C12.4638 19.7142 12.4638 19.4509 12.3007 19.2875L10.3284 17.3134L13.5611 14.0775C14.2388 14.6263 15.0996 14.9567 16.037 14.9567C18.2116 14.9567 19.9811 13.185 19.9811 11.0084C19.9811 8.83168 18.2111 7.06085 16.0366 7.06085ZM16.0366 14.1221C14.322 14.1221 12.9259 12.7246 12.9259 11.0088C12.9259 9.29252 14.322 7.89544 16.0366 7.89544C17.7512 7.89544 19.1469 9.29252 19.1469 11.0088C19.1469 12.7246 17.7516 14.1221 16.0366 14.1221Z" fill="#4767E7"/>
</g>
<defs>
<clipPath id="clip0_2020_6361">
<rect width="20" height="20" fill="white"/>
</clipPath>
</defs>
</svg>
