<svg width="20" height="20" viewBox="0 0 20 20" fill="none" xmlns="http://www.w3.org/2000/svg">
<path d="M10.0383 12.3237H9.31104V1.38911C9.3112 1.1145 9.39276 0.846092 9.5454 0.617811C9.69805 0.389529 9.91494 0.211615 10.1687 0.106547C10.4224 0.00147833 10.7015 -0.0260289 10.9709 0.0275005C11.2402 0.0810299 11.4877 0.213194 11.6819 0.407293C11.8116 0.535716 11.9144 0.688673 11.9843 0.857242C12.0543 1.02581 12.0899 1.20662 12.0892 1.38911V12.2982H11.3619V1.38911C11.3622 1.21482 11.2958 1.04703 11.1765 0.920021C11.0839 0.827012 10.9658 0.763619 10.8371 0.737897C10.7085 0.712175 10.575 0.725285 10.4538 0.77556C10.3326 0.825836 10.2291 0.911008 10.1564 1.02025C10.0837 1.1295 10.0451 1.25789 10.0456 1.38911L10.0383 12.3237Z" fill="#4767E7"/>
<path d="M13.722 20H9.72205V18.9855L8.45296 20H4.60205L4.83114 19.4873C4.83114 19.4582 6.20569 16.3709 6.20569 14.3637V14.3055C6.22387 14.2073 6.6566 11.8909 10.7839 11.8909C14.9111 11.8909 15.3402 13.8582 15.3584 13.9418V13.9818C15.3584 14.1637 15.7221 18.4109 13.8202 19.92L13.722 20ZM10.4493 19.2727H13.4639C14.8748 17.9891 14.6711 14.4327 14.6457 14.0727C14.5984 13.9346 14.0748 12.6182 10.7875 12.6182C7.50023 12.6182 6.98387 14.1818 6.93296 14.4037C6.92205 16.0655 6.10751 18.2837 5.72205 19.2727H8.20932L10.4602 17.4546L10.4493 19.2727Z" fill="#4767E7"/>
<path d="M6.38574 14.668L6.39411 13.9407L15.0261 14.0415L15.0177 14.7687L6.38574 14.668Z" fill="#4767E7"/>
</svg>
