<svg width="20" height="20" viewBox="0 0 20 20" fill="none" xmlns="http://www.w3.org/2000/svg">
<path d="M16.3121 8.2198C17.0332 8.2198 17.7542 7.94543 18.3032 7.39647C18.7219 6.97861 18.9982 6.43935 19.0927 5.8554C19.1872 5.27146 19.0951 4.67257 18.8296 4.14397C18.7334 3.9523 17.6536 2.22126 17.0186 1.20626C16.9435 1.08639 16.8392 0.987586 16.7155 0.91914C16.5917 0.850693 16.4526 0.814857 16.3112 0.815003C16.1698 0.815149 16.0307 0.851272 15.9071 0.919973C15.7835 0.988675 15.6794 1.0877 15.6046 1.20772C14.8321 2.44834 13.8921 3.96522 13.8019 4.14688C13.2596 5.23772 13.4684 6.54376 14.3213 7.39647C14.5825 7.65808 14.8929 7.86549 15.2345 8.00679C15.5762 8.14808 15.9424 8.22047 16.3121 8.2198ZM15.2875 4.90209C15.3505 4.78688 15.7911 4.06897 16.314 3.22501C16.8392 4.06918 17.2817 4.78501 17.3398 4.89105C17.448 5.10677 17.4854 5.35109 17.4468 5.58928C17.4081 5.82748 17.2954 6.04745 17.1246 6.21793C16.909 6.43307 16.6168 6.55389 16.3122 6.55389C16.0076 6.55389 15.7155 6.43307 15.4998 6.21793C15.1536 5.87209 15.0713 5.33793 15.2875 4.90209ZM18.303 11.3431C18.5532 11.592 18.7515 11.888 18.8865 12.2141C19.0215 12.5402 19.0904 12.8898 19.0892 13.2427V13.6129C19.0892 13.7685 19.0456 13.9211 18.9633 14.0532C18.8811 14.1853 18.7636 14.2918 18.624 14.3606L16.8063 15.2556C16.7944 15.2615 16.7824 15.2671 16.7702 15.2723L14.6969 16.1727C13.2246 16.8433 11.8348 17.1319 10.0636 17.1319H3.81212C2.75108 17.1319 1.75233 16.5692 1.20025 15.6627C1.19921 15.6633 0.696289 14.8252 0.696289 14.8252L2.61879 14.7902C2.7418 14.9968 2.91654 15.1677 3.12578 15.286C3.33502 15.4044 3.57151 15.4662 3.81191 15.4652H10.0632C11.6013 15.4652 12.7473 15.229 14.0192 14.6498L16.0875 13.7513L17.4123 13.099C17.3819 12.8801 17.2806 12.6772 17.1238 12.5215C17.0294 12.4265 16.917 12.3512 16.7933 12.3C16.6695 12.2487 16.5369 12.2225 16.403 12.2229H10.7952C10.6487 12.2229 10.5047 12.1842 10.3777 12.1108L8.08337 10.7827C7.95717 10.7097 7.85235 10.6048 7.77938 10.4785C7.7064 10.3523 7.66783 10.2091 7.66751 10.0633C7.6672 9.91749 7.70515 9.77414 7.77757 9.64758C7.85 9.52103 7.95437 9.41569 8.08025 9.34209L9.11233 8.73876C9.64983 8.42459 9.89837 7.80209 9.76504 7.22501L4.21233 10.4713C3.66851 10.7906 3.21739 11.2462 2.90354 11.7932C2.5897 12.3402 2.42397 12.9596 2.42275 13.5902V13.7056H0.756081V13.5902C0.756081 11.7217 1.75816 9.97522 3.37129 9.0323L9.69775 5.33459C9.79228 5.27939 9.89677 5.24334 10.0052 5.22852C10.1137 5.2137 10.224 5.22039 10.3299 5.24821C10.4358 5.27603 10.5351 5.32443 10.6223 5.39066C10.7095 5.45688 10.7828 5.53963 10.838 5.63418L11.0511 5.99959C11.8602 7.38668 11.45 9.15563 10.1494 10.0536L11.0188 10.5569H16.4032C16.7561 10.5558 17.1057 10.6248 17.4318 10.7597C17.7579 10.8947 18.054 11.093 18.303 11.3431Z" fill="#4767E7"/>
</svg>
