<svg width="20" height="20" viewBox="0 0 20 20" fill="none" xmlns="http://www.w3.org/2000/svg">
<g clip-path="url(#clip0_2049_3327)">
<path d="M19.4298 10C19.4298 15.2079 15.2078 19.4295 9.99983 19.4295C4.79188 19.4295 0.570312 15.208 0.570312 10C0.570312 4.79206 4.79188 0.570496 9.99983 0.570496C15.2078 0.570496 19.4298 4.79161 19.4298 10Z" stroke="#4767E7"/>
<mask id="path-2-inside-1_2049_3327" fill="white">
<path d="M5.17703 12.3357C4.83822 12.3357 4.63089 12.7039 4.8008 12.9977C5.06476 13.4543 5.38688 13.8725 5.75704 14.2432C6.31358 14.8013 6.97497 15.2439 7.70316 15.5456C8.43135 15.8472 9.21199 16.002 10.0002 16.0009C10.7885 16.0021 11.5692 15.8474 12.2975 15.5457C13.0258 15.2441 13.6873 14.8014 14.2439 14.2432C14.614 13.873 14.9366 13.4543 15.1996 12.9977C15.37 12.7039 15.1632 12.3352 14.8239 12.3352H5.17703V12.3357ZM7.94713 7.40182C7.95082 7.60348 7.91428 7.80384 7.83965 7.99121C7.76503 8.17858 7.65382 8.3492 7.51251 8.49311C7.37121 8.63702 7.20264 8.75133 7.01666 8.82936C6.83069 8.90739 6.63102 8.94758 6.42934 8.94758C6.22765 8.94758 6.02799 8.90739 5.84201 8.82936C5.65604 8.75133 5.48747 8.63702 5.34617 8.49311C5.20486 8.3492 5.09365 8.17858 5.01903 7.99121C4.9444 7.80384 4.90786 7.60348 4.91154 7.40182C4.91159 6.99925 5.07155 6.61317 5.35624 6.32853C5.64092 6.04388 6.02701 5.88397 6.42959 5.88397C6.83217 5.88397 7.21826 6.04388 7.50295 6.32853C7.78763 6.61317 7.94759 6.99925 7.94764 7.40182M14.1811 9.28194C14.0476 9.28194 13.9121 9.24755 13.7892 9.17474L12.0699 8.16136C11.9563 8.0941 11.8618 7.99887 11.7954 7.88473C11.729 7.77059 11.6929 7.64135 11.6906 7.50932C11.6884 7.37729 11.7199 7.24688 11.7823 7.13051C11.8448 7.01415 11.9359 6.9157 12.0472 6.84457L13.766 5.74674C13.8514 5.692 13.9469 5.65466 14.0468 5.63685C14.1467 5.61904 14.2491 5.62112 14.3483 5.64296C14.4474 5.6648 14.5412 5.70598 14.6244 5.76414C14.7075 5.82229 14.7784 5.89629 14.833 5.98188C14.8876 6.06736 14.9249 6.16278 14.9427 6.26268C14.9605 6.36259 14.9584 6.46501 14.9365 6.5641C14.9147 6.6632 14.8735 6.75702 14.8154 6.84019C14.7573 6.92337 14.6834 6.99428 14.5978 7.04886L13.9399 7.46959L14.5746 7.84328C14.7208 7.92933 14.8347 8.06112 14.8986 8.21833C14.9625 8.37553 14.9728 8.5494 14.9281 8.71308C14.8833 8.87676 14.7859 9.02116 14.6509 9.12397C14.5159 9.22678 14.3508 9.2823 14.1811 9.28194Z"/>
</mask>
<path d="M5.17703 12.3357V13.3357H6.17703V12.3357H5.17703ZM4.8008 12.9977L5.66655 12.4972L5.66646 12.497L4.8008 12.9977ZM5.75704 14.2432L6.46516 13.5371L6.46463 13.5365L5.75704 14.2432ZM10.0002 16.0009L10.0017 15.0009L9.99883 15.0009L10.0002 16.0009ZM14.2439 14.2432L13.5367 13.536L13.5357 13.5371L14.2439 14.2432ZM15.1996 12.9977L14.3346 12.4959L14.333 12.4986L15.1996 12.9977ZM14.8239 12.3352V11.3352V12.3352ZM5.17703 12.3352V11.3352H4.17703V12.3352H5.17703ZM6.42934 8.94758L6.42934 7.94758L6.42934 8.94758ZM4.91154 7.40182L5.91138 7.42008L5.91154 7.41101L5.91154 7.40195L4.91154 7.40182ZM6.42959 5.88397L6.42959 4.88397L6.42959 5.88397ZM14.1811 9.28194L14.1833 8.28194H14.1811V9.28194ZM13.7892 9.17474L14.299 8.31444L14.297 8.31324L13.7892 9.17474ZM12.0699 8.16136L11.5606 9.02195L11.5622 9.02285L12.0699 8.16136ZM12.0472 6.84457L11.5089 6.0018L11.5085 6.00209L12.0472 6.84457ZM13.766 5.74674L14.3043 6.5895L14.3053 6.58882L13.766 5.74674ZM14.833 5.98188L13.9896 6.51924L13.9905 6.52068L14.833 5.98188ZM14.5978 7.04886L14.0599 6.20586L14.0591 6.2064L14.5978 7.04886ZM13.9399 7.46959L13.4012 6.62713L12.0288 7.50474L13.4325 8.33129L13.9399 7.46959ZM14.5746 7.84328L14.0672 8.70499L14.0675 8.7052L14.5746 7.84328ZM5.17703 11.3357C4.04733 11.3357 3.39013 12.5559 3.93514 13.4983L5.66646 12.497C5.87165 12.8519 5.62911 13.3357 5.17703 13.3357V11.3357ZM3.93505 13.4981C4.24304 14.0309 4.61853 14.5183 5.04945 14.9498L6.46463 13.5365C6.15523 13.2267 5.88649 12.8777 5.66655 12.4972L3.93505 13.4981ZM5.04892 14.9493C5.69852 15.6007 6.47049 16.1173 7.32044 16.4694L8.08587 14.6217C7.47944 14.3705 6.92864 14.0019 6.46516 13.5371L5.04892 14.9493ZM7.32044 16.4694C8.17039 16.8215 9.08156 17.0021 10.0016 17.0009L9.99883 15.0009C9.34242 15.0018 8.69231 14.8729 8.08587 14.6217L7.32044 16.4694ZM9.99868 17.0009C10.9188 17.0023 11.8301 16.8217 12.6802 16.4696L11.9149 14.6219C11.3084 14.8731 10.6582 15.0019 10.0017 15.0009L9.99868 17.0009ZM12.6802 16.4696C13.5303 16.1175 14.3024 15.6008 14.952 14.9492L13.5357 13.5371C13.0722 14.002 12.5213 14.3707 11.9149 14.6219L12.6802 16.4696ZM14.951 14.9503C15.3821 14.5191 15.7587 14.0306 16.0662 13.4967L14.333 12.4986C14.1146 12.878 13.8459 13.2269 13.5367 13.536L14.951 14.9503ZM16.0646 13.4994C16.6105 12.5582 15.956 11.3352 14.8239 11.3352L14.8239 13.3352C14.3703 13.3352 14.1295 12.8495 14.3346 12.4959L16.0646 13.4994ZM14.8239 11.3352H5.17703V13.3352H14.8239V11.3352ZM4.17703 12.3352V12.3357H6.17703V12.3352H4.17703ZM6.9473 7.42008C6.94856 7.48889 6.93609 7.55727 6.91062 7.62121L8.76869 8.36121C8.89247 8.05041 8.95307 7.71806 8.94697 7.38357L6.9473 7.42008ZM6.91062 7.62121C6.88516 7.68515 6.8472 7.74338 6.79898 7.79249L8.22604 9.19374C8.46043 8.95503 8.6449 8.67201 8.76869 8.36121L6.91062 7.62121ZM6.79898 7.79249C6.75076 7.8416 6.69324 7.88061 6.62977 7.90724L7.40356 9.75148C7.71205 9.62205 7.99165 9.43244 8.22604 9.19374L6.79898 7.79249ZM6.62977 7.90724C6.5663 7.93386 6.49817 7.94758 6.42934 7.94758L6.42934 9.94758C6.76388 9.94758 7.09507 9.88092 7.40356 9.75148L6.62977 7.90724ZM6.42934 7.94758C6.36051 7.94758 6.29238 7.93386 6.22891 7.90724L5.45512 9.75148C5.76361 9.88092 6.0948 9.94758 6.42934 9.94758L6.42934 7.94758ZM6.22891 7.90724C6.16544 7.88061 6.10792 7.8416 6.0597 7.79249L4.63264 9.19374C4.86702 9.43244 5.14663 9.62205 5.45512 9.75148L6.22891 7.90724ZM6.0597 7.79249C6.01148 7.74338 5.97352 7.68515 5.94806 7.62121L4.08999 8.36121C4.21377 8.67201 4.39825 8.95503 4.63264 9.19374L6.0597 7.79249ZM5.94806 7.62121C5.92259 7.55727 5.91012 7.48889 5.91138 7.42008L3.91171 7.38357C3.9056 7.71806 3.96621 8.05041 4.08999 8.36121L5.94806 7.62121ZM5.91154 7.40195C5.91156 7.26457 5.96615 7.13282 6.0633 7.03568L4.64917 5.62137C4.17696 6.09353 3.91163 6.73393 3.91154 7.4017L5.91154 7.40195ZM6.0633 7.03568C6.16045 6.93854 6.29221 6.88397 6.42959 6.88397L6.42959 4.88397C5.76182 4.88397 5.12139 5.14922 4.64917 5.62137L6.0633 7.03568ZM6.42959 6.88397C6.56698 6.88397 6.69873 6.93854 6.79589 7.03568L8.21001 5.62137C7.73779 5.14922 7.09737 4.88397 6.42959 4.88397V6.88397ZM6.79589 7.03568C6.89304 7.13282 6.94762 7.26457 6.94764 7.40195L8.94764 7.4017C8.94756 6.73393 8.68223 6.09353 8.21001 5.62137L6.79589 7.03568ZM14.1811 8.28194C14.2198 8.28194 14.2615 8.29218 14.299 8.31444L13.2794 10.035C13.5628 10.2029 13.8755 10.2819 14.1811 10.2819V8.28194ZM14.297 8.31324L12.5777 7.29986L11.5622 9.02285L13.2815 10.0362L14.297 8.31324ZM12.5792 7.30076C12.6126 7.32049 12.6403 7.34843 12.6598 7.38191L10.931 8.38755C11.0833 8.64931 11.3 8.86772 11.5606 9.02195L12.5792 7.30076ZM12.6598 7.38191C12.6793 7.4154 12.6898 7.45331 12.6905 7.49204L10.6908 7.5266C10.696 7.82938 10.7787 8.12578 10.931 8.38755L12.6598 7.38191ZM12.6905 7.49204C12.6912 7.53077 12.6819 7.56903 12.6636 7.60316L10.9011 6.65786C10.758 6.92473 10.6856 7.22381 10.6908 7.5266L12.6905 7.49204ZM12.6636 7.60316C12.6453 7.6373 12.6185 7.66618 12.5859 7.68705L11.5085 6.00209C11.2533 6.16523 11.0442 6.39099 10.9011 6.65786L12.6636 7.60316ZM12.5855 7.68733L14.3043 6.5895L13.2277 4.90398L11.5089 6.00181L12.5855 7.68733ZM14.3053 6.58882C14.28 6.60502 14.2518 6.61607 14.2222 6.62134L13.8713 4.65236C13.6419 4.69325 13.4229 4.77898 13.2266 4.90466L14.3053 6.58882ZM14.2222 6.62134C14.1927 6.6266 14.1624 6.62599 14.133 6.61953L14.5635 4.66639C14.3359 4.61625 14.1007 4.61148 13.8713 4.65236L14.2222 6.62134ZM14.133 6.61953C14.1037 6.61306 14.0759 6.60088 14.0513 6.58367L15.1974 4.9446C15.0064 4.81108 14.791 4.71654 14.5635 4.66639L14.133 6.61953ZM14.0513 6.58367C14.0267 6.56646 14.0058 6.54457 13.9896 6.51924L15.6763 5.44451C15.5511 5.24801 15.3884 5.07813 15.1974 4.9446L14.0513 6.58367ZM13.9905 6.52068C13.9744 6.49545 13.9634 6.4673 13.9582 6.43782L15.9272 6.08754C15.8865 5.85827 15.8009 5.63927 15.6754 5.44308L13.9905 6.52068ZM13.9582 6.43782C13.9529 6.40836 13.9535 6.37813 13.96 6.34889L15.9131 6.77932C15.9632 6.55189 15.968 6.31682 15.9272 6.08754L13.9582 6.43782ZM13.96 6.34889C13.9664 6.31965 13.9786 6.29197 13.9957 6.26743L15.6351 7.41296C15.7685 7.22206 15.863 7.00675 15.9131 6.77932L13.96 6.34889ZM13.9957 6.26743C14.0129 6.24289 14.0347 6.22197 14.0599 6.20586L15.1357 7.89186C15.3321 7.76659 15.5018 7.60385 15.6351 7.41296L13.9957 6.26743ZM14.0591 6.2064L13.4012 6.62713L14.4787 8.31205L15.1366 7.89132L14.0591 6.2064ZM13.4325 8.33129L14.0672 8.70499L15.082 6.98158L14.4473 6.60788L13.4325 8.33129ZM14.0675 8.7052C14.0245 8.67988 13.991 8.6411 13.9722 8.59486L15.825 7.8418C15.6784 7.48115 15.4172 7.17877 15.0816 6.98137L14.0675 8.7052ZM13.9722 8.59486C13.9534 8.54861 13.9503 8.49746 13.9635 8.4493L15.8927 8.97686C15.9954 8.60133 15.9716 8.20245 15.825 7.8418L13.9722 8.59486ZM13.9635 8.4493C13.9767 8.40114 14.0053 8.35866 14.045 8.32842L15.2568 9.91952C15.5665 9.68365 15.79 9.35238 15.8927 8.97686L13.9635 8.4493ZM14.045 8.32842C14.0848 8.29817 14.1333 8.28184 14.1833 8.28194L14.179 10.2819C14.5683 10.2828 14.9471 10.1554 15.2568 9.91952L14.045 8.32842Z" fill="#4767E7" mask="url(#path-2-inside-1_2049_3327)"/>
</g>
<defs>
<clipPath id="clip0_2049_3327">
<rect width="20" height="20" fill="white"/>
</clipPath>
</defs>
</svg>
