<svg width="20" height="20" viewBox="0 0 20 20" fill="none" xmlns="http://www.w3.org/2000/svg">
<g clip-path="url(#clip0_2020_6370)">
<path d="M19.2225 8.95342L10.4594 0.190266C10.2057 -0.0634219 9.79444 -0.0634219 9.54075 0.190266L6.56781 3.16321V2.64126C6.56781 2.28248 6.27702 1.9917 5.91825 1.9917H3.96439C3.60562 1.9917 3.31483 2.28248 3.31483 2.64126V6.41626L0.777668 8.95342C0.52398 9.20711 0.52398 9.61835 0.777668 9.87204C1.03136 10.1257 1.4426 10.1257 1.69628 9.87204L10.0001 1.56819L18.3039 9.87204C18.4307 9.99885 18.597 10.0623 18.7632 10.0623C18.9294 10.0623 19.0956 9.99885 19.2225 9.87204C19.4762 9.61835 19.4762 9.20711 19.2225 8.95342ZM4.61394 3.29074H5.2687V4.46225L4.61387 5.11707V3.29074H4.61394Z" fill="#4767E7"/>
<path d="M10.4594 3.39632C10.2057 3.14263 9.7945 3.14263 9.54082 3.39632L2.31574 10.6214C2.19391 10.7432 2.12549 10.9084 2.12549 11.0807V19.3504C2.12549 19.7092 2.41627 20 2.77504 20H8.07029C8.42907 20 8.71985 19.7092 8.71985 19.3504V15.3213H11.2805V19.3504C11.2805 19.7092 11.5713 20 11.93 20H17.2252C17.584 20 17.8748 19.7092 17.8748 19.3504V11.0807C17.8748 10.9084 17.8063 10.7432 17.6845 10.6214L10.4594 3.39632ZM16.5756 18.7009H12.5796V14.6717C12.5796 14.313 12.2888 14.0222 11.93 14.0222H8.07029C7.71152 14.0222 7.42074 14.313 7.42074 14.6717V18.7009H3.4246V11.3498L10.0001 4.77424L16.5756 11.3498V18.7009Z" fill="#4767E7"/>
</g>
<defs>
<clipPath id="clip0_2020_6370">
<rect width="20" height="20" fill="white"/>
</clipPath>
</defs>
</svg>
