<svg width="20" height="20" viewBox="0 0 20 20" fill="none" xmlns="http://www.w3.org/2000/svg">
<path d="M19.8437 0.097229V14.8889C19.8436 15.5547 19.6396 16.2023 19.2627 16.7331C18.8858 17.2639 18.3567 17.6489 17.7559 17.8294C17.155 18.01 16.5153 17.9762 15.9341 17.7333C15.3529 17.4904 14.862 17.0517 14.536 16.4838C14.2101 15.9159 14.067 15.25 14.1284 14.5874C14.1899 13.9248 14.4526 13.3018 14.8766 12.8131C15.3005 12.3244 15.8626 11.9967 16.4771 11.8801C17.0917 11.7634 17.7252 11.864 18.2812 12.1667V5.79167L6.82285 6.76945V16C6.82291 16.7892 6.53672 17.5478 6.02421 18.1169C5.5117 18.6861 4.81262 19.0216 4.07337 19.0533L3.95827 19.0556C3.52522 19.0554 3.09785 18.9505 2.70829 18.7488C2.31873 18.5471 1.97711 18.2537 1.70913 17.8909C1.44114 17.5281 1.25377 17.1051 1.16109 16.6539C1.06842 16.2027 1.07286 15.735 1.17407 15.2858C1.27528 14.8367 1.47064 14.4179 1.74545 14.0609C2.02026 13.704 2.36737 13.4181 2.76068 13.2248C3.15399 13.0315 3.58326 12.9359 4.01622 12.9451C4.44918 12.9542 4.87455 13.068 5.26035 13.2778V1.34167L19.8437 0.097229ZM3.95827 14.6111C3.78728 14.6111 3.61796 14.647 3.45998 14.7168C3.30201 14.7866 3.15847 14.8889 3.03756 15.0179C2.91665 15.1469 2.82073 15.3 2.7553 15.4685C2.68986 15.637 2.65618 15.8176 2.65618 16C2.65618 16.1824 2.68986 16.363 2.7553 16.5315C2.82073 16.7 2.91665 16.8531 3.03756 16.9821C3.15847 17.1111 3.30201 17.2134 3.45998 17.2832C3.61796 17.353 3.78728 17.3889 3.95827 17.3889C4.3036 17.3889 4.63479 17.2426 4.87898 16.9821C5.12317 16.7216 5.26035 16.3684 5.26035 16C5.26035 15.6317 5.12317 15.2784 4.87898 15.0179C4.63479 14.7574 4.3036 14.6111 3.95827 14.6111ZM16.9791 13.5C16.6338 13.5 16.3026 13.6463 16.0584 13.9068C15.8142 14.1673 15.677 14.5205 15.677 14.8889C15.677 15.2573 15.8142 15.6105 16.0584 15.871C16.3026 16.1315 16.6338 16.2778 16.9791 16.2778C17.3244 16.2778 17.6556 16.1315 17.8998 15.871C18.144 15.6105 18.2812 15.2573 18.2812 14.8889C18.2812 14.5205 18.144 14.1673 17.8998 13.9068C17.6556 13.6463 17.3244 13.5 16.9791 13.5ZM18.2812 1.90278L6.82285 2.88056V5.09723L18.2812 4.11945V1.90278Z" fill="#4767E7"/>
</svg>
