<svg width="22" height="20" viewBox="0 0 22 20" fill="none" xmlns="http://www.w3.org/2000/svg">
<g clip-path="url(#clip0_2020_6373)">
<path d="M10.6545 5.72154L10.7151 5.78212L12.3768 4.17229C12.5496 4.01946 12.7143 3.85767 12.8702 3.68759L13.0865 3.46257L13.3721 3.17695C13.5757 2.9956 13.7382 2.77281 13.8487 2.52353C13.9592 2.27424 14.015 2.00422 14.0126 1.73157C14.0334 1.51973 14.0103 1.30589 13.9448 1.10337C13.8793 0.900846 13.7727 0.713999 13.6318 0.554483C13.4367 0.350998 13.1966 0.196173 12.9307 0.102475C12.6648 0.00877708 12.3807 -0.0211739 12.1011 0.0150339C11.8215 0.0512418 11.5544 0.152597 11.3211 0.310936C11.0879 0.469275 10.8951 0.680173 10.7583 0.926644C10.6096 0.643392 10.3853 0.4069 10.1103 0.243424C9.83524 0.0799487 9.52031 -0.00411448 9.20042 0.000567663C8.72755 0.000567663 8.27406 0.188412 7.93969 0.522778C7.60533 0.857143 7.41748 1.31064 7.41748 1.7835C7.42247 2.04611 7.48198 2.30481 7.59223 2.54319C7.70249 2.78158 7.86108 2.99445 8.05796 3.1683L10.6545 5.72154ZM19.2749 14.5756C19.1538 14.4728 19.001 14.4147 18.8421 14.4112C18.7151 14.4098 18.5906 14.4467 18.4849 14.5171C18.3792 14.5875 18.2971 14.6882 18.2495 14.8059C18.2018 14.9236 18.1908 15.053 18.2177 15.1771C18.2447 15.3013 18.3085 15.4144 18.4007 15.5017C19.417 16.504 20.0325 17.8427 20.1317 19.2666C20.1211 19.3588 20.1301 19.4521 20.1581 19.5405C20.1861 19.6289 20.2324 19.7104 20.2941 19.7796C20.3559 19.8489 20.4315 19.9043 20.5161 19.9422C20.6007 19.9801 20.6924 19.9997 20.7852 19.9997C20.8779 19.9997 20.9696 19.9801 21.0542 19.9422C21.1388 19.9043 21.2145 19.8489 21.2762 19.7796C21.3379 19.7104 21.3843 19.6289 21.4123 19.5405C21.4403 19.4521 21.4492 19.3588 21.4386 19.2666C21.2761 17.5013 20.5122 15.8452 19.2749 14.5756Z" fill="#4767E7"/>
<path d="M14.8693 5.61768C13.7768 5.62185 12.7289 6.05181 11.9483 6.81624C11.1678 7.58066 10.716 8.6193 10.6889 9.71151C10.6513 8.62283 10.1961 7.5904 9.41781 6.82823C8.63952 6.06605 7.5978 5.63259 6.50857 5.61768C5.6181 5.61795 4.75068 5.90082 4.03123 6.42554C3.31178 6.95026 2.77742 7.68977 2.50508 8.53758C2.23274 9.38538 2.23648 10.2977 2.51577 11.1433C2.79505 11.9888 3.33547 12.7239 4.0592 13.2427C3.33393 13.5411 2.68367 13.9963 2.1551 14.5756C0.890738 15.8432 0.125617 17.524 0 19.3099C0.0100456 19.4796 0.0814188 19.6399 0.200833 19.7609C0.320247 19.8819 0.479565 19.9554 0.649129 19.9677C0.820229 19.9574 0.981637 19.8848 1.10284 19.7636C1.22404 19.6424 1.29664 19.481 1.30691 19.3099C1.42346 17.8905 2.03633 16.5575 3.03791 15.545C3.92871 14.6645 5.11831 14.1516 6.37008 14.1083H6.50857C7.5924 14.1045 8.63279 13.6818 9.41198 12.9284C10.1912 12.175 10.6488 11.1494 10.689 10.0663C10.7236 10.6911 10.897 11.3003 11.1964 11.8497C11.4958 12.3991 11.9137 12.875 12.4199 13.2428C11.7708 13.5246 11.1828 13.9303 10.6889 14.4371H10.5158C10.353 14.433 10.1949 14.4919 10.0744 14.6016C10.0126 14.6611 9.96314 14.7323 9.92897 14.811C9.89481 14.8897 9.87659 14.9745 9.87538 15.0603C9.87264 15.1506 9.89352 15.2402 9.93597 15.32C9.01988 16.4673 8.48169 17.8702 8.39537 19.3359C8.40542 19.5056 8.4768 19.6659 8.59621 19.7869C8.71563 19.9079 8.87494 19.9814 9.0445 19.9937C9.21497 19.9816 9.37535 19.9084 9.49619 19.7876C9.61703 19.6667 9.6902 19.5063 9.70228 19.3359C9.77006 18.2694 10.1492 17.2462 10.7928 16.3932C11.4184 17.2362 11.7826 18.2444 11.8401 19.2926C11.8585 19.453 11.9353 19.6009 12.0558 19.7084C12.1763 19.8158 12.3321 19.8751 12.4935 19.8751C12.6549 19.8751 12.8107 19.8158 12.9312 19.7084C13.0517 19.6009 13.1285 19.453 13.147 19.2926C13.0411 17.886 12.52 16.5425 11.6496 15.4325C12.4881 14.6515 13.5703 14.1838 14.7135 14.1082H14.852C15.9631 14.1037 17.0273 13.6597 17.8121 12.8732C18.597 12.0867 19.0388 11.0217 19.0411 9.91056C19.0504 8.79006 18.6177 7.71103 17.8368 6.90742C17.0559 6.10382 15.9897 5.64041 14.8693 5.61768H14.8693ZM17.8553 9.81535C17.8513 10.5774 17.5527 11.3084 17.0219 11.8553C16.4912 12.4022 15.7695 12.7226 15.0078 12.7494H14.7828C14.2147 12.719 13.6678 12.5231 13.2096 12.1858C12.7514 11.8485 12.4019 11.3845 12.204 10.8511C12.0062 10.3177 11.9687 9.738 12.0961 9.1835C12.2236 8.629 12.5104 8.12389 12.9213 7.73035C13.3322 7.33682 13.8492 7.07205 14.4087 6.96865C14.9682 6.86526 15.5457 6.92775 16.0701 7.14843C16.5945 7.36911 17.0429 7.73835 17.3601 8.21067C17.6773 8.683 17.8495 9.23778 17.8553 9.8067V9.81535ZM9.45131 9.81535C9.44731 10.5774 9.14867 11.3084 8.61791 11.8553C8.08715 12.4022 7.36541 12.7226 6.60378 12.7494H6.3701C5.80244 12.7173 5.25654 12.52 4.79953 12.1818C4.34252 11.8435 3.99433 11.3791 3.79778 10.8456C3.60124 10.3121 3.56491 9.73276 3.69326 9.17887C3.8216 8.62498 4.10904 8.12068 4.52021 7.728C4.93138 7.33531 5.44835 7.07135 6.00755 6.96859C6.56675 6.86584 7.14379 6.92875 7.66771 7.14961C8.19162 7.37047 8.63957 7.73963 8.95645 8.2117C9.27332 8.68378 9.44532 9.23817 9.45129 9.8067L9.45131 9.81535Z" fill="#4767E7"/>
</g>
<defs>
<clipPath id="clip0_2020_6373">
<rect width="21.4453" height="20" fill="white"/>
</clipPath>
</defs>
</svg>
