<svg width="20" height="20" viewBox="0 0 20 20" fill="none" xmlns="http://www.w3.org/2000/svg">
<g clip-path="url(#clip0_2049_3309)">
<path d="M11.0898 13.9258C11.0938 14.1211 11.0195 14.2383 10.8594 14.3359L9.76562 13.1875M11.0898 13.9258C11.0859 13.8164 11.0586 13.7305 10.8594 13.6055C10.6172 13.4531 10.2578 13.3359 9.76562 13.1875M11.0898 13.9258L10.6485 13.9415L10.648 13.9416L10.6195 13.9426L10.6156 13.9427L10.5916 13.9436M11.0898 13.9258L10.6529 13.9345L10.6524 13.9345L10.6151 13.9353L10.611 13.9354L10.5944 13.9357M9.76562 13.1875L9.62125 13.6662C9.62181 13.6664 9.62237 13.6665 9.62293 13.6667L9.62454 13.6672L9.76562 13.1875ZM11.2812 8.56293V8.4375C11.2812 7.73167 10.7058 7.15625 10 7.15625C9.29417 7.15625 8.71875 7.73167 8.71875 8.4375V8.60511C8.50914 8.67561 8.30006 8.76712 8.09886 8.88496L8.09885 8.88495L8.09522 8.88712C7.44242 9.27692 6.8388 9.98855 6.84376 11.0336L6.84376 11.0337C6.84881 12.0595 7.46296 12.6977 8.05159 13.05C8.54387 13.3453 9.13873 13.5245 9.55814 13.6477C9.55822 13.6477 9.55829 13.6477 9.55837 13.6477L11.2812 8.56293ZM11.2812 8.56293C11.1473 8.5331 11.0087 8.50497 10.8678 8.4802L10.7812 8.97266H11.2812V8.56293ZM9.67167 10.9944C9.55785 11.0181 9.46187 11.0533 9.39943 11.0903L9.39647 11.0921L9.39647 11.092C9.3688 11.1082 9.35906 11.1171 9.35902 11.1171C9.35898 11.1172 9.36682 11.11 9.37653 11.0946C9.38039 11.0884 9.38385 11.082 9.38689 11.0756C9.38746 11.0744 9.38802 11.0732 9.38857 11.072C9.39306 11.0619 9.39654 11.0518 9.39894 11.0421C9.40118 11.0332 9.40197 11.0267 9.40223 11.0238M9.67167 10.9944L9.40241 11.0289C9.4024 11.0288 9.40238 11.0281 9.40236 11.0265M9.67167 10.9944C9.54361 10.947 9.44504 10.9029 9.36502 10.8555M9.67167 10.9944L9.36502 10.8555M9.40223 11.0238C9.40229 11.0248 9.40233 11.0257 9.40236 11.0265M9.40223 11.0238C9.40223 11.0237 9.40222 11.0236 9.40221 11.0234C9.40178 11.0156 9.40053 11.0002 9.3971 10.9824C9.38972 10.9441 9.37537 10.9061 9.35522 10.8728L9.36541 10.8557C9.36528 10.8556 9.36515 10.8555 9.36502 10.8555M9.40223 11.0238C9.40225 11.0237 9.40226 11.0236 9.40227 11.0234C9.40234 11.0226 9.40236 11.0221 9.40236 11.022C9.40237 11.0219 9.40234 11.0224 9.40234 11.0234C9.40234 11.0247 9.40235 11.0257 9.40236 11.0265M9.40236 11.0265L9.36502 10.8555M10.5944 13.9357C10.5963 13.9307 10.5987 13.9254 10.6016 13.9202C10.6021 13.9192 10.6027 13.9183 10.6032 13.9173C10.6034 13.9171 10.6035 13.9168 10.6037 13.9166C10.6112 13.9038 10.6183 13.8964 10.6203 13.8945C10.6215 13.8933 10.6163 13.8985 10.5991 13.909L10.5991 13.909L10.5959 13.911C10.5669 13.9289 10.5261 13.9476 10.4754 13.9643C10.5197 13.9857 10.5587 14.007 10.5931 14.0287L10.5936 14.029C10.627 14.0499 10.6418 14.0622 10.646 14.0659C10.6493 14.0689 10.639 14.0604 10.6257 14.0394C10.6189 14.0287 10.613 14.0175 10.6081 14.006C10.608 14.0058 10.6079 14.0056 10.6078 14.0054C10.6022 13.9924 10.5977 13.9791 10.5946 13.9662C10.5926 13.9581 10.5914 13.9513 10.5907 13.9466M10.5944 13.9357L10.5899 13.9358C10.59 13.9373 10.59 13.9388 10.59 13.9401M10.5944 13.9357L10.5907 13.9466M10.59 13.9401C10.59 13.9398 10.59 13.9398 10.59 13.94C10.59 13.9401 10.59 13.9401 10.59 13.9401M10.59 13.9401C10.59 13.9405 10.5901 13.9417 10.5902 13.9436L10.5904 13.9436M10.59 13.9401C10.59 13.9401 10.59 13.9401 10.59 13.9401M10.59 13.9401C10.59 13.9406 10.5901 13.9418 10.5904 13.9436M10.59 13.9401C10.59 13.9476 10.5896 13.9514 10.5895 13.9522C10.5894 13.9528 10.5895 13.9519 10.59 13.9498C10.5902 13.9489 10.5904 13.9478 10.5907 13.9466M10.5904 13.9436C10.5905 13.9445 10.5906 13.9455 10.5907 13.9466M10.5904 13.9436L10.5916 13.9436M10.5907 13.9466C10.591 13.9457 10.5913 13.9447 10.5916 13.9436M10.5907 13.9466L10.5916 13.9436M7.26178 5.74922L7.26178 5.74922L7.26345 5.74814C7.32368 5.70924 7.38329 5.67093 7.44152 5.63349C7.5131 5.58747 7.5826 5.54279 7.64865 5.5H12.3507C12.4683 5.5768 12.5974 5.66015 12.7393 5.74993C14.9608 7.17215 19.5 10.0952 19.5 16.25C19.5 18.0442 18.0442 19.5 16.25 19.5H3.75C1.95583 19.5 0.5 18.0442 0.5 16.25C0.5 10.0942 5.0407 7.17118 7.26178 5.74922ZM10.3606 11.217C10.3592 11.2166 10.3578 11.2162 10.3564 11.2157L10.3522 11.2146L10.2148 11.6953L10.3606 11.217ZM11.9478 16.0964C11.9479 16.0963 11.9481 16.0962 11.9482 16.0961C11.9483 16.096 11.9485 16.096 11.9486 16.0959L11.6836 15.6719L11.9478 16.0964ZM10.8813 16.5125C11.0117 16.4848 11.1445 16.45 11.2773 16.4064V16.0234H10.7773L10.8813 16.5125ZM8.71484 15.9844V16.3754C8.84247 16.411 8.97476 16.4444 9.1104 16.4733L9.21484 15.9844H8.71484ZM8.52921 13.6194C8.52817 13.6191 8.52713 13.6187 8.52609 13.6184C8.52522 13.6181 8.52435 13.6178 8.52348 13.6175L8.37109 14.0938L8.52921 13.6194ZM8.8166 13.7153C8.81591 13.715 8.81521 13.7148 8.81451 13.7145C8.81385 13.7143 8.8132 13.7141 8.81255 13.7139L8.65234 14.1875L8.8166 13.7153ZM10.0411 14.0198L10.0234 14.5195L10.0414 14.0199C10.0413 14.0199 10.0412 14.0198 10.0411 14.0198ZM12.2324 3.25H7.76759L6.06506 0.696205C6.06499 0.696105 6.06493 0.696004 6.06486 0.695904C6.00715 0.608464 6.06918 0.5 6.16797 0.5H13.832C13.9308 0.5 13.9929 0.608464 13.9351 0.695904C13.9351 0.696004 13.935 0.696105 13.9349 0.696205L12.2324 3.25Z" stroke="#4767E7"/>
</g>
<defs>
<clipPath id="clip0_2049_3309">
<rect width="20" height="20" fill="white"/>
</clipPath>
</defs>
</svg>
