<svg width="20" height="20" viewBox="0 0 20 20" fill="none" xmlns="http://www.w3.org/2000/svg">
<g clip-path="url(#clip0_2020_6378)">
<path d="M5.78174 0.185181C5.02043 0.185181 4.25911 0.370366 3.55952 0.69444C2.85993 1.04166 2.22207 1.52777 1.68709 2.15277C1.15211 2.77777 0.74059 3.49537 0.4731 4.30555C0.226187 5.11574 0.10273 5.97222 0.123306 6.8287V7.15277C0.123306 8.6574 0.493676 10.2083 1.25499 11.8287C1.89285 13.1944 2.81878 14.5833 3.88874 15.8333C4.89697 16.9907 5.9875 17.963 7.07804 18.6806C7.85993 19.213 9.03277 19.8148 10.041 19.8148C11.4608 19.8148 13.4566 18.6574 15.3908 16.7361C17.4484 14.6759 18.9916 12.1296 19.6295 9.74537C19.7324 9.35185 19.5266 8.95833 19.1768 8.84259C19.1151 8.81944 19.0533 8.81944 18.9916 8.81944C18.7036 8.81944 18.4566 9.02777 18.3743 9.3287C17.7982 11.4583 16.399 13.7731 14.5266 15.6481C13.1891 16.9676 11.2756 18.3333 10.0616 18.3333C8.6624 18.3333 6.37845 16.5509 4.83524 14.7917C4.13565 14.0046 3.49779 13.125 2.96281 12.1759L2.88051 12.0139H5.63771C5.92577 12.0139 6.17269 11.8056 6.25499 11.5046L7.01631 8.98148L8.41549 13.6806C8.49779 13.9583 8.72413 14.1435 8.97104 14.1898H9.03277C9.25911 14.1898 9.48545 14.0509 9.6089 13.8194L11.0698 10.9028L11.5431 11.6898C11.6665 11.8981 11.8723 12.0139 12.078 12.0139H14.0328C14.4031 12.0139 14.6912 11.6898 14.6912 11.2731C14.6912 10.8565 14.4031 10.5324 14.0328 10.5324H12.4278L11.5431 9.09722C11.4196 8.88888 11.2138 8.77314 11.0081 8.77314H10.9875C10.7612 8.77314 10.5554 8.93518 10.4525 9.14351L9.1768 11.6435L7.63359 6.45833C7.55129 6.1574 7.30438 5.94907 7.01631 5.94907C6.72824 5.94907 6.48133 6.1574 6.39903 6.45833L5.14388 10.5556H2.44841C2.38668 10.5556 2.32495 10.5787 2.26322 10.6018H2.18092L2.13977 10.5093C1.66652 9.3287 1.44018 8.19444 1.44018 7.15277V6.7824C1.37845 5.46296 1.83112 4.14351 2.63359 3.17129C3.45664 2.19907 4.58833 1.64351 5.78174 1.64351C7.32495 1.64351 8.72413 2.52314 9.50602 4.02777C9.62948 4.23611 9.83524 4.375 10.0616 4.375C10.2879 4.375 10.4937 4.23611 10.6171 4.02777C11.0081 3.33333 11.5431 2.75463 12.2015 2.36111C12.8394 1.96759 13.5595 1.75925 14.3003 1.75925C15.3085 1.75925 16.2756 2.15277 17.0575 2.87037C17.8394 3.58796 18.3743 4.58333 18.5801 5.67129C18.6418 6.01851 18.9093 6.25 19.218 6.25C19.2591 6.25 19.3003 6.25 19.3414 6.22685C19.6912 6.13425 19.9175 5.76388 19.8558 5.37037C19.5883 3.93518 18.8887 2.63888 17.8805 1.71296C16.8723 0.787032 15.5966 0.277773 14.3003 0.277773H14.2797C12.7159 0.277773 11.1933 1.01851 10.1439 2.31481L10.0822 2.4074L10.0204 2.31481C8.95047 0.972218 7.40726 0.185181 5.78174 0.185181Z" fill="#4767E7"/>
</g>
<defs>
<clipPath id="clip0_2020_6378">
<rect width="20" height="20" fill="white"/>
</clipPath>
</defs>
</svg>
