<svg width="21" height="20" viewBox="0 0 21 20" fill="none" xmlns="http://www.w3.org/2000/svg">
<path d="M18.2109 2.23438C17.7011 1.7243 17.0958 1.31966 16.4295 1.04359C15.7633 0.767522 15.0492 0.625427 14.328 0.625427C13.6069 0.625427 12.8928 0.767522 12.2266 1.04359C11.5603 1.31966 10.955 1.7243 10.4452 2.23438L2.6796 10C2.1697 10.5099 1.76523 11.1152 1.48928 11.7815C1.21332 12.4477 1.07129 13.1617 1.07129 13.8828C1.07129 14.6039 1.21332 15.318 1.48928 15.9842C1.76523 16.6504 2.1697 17.2557 2.6796 17.7656C3.1895 18.2755 3.79484 18.68 4.46105 18.956C5.12727 19.2319 5.84131 19.3739 6.56241 19.3739C7.28352 19.3739 7.99756 19.2319 8.66378 18.956C9.32999 18.68 9.93533 18.2755 10.4452 17.7656L18.2109 10C18.7209 9.49021 19.1256 8.8849 19.4016 8.21868C19.6777 7.55245 19.8198 6.83835 19.8198 6.11719C19.8198 5.39603 19.6777 4.68193 19.4016 4.01571C19.1256 3.34948 18.7209 2.74418 18.2109 2.23438ZM8.97127 16.2969C8.65493 16.6132 8.27939 16.8641 7.86608 17.0353C7.45276 17.2065 7.00978 17.2947 6.56241 17.2947C6.11505 17.2947 5.67206 17.2065 5.25875 17.0353C4.84544 16.8641 4.4699 16.6132 4.15356 16.2969C3.83723 15.9805 3.58629 15.605 3.4151 15.1917C3.2439 14.7784 3.15578 14.3354 3.15578 13.888C3.15578 13.4407 3.2439 12.9977 3.4151 12.5844C3.58629 12.1711 3.83723 11.7955 4.15356 11.4792L7.23689 8.39063C7.62382 9.50687 8.25886 10.5208 9.09424 11.3562C9.92961 12.1916 10.9436 12.8266 12.0598 13.2135L8.97127 16.2969ZM16.7369 8.52605L13.7734 11.4948C12.5587 11.3139 11.4343 10.7476 10.566 9.87924C9.69765 9.01089 9.1313 7.88651 8.95044 6.67188L11.9192 3.70834C12.2351 3.39134 12.6106 3.13982 13.0239 2.9682C13.4373 2.79658 13.8805 2.70824 14.328 2.70824C14.7756 2.70824 15.2188 2.79658 15.6321 2.9682C16.0455 3.13982 16.4209 3.39134 16.7369 3.70834C17.3746 4.34783 17.7327 5.21409 17.7327 6.11719C17.7327 7.0203 17.3746 7.88655 16.7369 8.52605Z" fill="#4767E7"/>
</svg>
