<svg width="20" height="20" viewBox="0 0 20 20" fill="none" xmlns="http://www.w3.org/2000/svg">
<g clip-path="url(#clip0_2049_3306)">
<path d="M6.90517 2.25037C5.97791 2.25037 5.22617 3.00211 5.22617 3.92937C5.22617 4.85663 5.97791 5.60827 6.90517 5.60827C7.83243 5.60827 8.58417 4.85663 8.58417 3.92937C8.58274 3.00267 7.83187 2.25191 6.90517 2.25037ZM6.90517 4.83348C6.6654 4.83348 6.43545 4.73823 6.26591 4.56869C6.09637 4.39914 6.00112 4.16919 6.00112 3.92943C6.00112 3.68966 6.09637 3.45971 6.26591 3.29017C6.43545 3.12062 6.6654 3.02538 6.90517 3.02538C7.0239 3.02538 7.14146 3.04876 7.25115 3.0942C7.36085 3.13963 7.46051 3.20623 7.54447 3.29018C7.62842 3.37414 7.69502 3.4738 7.74045 3.5835C7.78589 3.69319 7.80927 3.81075 7.80927 3.92948C7.80927 4.0482 7.78589 4.16577 7.74045 4.27545C7.69501 4.38514 7.62842 4.4848 7.54446 4.56874C7.46051 4.65269 7.36084 4.71927 7.25115 4.7647C7.14146 4.81012 7.02389 4.83349 6.90517 4.83348ZM4.36605 5.34754H4.32206C2.89617 5.34754 0.576656 8.71845 0.124659 9.39523C0.0824733 9.45878 0.0599988 9.53338 0.0600566 9.60965C0.0507735 9.99092 0.174639 10.3635 0.410348 10.6633C0.646058 10.9631 0.978876 11.1714 1.35156 11.2524V16.0698C1.32554 16.971 2.03506 17.7228 2.9363 17.7488C2.96772 17.7497 2.99925 17.7497 3.03056 17.7488C3.42578 17.7488 4.45127 17.4465 4.45127 16.0698V9.66643C4.68407 8.97498 5.03356 8.32851 5.48458 7.75503C5.65563 7.5346 5.76173 7.27079 5.79093 6.99331C5.82012 6.71583 5.77126 6.43571 5.64983 6.18451C5.53499 5.93931 5.35396 5.73105 5.12715 5.58317C4.90033 5.4353 4.63674 5.35369 4.36605 5.34754ZM4.88265 7.27966C4.35299 7.94396 3.95101 8.70066 3.69709 9.51143C3.6929 9.54404 3.6929 9.57705 3.69709 9.60965V16.0699C3.69709 16.8913 3.19857 16.9688 3.05129 16.974C2.93089 16.9803 2.81052 16.9613 2.69797 16.9181C2.58542 16.8749 2.4832 16.8085 2.39796 16.7232C2.31271 16.638 2.24633 16.5358 2.20313 16.4232C2.15993 16.3107 2.14087 16.1903 2.14718 16.0699V10.9037C2.14718 10.8009 2.10636 10.7024 2.03368 10.6297C1.96101 10.557 1.86245 10.5162 1.75968 10.5162C1.64828 10.5242 1.5364 10.5099 1.43062 10.4741C1.32485 10.4382 1.22732 10.3815 1.14378 10.3074C1.06024 10.2333 0.992392 10.1432 0.944219 10.0424C0.896047 9.94162 0.86853 9.83223 0.863289 9.72067C1.8966 8.19149 3.61165 6.12509 4.34279 6.12509H4.37376C4.49642 6.13062 4.61522 6.16967 4.71724 6.23799C4.81926 6.30631 4.90061 6.40128 4.95243 6.51259C5.01503 6.63578 5.04076 6.77441 5.02654 6.91185C5.01233 7.0493 4.95877 7.17972 4.87228 7.28749L4.88265 7.27966ZM14.7914 3.92948C14.7914 3.00223 14.0398 2.25048 13.1124 2.25048C12.1852 2.25048 11.4335 3.00223 11.4335 3.92948C11.4335 4.85376 12.1805 5.60419 13.1048 5.60838C14.0335 5.61124 14.7887 4.86071 14.7915 3.93202L14.7914 3.92948ZM13.1046 4.83348C12.8648 4.83348 12.6349 4.73823 12.4653 4.56869C12.2958 4.39914 12.2005 4.16919 12.2005 3.92943C12.2005 3.68966 12.2958 3.45971 12.4653 3.29017C12.6349 3.12062 12.8648 3.02538 13.1046 3.02538C13.3444 3.02538 13.5743 3.12063 13.7439 3.29018C13.9134 3.45974 14.0087 3.6897 14.0087 3.92948C14.0087 4.0482 13.9853 4.16577 13.9399 4.27545C13.8944 4.38514 13.8278 4.4848 13.7439 4.56874C13.6599 4.65269 13.5603 4.71927 13.4506 4.7647C13.3409 4.81012 13.2233 4.83349 13.1046 4.83348ZM19.893 9.39523C19.4409 8.71845 17.1214 5.34754 15.6878 5.34754H15.6413C15.3695 5.35172 15.1043 5.43214 14.876 5.57964C14.6477 5.72715 14.4653 5.93581 14.3498 6.18186C14.2284 6.43308 14.1796 6.7132 14.2088 6.99068C14.238 7.26815 14.3441 7.53196 14.5152 7.75239C14.9662 8.3259 15.3157 8.97241 15.5485 9.66389V16.0698C15.5485 17.4465 16.5818 17.7488 16.9692 17.7488C17.8704 17.7748 18.6222 17.0654 18.6482 16.1642C18.6491 16.1327 18.6491 16.1012 18.6482 16.0698V11.2524C19.0209 11.1714 19.3537 10.9631 19.5894 10.6633C19.8251 10.3635 19.949 9.99092 19.9397 9.60965C19.945 9.53519 19.9288 9.46075 19.893 9.39523ZM18.2708 10.5136C18.2199 10.5136 18.1695 10.5237 18.1225 10.5431C18.0755 10.5626 18.0328 10.5912 17.9968 10.6272C17.9609 10.6631 17.9323 10.7059 17.9129 10.7529C17.8934 10.7999 17.8834 10.8503 17.8834 10.9012V16.0699C17.8889 16.19 17.8693 16.3099 17.8258 16.422C17.7823 16.534 17.7159 16.6358 17.6307 16.7206C17.5456 16.8055 17.4437 16.8717 17.3315 16.9149C17.2193 16.9581 17.0994 16.9773 16.9793 16.9715C16.827 16.9715 16.3284 16.8888 16.3284 16.0674V9.61219C16.3326 9.57958 16.3326 9.54657 16.3284 9.51396C16.0738 8.70504 15.6718 7.95015 15.1428 7.28738C15.0563 7.1796 15.0028 7.04917 14.9886 6.91172C14.9744 6.77428 15.0001 6.63566 15.0627 6.51248C15.1156 6.39675 15.2002 6.2984 15.3067 6.22888C15.4132 6.15936 15.5373 6.12153 15.6645 6.11979H15.6878C16.4187 6.11979 18.134 8.18619 19.1672 9.71538C19.1568 9.93778 19.0584 10.1469 18.8938 10.2968C18.7292 10.4467 18.5117 10.5251 18.2893 10.5146C18.283 10.5145 18.277 10.5141 18.2708 10.5136Z" fill="#4767E7" stroke="#4767E7" stroke-width="0.4"/>
<path d="M6.90517 2.25049C5.97791 2.25049 5.22617 3.00224 5.22617 3.92949C5.22617 4.85675 5.97791 5.60839 6.90517 5.60839C7.83243 5.60839 8.58417 4.85675 8.58417 3.92949C8.58274 3.00279 7.83187 2.25203 6.90517 2.25049ZM6.90517 4.8336C6.6654 4.8336 6.43545 4.73835 6.26591 4.56881C6.09637 4.39927 6.00112 4.16932 6.00112 3.92955C6.00112 3.68978 6.09637 3.45983 6.26591 3.29029C6.43545 3.12075 6.6654 3.0255 6.90517 3.0255C7.0239 3.0255 7.14146 3.04888 7.25115 3.09432C7.36085 3.13975 7.46051 3.20635 7.54447 3.2903C7.62842 3.37426 7.69502 3.47393 7.74045 3.58362C7.78589 3.69331 7.80927 3.81087 7.80927 3.9296C7.80927 4.04833 7.78589 4.16589 7.74045 4.27557C7.69501 4.38526 7.62842 4.48492 7.54446 4.56886C7.46051 4.65281 7.36084 4.71939 7.25115 4.76482C7.14146 4.81024 7.02389 4.83361 6.90517 4.8336ZM4.36605 5.34766H4.32206C2.89617 5.34766 0.576656 8.71857 0.124659 9.39535C0.0824733 9.4589 0.0599988 9.5335 0.0600566 9.60978C0.0507735 9.99104 0.174639 10.3636 0.410348 10.6634C0.646058 10.9632 0.978876 11.1715 1.35156 11.2525V16.0699C1.32554 16.9712 2.03506 17.7229 2.9363 17.7489C2.96772 17.7498 2.99925 17.7498 3.03056 17.7489C3.42578 17.7489 4.45127 17.4466 4.45127 16.0699V9.66655C4.68407 8.97511 5.03356 8.32863 5.48458 7.75515C5.65563 7.53473 5.76173 7.27091 5.79093 6.99343C5.82012 6.71595 5.77126 6.43583 5.64983 6.18463C5.53499 5.93943 5.35396 5.73117 5.12715 5.5833C4.90033 5.43542 4.63674 5.35382 4.36605 5.34766ZM4.88265 7.27979C4.35299 7.94408 3.95101 8.70078 3.69709 9.51155C3.6929 9.54416 3.6929 9.57717 3.69709 9.60978V16.07C3.69709 16.8915 3.19857 16.969 3.05129 16.9741C2.93089 16.9804 2.81052 16.9614 2.69797 16.9182C2.58542 16.875 2.4832 16.8086 2.39796 16.7234C2.31271 16.6381 2.24633 16.5359 2.20313 16.4234C2.15993 16.3108 2.14087 16.1904 2.14718 16.07V10.9038C2.14718 10.801 2.10636 10.7025 2.03368 10.6298C1.96101 10.5571 1.86245 10.5163 1.75968 10.5163C1.64828 10.5244 1.5364 10.51 1.43062 10.4742C1.32485 10.4383 1.22732 10.3817 1.14378 10.3075C1.06024 10.2334 0.992392 10.1433 0.944219 10.0425C0.896047 9.94175 0.86853 9.83236 0.863289 9.72079C1.8966 8.19161 3.61165 6.12521 4.34279 6.12521H4.37376C4.49642 6.13074 4.61522 6.16979 4.71724 6.23811C4.81926 6.30643 4.90061 6.4014 4.95243 6.51271C5.01503 6.6359 5.04076 6.77453 5.02654 6.91197C5.01233 7.04942 4.95877 7.17985 4.87228 7.28761L4.88265 7.27979ZM14.7914 3.9296C14.7914 3.00235 14.0398 2.2506 13.1124 2.2506C12.1852 2.2506 11.4335 3.00235 11.4335 3.9296C11.4335 4.85388 12.1805 5.60431 13.1048 5.6085C14.0335 5.61136 14.7887 4.86083 14.7915 3.93214L14.7914 3.9296ZM13.1046 4.8336C12.8648 4.8336 12.6349 4.73835 12.4653 4.56881C12.2958 4.39927 12.2005 4.16932 12.2005 3.92955C12.2005 3.68978 12.2958 3.45983 12.4653 3.29029C12.6349 3.12075 12.8648 3.0255 13.1046 3.0255C13.3444 3.0255 13.5743 3.12075 13.7439 3.2903C13.9134 3.45986 14.0087 3.68982 14.0087 3.9296C14.0087 4.04833 13.9853 4.16589 13.9399 4.27557C13.8944 4.38526 13.8278 4.48492 13.7439 4.56886C13.6599 4.65281 13.5603 4.71939 13.4506 4.76482C13.3409 4.81024 13.2233 4.83361 13.1046 4.8336ZM19.893 9.39535C19.4409 8.71857 17.1214 5.34766 15.6878 5.34766H15.6413C15.3695 5.35184 15.1043 5.43226 14.876 5.57977C14.6477 5.72727 14.4653 5.93593 14.3498 6.18198C14.2284 6.4332 14.1796 6.71332 14.2088 6.9908C14.238 7.26827 14.3441 7.53208 14.5152 7.75251C14.9662 8.32602 15.3157 8.97253 15.5485 9.66402V16.0699C15.5485 17.4466 16.5818 17.7489 16.9692 17.7489C17.8704 17.7749 18.6222 17.0655 18.6482 16.1643C18.6491 16.1329 18.6491 16.1013 18.6482 16.0699V11.2525C19.0209 11.1715 19.3537 10.9632 19.5894 10.6634C19.8251 10.3636 19.949 9.99104 19.9397 9.60978C19.945 9.53531 19.9288 9.46087 19.893 9.39535ZM18.2708 10.5138C18.2199 10.5138 18.1695 10.5238 18.1225 10.5433C18.0755 10.5627 18.0328 10.5913 17.9968 10.6273C17.9609 10.6633 17.9323 10.706 17.9129 10.753C17.8934 10.8 17.8834 10.8504 17.8834 10.9013V16.07C17.8889 16.1901 17.8693 16.31 17.8258 16.4221C17.7823 16.5341 17.7159 16.6359 17.6307 16.7208C17.5456 16.8056 17.4437 16.8718 17.3315 16.915C17.2193 16.9582 17.0994 16.9775 16.9793 16.9716C16.827 16.9716 16.3284 16.8889 16.3284 16.0675V9.61231C16.3326 9.5797 16.3326 9.54669 16.3284 9.51409C16.0738 8.70516 15.6718 7.95028 15.1428 7.2875C15.0563 7.17972 15.0028 7.04929 14.9886 6.91185C14.9744 6.7744 15.0001 6.63578 15.0627 6.5126C15.1156 6.39687 15.2002 6.29852 15.3067 6.229C15.4132 6.15948 15.5373 6.12165 15.6645 6.11992H15.6878C16.4187 6.11992 18.134 8.18632 19.1672 9.7155C19.1568 9.9379 19.0584 10.147 18.8938 10.2969C18.7292 10.4468 18.5117 10.5252 18.2893 10.5148C18.283 10.5147 18.277 10.5142 18.2708 10.5138Z" fill="#4767E7" stroke="#4767E7" stroke-width="0.4"/>
</g>
<defs>
<clipPath id="clip0_2049_3306">
<rect width="20" height="20" fill="white"/>
</clipPath>
</defs>
</svg>
