<svg width="21" height="20" viewBox="0 0 21 20" fill="none" xmlns="http://www.w3.org/2000/svg">
<path d="M4.88345 1.97149C5.25229 1.97149 5.58803 2.09148 5.81067 2.38362C6.07314 2.72816 6.74616 5.15259 6.96236 5.94806C7.00471 6.10395 6.96082 6.27045 6.84719 6.38526L5.46549 7.78154C5.27687 7.97214 5.21979 8.25703 5.32114 8.50528C6.48491 11.3556 8.89324 13.6789 11.4788 14.6241C11.5293 14.6425 11.5816 14.6515 11.6335 14.6515C11.7508 14.6515 11.8659 14.6058 11.9522 14.5204L13.2955 13.1926C13.381 13.108 13.4957 13.0617 13.6138 13.0617C13.6412 13.0617 13.6688 13.0642 13.6963 13.0693C14.525 13.2229 17.3005 13.753 17.6733 14.03C18.0175 14.2857 18.1586 14.9284 17.988 15.5645C17.8251 16.1725 16.7489 18.1346 14.5593 18.1346C14.4586 18.1346 14.3556 18.1305 14.2502 18.1219C11.8525 17.9259 9.0636 16.2856 6.16815 13.4758C3.27281 10.6659 1.65969 6.99359 1.93512 4.82307C2.18265 2.87171 3.93366 2.14301 4.41388 2.0295C4.57231 1.99207 4.73071 1.97149 4.88345 1.97149ZM4.88345 1.0116C4.66048 1.0116 4.42822 1.03977 4.19311 1.09535C3.76486 1.19658 3.08813 1.48724 2.47302 1.99947C1.63381 2.69831 1.11853 3.63292 0.982887 4.70226C0.900317 5.35301 0.952231 6.09531 1.13723 6.9085C1.31225 7.67783 1.60096 8.48952 1.99535 9.32101C2.39455 10.1626 2.88943 10.9975 3.46629 11.8026C4.07266 12.6489 4.75678 13.4436 5.49968 14.1646C7.00887 15.6291 8.49451 16.7883 9.91535 17.6099C11.413 18.476 12.8451 18.9701 14.172 19.0785C14.3015 19.0891 14.4318 19.0945 14.5593 19.0945C15.752 19.0945 16.843 18.631 17.7145 17.7542C18.4022 17.0624 18.7911 16.2761 18.9152 15.813C19.0371 15.3585 19.0537 14.8899 18.9633 14.4579C18.8554 13.9424 18.6073 13.528 18.2458 13.2594C18.0324 13.1009 17.7049 12.9286 16.0627 12.5661C15.2182 12.3796 14.3272 12.21 13.8713 12.1255C13.7866 12.1098 13.7 12.1018 13.6139 12.1018C13.2397 12.1018 12.8869 12.2467 12.6207 12.5099L11.5112 13.6067C10.4612 13.1724 9.43998 12.4817 8.54066 11.5954C7.57953 10.6482 6.8022 9.51882 6.28409 8.31904L7.52957 7.06042C7.88277 6.7035 8.0204 6.18078 7.88873 5.69629C7.77609 5.2818 7.55267 4.47351 7.32216 3.71697C6.88483 2.28161 6.71293 1.98387 6.57432 1.80195C6.1858 1.29225 5.58537 1.0116 4.88345 1.0116Z" fill="#4767E7" stroke="#4767E7" stroke-width="0.8"/>
</svg>
