<svg width="20" height="20" viewBox="0 0 20 20" fill="none" xmlns="http://www.w3.org/2000/svg">
<g clip-path="url(#clip0_2041_3234)">
<path d="M13.2401 1.59444C13.2571 1.59444 13.2741 1.59615 13.292 1.59966C13.4421 1.62917 13.6005 1.69905 13.7422 2.00789C13.8523 2.24776 14.0232 2.80525 13.9312 3.84386C13.8504 4.7554 13.6571 5.14878 13.549 5.30213C13.4887 5.38768 13.3976 5.51696 13.0493 5.51696C12.9389 5.51696 12.814 5.50342 12.6776 5.47655C12.2055 5.38391 12.0815 5.16826 12.0407 5.09739C11.8528 4.77062 11.8376 4.16364 11.9999 3.47408C12.1384 2.88609 12.3877 2.3419 12.6836 1.98105C12.8822 1.73895 13.0902 1.59441 13.24 1.59441L13.2401 1.59444ZM6.51756 1.71919C6.70157 1.71919 6.89029 1.90868 7.01618 2.06766C7.29549 2.42036 7.53625 2.9653 7.69393 3.60145C7.83875 4.18661 7.82468 4.70654 7.6563 4.99229C7.53453 5.19892 7.28777 5.33263 6.92197 5.38984C6.83052 5.4042 6.743 5.41148 6.66186 5.41148C6.27926 5.41148 6.11986 5.25589 6.02375 5.12032C5.84293 4.86529 5.73922 4.42919 5.73922 3.92384C5.73922 3.22352 5.85389 2.57823 6.05383 2.15336C6.23961 1.75855 6.40012 1.73334 6.46042 1.72386C6.4793 1.72084 6.49834 1.71928 6.51741 1.71919H6.51756ZM17.6321 7.36526C17.7027 7.36526 17.7621 7.37958 17.8196 7.41059C17.8754 7.44063 17.9339 7.54089 17.9723 7.67222C18.0604 7.97328 18.0297 8.36296 17.8958 8.64245C17.7082 9.03421 17.4525 9.29742 17.2595 9.29742C17.1714 9.29742 17.0576 9.25436 16.9292 9.17263L16.9079 9.15856C16.7324 9.04251 16.514 8.85242 16.4702 8.6059C16.4404 8.43845 16.4913 8.24636 16.6131 8.06543C16.891 7.65319 17.3101 7.36526 17.6321 7.36526ZM2.30044 7.7689C2.55808 7.7689 2.82807 7.90002 3.0609 8.13836C3.29825 8.38118 3.43644 8.62822 3.44005 8.81614C3.44387 9.01542 3.27737 9.23138 3.17776 9.34238C3.02193 9.51607 2.85667 9.60414 2.6866 9.60414C2.49369 9.60414 2.30187 9.49077 2.16023 9.29304C1.97555 9.03525 1.85174 8.687 1.82907 8.36154C1.80971 8.08362 1.87117 7.94481 1.8872 7.92561C1.97703 7.8275 2.1315 7.76892 2.30038 7.76892L2.30044 7.7689ZM13.24 0.0464478C12.0733 0.0464961 11.0506 1.40873 10.6566 3.08089C10.2304 4.89126 10.6253 6.64564 12.4367 7.0011C12.6544 7.04396 12.8584 7.06498 13.0493 7.06498C14.4478 7.06498 15.1413 5.93681 15.3134 3.99604C15.5089 1.78972 14.819 0.327964 13.5332 0.0752065C13.4364 0.0561088 13.3383 0.0464858 13.24 0.0464478ZM6.51743 0.171206C6.43516 0.171206 6.35148 0.177712 6.26681 0.190991C4.97427 0.393947 4.35036 2.05927 4.35036 3.92382C4.35036 5.62631 5.1364 6.95945 6.66188 6.95945C6.80652 6.95945 6.95793 6.94745 7.11583 6.92263C8.93955 6.63751 9.48304 5.00891 9.03284 3.18981C8.6116 1.49045 7.69146 0.171109 6.51743 0.171206ZM17.632 5.81727C16.837 5.8173 16.0257 6.35987 15.5027 7.13558C14.8029 8.17462 14.9056 9.63451 16.1992 10.4899L16.1998 10.4905C16.574 10.7378 16.9295 10.8454 17.2595 10.8454C18.0708 10.8454 18.7268 10.1948 19.1211 9.37116C19.6763 8.21259 19.4283 6.55784 18.424 6.01684C18.1698 5.87975 17.9019 5.81725 17.632 5.81727ZM2.30035 6.22091C1.76422 6.22094 1.26635 6.43637 0.915155 6.81993C0.192369 7.60934 0.322512 9.20867 1.0749 10.2589C1.48445 10.8307 2.07629 11.1521 2.68662 11.1521C3.19669 11.1521 3.71969 10.9276 4.15986 10.437C5.12731 9.35868 5.02117 8.0426 4.00012 6.99798C3.47585 6.46133 2.86676 6.22089 2.30035 6.22091ZM10.2588 9.24505C10.8665 9.24505 11.5524 9.5939 12.2973 10.282C13.1874 11.104 14.1378 12.3898 15.1222 14.1037C15.3797 14.5522 15.4839 15.0891 15.4157 15.6161C15.3473 16.1432 15.1111 16.6252 14.7502 16.9742L14.2272 17.4787L14.2268 17.4792L14.2263 17.4796C13.9877 17.7101 13.6824 17.837 13.3665 17.837C13.0975 17.837 12.8385 17.7463 12.6176 17.5749L12.4926 17.4779C11.7879 16.9309 10.9615 16.6417 10.1026 16.6416C9.24065 16.6416 8.41168 16.9327 7.70532 17.4835L7.70474 17.4839L7.70417 17.4844L7.51049 17.6357C7.2859 17.811 7.02249 17.9037 6.74873 17.9037C6.41361 17.9037 6.0935 17.7644 5.84775 17.512L5.47967 17.1335C4.78564 16.4207 4.65218 15.261 5.16238 14.376C6.19884 12.5779 7.19465 11.2256 8.12214 10.3567C8.90127 9.62675 9.61299 9.25279 10.2378 9.24517L10.2425 9.24512C10.2478 9.24507 10.2533 9.24505 10.2587 9.24505H10.2588ZM10.2586 7.69706C10.2493 7.69706 10.2397 7.69711 10.2303 7.69721H10.2297C8.30658 7.71588 6.22815 9.66322 3.99389 13.5392C3.12015 15.0549 3.34986 17.0511 4.53848 18.2719L4.90602 18.6498C5.42301 19.1809 6.08417 19.4517 6.74873 19.4517C7.29154 19.4517 7.8367 19.2709 8.30715 18.9038L8.50153 18.7519C8.97074 18.3857 9.52973 18.1894 10.1025 18.1897C10.6608 18.1897 11.2191 18.3758 11.6988 18.7482L11.8239 18.8453C12.2895 19.2066 12.8289 19.385 13.3665 19.385C14 19.385 14.6311 19.1373 15.1362 18.6492L15.6601 18.1437C16.9272 16.9189 17.1962 14.8434 16.2919 13.2691C14.1581 9.55407 12.1474 7.69694 10.2586 7.69706Z" fill="#4767E7"/>
<path d="M11.3899 12.2441C11.3207 12.2442 11.252 12.2288 11.1882 12.1989C11.1243 12.169 11.0664 12.1252 11.018 12.07L10.3843 11.3496C10.1829 11.1207 10.1862 10.7532 10.3915 10.5287C10.597 10.3043 10.9267 10.3079 11.1281 10.5368L11.7618 11.2572C11.9632 11.4861 11.9599 11.8536 11.7545 12.0781C11.6573 12.1846 11.5263 12.2443 11.3899 12.2441ZM14.1521 15.3227C14.0834 15.3228 14.0153 15.3077 13.9519 15.2783C13.8885 15.2488 13.8309 15.2057 13.7825 15.1512L11.9728 13.1201C11.7701 12.8926 11.7713 12.5251 11.9754 12.2992C12.1795 12.0733 12.5093 12.0746 12.7119 12.3021L14.5216 14.3332C14.7243 14.5607 14.7232 14.9282 14.5191 15.1541C14.4216 15.2623 14.2896 15.3229 14.1521 15.3227Z" fill="#4767E7"/>
</g>
<defs>
<clipPath id="clip0_2041_3234">
<rect width="20" height="20" fill="white"/>
</clipPath>
</defs>
</svg>
