<svg width="20" height="20" viewBox="0 0 20 20" fill="none" xmlns="http://www.w3.org/2000/svg">
<g clip-path="url(#clip0_2041_3232)">
<path d="M19.1665 10.3158C18.9331 9.78944 18.3331 8.91225 16.7998 8.91225C15.4998 8.91225 14.2665 9.614 13.3331 10.3508C12.8998 9.64909 12.3998 8.94734 11.7998 8.28067C10.9331 7.3333 9.99979 6.52629 9.06646 5.89471C9.59979 4.98243 10.1998 3.71927 9.93312 2.4912C9.73312 1.54383 9.16646 0.877163 8.36646 0.736813C7.63312 0.596462 6.83312 0.912251 6.49979 1.47365C5.99979 2.24558 5.99979 3.29822 6.53312 3.89471C6.73312 4.14032 7.13312 4.17541 7.36646 3.92979C7.59979 3.71927 7.63312 3.29822 7.39979 3.0526C7.19979 2.84208 7.23312 2.42102 7.43312 2.14032C7.56646 1.96488 7.83312 1.85962 8.13312 1.89471C8.53312 1.96488 8.73312 2.38594 8.79979 2.70172C8.99979 3.50874 8.53312 4.52629 8.06646 5.26313C6.96646 4.7719 6.16646 4.73681 5.69979 5.19295L5.63312 5.26313C5.49979 5.3333 5.43312 5.43857 5.39979 5.54383L0.666457 19.1579C0.59979 19.4035 0.633123 19.6491 0.833123 19.8245C0.89979 19.9298 1.06646 20 1.23312 20C1.29979 20 1.39979 20 1.43312 19.9649L13.5998 15.1579C13.7331 15.1228 13.8665 15.0877 13.9998 14.9824L14.1331 14.8421C14.6665 14.3158 14.6665 13.3333 14.1331 11.9649C14.0665 11.7544 13.9665 11.5789 13.8998 11.4035C14.6665 10.7719 15.7665 10.1403 16.7998 10.1403C17.2665 10.1403 17.8998 10.2807 18.1331 10.807C18.3331 11.2982 18.1665 11.9649 17.8998 12.2456C17.6665 12.4912 17.2998 12.6666 17.0331 12.5614C16.9665 12.5614 16.7331 12.4912 16.5665 12.0351C16.4998 11.7193 16.1331 11.5438 15.8331 11.614C15.5331 11.6842 15.3665 12.0701 15.4331 12.3859C15.6331 13.1228 16.1331 13.614 16.7665 13.7894C16.8998 13.8245 17.0331 13.8245 17.1665 13.8245C17.7665 13.8245 18.3331 13.5438 18.7665 13.0877C19.3665 12.3508 19.5665 11.228 19.1665 10.3158ZM8.03312 11.8245C9.03312 12.8772 10.3331 14 11.5331 14.6315L8.03312 16.0351V11.8245ZM7.26646 16.3508L5.29979 17.1228V9.3333L5.66646 8.31576C6.03312 9.12278 6.56646 10.0351 7.26646 10.9473V16.3508ZM4.53312 11.5789V17.4035L2.19979 18.3508L4.53312 11.5789ZM13.3665 13.9298L13.2998 13.9649C12.6998 14 10.6331 12.9824 8.69979 10.7719C6.49979 8.31576 6.23312 6.42102 6.46646 6.17541C6.49979 6.17541 6.53312 6.14032 6.63312 6.14032C6.79979 6.14032 7.06646 6.2105 7.36646 6.35085C7.19979 6.59646 7.19979 6.91225 7.43312 7.12278C7.56646 7.26313 7.69979 7.29822 7.83312 7.29822C7.99979 7.29822 8.13312 7.22804 8.26646 7.08769C8.26646 7.08769 8.33312 7.01751 8.43312 6.87716C9.16646 7.36839 10.0665 8.10523 10.9998 9.12278C11.6331 9.82453 12.0998 10.4912 12.4331 11.0877C12.0331 11.4737 11.7665 11.7544 11.7665 11.7894C11.5331 12.0351 11.5665 12.4561 11.7998 12.6666C12.0331 12.9123 12.4331 12.8772 12.6331 12.6315L13.0331 12.2105C13.3331 13.0877 13.4331 13.7193 13.3665 13.9298ZM12.9665 7.08769C12.6665 7.15786 12.4665 7.54383 12.5665 7.85962C12.6331 8.14032 12.8665 8.31576 13.0998 8.31576C13.1331 8.31576 13.2331 8.31576 13.2665 8.28067C16.2998 7.3333 16.8998 4.73681 16.8331 3.50874C16.7998 3.19295 16.5331 2.94734 16.1998 2.94734C15.8998 2.98243 15.6665 3.29822 15.6665 3.61401C15.6665 3.64909 15.8665 6.2105 12.9665 7.08769ZM12.5331 5.61401C13.4998 5.61401 14.2998 4.80699 14.2998 3.75436C14.2998 2.70172 13.5331 1.89471 12.5331 1.89471C11.5331 1.89471 10.7665 2.70172 10.7665 3.75436C10.7665 4.80699 11.5665 5.61401 12.5331 5.61401ZM12.5331 3.15787C12.8331 3.15787 13.1331 3.43857 13.1331 3.78944C13.1331 4.14032 12.8665 4.42102 12.5331 4.42102C12.2331 4.42102 11.9331 4.14032 11.9331 3.78944C11.9331 3.43857 12.2331 3.15787 12.5331 3.15787Z" fill="#4767E7"/>
</g>
<defs>
<clipPath id="clip0_2041_3232">
<rect width="20" height="20" fill="white"/>
</clipPath>
</defs>
</svg>
