<svg width="20" height="20" viewBox="0 0 20 20" fill="none" xmlns="http://www.w3.org/2000/svg">
<g clip-path="url(#clip0_2045_3250)">
<path d="M6.04412 11.1689L8.72789 8.22697L2.08874 1.00128C0.629275 2.60109 0.629275 5.23356 2.08874 6.83331L6.04412 11.1689Z" fill="#4767E7"/>
<path d="M12.4476 9.31053C13.9075 10.0333 15.9321 9.51717 17.3916 7.86556C19.1807 5.90437 19.5578 3.0656 18.1452 1.56868C16.7795 0.0203408 14.1898 0.433671 12.4007 2.3949C10.8938 4.04651 10.423 6.2658 11.0823 7.81414C9.01033 10.1368 1.90039 17.93 1.90039 17.93L3.21884 19.375L9.71667 12.2526L16.2144 19.375L17.5327 17.93L11.0349 10.8075L12.4476 9.31053Z" fill="#4767E7"/>
</g>
<defs>
<clipPath id="clip0_2045_3250">
<rect width="20" height="20" fill="white"/>
</clipPath>
</defs>
</svg>
