<svg width="20" height="20" viewBox="0 0 20 20" fill="none" xmlns="http://www.w3.org/2000/svg">
<g clip-path="url(#clip0_2041_3243)">
<path d="M2.40005 7.86625C2.10767 7.59729 1.88188 7.27565 1.73755 6.9225C1.48755 6.335 1.41811 5.785 1.41811 5H2.50005V3.75H1.41672C0.490332 3.75 0.027832 4.16625 0.027832 5C0.027832 5.66875 0.027832 7.5 1.41672 8.75C2.11117 9.375 2.85561 9.83375 3.74867 10.0625L3.46117 8.6125C3.06963 8.41014 2.71191 8.1589 2.39867 7.86625H2.40005ZM2.40005 7.86625C2.10767 7.59729 1.88188 7.27565 1.73755 6.9225C1.48755 6.335 1.41811 5.785 1.41811 5H2.50005V3.75H1.41672C0.490332 3.75 0.027832 4.16625 0.027832 5C0.027832 5.66875 0.027832 7.5 1.41672 8.75C2.11117 9.375 2.85561 9.83375 3.74867 10.0625L3.46117 8.6125C3.06963 8.41014 2.71191 8.1589 2.39867 7.86625H2.40005ZM17.6001 7.86625C17.8862 7.60875 18.1042 7.2925 18.2626 6.9225C18.5126 6.335 18.582 5.785 18.582 5H17.5001V3.75H18.5806C19.507 3.75 19.9695 4.16625 19.9695 5C19.9695 5.66875 19.9695 7.5 18.5806 8.75C17.8862 9.375 17.1417 9.83375 16.2487 10.0625L16.5362 8.6125C16.8903 8.43625 17.2362 8.19125 17.5987 7.86625H17.6001ZM17.6001 7.86625C17.8862 7.60875 18.1042 7.2925 18.2626 6.9225C18.5126 6.335 18.582 5.785 18.582 5H17.5001V3.75H18.5806C19.507 3.75 19.9695 4.16625 19.9695 5C19.9695 5.66875 19.9695 7.5 18.5806 8.75C17.8862 9.375 17.1417 9.83375 16.2487 10.0625L16.5362 8.6125C16.8903 8.43625 17.2362 8.19125 17.5987 7.86625H17.6001Z" fill="#4767E7"/>
<path d="M9.30566 15H10.6946V18.75H9.30566V15Z" fill="#4767E7"/>
<path d="M3.75994 8.5575L3.76688 8.62875C4.00577 12.2462 6.77244 15 10.0002 15C13.228 15 15.9947 12.2463 16.2405 8.5575C16.247 8.50813 16.2502 8.45846 16.2502 8.40875V2.5C16.2502 2.16848 16.1039 1.85054 15.8434 1.61612C15.583 1.3817 15.2297 1.25 14.8613 1.25H5.13911C4.77075 1.25 4.41748 1.3817 4.15701 1.61612C3.89655 1.85054 3.75022 2.16848 3.75022 2.5V8.40875C3.75022 8.45875 3.75299 8.50875 3.75994 8.55875V8.5575ZM2.38077 8.70375C2.3679 8.60584 2.3614 8.50734 2.36133 8.40875V2.5C2.36133 1.83696 2.65399 1.20107 3.17492 0.732233C3.69585 0.263392 4.40239 0 5.13911 0L14.8613 0C15.598 0 16.3046 0.263392 16.8255 0.732233C17.3464 1.20107 17.6391 1.83696 17.6391 2.5V8.40875C17.6391 8.50875 17.6322 8.6075 17.6197 8.70375C17.3419 12.9212 14.0363 16.25 10.0002 16.25C5.96411 16.25 2.65994 12.9212 2.38077 8.70375ZM7.22244 18.75H12.778C12.9622 18.75 13.1388 18.8158 13.269 18.9331C13.3993 19.0503 13.4724 19.2092 13.4724 19.375C13.4724 19.5408 13.3993 19.6997 13.269 19.8169C13.1388 19.9342 12.9622 20 12.778 20H7.22244C7.03826 20 6.86163 19.9342 6.73139 19.8169C6.60116 19.6997 6.52799 19.5408 6.52799 19.375C6.52799 19.2092 6.60116 19.0503 6.73139 18.9331C6.86163 18.8158 7.03826 18.75 7.22244 18.75Z" fill="#4767E7"/>
</g>
<defs>
<clipPath id="clip0_2041_3243">
<rect width="20" height="20" fill="white"/>
</clipPath>
</defs>
</svg>
