<svg width="16" height="21" viewBox="0 0 16 21" fill="none" xmlns="http://www.w3.org/2000/svg">
<g clip-path="url(#clip0_2041_3247)">
<path d="M9.98423 5.125C9.98423 3.98437 9.06235 3.0625 7.92173 3.0625C6.7811 3.0625 5.85923 3.98437 5.85923 5.125C5.85923 6.26562 6.79673 7.1875 7.92173 7.1875C9.04673 7.1875 9.98423 6.26562 9.98423 5.125ZM6.81235 5.125C6.81235 4.5 7.31235 4 7.93735 4C8.56235 4 9.06235 4.5 9.06235 5.125C9.06235 5.75 8.54673 6.25 7.92173 6.25C7.29673 6.25 6.81235 5.75 6.81235 5.125ZM11.7499 17.6406C10.0311 16.1875 8.82798 15.3281 8.82798 15.3281L8.7811 13.5625C8.7811 13.5625 10.7967 11.2813 11.0467 10.2344C11.203 9.59375 11.0155 9.3125 10.703 9.3125C10.4999 9.3125 10.2342 9.4375 9.98423 9.65625C9.54673 10.0312 8.6561 10.8125 8.6561 10.8125C8.6561 10.8125 8.4686 8.34375 7.32798 8.15625C7.0311 8.10937 6.76548 8.07812 6.54673 8.07812C5.37485 8.07812 4.99985 8.6875 4.7186 9.6875C4.37485 10.8906 3.64048 15.125 5.45298 17.7031C5.45298 17.7031 5.1561 17.6875 4.73423 17.6875C3.9061 17.6875 2.62485 17.7188 2.35923 17.9531C1.9686 18.2969 1.54673 18.7188 1.8436 19.9688H10.6717C10.6717 20 13.453 19.0938 11.7499 17.6406ZM10.5155 19.0625H2.68735C2.7186 18.9375 2.7811 18.8594 2.87485 18.7656C3.0311 18.7344 3.49985 18.6563 4.7186 18.6563C5.10923 18.6563 5.4061 18.6719 5.4061 18.6719L7.2811 18.7344L6.20298 17.2031C4.6561 15 5.26548 11.1563 5.60923 9.98438C5.68735 9.71875 5.79673 9.35938 5.95298 9.20313C5.99985 9.15625 6.10923 9.04688 6.5311 9.04688C6.70298 9.04688 6.9061 9.0625 7.14048 9.10937C7.3436 9.25 7.64048 10.0938 7.70298 10.9219L7.8436 12.7813L9.12485 11.6562C8.79673 12.0937 8.4061 12.5625 8.06235 12.9688L7.8436 13.2188V13.5938L7.89048 15.3437L7.9061 15.8125L8.2811 16.0781C8.29673 16.0938 9.4686 16.9375 11.1405 18.3438C11.2499 18.4375 11.3124 18.5156 11.3436 18.5469C11.2186 18.7187 10.8592 18.9219 10.5155 19.0625Z" fill="#4767E7" stroke="#4767E7" stroke-width="0.4"/>
<path d="M8 1C4.04688 1 0.828125 4.21875 0.828125 8.17188C0.828125 8.4375 1.03125 8.64063 1.29688 8.64063C1.5625 8.64063 1.76562 8.4375 1.76562 8.17188C1.76562 4.73438 4.5625 1.9375 8 1.9375C11.4375 1.9375 14.2344 4.73438 14.2344 8.17188C14.2344 8.4375 14.4375 8.64063 14.7031 8.64063C14.9688 8.64063 15.1719 8.4375 15.1719 8.17188C15.1719 4.21875 11.9531 1 8 1Z" fill="#4767E7" stroke="#4767E7" stroke-width="0.4"/>
</g>
<defs>
<clipPath id="clip0_2041_3247">
<rect width="16" height="21" fill="white"/>
</clipPath>
</defs>
</svg>
