<svg width="20" height="20" viewBox="0 0 20 20" fill="none" xmlns="http://www.w3.org/2000/svg">
<path d="M12.4701 2.43001C10.5001 2.43001 8.90014 4.04001 8.90014 6.01001C8.90014 7.98001 10.5001 9.58001 12.4701 9.58001C14.4401 9.58001 16.0401 7.98001 16.0401 6.01001C16.0401 4.04001 14.4401 2.43001 12.4701 2.43001ZM16.6601 11.56L19.7401 14.27C19.8601 14.52 19.8601 14.64 19.7401 14.89C19.6201 15.01 19.3701 15.01 19.1201 14.89L16.2801 12.42H16.0301L13.1901 15.01H13.0701C12.9501 15.01 12.7001 15.01 12.7001 14.89C12.7001 14.77 12.5801 14.4 12.7001 14.27L15.7801 11.56C15.9201 11.43 16.2901 11.43 16.6601 11.56ZM6.18014 2.19001C6.55014 2.19001 6.80014 2.44001 6.67014 2.81001C6.67014 3.18001 6.42014 3.43001 6.18014 3.43001C4.58014 3.55001 3.34014 5.03001 3.47014 6.64001C3.35014 8.24001 4.58014 9.72001 6.18014 9.85001C6.55014 9.85001 6.80014 10.1 6.80014 10.47C6.80014 10.84 6.55014 11.09 6.18014 11.09C3.47014 11.09 1.25014 13.68 1.25014 16.76C1.25014 17.13 1.00014 17.38 0.760137 17.38C0.390137 17.38 0.140137 17.13 0.140137 16.89V16.77C0.140137 15.29 0.510137 13.93 1.37014 12.7C1.99014 11.59 2.97014 10.85 4.08014 10.36C3.60014 9.95001 3.10014 9.46001 2.86014 8.84001C2.49014 8.10001 2.37014 7.36001 2.37014 6.62001C2.24014 4.28001 3.97014 2.43001 6.18014 2.19001ZM12.4701 1.32001C15.0601 1.32001 17.1501 3.42001 17.1501 6.00001C17.1501 6.86001 16.9001 7.73001 16.4101 8.47001C16.0401 9.09001 15.5501 9.58001 14.9301 9.95001C14.1901 10.44 13.3301 10.69 12.4601 10.69C10.8601 10.69 9.25014 11.43 8.02014 12.54C6.79014 13.77 6.17014 15.38 6.17014 16.98C6.17014 17.23 5.92014 17.47 5.68014 17.47C5.43014 17.47 5.06014 17.35 5.06014 16.98C5.06014 15.38 5.55014 13.77 6.54014 12.54C7.03014 11.92 7.53014 11.31 8.14014 10.94C8.76014 10.57 9.37014 10.2 9.99014 9.95001C7.79014 8.60001 7.17014 5.76001 8.53014 3.54001C9.39014 2.19001 10.8701 1.32001 12.4701 1.32001ZM19.0001 15.38C19.1201 15.38 19.3701 15.5 19.3701 15.63V18.22C19.3701 18.59 19.1201 18.84 18.7501 18.84H17.0201C16.9001 18.84 16.7701 18.72 16.7701 18.59V17.36C16.7701 17.24 16.5201 17.11 16.2801 17.11C16.0401 17.11 15.6601 17.23 15.6601 17.36V18.59C15.6601 18.71 15.5401 18.84 15.4101 18.84H13.7001C13.3301 18.84 12.9601 18.59 12.9601 18.22V15.63C12.9601 15.51 13.2101 15.38 13.3301 15.38C13.4501 15.38 13.7001 15.5 13.7001 15.63V17.97C13.7001 18.09 13.7001 18.09 13.8201 18.09H14.9301V17.35C14.9301 16.73 15.6701 16.36 16.1601 16.36C16.6501 16.36 17.3901 16.73 17.3901 17.35V18.09H18.5001C18.6201 18.09 18.6201 18.09 18.6201 17.97V15.63C18.6301 15.5 18.8801 15.38 19.0001 15.38Z" fill="#4767E7"/>
</svg>
