<svg width="20" height="20" viewBox="0 0 20 20" fill="none" xmlns="http://www.w3.org/2000/svg">
<g clip-path="url(#clip0_2049_3311)">
<path d="M18.6677 15.7414V12.3003C18.6677 11.632 18.3685 11.1133 17.8598 10.6944C17.4109 10.3254 16.9022 10.1558 16.3337 10.086C15.5856 10.0062 14.8974 10.1658 14.289 10.6046C13.7504 10.9936 13.4212 11.5123 13.3913 12.1906C13.3813 12.4299 13.3713 12.6793 13.3713 12.9287V19.3721C13.3713 19.6114 13.2118 19.8309 12.9823 19.9206C12.7529 20.0104 12.5534 19.9506 12.3739 19.791C12.2243 19.6613 12.1645 19.4918 12.1645 19.2923V16.0107C12.1645 15.891 12.1645 15.7713 12.0248 15.7115C11.8852 15.6516 11.7455 15.6816 11.6258 15.8013C11.2668 16.1703 10.9177 16.5493 10.5586 16.9184C10.2993 17.1877 10.0499 17.1777 9.78059 16.9184L8.43406 15.5718C8.37421 15.512 8.29442 15.4621 8.21462 15.4422C7.97524 15.4023 7.8755 15.5519 7.8755 15.7314C7.88547 16.9284 7.8755 18.1153 7.8755 19.3122C7.8755 19.6912 7.55632 19.9805 7.22717 19.9705C6.90799 19.9605 6.63868 19.6912 6.63868 19.3721V13.557C6.63868 13.1481 6.64866 12.7491 6.63868 12.3402C6.61874 11.8614 6.4791 11.4225 6.15992 11.0435C5.72105 10.5248 5.15251 10.2555 4.50418 10.1359C3.94562 10.0361 3.35714 10.096 2.8285 10.3154C2.19014 10.5747 1.71137 11.0036 1.47199 11.6619C1.40217 11.8614 1.37225 12.0709 1.37225 12.2803C1.36227 14.5944 1.37225 16.9084 1.36227 19.2224C1.36227 19.4718 1.3124 19.7012 1.07302 19.8608C0.863558 20.0004 0.664072 20.0104 0.454612 19.8907C0.255126 19.771 0.135434 19.6015 0.12546 19.3621C0.115485 19.1726 0.12546 18.9831 0.12546 18.7936V12.3302C0.12546 11.612 0.374817 10.9737 0.793738 10.3952C1.14284 9.91642 1.60166 9.56731 2.12032 9.29801C3.0978 8.80927 4.2249 8.7195 5.26223 9.04865C5.79087 9.21821 6.26963 9.48752 6.68856 9.84659C7.03766 10.1558 7.32691 10.5248 7.53637 10.9537C7.71591 11.3228 7.8356 11.7018 7.84558 12.1207C7.85555 12.4698 7.86552 12.8189 7.86552 13.178C7.86552 13.2778 7.90542 13.3675 7.97524 13.4373L9.90028 15.3624C10.0599 15.522 10.2494 15.502 10.399 15.3424C10.5486 15.1729 10.7082 15.0133 10.8678 14.8437C11.1271 14.5744 11.3865 14.3051 11.6458 14.0458C11.7854 13.8962 11.935 13.7466 12.0747 13.587C12.1246 13.5271 12.1445 13.4473 12.1445 13.3675C12.1545 13.0284 12.1445 12.6893 12.1445 12.3501C12.1545 11.5622 12.4437 10.8739 12.9424 10.2655C13.2816 9.85657 13.6905 9.54737 14.1493 9.31796C14.6381 9.0686 15.1667 8.92896 15.7053 8.88906C16.2539 8.84916 16.8025 8.91898 17.3212 9.09852C17.9894 9.31796 18.558 9.68701 19.0268 10.2156C19.4357 10.6844 19.715 11.2131 19.8347 11.8315C19.8746 12.0409 19.8846 12.2604 19.8846 12.4798V19.3022C19.8846 19.5815 19.7848 19.801 19.5155 19.9406C19.1963 20.1002 18.8273 19.9206 18.6976 19.6114C18.6577 19.5117 18.6478 19.412 18.6478 19.3122C18.6677 18.0854 18.6677 16.9184 18.6677 15.7414ZM7.63611 3.83209C7.65606 5.86685 5.94048 7.65225 3.77606 7.61235C1.87096 7.57245 -0.0141807 5.92669 0.105511 3.62263C0.205254 1.75743 1.7812 0.0418489 3.9157 0.0617975C5.94048 0.0817461 7.64609 1.75743 7.63611 3.83209ZM1.32238 3.83209C1.32238 5.26839 2.40958 6.38551 3.85585 6.38551C5.32208 6.38551 6.36938 5.28834 6.41925 3.92186C6.46912 2.41573 5.2722 1.28864 3.8758 1.27866C2.44947 1.27866 1.3124 2.41573 1.32238 3.83209ZM19.9045 3.77224C19.9145 5.85687 18.1889 7.5525 16.1243 7.54253C14.0995 7.53256 12.2742 5.8469 12.3739 3.55281C12.4537 1.74746 14.0496 -0.0678685 16.2838 0.00195166C18.1989 0.0717718 19.9245 1.70756 19.9045 3.77224ZM16.1243 6.32566C17.5805 6.34561 18.6478 5.20854 18.6876 3.87198C18.7275 2.34591 17.5705 1.22879 16.1442 1.22879C14.688 1.22879 13.6008 2.34591 13.5808 3.77224C13.5609 5.19857 14.7179 6.33564 16.1243 6.32566Z" fill="#4767E7"/>
</g>
<defs>
<clipPath id="clip0_2049_3311">
<rect width="20" height="20" fill="white"/>
</clipPath>
</defs>
</svg>
