<svg width="20" height="20" viewBox="0 0 20 20" fill="none" xmlns="http://www.w3.org/2000/svg">
<g clip-path="url(#clip0_2049_3260)">
<path d="M19.5418 1C19.5418 0.958333 19.5418 0.958333 19.5001 0.916667C19.5001 0.875 19.4585 0.875 19.4585 0.833333C19.4585 0.791667 19.4168 0.791667 19.4168 0.75C19.3751 0.708333 19.3335 0.666667 19.3335 0.625C19.2918 0.583333 19.2501 0.541667 19.2085 0.541667C19.2085 0.541667 19.1668 0.5 19.1251 0.5C19.0835 0.5 19.0835 0.458333 19.0418 0.458333C19.0001 0.458333 19.0001 0.458333 18.9585 0.416667C18.9168 0.416667 18.9168 0.416667 18.8751 0.375H15.3751C14.9168 0.375 14.5418 0.75 14.5418 1.20833C14.5418 1.66667 14.9168 2.04167 15.3751 2.04167H16.7085L14.8335 3.91667C13.9168 3.29167 12.8335 2.91667 11.6668 2.91667C10.3335 2.91667 9.08345 3.41667 8.08345 4.29167C7.75012 4.58333 7.70846 5.125 8.00012 5.45833C8.29179 5.79167 8.83346 5.83333 9.16679 5.54167C9.83346 4.91667 10.7501 4.58333 11.6668 4.58333C12.6668 4.58333 13.6251 4.95833 14.3335 5.66667C15.0418 6.375 15.4168 7.33333 15.4168 8.33333C15.4168 10.4167 13.7501 12.0833 11.6668 12.0833C10.0835 12.0833 8.70845 11.0833 8.16679 9.625C8.00012 9.20833 7.54179 8.95833 7.08345 9.125C6.66679 9.29167 6.41679 9.75 6.58346 10.2083C7.37512 12.3333 9.41679 13.75 11.6668 13.75C14.6668 13.75 17.0835 11.3333 17.0835 8.33333C17.0835 7.16667 16.7085 6.04167 16.0418 5.125L17.9168 3.25V4.58333C17.9168 5.04167 18.2918 5.41667 18.7501 5.41667C19.2085 5.41667 19.5835 5.04167 19.5835 4.58333V1.25V1.08333C19.5418 1.08333 19.5418 1.04167 19.5418 1Z" fill="#4767E7"/>
<path d="M0.666504 19.3333C0.833171 19.5 1.0415 19.5833 1.24984 19.5833C1.45817 19.5833 1.6665 19.5 1.83317 19.3333L2.9165 18.25L3.99984 19.3333C4.1665 19.5 4.37484 19.5833 4.58317 19.5833C4.7915 19.5833 4.99984 19.5 5.1665 19.3333C5.49984 19 5.49984 18.5 5.1665 18.1667L4.08317 17.0833L5.12484 16.0417C6.0415 16.7083 7.1665 17.0833 8.33317 17.0833C9.6665 17.0833 10.9165 16.5833 11.9165 15.7083C12.2498 15.4167 12.2915 14.875 11.9998 14.5417C11.7082 14.2083 11.1665 14.1667 10.8332 14.4583C10.1665 15.0833 9.24984 15.4167 8.33317 15.4167C7.33317 15.4167 6.37484 15.0417 5.6665 14.3333C4.95817 13.625 4.58317 12.6667 4.58317 11.6667C4.58317 9.58333 6.24984 7.91667 8.33317 7.91667C9.9165 7.91667 11.2915 8.91667 11.8332 10.375C11.9998 10.7917 12.4582 11.0417 12.9165 10.875C13.3332 10.7083 13.5832 10.25 13.4165 9.79167C12.6248 7.66667 10.5832 6.25 8.33317 6.25C5.33317 6.25 2.9165 8.66667 2.9165 11.6667C2.9165 12.8333 3.2915 13.9583 3.95817 14.875L2.9165 15.9167L1.83317 14.8333C1.49984 14.5 0.999837 14.5 0.666504 14.8333C0.333171 15.1667 0.333171 15.6667 0.666504 16L1.74984 17.0833L0.666504 18.1667C0.333171 18.5 0.333171 19 0.666504 19.3333Z" fill="#4767E7"/>
</g>
<defs>
<clipPath id="clip0_2049_3260">
<rect width="20" height="20" fill="white"/>
</clipPath>
</defs>
</svg>
