<svg width="20" height="20" viewBox="0 0 20 20" fill="none" xmlns="http://www.w3.org/2000/svg">
<g clip-path="url(#clip0_2049_3263)">
<path d="M19.7811 19.5967C19.6967 19.6818 19.5764 19.7304 19.4498 19.7304H0.851524C0.724943 19.7304 0.604358 19.6818 0.519971 19.5967C0.435806 19.5117 0.395833 19.3984 0.410045 19.2853L2.18151 5.33654C2.20705 5.13467 2.39692 4.98218 2.62277 4.98218H4.15662C4.40201 4.98218 4.60076 5.16106 4.60076 5.38191C4.60076 5.60276 4.40201 5.78164 4.15662 5.78164H3.01894L1.34919 18.9309H18.9519L17.2822 5.78164H15.8909C15.6457 5.78164 15.4467 5.60276 15.4467 5.38191C15.4467 5.16106 15.6457 4.98218 15.8909 4.98218H17.6783C17.9042 4.98218 18.0941 5.13467 18.1198 5.33654L19.8911 19.2853C19.9053 19.3984 19.8653 19.5117 19.7811 19.5967Z" fill="#4767E7" stroke="#4767E7" stroke-width="0.8"/>
<path d="M12.7932 5.38191C12.7932 5.60276 12.5945 5.78164 12.3491 5.78164H8.03155C7.78616 5.78164 7.5874 5.60276 7.5874 5.38191C7.5874 5.16106 7.78616 4.98218 8.03155 4.98218H12.3491C12.5945 4.98218 12.7932 5.16106 12.7932 5.38191Z" fill="#4767E7" stroke="#4767E7" stroke-width="0.8"/>
<path d="M15.0216 7.37456C15.0216 7.81467 14.6252 8.17162 14.136 8.17162C13.647 8.17162 13.2504 7.81467 13.2504 7.37456C13.2504 7.08016 13.4278 6.82294 13.6919 6.68503V4.18633C13.6919 2.42892 12.1034 0.999287 10.1507 0.999287C8.19803 0.999287 6.60955 2.42892 6.60955 4.18633V6.68503C6.87359 6.82294 7.05103 7.08016 7.05103 7.37456C7.05103 7.81467 6.65441 8.17162 6.16541 8.17162C5.67618 8.17162 5.27979 7.81467 5.27979 7.37456C5.27979 7.08016 5.45722 6.82294 5.72126 6.68503V4.18633C5.72126 1.98822 7.70836 0.199829 10.1507 0.199829C12.593 0.199829 14.5801 1.98822 14.5801 4.18633V6.68503C14.8442 6.82294 15.0216 7.08016 15.0216 7.37456Z" fill="#4767E7" stroke="#4767E7" stroke-width="0.8"/>
</g>
<defs>
<clipPath id="clip0_2049_3263">
<rect width="20" height="20" fill="white"/>
</clipPath>
</defs>
</svg>
