<svg width="20" height="20" viewBox="0 0 20 20" fill="none" xmlns="http://www.w3.org/2000/svg">
<g clip-path="url(#clip0_2049_3258)">
<path d="M0.754991 19.686C0.371463 19.686 0.0605469 19.3751 0.0605469 18.9916V13.8977C0.0605469 13.0028 0.785742 12.2771 1.68056 12.2771L3.7628 12.2771V9.73C3.7628 9.61752 3.79012 9.50672 3.84241 9.40714C3.8947 9.30755 3.9704 9.22216 4.063 9.1583L4.07187 9.15229L9.31619 5.65376V1.39448C9.31619 1.38205 9.31651 1.36963 9.31717 1.35722L9.31738 1.35353C9.32318 1.25236 9.35119 1.15371 9.39941 1.06459C9.40137 1.06086 9.40345 1.057 9.40558 1.05309L9.41476 1.03656L9.42472 1.01928C9.42645 1.01635 9.42819 1.01338 9.42999 1.01038L9.4411 0.992112C9.45067 0.976617 9.46107 0.960427 9.47233 0.943652L9.48622 0.92321C9.49338 0.912858 9.50082 0.902289 9.50859 0.891526C9.59158 0.776552 9.69314 0.663618 9.81562 0.558561C10.1619 0.261556 10.6092 0.0825195 11.1419 0.0825195C11.7542 0.0825195 12.4298 0.321105 13.1727 0.816699L13.2044 0.837663L13.2357 0.858127L13.2513 0.868175L13.2823 0.887923L13.313 0.907151L13.3434 0.925922C13.3535 0.932107 13.3636 0.938184 13.3736 0.944217L13.4035 0.962012L13.4331 0.979373C13.443 0.985059 13.4528 0.990679 13.4625 0.996213L13.4916 1.01262L13.5205 1.02855C13.5396 1.03903 13.5586 1.04916 13.5773 1.05904L13.6054 1.07358C13.6193 1.08074 13.6332 1.08775 13.6469 1.09459L13.6743 1.108L13.7015 1.12097L13.7283 1.13352C13.7595 1.14788 13.7901 1.16136 13.8202 1.17395L13.8459 1.18452C13.8544 1.18799 13.8629 1.19135 13.8713 1.19467L13.8965 1.20437C13.9007 1.20596 13.9048 1.20754 13.909 1.20908L13.9337 1.21817L13.9582 1.22686C13.9867 1.23671 14.0146 1.24574 14.042 1.25392L14.0653 1.26075L14.0884 1.26718C14.1573 1.28582 14.2228 1.29908 14.2848 1.30726L14.3053 1.3098C14.3496 1.31492 14.3921 1.31739 14.4328 1.31739C14.62 1.31739 14.7512 1.26488 14.8548 1.17601C14.8898 1.146 14.9184 1.11423 14.9399 1.08447L14.9445 1.07785L14.9483 1.07223L14.9523 1.06592L14.9528 1.06462C15.2901 0.433105 16.2585 0.668848 16.2585 1.39441V4.17288C16.2585 4.28345 16.2321 4.39242 16.1815 4.49072L16.1734 4.50617C16.165 4.52202 16.1554 4.53894 16.1447 4.55689L16.1335 4.57516L16.1217 4.59409C16.1155 4.60372 16.1091 4.61357 16.1023 4.62364L16.0885 4.64409C16.0813 4.65444 16.0738 4.66501 16.0661 4.67577C15.9831 4.79074 15.8815 4.90366 15.759 5.00871C15.4127 5.30576 14.9655 5.48478 14.4328 5.48478C13.8204 5.48478 13.1449 5.24619 12.402 4.75057L12.3861 4.74005L12.3703 4.72963L12.3389 4.70917C12.3337 4.70578 12.3285 4.70244 12.3233 4.69912L12.2924 4.67937L12.2617 4.66012C12.2413 4.64747 12.2211 4.63512 12.201 4.62308L12.1711 4.60528L12.1415 4.58792C12.1221 4.57668 12.1026 4.5656 12.083 4.55468L12.0542 4.53875L12.0256 4.52327L11.9973 4.50826L11.9833 4.50092L11.9554 4.4866L11.9277 4.47271L11.9003 4.4593C11.8913 4.45493 11.8823 4.4506 11.8732 4.44632L11.8464 4.43378C11.7993 4.41203 11.7516 4.39163 11.7033 4.37262L11.6782 4.36292C11.6657 4.35815 11.6533 4.35357 11.6409 4.34912L11.6164 4.34044C11.5887 4.33082 11.5608 4.32179 11.5327 4.31338L11.5093 4.30654L11.4862 4.30012C11.4173 4.28148 11.3519 4.26822 11.2899 4.26004L11.2693 4.2575C11.227 4.25253 11.1845 4.24999 11.1419 4.2499C10.9547 4.2499 10.8235 4.30242 10.7198 4.39129C10.7148 4.39563 10.7099 4.40001 10.7051 4.40442L10.7051 5.65379L15.9494 9.15227C16.043 9.21469 16.12 9.2989 16.1738 9.39767C16.2276 9.49643 16.2566 9.60679 16.2584 9.71926L16.2585 9.72996V12.2771H18.3407C19.2266 12.2771 19.9462 12.9883 19.9605 13.8709L19.9607 13.8977V18.0654C19.9607 18.9604 19.2355 19.6861 18.3407 19.6861L0.754991 19.686ZM10.0106 6.86008L5.15169 10.1015V12.9715C5.15169 13.3512 4.84696 13.6598 4.46875 13.6659L4.45725 13.666H1.68056C1.55302 13.666 1.44944 13.7696 1.44944 13.8977V18.2972L7.46506 18.2971V12.9715C7.46506 12.5918 7.76979 12.2833 8.148 12.2772L8.15951 12.2771H11.8618C12.2414 12.2771 12.55 12.5818 12.5561 12.96L12.5562 12.9715V18.2971H18.3407C18.4641 18.2971 18.5651 18.2001 18.5716 18.0779L18.5718 18.0716V13.8977C18.5718 13.7696 18.4683 13.666 18.3407 13.666H15.564C15.1805 13.666 14.8696 13.3551 14.8696 12.9715V10.1015L10.0106 6.86008ZM11.1673 13.666H8.85395V18.2971H11.1673V13.666ZM11.1419 1.47141C10.9547 1.47141 10.8235 1.52393 10.7198 1.61279L10.7105 1.62104L10.7051 1.62592V2.9037L10.7181 2.90114C10.8472 2.87586 10.9826 2.86212 11.1242 2.86108L11.1419 2.86099C11.7542 2.86099 12.4298 3.09958 13.1727 3.59519L13.2044 3.61613L13.2357 3.6366C13.2409 3.63998 13.2462 3.64333 13.2513 3.64665L13.2823 3.6664L13.313 3.68562L13.3434 3.70439C13.3535 3.71058 13.3636 3.71668 13.3736 3.72269L13.4035 3.74048L13.4331 3.75784C13.4528 3.76924 13.4723 3.78033 13.4916 3.79109L13.5205 3.80702C13.53 3.81227 13.5396 3.81744 13.549 3.82249L13.5773 3.83751L13.5914 3.84485L13.6193 3.85917C13.6286 3.86388 13.6378 3.8685 13.6469 3.87306L13.6743 3.88647C13.6834 3.89087 13.6924 3.89521 13.7015 3.89947L13.7283 3.91199C13.7595 3.92636 13.7901 3.93983 13.8202 3.95242L13.8459 3.96299C13.8502 3.96472 13.8544 3.96642 13.8586 3.96811L13.8839 3.97805L13.909 3.98755C13.9131 3.98912 13.9173 3.99064 13.9214 3.99215L13.946 4.00105C13.9664 4.00826 13.9866 4.01505 14.0065 4.02141L14.0302 4.02883C14.0381 4.03124 14.0459 4.0336 14.0537 4.03586L14.0769 4.04248C14.1308 4.05745 14.1826 4.06917 14.2323 4.07772L14.2535 4.08122L14.2744 4.08432C14.3299 4.09211 14.3827 4.09589 14.4328 4.09589C14.62 4.09589 14.7512 4.04337 14.8548 3.95448L14.8642 3.94626L14.8696 3.94131V2.66355L14.8566 2.66616C14.7275 2.69144 14.592 2.70518 14.4505 2.70622L14.4328 2.7063C13.8204 2.7063 13.1449 2.4677 12.402 1.9721L12.3703 1.95114L12.3389 1.93067C12.3285 1.92395 12.3181 1.91729 12.3078 1.91071L12.277 1.89122C12.2719 1.88801 12.2668 1.88482 12.2617 1.88167L12.2312 1.8629L12.201 1.84461C12.186 1.83558 12.1711 1.82673 12.1563 1.81807L12.1268 1.80097L12.0975 1.78434C12.0784 1.77355 12.0592 1.76293 12.0399 1.75246L12.0115 1.73723C12.0068 1.73474 12.002 1.73226 11.9973 1.72979L11.9693 1.71522L11.9554 1.70811L11.9277 1.69422L11.9003 1.68081L11.8867 1.67427L11.8597 1.66151C11.8465 1.65531 11.8331 1.6492 11.8198 1.6432L11.7934 1.63154C11.7678 1.62034 11.742 1.60955 11.716 1.59916L11.6907 1.58925L11.6657 1.57972C11.6532 1.57508 11.6409 1.57061 11.6286 1.56627L11.6043 1.5578C11.5923 1.55371 11.5802 1.54973 11.5682 1.54587L11.5444 1.53844C11.5102 1.52793 11.4756 1.51845 11.4408 1.51002L11.4185 1.50479C11.3726 1.4943 11.3262 1.48611 11.2796 1.48024L11.2592 1.47785L11.239 1.4759C11.2067 1.47295 11.1743 1.47145 11.1419 1.47141Z" fill="#4767E7"/>
</g>
<defs>
<clipPath id="clip0_2049_3258">
<rect width="20" height="20" fill="white"/>
</clipPath>
</defs>
</svg>
