<svg width="20" height="20" viewBox="0 0 20 20" fill="none" xmlns="http://www.w3.org/2000/svg">
<g clip-path="url(#clip0_2049_3269)">
<path d="M4.44455 14.6429V18.2143H18.3334V14.6429H4.44455ZM3.75011 12.8572H19.0279C19.2121 12.8572 19.3887 12.9512 19.5189 13.1187C19.6492 13.2861 19.7223 13.5132 19.7223 13.75V19.1072C19.7223 19.344 19.6492 19.5711 19.5189 19.7385C19.3887 19.906 19.2121 20 19.0279 20H3.75011C3.56593 20 3.3893 19.906 3.25906 19.7385C3.12883 19.5711 3.05566 19.344 3.05566 19.1072V13.75C3.05566 13.5132 3.12883 13.2861 3.25906 13.1187C3.3893 12.9512 3.56593 12.8572 3.75011 12.8572Z" fill="#4767E7"/>
<path d="M14.1667 14.6429H15.5556V18.2143H14.1667V14.6429ZM4.4445 0.357178H5.83339V9.28575H4.4445V0.357178ZM1.66672 3.92861H3.05561V9.28575H1.66672V3.92861ZM0.277832 12.8572H1.66672V20H0.277832V12.8572Z" fill="#4767E7"/>
</g>
<defs>
<clipPath id="clip0_2049_3269">
<rect width="20" height="20" fill="white"/>
</clipPath>
</defs>
</svg>
