<svg width="20" height="20" viewBox="0 0 20 20" fill="none" xmlns="http://www.w3.org/2000/svg">
<g clip-path="url(#clip0_2049_3330)">
<path d="M5.63866 18.1713L0.740511 19.2592L1.82847 14.3611C0.783516 12.4027 0.476861 10.1341 0.964375 7.96859C1.45189 5.80307 2.70113 3.88474 4.4845 2.5631C6.26788 1.24145 8.4667 0.604452 10.6804 0.768144C12.8941 0.931836 14.9753 1.88533 16.5448 3.45491C18.1144 5.02449 19.0679 7.1057 19.2316 9.31937C19.3953 11.5331 18.7583 13.7319 17.4366 15.5152C16.115 17.2986 14.1967 18.5479 12.0312 19.0354C9.86563 19.5229 7.59703 19.2162 5.63866 18.1713ZM5.90718 16.2129L6.51366 16.537C7.58547 17.1119 8.78351 17.411 9.99977 17.4074C11.6197 17.4071 13.1949 16.8758 14.484 15.8949C15.7732 14.914 16.7052 13.5375 17.1374 11.9763C17.5696 10.4151 17.4781 8.75526 16.877 7.25102C16.2758 5.74678 15.1981 4.48108 13.809 3.64778C12.4198 2.81448 10.7958 2.45954 9.18564 2.63731C7.5755 2.81508 6.06803 3.51577 4.89413 4.63205C3.72022 5.74833 2.9446 7.21865 2.68607 8.8178C2.42754 10.417 2.70036 12.0568 3.46273 13.4861L3.78681 14.0926L3.18033 16.8194L5.90718 16.2129ZM5.37014 9.99998H7.22199C7.22199 10.7367 7.51465 11.4432 8.03558 11.9642C8.55652 12.4851 9.26306 12.7778 9.99977 12.7778C10.7365 12.7778 11.443 12.4851 11.964 11.9642C12.4849 11.4432 12.7775 10.7367 12.7775 9.99998H14.6294C14.6294 10.6079 14.5097 11.21 14.277 11.7717C14.0443 12.3334 13.7033 12.8437 13.2734 13.2736C12.8435 13.7035 12.3331 14.0445 11.7715 14.2772C11.2098 14.5099 10.6077 14.6296 9.99977 14.6296C9.3918 14.6296 8.78978 14.5099 8.22809 14.2772C7.66639 14.0445 7.15603 13.7035 6.72613 13.2736C6.29623 12.8437 5.95521 12.3334 5.72255 11.7717C5.48989 11.21 5.37014 10.6079 5.37014 9.99998Z" fill="#4767E7"/>
</g>
<defs>
<clipPath id="clip0_2049_3330">
<rect width="20" height="20" fill="white"/>
</clipPath>
</defs>
</svg>
