<svg width="20" height="20" viewBox="0 0 20 20" fill="none" xmlns="http://www.w3.org/2000/svg">
<g clip-path="url(#clip0_2049_3255)">
<path d="M19.4001 3.41C19.4001 3.03 19.0556 2.72 18.6334 2.71L17.7779 2.70001C17.7223 2.70001 15.9557 2.65 14.1557 1.99C12.2557 1.29 11.0223 0.500005 10.9779 0.480005L10.4668 0.140005C10.189 -0.0399951 9.82232 -0.0399951 9.55565 0.140005L9.04454 0.470005C9.03343 0.480005 7.77788 1.29 5.86676 1.99C4.06676 2.65 2.28899 2.70001 2.24454 2.70001H1.36676C0.944542 2.71001 0.600098 3.02 0.600098 3.4V11.22C0.600098 13.18 1.84454 15.37 4.02232 17.24C6.0001 18.94 8.28899 20 10.0001 20C11.7112 20 14.0001 18.94 15.9779 17.24C18.1557 15.37 19.4001 13.18 19.4001 11.22V3.41ZM14.9001 16.23C13.2557 17.64 11.2779 18.6 10.0001 18.6C8.72232 18.6 6.74454 17.65 5.1001 16.23C3.23343 14.63 2.16676 12.8 2.16676 11.23V4.1H2.25565C2.43343 4.1 4.41121 4.03 6.44454 3.29C8.52232 2.52 9.88899 1.64 9.94454 1.6L10.0001 1.56L10.0557 1.6C10.2223 1.71 11.5445 2.54001 13.5668 3.28001C15.6001 4.02001 17.5779 4.09001 17.7557 4.09001H17.8445V11.22C17.8445 12.8 16.7668 14.62 14.9001 16.23Z" fill="#4767E7"/>
<path d="M13.4114 6.88005L8.96691 10.8801L7.08913 9.20005C6.70024 8.85005 6.07802 8.85005 5.68913 9.20005C5.30024 9.55005 5.30024 10.1101 5.68913 10.4601L8.25579 12.7701C8.44468 12.9401 8.68913 13.0301 8.95579 13.0301C9.22246 13.0301 9.46691 12.9401 9.65579 12.7701L14.8002 8.14005C15.1891 7.79005 15.1891 7.23005 14.8002 6.88005C14.4225 6.53005 13.8002 6.53005 13.4114 6.88005Z" fill="#4767E7"/>
</g>
<defs>
<clipPath id="clip0_2049_3255">
<rect width="20" height="20" fill="white"/>
</clipPath>
</defs>
</svg>
