<svg width="20" height="20" viewBox="0 0 20 20" fill="none" xmlns="http://www.w3.org/2000/svg">
<g clip-path="url(#clip0_2049_3267)">
<path d="M6.19761 0.298445C6.81414 0.0320384 7.4572 0.616316 7.251 1.25548C6.97813 2.10125 6.83757 2.98944 6.83757 3.89757C6.83757 8.64613 10.6877 12.4957 15.4372 12.4957C16.6258 12.4957 17.7792 12.2549 18.8454 11.7942C19.4619 11.5278 20.105 12.112 19.8988 12.7512C18.556 16.9137 14.6684 19.79 10.2256 19.79C4.61326 19.79 0.0634766 15.2409 0.0634766 9.62938C0.0634766 5.53751 2.5053 1.89383 6.19761 0.298445ZM5.36589 2.53375L5.32031 2.56502C3.04946 4.14239 1.62598 6.75513 1.62598 9.6294C1.62598 14.378 5.47615 18.2275 10.2256 18.2275C13.3838 18.2275 16.2108 16.5098 17.7079 13.8729L17.7525 13.7931L17.7029 13.8046C16.9798 13.9692 16.2352 14.055 15.4792 14.0581L15.4372 14.0582C9.82483 14.0582 5.27507 9.50911 5.27507 3.89754C5.27507 3.43834 5.30559 2.98309 5.36589 2.53375ZM19.0853 1.55308C19.8164 1.55308 20.1434 2.46461 19.5903 2.93045L19.5733 2.94442L16.1011 5.72169H19.0853C19.5125 5.72169 19.8595 6.06451 19.8664 6.49L19.8665 6.50294C19.8665 6.93008 19.5237 7.27718 19.0982 7.28409L19.0853 7.28419H13.8737C13.1426 7.28419 12.8155 6.37266 13.3687 5.90682L13.3857 5.89285L16.8578 3.11556H14.2179C13.7908 3.11556 13.4437 2.77276 13.4368 2.34725L13.4367 2.33431C13.4367 1.90716 13.7795 1.56009 14.205 1.55318L14.2179 1.55308H19.0853Z" fill="#4767E7"/>
</g>
<defs>
<clipPath id="clip0_2049_3267">
<rect width="20" height="20" fill="white"/>
</clipPath>
</defs>
</svg>
