<svg width="20" height="20" viewBox="0 0 20 20" fill="none" xmlns="http://www.w3.org/2000/svg">
<g clip-path="url(#clip0_2049_3276)">
<path d="M10.2909 15.1997H10.29C10.1413 15.1997 9.99063 15.1981 9.84205 15.1952C7.2477 15.1428 4.81057 14.6438 2.97936 13.7901C1.03446 12.8833 -0.0235782 11.6615 0.000398755 10.35C0.0236874 9.07552 1.07192 7.92015 2.95222 7.09683C4.71439 6.32523 7.06253 5.90027 9.56388 5.90027C9.71217 5.90027 9.86286 5.90177 10.0117 5.90468C12.6061 5.95689 15.0432 6.45587 16.8745 7.30982C18.8193 8.21666 19.8774 9.43834 19.8534 10.7497C19.8302 12.0244 18.7817 13.1797 16.9015 14.003C15.1397 14.7746 12.7917 15.1997 10.2909 15.1997M9.56388 6.77857C7.17041 6.77857 4.93665 7.17951 3.27413 7.90751C1.74134 8.57873 0.853059 9.47505 0.83669 10.3669C0.819874 11.2887 1.7246 12.244 3.31893 12.9873C5.05034 13.7947 7.37276 14.2669 9.85804 14.3169C10.0013 14.3199 10.1466 14.3213 10.29 14.3213H10.2909C12.6839 14.3213 14.9173 13.9203 16.5797 13.1925C18.1123 12.5213 19.0007 11.6249 19.017 10.733C19.0339 9.81099 18.1292 8.8558 16.5349 8.11261C14.8033 7.30507 12.4809 6.83296 9.99571 6.78292C9.85179 6.78004 9.70783 6.77859 9.56388 6.77857Z" fill="#4767E7"/>
<path d="M14.0798 19.639C12.9791 19.639 11.6426 19.0073 10.2147 17.8125C8.80388 16.632 7.42763 15.0064 6.23511 13.1116C4.8045 10.8387 3.81333 8.44795 3.44443 6.38014C3.05239 4.18391 3.41039 2.57605 4.45267 1.85279C4.82734 1.59289 5.27181 1.46094 5.77347 1.46094C6.87423 1.46094 8.21087 2.09242 9.63865 3.28738C11.0495 4.46797 12.4257 6.09355 13.6182 7.98844C15.0487 10.2614 16.0397 12.6518 16.4089 14.7197C16.8008 16.9161 16.4427 18.5238 15.4005 19.2471C15.0258 19.5071 14.5816 19.639 14.0798 19.639ZM5.77349 2.33926C5.43863 2.33926 5.14944 2.42219 4.91394 2.58562C4.18124 3.09406 3.94532 4.41822 4.26659 6.21844C4.61551 8.17383 5.56249 10.4499 6.93307 12.6272C8.07784 14.4463 9.39294 16.0017 10.736 17.1256C11.9959 18.18 13.1835 18.7606 14.0799 18.7606C14.4147 18.7606 14.7039 18.6777 14.9393 18.5144C15.672 18.006 15.9081 16.6818 15.5866 14.8815C15.2378 12.9262 14.2908 10.6502 12.9203 8.47273C11.7755 6.65369 10.4605 5.09818 9.11733 3.97432C7.85732 2.92002 6.66986 2.33926 5.77347 2.33926" fill="#4767E7"/>
<path d="M6.2547 19.9721C5.84891 19.9721 5.47505 19.8767 5.14097 19.6835C4.04635 19.0511 3.56564 17.4791 3.78712 15.2566C3.99566 13.1643 4.79929 10.6972 6.05011 8.31025C7.4153 5.70513 9.17219 3.49166 10.8703 2.2374C11.0593 2.09781 11.3203 2.14547 11.4531 2.34381C11.586 2.5423 11.5407 2.81617 11.3516 2.95576C9.75409 4.1358 8.08893 6.2418 6.78312 8.73381C5.58489 11.0206 4.81633 13.3695 4.61902 15.3481C4.43753 17.1697 4.77471 18.4696 5.54413 18.914C6.31354 19.3585 7.53963 18.9619 8.90807 17.8259C10.3942 16.592 11.8726 14.653 13.0708 12.3663C14.3766 9.87437 15.1795 7.27033 15.2737 5.2217C15.2849 4.97943 15.4808 4.79244 15.7116 4.80416C15.9423 4.81588 16.1204 5.02174 16.1093 5.264C16.0093 7.44168 15.1689 10.1847 13.8037 12.7898C12.553 15.1768 10.9985 17.21 9.42687 18.5149C8.26716 19.4777 7.17827 19.9721 6.2547 19.9721Z" fill="#4767E7"/>
<path d="M12.1895 2.21854C12.1895 2.79666 12.4161 3.37113 12.8054 3.78006C13.1947 4.18883 13.7419 4.42674 14.2926 4.42674C14.8432 4.42674 15.3903 4.18883 15.7796 3.78006C16.169 3.37113 16.3956 2.79662 16.3956 2.21854C16.3956 1.64037 16.169 1.06578 15.7796 0.657012C15.3903 0.24832 14.8432 0.0102539 14.2926 0.0102539C13.7419 0.0102539 13.1947 0.24832 12.8054 0.656973C12.4161 1.06576 12.1895 1.64035 12.1895 2.2185" fill="#4767E7"/>
</g>
<defs>
<clipPath id="clip0_2049_3276">
<rect width="20" height="20" fill="white"/>
</clipPath>
</defs>
</svg>
