<svg width="20" height="20" viewBox="0 0 20 20" fill="none" xmlns="http://www.w3.org/2000/svg">
<g clip-path="url(#clip0_2049_3281)">
<path d="M3.16466 12.1388C3.57157 12.1395 3.96954 12.0194 4.30819 11.7939C4.64685 11.5683 4.91097 11.2473 5.06715 10.8715C5.22332 10.4958 5.26453 10.0822 5.18555 9.68299C5.10657 9.28382 4.91095 8.91704 4.62346 8.62908C4.33596 8.34111 3.9695 8.1449 3.57046 8.06528C3.17141 7.98565 2.75772 8.02618 2.38171 8.18175C2.00571 8.33731 1.68431 8.60092 1.45817 8.93921C1.23203 9.2775 1.11133 9.67527 1.11133 10.0822C1.11191 10.6269 1.32833 11.1492 1.71318 11.5346C2.09803 11.9201 2.61996 12.1374 3.16466 12.1388ZM3.16466 9.36107C3.30796 9.36041 3.44822 9.40232 3.56766 9.4815C3.6871 9.56068 3.78032 9.67355 3.83552 9.80579C3.89071 9.93803 3.90538 10.0837 3.87767 10.2243C3.84996 10.3649 3.78111 10.4941 3.67986 10.5955C3.57861 10.6969 3.44952 10.7659 3.30897 10.7939C3.16842 10.8218 3.02275 10.8073 2.89042 10.7523C2.75809 10.6974 2.64508 10.6043 2.56572 10.485C2.48636 10.3657 2.44422 10.2255 2.44466 10.0822C2.44495 9.891 2.5208 9.70769 2.65566 9.5722C2.79053 9.43671 2.97349 9.36002 3.16466 9.35884V9.36107Z" fill="#4767E7"/>
<path d="M19.1643 18.4633L15.2531 16.1589C15.0157 16.0194 14.7483 15.9386 14.4732 15.9233C14.1982 15.9081 13.9235 15.9587 13.672 16.0711L9.50204 17.9367C9.43596 17.9663 9.36296 17.977 9.29115 17.9676C9.21935 17.9582 9.15158 17.929 9.09537 17.8833L1.51537 11.74C1.44723 11.6849 1.36891 11.6438 1.28487 11.619C1.20084 11.5942 1.11274 11.5862 1.02561 11.5954C0.938478 11.6046 0.854018 11.6309 0.777052 11.6728C0.700086 11.7147 0.632122 11.7713 0.57704 11.8394C0.521957 11.9076 0.480836 11.9859 0.456023 12.0699C0.43121 12.154 0.423192 12.2421 0.432427 12.3292C0.441661 12.4163 0.467967 12.5008 0.509842 12.5778C0.551718 12.6547 0.608343 12.7227 0.676484 12.7778L3.58204 15.1333L0.638706 17.9C0.509929 18.0216 0.434715 18.1893 0.429609 18.3663C0.424504 18.5433 0.489926 18.7151 0.611484 18.8439C0.733042 18.9727 0.900777 19.0479 1.07779 19.053C1.2548 19.0581 1.4266 18.9927 1.55537 18.8711L4.62982 15.9822L8.25537 18.9189C8.50275 19.1208 8.80153 19.2497 9.11813 19.2911C9.43473 19.3325 9.75661 19.2848 10.0476 19.1533L14.222 17.2878C14.2793 17.2623 14.3419 17.2509 14.4044 17.2544C14.467 17.2579 14.5279 17.2762 14.582 17.3078L18.4931 19.6122C18.5686 19.6567 18.652 19.6858 18.7387 19.698C18.8254 19.7102 18.9137 19.7051 18.9984 19.6832C19.0832 19.6613 19.1628 19.6229 19.2327 19.5702C19.3026 19.5175 19.3615 19.4516 19.4059 19.3761C19.4504 19.3007 19.4795 19.2172 19.4917 19.1305C19.5039 19.0438 19.4988 18.9556 19.4769 18.8708C19.455 18.7861 19.4166 18.7065 19.3639 18.6365C19.3112 18.5666 19.2453 18.5078 19.1698 18.4633H19.1643Z" fill="#4767E7"/>
<path d="M5.16199 7.54772C5.3244 7.60858 5.50414 7.60375 5.66305 7.53426C5.82196 7.46476 5.94753 7.33607 6.0131 7.1755C6.02421 7.14883 6.06532 7.04883 6.14088 6.89883C6.27338 6.69126 6.47108 6.53358 6.70292 6.45057C6.93477 6.36756 7.18762 6.36392 7.42176 6.44023C7.6559 6.51654 7.85805 6.66847 7.99646 6.87215C8.13487 7.07583 8.20169 7.31972 8.18644 7.5655C8.17652 7.71246 8.21555 7.85857 8.29743 7.981C8.37932 8.10344 8.49944 8.19531 8.63905 8.24227C8.77866 8.28923 8.92988 8.28863 9.06912 8.24057C9.20835 8.19251 9.32774 8.09969 9.40866 7.97661C9.53992 7.78416 9.72836 7.63784 9.94733 7.55832C10.1663 7.47881 10.4047 7.47013 10.6289 7.53351C10.8531 7.59689 11.0516 7.72913 11.1965 7.91152C11.3415 8.09392 11.4254 8.31725 11.4364 8.54995L9.69866 13.4188L7.1231 11.2822C6.95968 11.1465 6.77114 11.0444 6.56826 10.9817C6.36537 10.9189 6.15211 10.8967 5.94065 10.9164C5.72919 10.936 5.52368 10.9971 5.33583 11.0962C5.14799 11.1953 4.98151 11.3304 4.84588 11.4938C4.71025 11.6573 4.60814 11.8458 4.54538 12.0487C4.48262 12.2516 4.46043 12.4648 4.48009 12.6763C4.51978 13.1033 4.7275 13.4971 5.05755 13.7711L7.9331 16.1566C8.2222 16.3976 8.58676 16.5293 8.9631 16.5288C9.0131 16.5288 9.06421 16.5288 9.11532 16.5222C9.39046 16.4968 9.65446 16.4011 9.88199 16.2444C9.89587 16.3478 9.93383 16.4465 9.99282 16.5326C10.0518 16.6187 10.1302 16.6897 10.2216 16.7399C10.3131 16.7902 10.415 16.8183 10.5193 16.822C10.6236 16.8256 10.7272 16.8048 10.822 16.7611L14.4609 15.0855L18.0253 17.0255C18.1806 17.1105 18.3633 17.1304 18.5333 17.0807C18.7032 17.031 18.8464 16.9158 18.9314 16.7605C19.0165 16.6052 19.0363 16.4225 18.9866 16.2526C18.9369 16.0826 18.8217 15.9394 18.6664 15.8544L15.0509 13.8888C14.8833 13.7979 14.6969 13.7473 14.5063 13.7409C14.3158 13.7345 14.1264 13.7726 13.9531 13.8522L10.4909 15.4444C10.5541 15.2661 10.5846 15.0779 10.5809 14.8888C10.5993 14.8565 10.6149 14.8227 10.6275 14.7877L12.6664 9.04439C12.8073 8.85026 13.0071 8.70691 13.2361 8.63575C13.4652 8.56459 13.7111 8.56944 13.9371 8.64958C14.1631 8.72972 14.3572 8.88085 14.4902 9.08038C14.6233 9.27991 14.6882 9.51713 14.6753 9.75661C14.6651 9.90367 14.704 10.05 14.7857 10.1726C14.8675 10.2953 14.9877 10.3873 15.1273 10.4344C15.267 10.4816 15.4184 10.481 15.5577 10.433C15.6971 10.3849 15.8166 10.292 15.8975 10.1688C16.0349 9.96636 16.2351 9.81485 16.4673 9.73783C16.6996 9.66081 16.9507 9.66258 17.1818 9.74286C17.4129 9.82314 17.611 9.97745 17.7455 10.1818C17.8799 10.3862 17.9431 10.6293 17.9253 10.8733C17.892 11.0488 17.8642 11.1599 17.8564 11.1888C17.8136 11.3558 17.837 11.5328 17.9218 11.6828C18.0067 11.8329 18.1463 11.9442 18.3114 11.9935C18.4766 12.0428 18.6544 12.0262 18.8076 11.9473C18.9608 11.8683 19.0775 11.7331 19.1331 11.5699C19.1924 11.3953 19.2319 11.2145 19.2509 11.0311C19.4452 9.93417 19.4677 8.81374 19.3175 7.70995C18.952 5.21328 17.6131 3.42106 15.4287 2.48772L15.742 1.62772C15.772 1.54543 15.7855 1.45803 15.7817 1.37053C15.7779 1.28302 15.7569 1.19712 15.7199 1.11773C15.6829 1.03833 15.6306 0.967001 15.5661 0.907806C15.5015 0.84861 15.426 0.802709 15.3437 0.772724C15.2614 0.742739 15.174 0.729256 15.0865 0.733047C14.999 0.736837 14.9131 0.757826 14.8337 0.794814C14.6733 0.869516 14.5492 1.00486 14.4887 1.17106L14.1642 2.05995C10.7575 1.16328 8.4231 2.36884 7.04088 3.58328C6.20739 4.32961 5.51588 5.22064 4.99977 6.21328C4.90352 6.36936 4.8256 6.53601 4.76755 6.70995C4.71195 6.87348 4.72201 7.05222 4.79558 7.20849C4.86916 7.36477 5.00052 7.48638 5.16199 7.54772ZM9.18421 15.0933C9.13604 15.1511 9.06692 15.1874 8.99199 15.1944C8.95481 15.198 8.91729 15.1941 8.88162 15.1831C8.84594 15.172 8.81283 15.154 8.78421 15.1299L5.90977 12.7455C5.86633 12.7098 5.83448 12.662 5.8183 12.6082C5.80211 12.5543 5.80231 12.4969 5.81887 12.4431C5.83543 12.3894 5.8676 12.3418 5.91129 12.3064C5.95498 12.271 6.00821 12.2494 6.06421 12.2444H6.08977C6.15637 12.2439 6.22098 12.2671 6.27199 12.3099L9.14755 14.6955C9.17626 14.7192 9.2 14.7484 9.2174 14.7813C9.2348 14.8142 9.24551 14.8502 9.24892 14.8873C9.25233 14.9244 9.24836 14.9618 9.23726 14.9973C9.22615 15.0329 9.20813 15.0658 9.18421 15.0944V15.0933ZM14.3575 3.50884C17.2753 4.45772 17.9998 6.83439 18.0853 8.69661C17.9331 8.60463 17.7709 8.53009 17.602 8.47439C17.3515 8.38918 17.0888 8.34564 16.8242 8.3455C16.4531 8.34581 16.0869 8.43014 15.7531 8.59217C15.4657 8.01835 14.9635 7.58115 14.3555 7.37559C13.7476 7.17003 13.0831 7.21272 12.5064 7.49439C12.2191 6.92058 11.7168 6.48338 11.1089 6.27782C10.5009 6.07225 9.83641 6.11495 9.25977 6.39661C8.97204 5.82248 8.46994 5.38464 7.86199 5.17772C7.71747 5.12746 7.56872 5.09027 7.41755 5.06661C8.68977 3.71106 10.9087 2.38772 14.3575 3.50884Z" fill="#4767E7"/>
</g>
<defs>
<clipPath id="clip0_2049_3281">
<rect width="20" height="20" fill="white"/>
</clipPath>
</defs>
</svg>
