<svg width="20" height="20" viewBox="0 0 20 20" fill="none" xmlns="http://www.w3.org/2000/svg">
<g clip-path="url(#clip0_2049_3315)">
<path d="M13.2037 4.70587V5.20587H13.7037H17.4074C18.1232 5.20587 18.7592 5.83705 18.7592 6.66665V17.451C18.7592 18.2806 18.1232 18.9118 17.4074 18.9118H2.59257C1.87674 18.9118 1.24072 18.2806 1.24072 17.451V6.66665C1.24072 5.83705 1.87674 5.20587 2.59257 5.20587H6.29628H6.79628V4.70587V2.94388L8.36365 1.2843H11.6363L13.2037 2.94388V4.70587ZM11.8518 5.20587H12.3518V4.70587V2.74509V2.24509H11.8518H8.14813H7.64813V2.74509V4.70587V5.20587H8.14813H11.8518Z" stroke="#4767E7"/>
</g>
<defs>
<clipPath id="clip0_2049_3315">
<rect width="20" height="20" fill="white"/>
</clipPath>
</defs>
</svg>
