<svg width="20" height="20" viewBox="0 0 20 20" fill="none" xmlns="http://www.w3.org/2000/svg">
<g clip-path="url(#clip0_2049_3285)">
<path d="M9.99977 20C4.83237 20 0.62793 16.6364 0.62793 12.5025C0.62793 8.36856 4.83237 5.005 9.99977 5.005C15.1672 5.005 19.3716 8.36856 19.3716 12.5025C19.3716 16.6364 15.1672 20 9.99977 20ZM9.99977 5.62979C5.26309 5.62979 1.40892 8.71313 1.40892 12.5025C1.40892 16.2918 5.26309 19.3752 9.99977 19.3752C14.7365 19.3752 18.5906 16.2918 18.5906 12.5025C18.5906 8.71313 14.7365 5.62979 9.99977 5.62979Z" fill="#4767E7"/>
<path d="M11.9797 5.80789C11.9037 5.80786 11.8293 5.79007 11.7657 5.7567C11.7021 5.72332 11.6521 5.67581 11.6218 5.62001C11.5914 5.5642 11.5821 5.50253 11.595 5.44256C11.6079 5.38259 11.6424 5.32694 11.6943 5.28244L14.9635 2.47963L13.3133 0.631503H6.68661L5.03638 2.47963L8.30559 5.28244C8.34057 5.31245 8.36781 5.34767 8.38576 5.3861C8.40372 5.42454 8.41204 5.46542 8.41024 5.50642C8.40845 5.54743 8.39658 5.58775 8.3753 5.62508C8.35403 5.66241 8.32377 5.69603 8.28626 5.72401C8.24875 5.75199 8.20472 5.77378 8.15668 5.78814C8.10864 5.80251 8.05753 5.80916 8.00628 5.80773C7.95502 5.80629 7.90463 5.79679 7.85796 5.77978C7.81129 5.76276 7.76927 5.73855 7.7343 5.70854L4.24719 2.71893C4.18585 2.66617 4.1492 2.59807 4.14343 2.52616C4.13767 2.45426 4.16315 2.38297 4.21556 2.32437L6.16803 0.137607C6.20407 0.0971247 6.25169 0.0641228 6.30692 0.0413535C6.36214 0.0185842 6.42337 0.00670756 6.4855 0.00671387H13.5144C13.6405 0.00671387 13.7588 0.0554475 13.8319 0.137607L15.7843 2.32437C15.8367 2.383 15.8621 2.45431 15.8563 2.52622C15.8504 2.59812 15.8137 2.6662 15.7523 2.71893L12.2652 5.70854C12.2287 5.73987 12.1846 5.76485 12.1356 5.78194C12.0865 5.79903 12.0336 5.80786 11.9801 5.80789H11.9797ZM9.99994 18.438C5.90874 18.438 2.58057 15.7755 2.58057 12.5025C2.58057 9.22955 5.90874 6.567 9.99994 6.567C14.0911 6.567 17.4193 9.22955 17.4193 12.5025C17.4193 15.7755 14.0911 18.438 9.99994 18.438ZM9.99994 7.19179C6.33946 7.19179 3.36155 9.57412 3.36155 12.5025C3.36155 15.4309 6.33946 17.8132 9.99994 17.8132C13.6604 17.8132 16.6383 15.4309 16.6383 12.5025C16.6383 9.57412 13.6604 7.19179 9.99994 7.19179Z" fill="#4767E7"/>
<path d="M15.4669 2.81827H4.53307C4.42951 2.81827 4.33018 2.78536 4.25695 2.72677C4.18372 2.66819 4.14258 2.58873 4.14258 2.50588C4.14258 2.42302 4.18372 2.34357 4.25695 2.28498C4.33018 2.22639 4.42951 2.19348 4.53307 2.19348H15.4669C15.5705 2.19348 15.6698 2.22639 15.743 2.28498C15.8162 2.34357 15.8574 2.42302 15.8574 2.50588C15.8574 2.58873 15.8162 2.66819 15.743 2.72677C15.6698 2.78536 15.5705 2.81827 15.4669 2.81827Z" fill="#4767E7"/>
<path d="M9.23062 5.65793C9.1487 5.65788 9.06887 5.63722 9.00244 5.59887C8.936 5.56052 8.88632 5.50643 8.86044 5.44425L7.67724 2.60458C7.64896 2.52701 7.65935 2.4437 7.70622 2.37213C7.7531 2.30056 7.83281 2.2463 7.92863 2.22075C8.02445 2.1952 8.12891 2.20034 8.22009 2.2351C8.31127 2.26985 8.38207 2.33152 8.41762 2.40715L9.60081 5.24682C9.62035 5.29376 9.62568 5.34374 9.61636 5.39264C9.60703 5.44155 9.58332 5.48799 9.54717 5.52813C9.51103 5.56827 9.46348 5.60097 9.40845 5.62354C9.35341 5.6461 9.29247 5.65789 9.23062 5.65793ZM10.7692 5.65793C10.7073 5.65791 10.6463 5.64612 10.5912 5.62354C10.5361 5.60095 10.4886 5.56822 10.4524 5.52804C10.4163 5.48785 10.3926 5.44137 10.3833 5.39242C10.374 5.34348 10.3794 5.29346 10.399 5.2465L11.5822 2.40684C11.6175 2.33087 11.6883 2.26885 11.7796 2.23386C11.871 2.19887 11.9758 2.19366 12.0719 2.21933C12.168 2.24499 12.2478 2.29952 12.2946 2.3714C12.3414 2.44329 12.3514 2.5269 12.3226 2.60458L11.1394 5.44425C11.1135 5.50643 11.0638 5.56052 10.9974 5.59887C10.9309 5.63722 10.8511 5.65788 10.7692 5.65793Z" fill="#4767E7"/>
<path d="M11.9525 2.81834C11.8904 2.81829 11.8292 2.80639 11.774 2.78363C11.7188 2.76086 11.6711 2.72789 11.635 2.68744L10 0.856811L8.36504 2.68744C8.3276 2.73054 8.27695 2.76521 8.21793 2.78814C8.15892 2.81106 8.09353 2.82146 8.02805 2.81834C7.96267 2.81564 7.89918 2.79984 7.84343 2.77238C7.78769 2.74492 7.74146 2.70669 7.70901 2.6612L6.14704 0.47444C6.12015 0.43878 6.10244 0.399178 6.09496 0.357964C6.08748 0.31675 6.09038 0.274755 6.10348 0.234449C6.11658 0.194143 6.13962 0.15634 6.17125 0.123263C6.20289 0.0901853 6.24246 0.0625014 6.28766 0.041839C6.33286 0.0211765 6.38277 0.00795275 6.43445 0.00294523C6.48613 -0.00206229 6.53854 0.00124754 6.5886 0.0126801C6.63866 0.0241126 6.68535 0.0434371 6.72594 0.0695171C6.76652 0.0955971 6.80018 0.127906 6.82493 0.164544L8.08467 1.9277L9.68296 0.137678C9.82939 -0.0263291 10.1715 -0.0263291 10.3179 0.137678L11.9162 1.9277L13.1755 0.164232C13.2003 0.127594 13.2339 0.0952847 13.2745 0.0692046C13.3151 0.0431246 13.3618 0.0238001 13.4119 0.0123676C13.4619 0.000934982 13.5143 -0.00237487 13.566 0.00263265C13.6177 0.00764017 13.6676 0.020864 13.7128 0.0415264C13.758 0.0621888 13.7976 0.0898727 13.8292 0.12295C13.8608 0.156028 13.8839 0.193831 13.897 0.234137C13.9101 0.274442 13.913 0.316437 13.9055 0.357651C13.898 0.398866 13.8803 0.438467 13.8534 0.474127L12.2915 2.66089C12.2573 2.7087 12.208 2.74845 12.1485 2.7761C12.0889 2.80375 12.0213 2.81832 11.9525 2.81834ZM2.97115 2.81834H1.79967C1.69611 2.81834 1.59678 2.78542 1.52355 2.72684C1.45032 2.66825 1.40918 2.5888 1.40918 2.50594C1.40918 2.42309 1.45032 2.34363 1.52355 2.28505C1.59678 2.22646 1.69611 2.19355 1.79967 2.19355H2.97115C3.07472 2.19355 3.17404 2.22646 3.24727 2.28505C3.32051 2.34363 3.36165 2.42309 3.36165 2.50594C3.36165 2.5888 3.32051 2.66825 3.24727 2.72684C3.17404 2.78542 3.07472 2.81834 2.97115 2.81834ZM18.2004 2.81834H17.0289C16.9254 2.81834 16.826 2.78542 16.7528 2.72684C16.6796 2.66825 16.6384 2.5888 16.6384 2.50594C16.6384 2.42309 16.6796 2.34363 16.7528 2.28505C16.826 2.22646 16.9254 2.19355 17.0289 2.19355H18.2004C18.304 2.19355 18.4033 2.22646 18.4765 2.28505C18.5498 2.34363 18.5909 2.42309 18.5909 2.50594C18.5909 2.5888 18.5498 2.66825 18.4765 2.72684C18.4033 2.78542 18.304 2.81834 18.2004 2.81834ZM16.6388 1.56876C16.5547 1.56929 16.4726 1.54803 16.4048 1.50816C16.3371 1.46829 16.2872 1.41194 16.2628 1.34754C16.2384 1.28314 16.2407 1.21414 16.2693 1.15086C16.2979 1.08758 16.3514 1.03341 16.4217 0.996451L17.5932 0.371662C17.6358 0.348893 17.6837 0.333071 17.734 0.325097C17.7843 0.317124 17.8361 0.317156 17.8864 0.325191C17.9367 0.333226 17.9845 0.349108 18.0271 0.371929C18.0698 0.39475 18.1063 0.424063 18.1348 0.458195C18.1633 0.492327 18.183 0.53061 18.193 0.570857C18.203 0.611104 18.2029 0.652528 18.1929 0.692763C18.1828 0.732998 18.163 0.771256 18.1345 0.805353C18.1059 0.83945 18.0693 0.868718 18.0266 0.891487L16.8552 1.51628C16.791 1.55058 16.7156 1.56885 16.6384 1.56876H16.6388ZM3.36126 1.56876C3.28424 1.56879 3.20895 1.55052 3.14492 1.51628L1.97344 0.891487C1.93078 0.868718 1.89414 0.83945 1.86561 0.805353C1.83708 0.771256 1.81723 0.732998 1.80719 0.692763C1.79714 0.652528 1.7971 0.611104 1.80707 0.570857C1.81704 0.53061 1.83682 0.492327 1.86528 0.458195C1.89374 0.424063 1.93032 0.39475 1.97294 0.371929C2.01556 0.349108 2.06339 0.333226 2.11368 0.325191C2.16397 0.317156 2.21575 0.317124 2.26606 0.325097C2.31637 0.333071 2.36423 0.348893 2.40689 0.371662L3.57837 0.996451C3.64813 1.03366 3.70107 1.08785 3.72935 1.151C3.75763 1.21415 3.75975 1.2829 3.7354 1.34709C3.71105 1.41127 3.66152 1.46749 3.59414 1.50741C3.52676 1.54733 3.4451 1.56884 3.36126 1.56876ZM17.8095 4.69271C17.7325 4.69273 17.6572 4.67447 17.5932 4.64022L16.4217 4.01543C16.3355 3.96945 16.2757 3.89797 16.2554 3.81671C16.2352 3.73545 16.2561 3.65108 16.3135 3.58214C16.371 3.51321 16.4604 3.46537 16.5619 3.44914C16.6635 3.43291 16.769 3.44963 16.8552 3.49561L18.0266 4.1204C18.0964 4.15761 18.1493 4.2118 18.1776 4.27495C18.2059 4.3381 18.208 4.40685 18.1837 4.47104C18.1593 4.53522 18.1098 4.59143 18.0424 4.63136C17.975 4.67128 17.8934 4.69279 17.8095 4.69271ZM2.19056 4.69271C2.10643 4.69324 2.02435 4.67198 1.95658 4.63211C1.88881 4.59224 1.83898 4.53589 1.81455 4.47149C1.79012 4.40709 1.79239 4.33809 1.82103 4.27481C1.84967 4.21153 1.90314 4.15736 1.97344 4.1204L3.14492 3.49561C3.23109 3.44963 3.33656 3.43291 3.43813 3.44914C3.53971 3.46537 3.62906 3.51321 3.68654 3.58214C3.74402 3.65108 3.76491 3.73545 3.74463 3.81671C3.72434 3.89797 3.66454 3.96945 3.57837 4.01543L2.40689 4.64022C2.34275 4.67453 2.26732 4.6928 2.19017 4.69271H2.19056Z" fill="#4767E7"/>
<path d="M9.99987 9.0662C9.89834 9.0662 9.79681 9.03183 9.72262 8.9756C9.65233 8.91625 9.60938 8.83502 9.60938 8.7538C9.60938 8.67258 9.65233 8.59136 9.72262 8.532C9.8671 8.41642 10.1287 8.41642 10.2771 8.532C10.3474 8.59136 10.3904 8.67258 10.3904 8.7538C10.3904 8.83502 10.3474 8.91625 10.2771 8.9756C10.2029 9.03183 10.1014 9.0662 9.99987 9.0662Z" fill="#4767E7"/>
<path d="M8.43786 9.0662C8.33633 9.0662 8.2348 9.03183 8.16061 8.9756C8.09032 8.91625 8.04736 8.83502 8.04736 8.7538C8.04736 8.66946 8.09032 8.59136 8.16061 8.532C8.30509 8.41642 8.56672 8.41642 8.71511 8.532C8.7854 8.59136 8.82835 8.67258 8.82835 8.7538C8.82835 8.83502 8.7854 8.91625 8.71511 8.9756C8.64091 9.03183 8.53939 9.0662 8.43786 9.0662Z" fill="#4767E7"/>
<path d="M11.5619 9.0662C11.4604 9.0662 11.3588 9.03183 11.2846 8.9756C11.2143 8.91625 11.1714 8.83502 11.1714 8.7538C11.1714 8.67258 11.2143 8.59136 11.2846 8.532C11.4291 8.41642 11.6907 8.41642 11.8391 8.532C11.9094 8.59136 11.9524 8.67258 11.9524 8.7538C11.9524 8.83502 11.9094 8.91625 11.8391 8.9756C11.7649 9.03183 11.6634 9.0662 11.5619 9.0662Z" fill="#4767E7"/>
</g>
<defs>
<clipPath id="clip0_2049_3285">
<rect width="20" height="20" fill="white"/>
</clipPath>
</defs>
</svg>
