<svg width="22" height="16" viewBox="0 0 22 16" fill="none" xmlns="http://www.w3.org/2000/svg">
<g clip-path="url(#clip0_1645_591)">
<path d="M7.90517 0.250488C6.97791 0.250488 6.22617 1.00224 6.22617 1.92949C6.22617 2.85675 6.97791 3.60839 7.90517 3.60839C8.83243 3.60839 9.58417 2.85675 9.58417 1.92949C9.58274 1.00279 8.83187 0.252032 7.90517 0.250488ZM7.90517 2.8336C7.6654 2.8336 7.43545 2.73835 7.26591 2.56881C7.09637 2.39927 7.00112 2.16932 7.00112 1.92955C7.00112 1.68978 7.09637 1.45983 7.26591 1.29029C7.43545 1.12075 7.6654 1.0255 7.90517 1.0255C8.0239 1.0255 8.14146 1.04888 8.25115 1.09432C8.36085 1.13975 8.46051 1.20635 8.54447 1.2903C8.62842 1.37426 8.69502 1.47393 8.74045 1.58362C8.78589 1.69331 8.80927 1.81087 8.80927 1.9296C8.80927 2.04833 8.78589 2.16589 8.74045 2.27557C8.69501 2.38526 8.62842 2.48492 8.54446 2.56886C8.46051 2.65281 8.36084 2.71939 8.25115 2.76482C8.14146 2.81024 8.02389 2.83361 7.90517 2.8336ZM5.36605 3.34766H5.32206C3.89617 3.34766 1.57666 6.71857 1.12466 7.39535C1.08247 7.4589 1.06 7.5335 1.06006 7.60978C1.05077 7.99104 1.17464 8.36362 1.41035 8.66343C1.64606 8.96324 1.97888 9.17155 2.35156 9.25251V14.0699C2.32554 14.9712 3.03506 15.7229 3.9363 15.7489C3.96772 15.7498 3.99925 15.7498 4.03056 15.7489C4.42578 15.7489 5.45127 15.4466 5.45127 14.0699V7.66655C5.68407 6.97511 6.03356 6.32863 6.48458 5.75515C6.65563 5.53473 6.76173 5.27091 6.79093 4.99343C6.82012 4.71595 6.77126 4.43583 6.64983 4.18463C6.53499 3.93943 6.35396 3.73117 6.12715 3.5833C5.90033 3.43542 5.63674 3.35382 5.36605 3.34766ZM5.88265 5.27979C5.35299 5.94408 4.95101 6.70078 4.69709 7.51155C4.6929 7.54416 4.6929 7.57717 4.69709 7.60978V14.07C4.69709 14.8915 4.19857 14.969 4.05129 14.9741C3.93089 14.9804 3.81052 14.9614 3.69797 14.9182C3.58542 14.875 3.4832 14.8086 3.39796 14.7234C3.31271 14.6381 3.24633 14.5359 3.20313 14.4234C3.15993 14.3108 3.14087 14.1904 3.14718 14.07V8.90381C3.14718 8.80104 3.10636 8.70247 3.03368 8.6298C2.96101 8.55713 2.86245 8.51631 2.75968 8.51631C2.64828 8.52436 2.5364 8.51003 2.43062 8.47418C2.32485 8.43832 2.22732 8.38165 2.14378 8.30752C2.06024 8.23338 1.99239 8.14328 1.94422 8.04251C1.89605 7.94175 1.86853 7.83236 1.86329 7.72079C2.8966 6.19161 4.61165 4.12521 5.34279 4.12521H5.37376C5.49642 4.13074 5.61522 4.16979 5.71724 4.23811C5.81926 4.30643 5.90061 4.4014 5.95243 4.51271C6.01503 4.6359 6.04076 4.77453 6.02655 4.91197C6.01233 5.04942 5.95877 5.17985 5.87228 5.28761L5.88265 5.27979ZM15.7914 1.9296C15.7914 1.00235 15.0398 0.250599 14.1124 0.250599C13.1852 0.250599 12.4335 1.00235 12.4335 1.9296C12.4335 2.85388 13.1805 3.60431 14.1048 3.6085C15.0335 3.61136 15.7887 2.86083 15.7915 1.93214L15.7914 1.9296ZM14.1046 2.8336C13.8648 2.8336 13.6349 2.73835 13.4653 2.56881C13.2958 2.39927 13.2005 2.16932 13.2005 1.92955C13.2005 1.68978 13.2958 1.45983 13.4653 1.29029C13.6349 1.12075 13.8648 1.0255 14.1046 1.0255C14.3444 1.0255 14.5743 1.12075 14.7439 1.2903C14.9134 1.45986 15.0087 1.68982 15.0087 1.9296C15.0087 2.04833 14.9853 2.16589 14.9399 2.27557C14.8944 2.38526 14.8278 2.48492 14.7439 2.56886C14.6599 2.65281 14.5603 2.71939 14.4506 2.76482C14.3409 2.81024 14.2233 2.83361 14.1046 2.8336ZM20.893 7.39535C20.4409 6.71857 18.1214 3.34766 16.6878 3.34766H16.6413C16.3695 3.35184 16.1043 3.43226 15.876 3.57977C15.6477 3.72727 15.4653 3.93593 15.3498 4.18198C15.2284 4.4332 15.1796 4.71332 15.2088 4.9908C15.238 5.26827 15.3441 5.53208 15.5152 5.75251C15.9662 6.32602 16.3157 6.97253 16.5485 7.66402V14.0699C16.5485 15.4466 17.5818 15.7489 17.9692 15.7489C18.8704 15.7749 19.6222 15.0655 19.6482 14.1643C19.6491 14.1329 19.6491 14.1013 19.6482 14.0699V9.25251C20.0209 9.17155 20.3537 8.96324 20.5894 8.66343C20.8251 8.36362 20.949 7.99104 20.9397 7.60978C20.945 7.53531 20.9288 7.46087 20.893 7.39535ZM19.2708 8.51377C19.2199 8.51377 19.1695 8.5238 19.1225 8.54327C19.0755 8.56275 19.0328 8.59129 18.9968 8.62728C18.9609 8.66326 18.9323 8.70598 18.9129 8.75299C18.8934 8.8 18.8834 8.85039 18.8834 8.90128V14.07C18.8889 14.1901 18.8693 14.31 18.8258 14.4221C18.7823 14.5341 18.7159 14.6359 18.6307 14.7208C18.5456 14.8056 18.4437 14.8718 18.3315 14.915C18.2193 14.9582 18.0994 14.9775 17.9793 14.9716C17.827 14.9716 17.3284 14.8889 17.3284 14.0675V7.61231C17.3326 7.5797 17.3326 7.54669 17.3284 7.51409C17.0738 6.70516 16.6718 5.95028 16.1428 5.2875C16.0563 5.17972 16.0028 5.04929 15.9886 4.91185C15.9744 4.7744 16.0001 4.63578 16.0627 4.5126C16.1156 4.39687 16.2002 4.29852 16.3067 4.229C16.4132 4.15948 16.5373 4.12165 16.6645 4.11992H16.6878C17.4187 4.11992 19.134 6.18632 20.1672 7.7155C20.1568 7.9379 20.0584 8.14705 19.8938 8.29694C19.7292 8.44683 19.5117 8.52518 19.2893 8.51476C19.283 8.51465 19.277 8.51421 19.2708 8.51377Z" fill="#4767E7" stroke="#4767E7" stroke-width="0.4"/>
<path d="M7.90517 0.250488C6.97791 0.250488 6.22617 1.00224 6.22617 1.92949C6.22617 2.85675 6.97791 3.60839 7.90517 3.60839C8.83243 3.60839 9.58417 2.85675 9.58417 1.92949C9.58274 1.00279 8.83187 0.252032 7.90517 0.250488ZM7.90517 2.8336C7.6654 2.8336 7.43545 2.73835 7.26591 2.56881C7.09637 2.39927 7.00112 2.16932 7.00112 1.92955C7.00112 1.68978 7.09637 1.45983 7.26591 1.29029C7.43545 1.12075 7.6654 1.0255 7.90517 1.0255C8.0239 1.0255 8.14146 1.04888 8.25115 1.09432C8.36085 1.13975 8.46051 1.20635 8.54447 1.2903C8.62842 1.37426 8.69502 1.47393 8.74045 1.58362C8.78589 1.69331 8.80927 1.81087 8.80927 1.9296C8.80927 2.04833 8.78589 2.16589 8.74045 2.27557C8.69501 2.38526 8.62842 2.48492 8.54446 2.56886C8.46051 2.65281 8.36084 2.71939 8.25115 2.76482C8.14146 2.81024 8.02389 2.83361 7.90517 2.8336ZM5.36605 3.34766H5.32206C3.89617 3.34766 1.57666 6.71857 1.12466 7.39535C1.08247 7.4589 1.06 7.5335 1.06006 7.60978C1.05077 7.99104 1.17464 8.36362 1.41035 8.66343C1.64606 8.96324 1.97888 9.17155 2.35156 9.25251V14.0699C2.32554 14.9712 3.03506 15.7229 3.9363 15.7489C3.96772 15.7498 3.99925 15.7498 4.03056 15.7489C4.42578 15.7489 5.45127 15.4466 5.45127 14.0699V7.66655C5.68407 6.97511 6.03356 6.32863 6.48458 5.75515C6.65563 5.53473 6.76173 5.27091 6.79093 4.99343C6.82012 4.71595 6.77126 4.43583 6.64983 4.18463C6.53499 3.93943 6.35396 3.73117 6.12715 3.5833C5.90033 3.43542 5.63674 3.35382 5.36605 3.34766ZM5.88265 5.27979C5.35299 5.94408 4.95101 6.70078 4.69709 7.51155C4.6929 7.54416 4.6929 7.57717 4.69709 7.60978V14.07C4.69709 14.8915 4.19857 14.969 4.05129 14.9741C3.93089 14.9804 3.81052 14.9614 3.69797 14.9182C3.58542 14.875 3.4832 14.8086 3.39796 14.7234C3.31271 14.6381 3.24633 14.5359 3.20313 14.4234C3.15993 14.3108 3.14087 14.1904 3.14718 14.07V8.90381C3.14718 8.80104 3.10636 8.70247 3.03368 8.6298C2.96101 8.55713 2.86245 8.51631 2.75968 8.51631C2.64828 8.52436 2.5364 8.51003 2.43062 8.47418C2.32485 8.43832 2.22732 8.38165 2.14378 8.30752C2.06024 8.23338 1.99239 8.14328 1.94422 8.04251C1.89605 7.94175 1.86853 7.83236 1.86329 7.72079C2.8966 6.19161 4.61165 4.12521 5.34279 4.12521H5.37376C5.49642 4.13074 5.61522 4.16979 5.71724 4.23811C5.81926 4.30643 5.90061 4.4014 5.95243 4.51271C6.01503 4.6359 6.04076 4.77453 6.02655 4.91197C6.01233 5.04942 5.95877 5.17985 5.87228 5.28761L5.88265 5.27979ZM15.7914 1.9296C15.7914 1.00235 15.0398 0.250599 14.1124 0.250599C13.1852 0.250599 12.4335 1.00235 12.4335 1.9296C12.4335 2.85388 13.1805 3.60431 14.1048 3.6085C15.0335 3.61136 15.7887 2.86083 15.7915 1.93214L15.7914 1.9296ZM14.1046 2.8336C13.8648 2.8336 13.6349 2.73835 13.4653 2.56881C13.2958 2.39927 13.2005 2.16932 13.2005 1.92955C13.2005 1.68978 13.2958 1.45983 13.4653 1.29029C13.6349 1.12075 13.8648 1.0255 14.1046 1.0255C14.3444 1.0255 14.5743 1.12075 14.7439 1.2903C14.9134 1.45986 15.0087 1.68982 15.0087 1.9296C15.0087 2.04833 14.9853 2.16589 14.9399 2.27557C14.8944 2.38526 14.8278 2.48492 14.7439 2.56886C14.6599 2.65281 14.5603 2.71939 14.4506 2.76482C14.3409 2.81024 14.2233 2.83361 14.1046 2.8336ZM20.893 7.39535C20.4409 6.71857 18.1214 3.34766 16.6878 3.34766H16.6413C16.3695 3.35184 16.1043 3.43226 15.876 3.57977C15.6477 3.72727 15.4653 3.93593 15.3498 4.18198C15.2284 4.4332 15.1796 4.71332 15.2088 4.9908C15.238 5.26827 15.3441 5.53208 15.5152 5.75251C15.9662 6.32602 16.3157 6.97253 16.5485 7.66402V14.0699C16.5485 15.4466 17.5818 15.7489 17.9692 15.7489C18.8704 15.7749 19.6222 15.0655 19.6482 14.1643C19.6491 14.1329 19.6491 14.1013 19.6482 14.0699V9.25251C20.0209 9.17155 20.3537 8.96324 20.5894 8.66343C20.8251 8.36362 20.949 7.99104 20.9397 7.60978C20.945 7.53531 20.9288 7.46087 20.893 7.39535ZM19.2708 8.51377C19.2199 8.51377 19.1695 8.5238 19.1225 8.54327C19.0755 8.56275 19.0328 8.59129 18.9968 8.62728C18.9609 8.66326 18.9323 8.70598 18.9129 8.75299C18.8934 8.8 18.8834 8.85039 18.8834 8.90128V14.07C18.8889 14.1901 18.8693 14.31 18.8258 14.4221C18.7823 14.5341 18.7159 14.6359 18.6307 14.7208C18.5456 14.8056 18.4437 14.8718 18.3315 14.915C18.2193 14.9582 18.0994 14.9775 17.9793 14.9716C17.827 14.9716 17.3284 14.8889 17.3284 14.0675V7.61231C17.3326 7.5797 17.3326 7.54669 17.3284 7.51409C17.0738 6.70516 16.6718 5.95028 16.1428 5.2875C16.0563 5.17972 16.0028 5.04929 15.9886 4.91185C15.9744 4.7744 16.0001 4.63578 16.0627 4.5126C16.1156 4.39687 16.2002 4.29852 16.3067 4.229C16.4132 4.15948 16.5373 4.12165 16.6645 4.11992H16.6878C17.4187 4.11992 19.134 6.18632 20.1672 7.7155C20.1568 7.9379 20.0584 8.14705 19.8938 8.29694C19.7292 8.44683 19.5117 8.52518 19.2893 8.51476C19.283 8.51465 19.277 8.51421 19.2708 8.51377Z" fill="#4767E7" stroke="#4767E7" stroke-width="0.4"/>
</g>
<defs>
<clipPath id="clip0_1645_591">
<rect width="22" height="16" fill="white"/>
</clipPath>
</defs>
</svg>
