<svg width="20" height="20" viewBox="0 0 20 20" fill="none" xmlns="http://www.w3.org/2000/svg">
<g clip-path="url(#clip0_1645_600)">
<path d="M7.26178 5.74922L7.26178 5.74922L7.26345 5.74814C7.32369 5.70924 7.3833 5.67092 7.44154 5.63348C7.51311 5.58746 7.58261 5.54279 7.64865 5.5H12.3507C12.4683 5.57678 12.5974 5.66012 12.7393 5.74989C14.9607 7.17209 19.5 10.0951 19.5 16.25C19.5 18.0442 18.0442 19.5 16.25 19.5H3.75C1.95583 19.5 0.5 18.0442 0.5 16.25C0.5 10.0942 5.0407 7.17118 7.26178 5.74922ZM8.09886 8.88496L8.09885 8.88495L8.09522 8.88712C7.44242 9.27692 6.8388 9.98855 6.84376 11.0336L6.84376 11.0337C6.84881 12.0596 7.46313 12.6978 8.05184 13.0501C8.54408 13.3454 9.1388 13.5245 9.55814 13.6477C9.55822 13.6477 9.55829 13.6477 9.55837 13.6477L9.62125 13.6662C9.6218 13.6664 9.62235 13.6665 9.62289 13.6667C10.0309 13.7898 10.2967 13.878 10.4754 13.9643C10.3687 13.9995 10.2182 14.0261 10.0411 14.0198C9.69451 14.0073 9.36033 13.8991 8.81451 13.7145C8.72185 13.6823 8.62565 13.6503 8.52596 13.6183C7.854 13.3963 7.13275 13.7614 6.90893 14.4265C6.68359 15.096 7.04915 15.8238 7.71552 16.0481L7.71549 16.0482L7.72443 16.051C7.79354 16.0728 7.8656 16.0969 7.93528 16.1235L7.93521 16.1237L7.94836 16.1283C8.17132 16.2062 8.4316 16.2963 8.71484 16.3754V16.5625C8.71484 17.2683 9.29026 17.8438 9.99609 17.8438C10.7019 17.8438 11.2773 17.2683 11.2773 16.5625V16.4064C11.5046 16.3317 11.7319 16.2312 11.9482 16.0961C12.6325 15.67 13.1669 14.9237 13.1523 13.9069L13.1523 13.9067C13.1373 12.8942 12.5563 12.2464 11.9596 11.8671L11.9567 11.8653C11.4475 11.5464 10.8278 11.3584 10.4021 11.2291L10.3874 11.2247L10.3874 11.2246L10.3795 11.2224L10.3564 11.2158C10.0603 11.1255 9.84039 11.057 9.67167 10.9944C9.76473 10.9751 9.86971 10.9634 9.97805 10.9648L9.97917 10.9648C10.2914 10.9681 10.6577 11.0375 11.0716 11.1504L11.0716 11.1504L11.0765 11.1517C11.7598 11.3305 12.4576 10.9271 12.6427 10.2441C12.8298 9.55387 12.415 8.85762 11.7363 8.67366L11.7363 8.67364L11.732 8.67252C11.5904 8.63549 11.439 8.59804 11.2812 8.56293V8.4375C11.2812 7.73167 10.7058 7.15625 10 7.15625C9.29417 7.15625 8.71875 7.73167 8.71875 8.4375V8.60511C8.50914 8.67561 8.30006 8.76712 8.09886 8.88496ZM12.2324 3.25H7.76759L6.06506 0.696206C6.065 0.696115 6.06494 0.696025 6.06488 0.695935C6.00713 0.60849 6.06917 0.5 6.16797 0.5H13.832C13.9308 0.5 13.9928 0.60846 13.9351 0.695898C13.9351 0.696 13.935 0.696103 13.9349 0.696205L12.2324 3.25Z" stroke="#4767E7"/>
</g>
<defs>
<clipPath id="clip0_1645_600">
<rect width="20" height="20" fill="white"/>
</clipPath>
</defs>
</svg>
