<svg width="20" height="20" viewBox="0 0 20 20" fill="none" xmlns="http://www.w3.org/2000/svg">
<g clip-path="url(#clip0_1645_607)">
<path d="M11.9429 14.4263L11.9428 14.4262L8.76217 11.2455L8.76194 11.2453L9.1155 10.8917C9.01642 10.7928 9.01759 10.6037 9.0188 10.4081C9.01893 10.3866 9.01906 10.3649 9.01906 10.3433V4.11425C9.01906 3.84337 9.23866 3.6238 9.50951 3.6238H9.99996C10.2708 3.6238 10.4904 3.84339 10.4904 4.11425L11.9429 14.4263ZM11.9429 14.4263C12.3297 14.8129 12.9567 14.8129 13.3435 14.4264L13.3436 14.4262L13.6903 14.0794C13.6904 14.0794 13.6904 14.0793 13.6904 14.0793C14.0772 13.6925 14.0772 13.0654 13.6904 12.6786C13.6903 12.6786 13.6903 12.6786 13.6903 12.6786L10.9904 9.97865L11.9429 14.4263ZM0.69043 10.0001C0.69043 4.85841 4.85838 0.69043 9.99996 0.69043C15.1415 0.69043 19.3096 4.85851 19.3096 10.0001C19.3096 15.1417 15.1416 19.3096 9.99996 19.3096C4.85838 19.3096 0.69043 15.1417 0.69043 10.0001Z" stroke="#4767E7"/>
</g>
<defs>
<clipPath id="clip0_1645_607">
<rect width="20" height="20" fill="white"/>
</clipPath>
</defs>
</svg>
