<svg width="20" height="20" viewBox="0 0 20 20" fill="none" xmlns="http://www.w3.org/2000/svg">
<g clip-path="url(#clip0_1645_614)">
<path d="M13.2037 4.70599V5.20599H13.7037H17.4074C18.1232 5.20599 18.7592 5.83718 18.7592 6.66678V17.4511C18.7592 18.2807 18.1232 18.9119 17.4074 18.9119H2.59257C1.87674 18.9119 1.24072 18.2807 1.24072 17.4511V6.66678C1.24072 5.83718 1.87674 5.20599 2.59257 5.20599H6.29628H6.79628V4.70599V2.944L8.36365 1.28442H11.6363L13.2037 2.944V4.70599ZM11.8518 5.20599H12.3518V4.70599V2.74521V2.24521H11.8518H8.14813H7.64813V2.74521V4.70599V5.20599H8.14813H11.8518Z" stroke="#4767E7"/>
</g>
<defs>
<clipPath id="clip0_1645_614">
<rect width="20" height="20" fill="white"/>
</clipPath>
</defs>
</svg>
