<svg width="32" height="32" viewBox="0 0 32 32" fill="none" xmlns="http://www.w3.org/2000/svg">
<rect width="32" height="32" fill="white"/>
<path d="M13.8347 2.84488C13.7118 2.7716 13.5713 2.73291 13.4282 2.73291C13.2851 2.73291 13.1446 2.7716 13.0217 2.84488C12.9206 2.92567 12.8525 3.04058 12.8303 3.16802C12.808 3.29546 12.833 3.42666 12.9007 3.53694C14.7157 6.67876 15.4906 10.6464 14.4801 13.8328C13.8262 15.892 11.1684 16.0108 10.0688 14.1491C9.84229 13.7653 9.63884 13.3683 9.45952 12.9603C8.19448 13.6627 7.14611 14.6984 6.42829 15.9548C5.71046 17.2112 5.35063 18.6402 5.38788 20.0867C5.60229 25.3833 9.0116 29.249 15.567 29.249C22.1224 29.249 25.5232 25.1773 25.7461 20.0867C26.0093 13.9793 21.6744 6.4686 13.8347 2.84488Z" fill="#ED6B2C"/>
</svg>
