<svg width="36" height="36" viewBox="0 0 36 36" fill="none" xmlns="http://www.w3.org/2000/svg">
<path d="M5.62939 20.916V33.291H14.6294V24.291C14.6294 23.6942 14.8665 23.1219 15.2884 22.7C15.7103 22.278 16.2827 22.041 16.8794 22.041H19.1294C19.7261 22.041 20.2984 22.278 20.7205 22.7C21.1424 23.1219 21.3794 23.6942 21.3794 24.291V33.291H30.3794V20.916" stroke="#2A2A2A" stroke-width="1.5" stroke-linecap="round" stroke-linejoin="round"/>
<path d="M1.12939 18.6662L16.4129 3.38266C16.6219 3.17358 16.87 3.00771 17.143 2.89455C17.4161 2.78139 17.7088 2.72314 18.0044 2.72314C18.3001 2.72314 18.5927 2.78139 18.8657 2.89455C19.1389 3.00771 19.387 3.17358 19.5959 3.38266L34.8794 18.6662" stroke="#2A2A2A" stroke-width="1.5" stroke-linecap="round" stroke-linejoin="round"/>
</svg>
