<svg width="365" height="66" viewBox="0 0 365 66" fill="none" xmlns="http://www.w3.org/2000/svg">
<path d="M33.5328 10.1126C34.3453 9.88089 35.2838 9.94978 35.9766 10.4507C36.449 10.7826 36.8017 11.2711 37.0033 11.8096C36.6191 11.9599 36.1089 12.0851 35.9892 12.536C35.9892 12.9743 35.8129 13.4002 35.5357 13.7383C35.3342 13.97 35.0381 14.0765 34.761 14.1704C34.7862 14.0452 34.9185 14.0264 35.013 13.9637C35.372 13.7821 35.6491 13.4377 35.7121 13.037C35.794 12.561 35.5798 12.0789 35.2208 11.7658C34.6917 11.3086 33.7848 11.3838 33.3628 11.9536C33.0982 12.2667 32.9974 12.6926 33.0667 13.0933L33.0604 13.1246C33.01 13.2749 33.0037 13.4377 33.0037 13.5943C33.0037 14.1453 32.9974 14.6964 33.01 15.2475C32.3739 14.878 31.9078 14.233 31.7252 13.5254C31.2969 12.1603 32.1598 10.5384 33.5328 10.1126Z" fill="black"/>
<path d="M24.7965 16.3378C26.1149 15.4098 27.87 15.1217 29.4273 15.579C30.1687 15.8148 30.8407 16.228 31.4387 16.7184C31.914 17.0708 32.3292 17.5115 32.8604 17.7949C33.5748 18.191 34.4942 18.2566 35.232 17.8755C35.8172 17.6053 36.2223 17.0771 36.5989 16.5771C36.9971 16.0433 37.4349 15.5243 37.9455 15.0919C39.2266 14.0545 41.0126 13.7001 42.607 14.0905C43.6897 14.378 44.6316 15.0018 45.5638 15.5951C46.0928 15.9165 46.6544 16.2471 47.2865 16.293C48.0012 16.3994 48.7647 16.2549 49.3442 15.8152C49.61 16.2214 49.9817 16.5533 50.3731 16.8327C50.3626 16.8527 50.336 16.8997 50.3255 16.9197C50.262 16.9768 50.1972 17.0216 50.133 17.0725C49.3892 17.5738 48.4972 17.8769 47.5945 17.8473C46.9011 17.8205 46.2045 17.7059 45.5746 17.3889C44.7233 16.9571 43.951 16.3782 43.0983 15.9338C42.3601 15.5528 41.5045 15.3733 40.6826 15.5051C40.0604 15.6093 39.4531 15.8505 38.9572 16.2435C38.2209 16.8134 37.6904 17.588 37.0594 18.2536C36.4332 18.9629 35.5599 19.497 34.6024 19.6055C33.711 19.7384 32.7804 19.5102 32.0356 19.0103C31.1819 18.4401 30.4038 17.7484 29.4907 17.2728C28.5851 16.8089 27.4752 16.7384 26.5307 17.1415C25.2144 17.6788 24.3619 18.8719 23.2761 19.7247C22.4706 20.3586 21.4489 20.7511 20.4154 20.7417C19.7783 20.7089 19.1066 20.6484 18.545 20.3178C18.4901 20.2796 18.4472 20.2338 18.3986 20.1949C18.7495 19.8677 19.0492 19.4767 19.2419 19.0342C19.9706 19.328 20.8248 19.3187 21.5444 19.0026C22.0542 18.797 22.4498 18.4147 22.8468 18.0448C23.4741 17.4614 24.0979 16.8469 24.7965 16.3378Z" fill="black"/>
<path d="M18.3467 21.8203C19.6064 21.8266 20.8598 21.8203 22.1195 21.8203C21.9116 22.1334 21.6975 22.459 21.3762 22.6782C20.7716 23.0852 19.9402 23.1604 19.2914 22.8097C18.8695 22.6031 18.5986 22.2086 18.3467 21.8203Z" fill="black"/>
<path d="M45.605 19.2379C46.8584 19.2128 48.1118 19.2191 49.3652 19.2253C49.1132 19.7138 48.6912 20.1396 48.1559 20.3024C47.5008 20.5717 46.7135 20.4026 46.1844 19.9517C45.9451 19.7513 45.7876 19.4758 45.605 19.2379Z" fill="black"/>
<path d="M31.5993 21.334C31.7379 21.4279 31.7946 21.5907 31.8765 21.7285C32.1284 22.1293 32.4622 22.4862 32.8779 22.7242C32.9031 25.8614 32.9094 28.9987 32.8968 32.1297C32.8905 35.4298 32.9157 38.7299 32.8905 42.0238C32.9031 45.2988 32.8968 48.5739 32.8968 51.8489C32.8968 52.2059 32.9031 52.5691 32.8842 52.926C32.4433 52.9197 32.0024 52.926 31.5679 52.8947C31.5741 42.6312 31.5553 32.3677 31.5804 22.098C31.5867 21.8475 31.5804 21.5907 31.5993 21.334Z" fill="black"/>
<path d="M46.9423 23.7514C47.1627 23.2943 47.3832 22.8372 47.6225 22.3926C47.7044 22.8184 47.8997 23.2004 48.0571 23.6012C48.4539 24.6407 48.9641 25.6301 49.4176 26.6445C49.8459 27.6151 50.2868 28.5795 50.7214 29.5438C51.2252 30.6898 51.6976 31.8545 52.233 32.988C52.4723 33.4952 52.6739 34.0275 52.9258 34.5284C53.1589 35.067 53.3667 35.6243 53.6187 36.1565C53.6627 36.2693 53.6816 36.3945 53.6816 36.5135C53.6753 37.7534 53.6816 38.9932 53.6816 40.2331C54.6768 40.2269 55.6719 40.2394 56.6671 40.2269C56.8812 40.6276 57.0765 41.0347 57.2906 41.4354C55.6027 41.4229 53.921 41.4167 52.233 41.4229C52.2393 39.7885 52.233 38.1479 52.2393 36.5135C52.2141 36.3319 52.107 36.1816 52.044 36.0125C51.5906 34.9229 51.0993 33.8458 50.6458 32.7563C50.0915 31.5289 49.5562 30.2953 49.0082 29.0679C48.498 27.8969 48.0193 26.7196 47.4777 25.5612C47.3706 25.8242 47.2257 26.0621 47.1061 26.3126C46.5833 27.3208 46.0731 28.3415 45.5818 29.3622C44.9142 30.6272 44.3221 31.9359 43.6419 33.2009C43.3711 33.7519 43.075 34.2842 42.7853 34.829C42.3507 34.6975 41.8846 34.6411 41.4312 34.7038C41.8154 34.04 42.1177 33.3261 42.4767 32.6498C43.5978 30.3579 44.7882 28.0973 45.9031 25.8054C46.2369 25.1103 46.6211 24.4465 46.9423 23.7514Z" fill="black"/>
<path d="M34.7611 23.1244C35.202 23.0367 35.6429 22.9114 36.0145 22.6484C36.0208 23.4876 36.0271 24.3204 36.0334 25.1595C36.0271 34.4148 36.0397 43.6764 36.0271 52.9317C35.5988 52.9317 35.1768 52.9317 34.7485 52.9191C34.78 49.475 34.7548 46.0309 34.7611 42.5868C34.7548 36.0993 34.7548 29.6118 34.7611 23.1244Z" fill="black"/>
<path d="M13.9984 39.1809C15.9006 35.3548 17.7649 31.5161 19.6796 27.6963C19.8686 28.2473 20.0512 28.8047 20.1709 29.3745C19.9945 29.7001 19.8686 30.0508 19.7111 30.389C19.2387 31.4285 18.6971 32.4367 18.2247 33.4762C17.6389 34.7098 17.028 35.9309 16.4485 37.1645C16.0202 38.1351 15.51 39.0682 15.0692 40.0325C15.2077 40.4145 15.3652 40.7902 15.4975 41.1659C15.5919 41.3726 15.699 41.573 15.8061 41.7734C16.2722 41.047 16.7005 40.2955 17.1413 39.5503C17.6893 39.5566 18.2373 39.5566 18.7852 39.5503C18.7789 41.8235 18.7978 44.1028 18.7789 46.376C18.2814 46.3634 17.7838 46.3697 17.2925 46.3572C17.2988 45.1486 17.2862 43.9338 17.2862 42.7252C16.7382 43.5455 16.247 44.4097 15.7053 45.23C15.2959 44.5412 14.8991 43.8524 14.4645 43.1823C14.307 42.9381 14.1559 42.6814 13.9732 42.4559C13.2615 43.7396 12.6506 45.0672 12.0144 46.3885C11.5042 46.3885 10.9941 46.3822 10.4839 46.3947C10.4902 46.3822 10.4965 46.3509 10.4965 46.3384C11.7247 43.9901 12.7954 41.5542 13.9984 39.1809Z" fill="black"/>
<path d="M40.877 35.68C41.7084 35.6361 42.6216 35.5234 43.3711 35.9743C44.4419 36.5316 44.6623 38.0595 44.0262 39.0114C43.6861 39.4936 43.1003 39.744 42.5208 39.7691C42.7917 40.3765 43.0751 40.9714 43.3522 41.5726C43.5097 41.8982 43.6294 42.2363 43.8309 42.5432C43.2641 42.5432 42.6972 42.5432 42.1303 42.5432C41.765 41.6727 41.3871 40.8023 41.047 39.9194C40.8581 39.9256 40.6628 39.9069 40.4739 39.9194C40.392 40.0509 40.329 40.1949 40.2723 40.3389C39.9763 41.0841 39.6236 41.8043 39.3212 42.5432C38.7796 42.5432 38.2379 42.5432 37.6899 42.5494C38.3387 41.3659 38.83 40.1072 39.4094 38.8861C39.8818 37.8153 40.4298 36.7696 40.877 35.68ZM41.7902 37.0201C41.5824 37.5648 41.2989 38.0783 41.0407 38.6043C41.3871 38.573 41.7272 38.5918 42.0737 38.5793C42.3949 38.5605 42.7539 38.404 42.8736 38.0846C42.9995 37.7339 42.8043 37.3394 42.5146 37.1328C42.3067 36.9762 42.0296 37.0013 41.7902 37.0201Z" fill="black"/>
<path d="M47.1314 35.724C47.799 35.7178 48.4604 35.7178 49.128 35.7178C49.3044 36.3565 49.5626 36.9764 49.7893 37.6026C50.3877 39.2621 51.0049 40.909 51.6285 42.5622C51.0679 42.5497 50.5011 42.5622 49.9405 42.5559C49.8082 42.0988 49.6193 41.6667 49.487 41.2096C48.5737 41.1908 47.6542 41.1971 46.7409 41.2033C46.5771 41.6479 46.4512 42.0988 46.2811 42.5371C45.7142 42.5622 45.1411 42.5434 44.5742 42.5434C44.801 42.0675 44.9647 41.5665 45.1537 41.0781C45.6072 39.9133 46.0355 38.7361 46.4826 37.5651C46.6905 36.9514 46.9361 36.3502 47.1314 35.724ZM47.207 39.8382C47.8116 39.8382 48.4163 39.8319 49.0146 39.8445C48.706 39.068 48.4289 38.2789 48.1139 37.5087C47.736 38.2602 47.5156 39.068 47.207 39.8382Z" fill="black"/>
<path d="M38.5845 43.4266C41.677 43.4203 44.7696 43.4328 47.8621 43.4266C50.4256 43.4203 52.989 43.4454 55.5525 43.4141C55.1998 43.7522 54.8408 44.0904 54.4188 44.3534C53.9275 44.6727 53.3858 44.8919 52.8316 45.0798C51.8868 45.4304 50.8853 45.587 49.8839 45.6872C47.9818 45.9126 46.0544 45.8124 44.146 45.7435C43.9885 45.731 43.8374 45.706 43.6862 45.6872C42.9367 45.6183 42.1872 45.587 41.444 45.443C41.0661 45.3866 40.6882 45.2927 40.3102 45.2238C39.989 45.18 39.7812 44.9107 39.567 44.704C39.1828 44.3221 38.8805 43.8712 38.5845 43.4266Z" fill="black"/>
<path d="M25.0365 54.3915C25.8238 53.8405 26.8316 53.7152 27.77 53.7403C32.2041 53.7591 36.6319 53.734 41.0598 53.7466C41.866 53.734 42.7099 53.8029 43.4217 54.2037C43.8437 54.4291 44.1838 54.7798 44.4987 55.1367C44.7255 55.3935 44.8829 55.7066 45.0215 56.0197C43.113 56.0009 41.2046 56.0259 39.2962 56.0134C34.1189 56.0071 28.9478 56.0134 23.7705 56.0072C24.0476 55.3684 24.4696 54.7986 25.0365 54.3915Z" fill="black"/>
<path d="M37.0035 11.8096C37.2365 12.4608 37.2113 13.1997 36.9531 13.8385C36.5752 14.7152 35.7312 15.3915 34.7675 15.4979C34.7612 15.0533 34.7738 14.6087 34.7612 14.1704C35.0447 14.0764 35.3407 13.97 35.5359 13.7383C35.8194 13.4001 35.9894 12.9743 35.9894 12.536C36.1091 12.0851 36.6256 11.9536 37.0035 11.8096Z" fill="#8A8E90"/>
<path d="M33.0039 13.5937C33.0039 13.4371 33.0102 13.2743 33.0606 13.124C33.2684 13.5248 33.533 13.9506 34.0054 14.0633C34.0054 14.5455 33.9928 15.0339 33.9991 15.5161C33.6589 15.4848 33.3251 15.4034 33.0102 15.2656V15.2531C33.0039 14.6958 33.0102 14.1447 33.0039 13.5937Z" fill="#8B8F92"/>
<path d="M50.3322 16.9253C50.2687 16.9825 50.2039 17.0272 50.1397 17.0781C49.3959 17.5795 48.5039 17.8826 47.6012 17.8529C46.9078 17.8262 46.2112 17.7116 45.5813 17.3946C44.73 16.9627 43.9577 16.3838 43.105 15.9395C42.3668 15.5585 41.5112 15.379 40.6893 15.5108C40.0671 15.615 39.4598 15.8562 38.9639 16.2492C38.2275 16.819 37.6971 17.5936 37.0661 18.2593C36.4336 18.9692 35.5666 19.5026 34.6091 19.6111C33.7177 19.7441 32.787 19.5159 32.0423 19.0159C31.1886 18.4457 30.4105 17.7541 29.4973 17.2784C28.5918 16.8145 27.4813 16.7378 26.5374 17.1471C25.221 17.6844 24.3686 18.8776 23.2828 19.7304C22.4773 20.3643 21.4556 20.7567 20.422 20.7474C19.7843 20.7084 19.1133 20.654 18.5517 20.3235C18.513 20.6677 18.5946 21.0117 18.6067 21.3568C19.6031 21.2567 20.6008 21.1692 21.5896 21.0573C22.5039 20.9598 23.3338 20.4933 24.0313 19.915C24.6604 19.407 25.2243 18.824 25.8395 18.3049C26.6241 17.6543 27.7295 17.3915 28.7163 17.6704C29.3953 17.8561 29.9412 18.3332 30.3958 18.8452C30.7562 19.2477 31.0586 19.7003 31.4881 20.0387C32.0292 20.4722 32.6702 20.7754 33.3409 20.9431C33.9735 21.052 34.6392 21.0565 35.2665 20.8825C36.2361 20.653 37.1027 20.0567 37.7083 19.2741C38.1231 18.7763 38.3137 18.1388 38.6542 17.5986C39.0451 16.9396 39.691 16.4109 40.4587 16.2471C41.2747 16.0026 42.1561 16.1856 42.8943 16.5666C43.4331 16.8618 43.9564 17.1901 44.5002 17.4722C45.3605 17.9283 46.2821 18.3653 47.2776 18.3157C48.3281 18.2477 49.3652 18.0552 50.411 17.9435L50.468 17.9438C50.4065 17.6102 50.4194 17.2624 50.3322 16.9253Z" fill="#838383"/>
<path d="M32.8779 22.7236C33.2369 22.9052 33.6086 23.0618 34.0054 23.1432C33.9991 31.9414 34.0117 40.7395 34.0054 49.5377C34.0117 50.6649 33.9928 51.7983 34.0179 52.9255C33.64 52.9192 33.2621 52.9192 32.8842 52.9317C32.9031 52.5748 32.8968 52.2116 32.8968 51.8546C32.8968 48.5796 32.9031 45.3046 32.8905 42.0295C32.9094 38.7294 32.8905 35.4293 32.8968 32.1355C32.9157 28.9919 32.9031 25.8609 32.8779 22.7236Z" fill="#808688"/>
<path d="M37.1861 21.3213C37.0412 21.4152 36.9783 21.5843 36.8901 21.7221C36.6696 22.0915 36.3547 22.3984 36.0083 22.6488C36.0146 23.488 36.0209 24.3208 36.0272 25.1599C36.0209 34.4152 36.0335 43.6705 36.0209 52.9321C36.4114 52.9133 36.8019 52.9196 37.1924 52.9196C37.1672 51.3979 37.1924 22.6927 37.1861 21.3213Z" fill="#808688"/>
<path d="M19.705 30.3885C19.8625 30.0503 19.9884 29.6996 20.1648 29.374C20.2467 29.8374 20.3474 30.3008 20.4104 30.7642C20.3789 31.0272 20.2215 31.2589 20.1333 31.5031C19.7932 32.2483 19.4531 32.9997 19.1066 33.7449C18.8988 34.1582 18.6909 34.5715 18.502 34.9973C17.8784 36.3499 17.2297 37.6963 16.5684 39.0364C16.2031 39.744 15.9259 40.4954 15.4976 41.1717C15.3591 40.7897 15.2016 40.414 15.0693 40.0383C15.5102 39.0739 16.0204 38.1409 16.4487 37.1703C17.0345 35.9366 17.6391 34.7155 18.2249 33.4819C18.6909 32.4362 19.2389 31.4342 19.705 30.3885Z" fill="#82898B"/>
<path d="M45.5754 29.3553C46.0667 28.3346 46.5769 27.3139 47.0996 26.3057C47.087 26.337 47.0682 26.4059 47.0619 26.4372C47.1626 26.7127 47.339 26.9632 47.4272 27.245C47.2886 27.6395 47.0367 27.9839 46.8603 28.3659C45.7707 30.6265 44.6432 32.8745 43.5725 35.1414C43.3143 35.0224 43.056 34.9034 42.7915 34.8158C43.0749 34.271 43.371 33.7387 43.6481 33.1876C44.3157 31.929 44.9078 30.6265 45.5754 29.3553Z" fill="#848A8B"/>
<path d="M53.9588 34.8346C53.5369 33.8702 53.096 32.9059 52.6236 31.9666C52.0504 30.7643 51.4836 29.5557 50.9104 28.3534C50.0538 26.6376 49.2476 24.8967 48.3658 23.1934C48.1832 22.8616 47.9942 22.5234 47.736 22.2354C47.6982 22.2854 47.6604 22.3355 47.6289 22.3919C47.7108 22.8177 47.906 23.1997 48.0635 23.6005C48.4603 24.64 48.9705 25.6294 49.424 26.6438C49.8523 27.6144 50.2932 28.5788 50.7277 29.5432C51.2316 30.6891 51.704 31.8538 52.2394 32.9873C52.4787 33.4945 52.6803 34.0268 52.9322 34.5277C53.1652 35.0663 53.3731 35.6236 53.625 36.1559C53.6943 36.0244 53.7006 35.8803 53.6943 35.7363C53.6943 35.4169 53.7447 35.0851 53.9588 34.8346Z" fill="#7F8384"/>
<path d="M12.0142 46.3945C12.6503 45.0794 13.2613 43.7456 13.973 42.4619C14.1556 42.6936 14.3068 42.9441 14.4643 43.1883C13.9667 44.2654 13.4502 45.3299 12.9211 46.3882C12.6188 46.3945 12.3165 46.4007 12.0142 46.3945Z" fill="#848B8C"/>
<path d="M52.2328 41.4229C53.9208 41.4229 55.6025 41.4229 57.2905 41.4354C57.2968 41.4542 57.322 41.4855 57.3283 41.5043C57.4794 41.8299 57.6495 42.143 57.7691 42.4811C57.744 42.4999 57.6999 42.5375 57.6747 42.5563C55.8607 42.5625 54.0405 42.5438 52.2202 42.55C52.2328 42.1743 52.2265 41.7986 52.2328 41.4229Z" fill="#858A8D"/>
<path d="M25.3294 42.8432C25.3294 42.7431 25.3231 42.6429 25.3105 42.5427L25.3042 42.5239C25.1719 41.9353 24.8255 41.4092 24.3531 41.0398C23.2761 40.1881 21.5944 40.232 20.5804 41.165C19.8875 41.8351 19.5096 42.8307 19.6419 43.7888C19.7679 44.5716 20.1332 45.3543 20.7693 45.849C21.311 46.2874 22.0227 46.494 22.7155 46.4439C22.8604 46.4314 23.0179 46.4189 23.169 46.3938C23.3076 46.3688 23.4461 46.3249 23.5658 46.2435C23.8744 46.0306 24.5988 45.4733 25.0208 44.4589C25.2853 43.8201 25.3357 43.244 25.3294 42.8432ZM21.4306 42.5615C21.6007 42.2546 21.9093 42.0167 22.262 41.954C22.6022 41.8852 22.9675 41.9352 23.2572 42.1419C23.6981 42.4425 23.9437 43.0186 23.8052 43.5383C23.7359 43.8389 23.5343 44.1019 23.2824 44.2773C22.7848 44.5904 22.0731 44.534 21.6511 44.1207C21.2417 43.7199 21.1472 43.0562 21.4306 42.5615Z" fill="black"/>
<path d="M55.5522 43.4133C55.1995 43.7515 54.8342 44.0896 54.4185 44.3526C53.9272 44.672 53.3856 44.8911 52.8313 45.079C51.8865 45.4297 50.8851 45.5862 49.8836 45.6864C49.6506 45.7365 49.4239 45.7929 49.1845 45.7929C48.8255 45.7804 48.4728 45.8805 48.1075 45.8618C47.1438 45.843 46.1739 45.9119 45.2102 45.7991C44.7 45.7741 44.1772 45.8555 43.6797 45.6864C42.9302 45.6175 42.1806 45.5862 41.4374 45.4422C41.0595 45.3858 40.6816 45.2919 40.3037 45.223C40.2533 45.223 40.1588 45.2168 40.1147 45.2105C40.7824 45.8492 41.5634 46.3439 42.3696 46.7885C43.7112 47.5087 45.2102 47.9595 46.7344 48.0347C47.4713 48.0535 48.2208 48.0472 48.9515 47.9658C49.4616 47.9094 49.9592 47.7717 50.4631 47.684C51.7102 47.3897 52.8943 46.87 53.9902 46.225C54.3303 46.0058 54.6705 45.7866 54.9728 45.5174C55.6719 44.9162 56.2766 44.2023 56.7427 43.407C56.3584 43.3883 55.9553 43.4008 55.5522 43.4133Z" fill="#7F8587"/>
<path d="M25.3167 42.543C25.4049 43.2819 25.1403 44.0333 24.6742 44.6032C23.9814 45.4486 22.7721 45.7617 21.7266 45.53C21.8777 45.7304 22.0289 45.8619 22.136 45.9495C22.2808 46.0622 22.5265 46.2501 22.8792 46.3252C23.1122 46.3753 23.3012 46.3503 23.3516 46.3503C23.4523 46.3378 23.5342 46.319 23.5909 46.3002C24.1074 46.1249 24.6176 45.8744 24.9766 45.4486C25.2222 45.2106 25.386 44.885 25.5245 44.5719C25.6379 44.2462 25.7765 43.8893 25.682 43.5386C25.619 43.1817 25.4867 42.8498 25.3167 42.543Z" fill="#7F8587"/>
<path d="M28.4849 44.5787C28.0125 43.4704 27.6031 42.3432 27.1055 41.2411C26.6773 40.1389 26.186 39.0619 25.7514 37.9598C25.2853 36.8075 24.8003 35.6616 24.2964 34.5219C23.7926 33.2444 23.1816 32.0046 22.7155 30.7083C22.5707 30.3075 22.8667 30.2199 22.8667 30.2199L21.8967 28.3287C21.5125 27.5397 21.1157 26.7507 20.6937 25.9805C20.5678 26.1871 20.4922 26.4188 20.3977 26.638C20.3662 26.7194 20.3221 26.8008 20.3536 26.8885C20.4292 27.2579 20.5048 27.6274 20.6181 27.9843C20.7378 28.3788 20.7945 28.7859 20.9142 29.1804C21.0338 29.5749 21.0968 29.9819 21.185 30.3889C21.3173 30.9337 21.5818 31.4284 21.7771 31.9482C22.2179 32.9752 22.6022 34.0272 23.0682 35.0479C24.2838 37.8909 25.4239 40.7652 26.6206 43.6206C27.0174 44.5349 27.3449 45.4742 27.7606 46.3822C28.2456 46.4073 28.7305 46.3822 29.2155 46.401C29.0203 45.7748 28.7117 45.1924 28.4849 44.5787Z" fill="black"/>
<path d="M29.864 44.9728C29.3286 43.8143 28.7932 42.6558 28.2516 41.4973C27.7792 40.5267 27.3698 39.5248 26.8596 38.5667C26.3494 37.5022 25.8833 36.4188 25.3543 35.3605C24.8504 34.3523 24.4032 33.3191 23.893 32.3172C23.6159 31.7411 23.0679 30.5826 23.0679 30.5826L22.4507 29.374C22.4948 29.5744 22.5389 29.7811 22.583 29.9814C22.6018 30.0754 22.6207 30.163 22.6396 30.257L22.69 30.5701C22.6963 30.6139 22.7089 30.6577 22.7278 30.7078C23.1939 32.0041 23.7986 33.244 24.3087 34.5214C24.8126 35.6611 25.2913 36.8071 25.7637 37.9593C26.1983 39.0614 26.6832 40.1385 27.1178 41.2406C27.6154 42.3365 28.0248 43.4699 28.4972 44.5783C28.7176 45.1919 29.0263 45.7743 29.2215 46.3943C29.6498 46.4256 30.0781 46.3943 30.5064 46.4193C30.3363 45.9183 30.0907 45.4487 29.864 44.9728Z" fill="#868C8F"/>
<path d="M28.8562 47.2588L28.8373 47.2776C28.535 47.5594 28.2326 47.8412 27.8925 48.0729C27.1871 48.5237 26.4124 48.8744 25.5936 49.0748C24.8504 49.2439 24.1135 49.4317 23.3513 49.4943C21.4744 49.7072 19.5849 49.6321 17.7016 49.5695C16.1711 49.4505 14.6154 49.4192 13.1353 48.9871C13.5195 49.3816 13.9792 49.6947 14.4327 50.0016C15.0752 50.3585 15.7113 50.753 16.4041 51.016C17.097 51.2853 17.815 51.4982 18.5456 51.6422C19.207 51.8113 19.8935 51.8614 20.58 51.8802C21.424 51.8927 22.2806 51.8802 23.0994 51.6798C23.471 51.5921 23.8489 51.5358 24.2142 51.4168C25.2094 51.0974 26.1793 50.6779 27.0422 50.0892C28.1948 49.3691 29.19 48.3985 29.9206 47.2588C29.5679 47.2588 29.2152 47.2588 28.8562 47.2588Z" fill="#767A7B"/>
<path d="M26.4691 47.2586C21.5059 47.2524 16.5428 47.2649 11.5796 47.2461C11.7433 47.4527 11.8693 47.6844 12.0331 47.8973C12.3417 48.3106 12.7133 48.6801 13.129 48.9869C14.6091 49.419 16.1649 49.4566 17.6954 49.5693C19.5786 49.6319 21.4682 49.7071 23.3451 49.4942C24.1072 49.4378 24.8441 49.2499 25.5873 49.0746C26.4061 48.868 27.1746 48.5173 27.8863 48.0727C28.2264 47.841 28.535 47.5592 28.831 47.2774L28.8499 47.2586H26.4691Z" fill="black"/>
<path d="M72.632 31.5V10.892H77.72L83.32 22.316L88.888 10.892H93.944V31.5H88.792V19.66L84.728 27.98H81.88L77.784 19.66V31.5H72.632ZM109.707 31.82C106.357 31.82 103.808 30.9667 102.059 29.26C100.309 27.5533 99.4345 24.8973 99.4345 21.292C99.4345 17.4733 100.309 14.732 102.059 13.068C103.808 11.404 106.357 10.572 109.707 10.572C113.056 10.572 115.605 11.404 117.355 13.068C119.104 14.732 119.979 17.4733 119.979 21.292C119.979 24.8973 119.104 27.5533 117.355 29.26C115.605 30.9667 113.056 31.82 109.707 31.82ZM109.707 27.436C111.435 27.436 112.693 26.9453 113.483 25.964C114.293 24.9613 114.699 23.404 114.699 21.292C114.699 18.988 114.293 17.3667 113.483 16.428C112.693 15.468 111.435 14.988 109.707 14.988C107.957 14.988 106.677 15.468 105.867 16.428C105.077 17.3667 104.683 18.988 104.683 21.292C104.683 23.404 105.077 24.9613 105.867 25.964C106.677 26.9453 107.957 27.436 109.707 27.436ZM125.486 31.5V10.892H135.79C138.222 10.892 140.014 11.532 141.166 12.812C142.318 14.092 142.894 15.8093 142.894 17.964C142.894 19.3507 142.542 20.5667 141.838 21.612C141.134 22.6573 140.174 23.436 138.958 23.948C139.256 24.1827 139.491 24.4493 139.662 24.748C139.854 25.0253 140.056 25.42 140.27 25.932L142.702 31.5H137.326L135.022 26.252C134.83 25.804 134.584 25.484 134.286 25.292C133.987 25.0787 133.56 24.972 133.006 24.972H130.638V31.5H125.486ZM130.638 21.004H134.446C135.448 21.004 136.227 20.7587 136.782 20.268C137.358 19.756 137.646 18.988 137.646 17.964C137.646 15.8947 136.654 14.86 134.67 14.86H130.638V21.004ZM146.319 31.5L154.191 10.892H159.76L167.632 31.5H162.256L160.399 26.828H153.519L151.695 31.5H146.319ZM154.224 23.02H159.696L156.943 15.852L154.224 23.02ZM173.121 31.5V10.892H178.273V27.532H188.001V31.5H173.121ZM202.631 31.5V10.892H207.719L213.319 22.316L218.887 10.892H223.943V31.5H218.791V19.66L214.727 27.98H211.879L207.783 19.66V31.5H202.631ZM239.705 31.82C236.356 31.82 233.807 30.9667 232.057 29.26C230.308 27.5533 229.433 24.8973 229.433 21.292C229.433 17.4733 230.308 14.732 232.057 13.068C233.807 11.404 236.356 10.572 239.705 10.572C243.055 10.572 245.604 11.404 247.353 13.068C249.103 14.732 249.977 17.4733 249.977 21.292C249.977 24.8973 249.103 27.5533 247.353 29.26C245.604 30.9667 243.055 31.82 239.705 31.82ZM239.705 27.436C241.433 27.436 242.692 26.9453 243.481 25.964C244.292 24.9613 244.697 23.404 244.697 21.292C244.697 18.988 244.292 17.3667 243.481 16.428C242.692 15.468 241.433 14.988 239.705 14.988C237.956 14.988 236.676 15.468 235.865 16.428C235.076 17.3667 234.681 18.988 234.681 21.292C234.681 23.404 235.076 24.9613 235.865 25.964C236.676 26.9453 237.956 27.436 239.705 27.436ZM255.485 31.5V10.892H260.573L266.173 22.316L271.741 10.892H276.797V31.5H271.645V19.66L267.581 27.98H264.733L260.637 19.66V31.5H255.485ZM282.927 31.5V10.892H298.127V14.86H288.079V19.18H296.943V23.212H288.079V27.532H298.127V31.5H282.927ZM303.463 31.5V10.892H307.879L316.647 23.212V10.892H321.831V31.5H317.383L308.615 19.212V31.5H303.463ZM332.736 31.5V14.86H326.688V10.892H343.936V14.86H337.888V31.5H332.736ZM355.064 31.82C353.699 31.82 352.419 31.7133 351.224 31.5C350.051 31.308 349.038 31.02 348.184 30.636V26.252C349.123 26.6573 350.158 26.988 351.288 27.244C352.44 27.5 353.528 27.628 354.552 27.628C355.832 27.628 356.782 27.5107 357.4 27.276C358.04 27.0413 358.36 26.5293 358.36 25.74C358.36 25.2067 358.2 24.78 357.88 24.46C357.582 24.14 357.08 23.8627 356.376 23.628C355.694 23.372 354.755 23.0733 353.56 22.732C352.152 22.3053 351.032 21.836 350.2 21.324C349.368 20.7907 348.771 20.1507 348.408 19.404C348.046 18.6573 347.864 17.74 347.864 16.652C347.864 14.6893 348.568 13.1853 349.976 12.14C351.384 11.0947 353.464 10.572 356.216 10.572C357.411 10.572 358.574 10.668 359.704 10.86C360.835 11.0307 361.752 11.2333 362.456 11.468V15.884C361.539 15.5213 360.611 15.2547 359.672 15.084C358.755 14.9133 357.859 14.828 356.984 14.828C355.832 14.828 354.894 14.9347 354.168 15.148C353.464 15.3613 353.112 15.852 353.112 16.62C353.112 17.068 353.24 17.4307 353.496 17.708C353.752 17.964 354.19 18.1987 354.808 18.412C355.448 18.6253 356.312 18.8813 357.4 19.18C359.086 19.628 360.376 20.172 361.272 20.812C362.168 21.4307 362.787 22.156 363.128 22.988C363.47 23.7987 363.64 24.716 363.64 25.74C363.64 27.5533 362.936 29.0253 361.528 30.156C360.12 31.2653 357.966 31.82 355.064 31.82Z" fill="#232323"/>
<path d="M76.474 49.58V53.5H74.598V49.58L70.909 43.378H72.568C72.7313 43.378 72.8597 43.4177 72.953 43.497C73.051 43.5763 73.1327 43.6767 73.198 43.798L75.046 47.179C75.1533 47.3797 75.2467 47.5687 75.326 47.746C75.41 47.9233 75.4847 48.1007 75.55 48.278C75.6107 48.1007 75.6807 47.9233 75.76 47.746C75.8393 47.5687 75.9303 47.3797 76.033 47.179L77.874 43.798C77.9253 43.6953 78.0023 43.5997 78.105 43.511C78.2077 43.4223 78.3383 43.378 78.497 43.378H80.163L76.474 49.58ZM91.8102 48.439C91.8102 49.181 91.6866 49.8693 91.4392 50.504C91.1966 51.134 90.8512 51.68 90.4032 52.142C89.9552 52.604 89.4162 52.9657 88.7862 53.227C88.1562 53.4837 87.4562 53.612 86.6862 53.612C85.9209 53.612 85.2232 53.4837 84.5932 53.227C83.9632 52.9657 83.4219 52.604 82.9692 52.142C82.5212 51.68 82.1736 51.134 81.9262 50.504C81.6789 49.8693 81.5552 49.181 81.5552 48.439C81.5552 47.697 81.6789 47.011 81.9262 46.381C82.1736 45.7463 82.5212 45.198 82.9692 44.736C83.4219 44.274 83.9632 43.9147 84.5932 43.658C85.2232 43.3967 85.9209 43.266 86.6862 43.266C87.1996 43.266 87.6826 43.3267 88.1352 43.448C88.5879 43.5647 89.0032 43.7327 89.3812 43.952C89.7592 44.1667 90.0976 44.4303 90.3962 44.743C90.6996 45.051 90.9562 45.3963 91.1662 45.779C91.3762 46.1617 91.5349 46.577 91.6422 47.025C91.7542 47.473 91.8102 47.9443 91.8102 48.439ZM89.8852 48.439C89.8852 47.8837 89.8106 47.3867 89.6612 46.948C89.5119 46.5047 89.2996 46.129 89.0242 45.821C88.7489 45.513 88.4129 45.2773 88.0162 45.114C87.6242 44.9507 87.1809 44.869 86.6862 44.869C86.1916 44.869 85.7459 44.9507 85.3492 45.114C84.9572 45.2773 84.6212 45.513 84.3412 45.821C84.0659 46.129 83.8536 46.5047 83.7042 46.948C83.5549 47.3867 83.4802 47.8837 83.4802 48.439C83.4802 48.9943 83.5549 49.4937 83.7042 49.937C83.8536 50.3757 84.0659 50.749 84.3412 51.057C84.6212 51.3603 84.9572 51.5937 85.3492 51.757C85.7459 51.9203 86.1916 52.002 86.6862 52.002C87.1809 52.002 87.6242 51.9203 88.0162 51.757C88.4129 51.5937 88.7489 51.3603 89.0242 51.057C89.2996 50.749 89.5119 50.3757 89.6612 49.937C89.8106 49.4937 89.8852 48.9943 89.8852 48.439ZM99.0779 51.981C99.4419 51.981 99.7662 51.9203 100.051 51.799C100.34 51.6777 100.583 51.5073 100.779 51.288C100.975 51.0687 101.124 50.8027 101.227 50.49C101.334 50.1773 101.388 49.8273 101.388 49.44V43.378H103.271V49.44C103.271 50.042 103.173 50.5997 102.977 51.113C102.786 51.6217 102.508 52.0627 102.144 52.436C101.785 52.8047 101.346 53.094 100.828 53.304C100.31 53.5093 99.7265 53.612 99.0779 53.612C98.4245 53.612 97.8389 53.5093 97.3209 53.304C96.8029 53.094 96.3619 52.8047 95.9979 52.436C95.6385 52.0627 95.3609 51.6217 95.1649 51.113C94.9735 50.5997 94.8779 50.042 94.8779 49.44V43.378H96.7609V49.433C96.7609 49.8203 96.8122 50.1703 96.9149 50.483C97.0222 50.7957 97.1739 51.064 97.3699 51.288C97.5705 51.5073 97.8132 51.6777 98.0979 51.799C98.3872 51.9203 98.7139 51.981 99.0779 51.981ZM109.993 48.194C110.348 48.194 110.656 48.1497 110.917 48.061C111.183 47.9723 111.4 47.851 111.568 47.697C111.741 47.5383 111.869 47.3517 111.953 47.137C112.037 46.9223 112.079 46.6867 112.079 46.43C112.079 45.9167 111.909 45.5223 111.568 45.247C111.232 44.9717 110.717 44.834 110.021 44.834H108.817V48.194H109.993ZM114.837 53.5H113.136C112.814 53.5 112.581 53.374 112.436 53.122L110.308 49.881C110.229 49.7597 110.14 49.6733 110.042 49.622C109.949 49.5707 109.809 49.545 109.622 49.545H108.817V53.5H106.934V43.378H110.021C110.707 43.378 111.295 43.4503 111.785 43.595C112.28 43.735 112.684 43.9333 112.996 44.19C113.314 44.4467 113.547 44.7547 113.696 45.114C113.846 45.4687 113.92 45.8607 113.92 46.29C113.92 46.6307 113.869 46.9527 113.766 47.256C113.668 47.5593 113.524 47.8347 113.332 48.082C113.146 48.3293 112.912 48.5463 112.632 48.733C112.357 48.9197 112.042 49.0667 111.687 49.174C111.809 49.244 111.921 49.328 112.023 49.426C112.126 49.5193 112.219 49.6313 112.303 49.762L114.837 53.5ZM131.403 48.439C131.403 49.181 131.279 49.8623 131.032 50.483C130.785 51.1037 130.437 51.638 129.989 52.086C129.541 52.534 129.002 52.8817 128.372 53.129C127.742 53.3763 127.042 53.5 126.272 53.5H122.415V43.378H126.272C127.042 43.378 127.742 43.504 128.372 43.756C129.002 44.0033 129.541 44.351 129.989 44.799C130.437 45.2423 130.785 45.7743 131.032 46.395C131.279 47.0157 131.403 47.697 131.403 48.439ZM129.471 48.439C129.471 47.8837 129.396 47.3867 129.247 46.948C129.102 46.5047 128.89 46.1313 128.61 45.828C128.335 45.52 127.999 45.2843 127.602 45.121C127.21 44.9577 126.767 44.876 126.272 44.876H124.305V52.002H126.272C126.767 52.002 127.21 51.9203 127.602 51.757C127.999 51.5937 128.335 51.3603 128.61 51.057C128.89 50.749 129.102 50.3757 129.247 49.937C129.396 49.4937 129.471 48.9943 129.471 48.439ZM139.639 49.678L138.407 46.311C138.346 46.1617 138.283 45.9843 138.218 45.779C138.152 45.5737 138.087 45.352 138.022 45.114C137.961 45.352 137.898 45.576 137.833 45.786C137.767 45.9913 137.704 46.171 137.644 46.325L136.419 49.678H139.639ZM142.964 53.5H141.508C141.344 53.5 141.211 53.4603 141.109 53.381C141.006 53.297 140.929 53.1943 140.878 53.073L140.122 51.008H135.929L135.173 53.073C135.135 53.1803 135.063 53.2783 134.956 53.367C134.848 53.4557 134.715 53.5 134.557 53.5H133.087L137.07 43.378H138.988L142.964 53.5ZM147.442 53.5H145.552V43.378H147.442V53.5ZM157.177 51.946V53.5H151.248V43.378H153.131V51.946H157.177ZM163.082 49.58V53.5H161.206V49.58L157.517 43.378H159.176C159.339 43.378 159.468 43.4177 159.561 43.497C159.659 43.5763 159.741 43.6767 159.806 43.798L161.654 47.179C161.761 47.3797 161.855 47.5687 161.934 47.746C162.018 47.9233 162.093 48.1007 162.158 48.278C162.219 48.1007 162.289 47.9233 162.368 47.746C162.447 47.5687 162.538 47.3797 162.641 47.179L164.482 43.798C164.533 43.6953 164.61 43.5997 164.713 43.511C164.816 43.4223 164.946 43.378 165.105 43.378H166.771L163.082 49.58ZM184.699 43.378V53.5H183.04V46.962C183.04 46.7007 183.054 46.4183 183.082 46.115L180.023 51.862C179.879 52.1373 179.657 52.275 179.358 52.275H179.092C178.794 52.275 178.572 52.1373 178.427 51.862L175.333 46.094C175.347 46.248 175.359 46.3997 175.368 46.549C175.378 46.6983 175.382 46.836 175.382 46.962V53.5H173.723V43.378H175.144C175.228 43.378 175.301 43.3803 175.361 43.385C175.422 43.3897 175.476 43.4013 175.522 43.42C175.574 43.4387 175.618 43.469 175.655 43.511C175.697 43.553 175.737 43.609 175.774 43.679L178.805 49.3C178.885 49.4493 178.957 49.6033 179.022 49.762C179.092 49.9207 179.16 50.084 179.225 50.252C179.291 50.0793 179.358 49.9137 179.428 49.755C179.498 49.5917 179.573 49.4353 179.652 49.286L182.641 43.679C182.679 43.609 182.718 43.553 182.76 43.511C182.802 43.469 182.847 43.4387 182.893 43.42C182.945 43.4013 183.001 43.3897 183.061 43.385C183.122 43.3803 183.194 43.378 183.278 43.378H184.699ZM198.151 48.439C198.151 49.181 198.027 49.8693 197.78 50.504C197.537 51.134 197.192 51.68 196.744 52.142C196.296 52.604 195.757 52.9657 195.127 53.227C194.497 53.4837 193.797 53.612 193.027 53.612C192.261 53.612 191.564 53.4837 190.934 53.227C190.304 52.9657 189.762 52.604 189.31 52.142C188.862 51.68 188.514 51.134 188.267 50.504C188.019 49.8693 187.896 49.181 187.896 48.439C187.896 47.697 188.019 47.011 188.267 46.381C188.514 45.7463 188.862 45.198 189.31 44.736C189.762 44.274 190.304 43.9147 190.934 43.658C191.564 43.3967 192.261 43.266 193.027 43.266C193.54 43.266 194.023 43.3267 194.476 43.448C194.928 43.5647 195.344 43.7327 195.722 43.952C196.1 44.1667 196.438 44.4303 196.737 44.743C197.04 45.051 197.297 45.3963 197.507 45.779C197.717 46.1617 197.875 46.577 197.983 47.025C198.095 47.473 198.151 47.9443 198.151 48.439ZM196.226 48.439C196.226 47.8837 196.151 47.3867 196.002 46.948C195.852 46.5047 195.64 46.129 195.365 45.821C195.089 45.513 194.753 45.2773 194.357 45.114C193.965 44.9507 193.521 44.869 193.027 44.869C192.532 44.869 192.086 44.9507 191.69 45.114C191.298 45.2773 190.962 45.513 190.682 45.821C190.406 46.129 190.194 46.5047 190.045 46.948C189.895 47.3867 189.821 47.8837 189.821 48.439C189.821 48.9943 189.895 49.4937 190.045 49.937C190.194 50.3757 190.406 50.749 190.682 51.057C190.962 51.3603 191.298 51.5937 191.69 51.757C192.086 51.9203 192.532 52.002 193.027 52.002C193.521 52.002 193.965 51.9203 194.357 51.757C194.753 51.5937 195.089 51.3603 195.365 51.057C195.64 50.749 195.852 50.3757 196.002 49.937C196.151 49.4937 196.226 48.9943 196.226 48.439ZM204.403 48.194C204.758 48.194 205.066 48.1497 205.327 48.061C205.593 47.9723 205.81 47.851 205.978 47.697C206.151 47.5383 206.279 47.3517 206.363 47.137C206.447 46.9223 206.489 46.6867 206.489 46.43C206.489 45.9167 206.319 45.5223 205.978 45.247C205.642 44.9717 205.127 44.834 204.431 44.834H203.227V48.194H204.403ZM209.247 53.5H207.546C207.224 53.5 206.991 53.374 206.846 53.122L204.718 49.881C204.639 49.7597 204.55 49.6733 204.452 49.622C204.359 49.5707 204.219 49.545 204.032 49.545H203.227V53.5H201.344V43.378H204.431C205.117 43.378 205.705 43.4503 206.195 43.595C206.69 43.735 207.094 43.9333 207.406 44.19C207.724 44.4467 207.957 44.7547 208.106 45.114C208.256 45.4687 208.33 45.8607 208.33 46.29C208.33 46.6307 208.279 46.9527 208.176 47.256C208.078 47.5593 207.934 47.8347 207.742 48.082C207.556 48.3293 207.322 48.5463 207.042 48.733C206.767 48.9197 206.452 49.0667 206.097 49.174C206.219 49.244 206.331 49.328 206.433 49.426C206.536 49.5193 206.629 49.6313 206.713 49.762L209.247 53.5ZM217.228 49.678L215.996 46.311C215.936 46.1617 215.873 45.9843 215.807 45.779C215.742 45.5737 215.677 45.352 215.611 45.114C215.551 45.352 215.488 45.576 215.422 45.786C215.357 45.9913 215.294 46.171 215.233 46.325L214.008 49.678H217.228ZM220.553 53.5H219.097C218.934 53.5 218.801 53.4603 218.698 53.381C218.596 53.297 218.519 53.1943 218.467 53.073L217.711 51.008H213.518L212.762 53.073C212.725 53.1803 212.653 53.2783 212.545 53.367C212.438 53.4557 212.305 53.5 212.146 53.5H210.676L214.659 43.378H216.577L220.553 53.5ZM229.07 51.946V53.5H223.141V43.378H225.024V51.946H229.07ZM245.463 48.439C245.463 49.181 245.339 49.8623 245.092 50.483C244.845 51.1037 244.497 51.638 244.049 52.086C243.601 52.534 243.062 52.8817 242.432 53.129C241.802 53.3763 241.102 53.5 240.332 53.5H236.475V43.378H240.332C241.102 43.378 241.802 43.504 242.432 43.756C243.062 44.0033 243.601 44.351 244.049 44.799C244.497 45.2423 244.845 45.7743 245.092 46.395C245.339 47.0157 245.463 47.697 245.463 48.439ZM243.531 48.439C243.531 47.8837 243.456 47.3867 243.307 46.948C243.162 46.5047 242.95 46.1313 242.67 45.828C242.395 45.52 242.059 45.2843 241.662 45.121C241.27 44.9577 240.827 44.876 240.332 44.876H238.365V52.002H240.332C240.827 52.002 241.27 51.9203 241.662 51.757C242.059 51.5937 242.395 51.3603 242.67 51.057C242.95 50.749 243.162 50.3757 243.307 49.937C243.456 49.4937 243.531 48.9943 243.531 48.439ZM250.555 44.876V47.683H254.097V49.132H250.555V51.995H255.049V53.5H248.665V43.378H255.049V44.876H250.555ZM264.99 51.113C265.093 51.113 265.184 51.1527 265.263 51.232L266.005 52.037C265.595 52.5457 265.088 52.9353 264.486 53.206C263.889 53.4767 263.17 53.612 262.33 53.612C261.579 53.612 260.902 53.4837 260.3 53.227C259.703 52.9703 259.192 52.6133 258.767 52.156C258.343 51.6987 258.016 51.1527 257.787 50.518C257.563 49.8833 257.451 49.1903 257.451 48.439C257.451 47.6783 257.573 46.983 257.815 46.353C258.058 45.7183 258.399 45.1723 258.837 44.715C259.281 44.2577 259.808 43.903 260.419 43.651C261.031 43.3943 261.707 43.266 262.449 43.266C263.187 43.266 263.84 43.3873 264.409 43.63C264.983 43.8727 265.471 44.19 265.872 44.582L265.242 45.457C265.205 45.513 265.156 45.562 265.095 45.604C265.039 45.646 264.96 45.667 264.857 45.667C264.787 45.667 264.715 45.6483 264.64 45.611C264.566 45.569 264.484 45.52 264.395 45.464C264.307 45.4033 264.204 45.338 264.087 45.268C263.971 45.198 263.835 45.135 263.681 45.079C263.527 45.0183 263.348 44.9693 263.142 44.932C262.942 44.89 262.708 44.869 262.442 44.869C261.99 44.869 261.574 44.9507 261.196 45.114C260.823 45.2727 260.501 45.506 260.23 45.814C259.96 46.1173 259.75 46.4907 259.6 46.934C259.451 47.3727 259.376 47.8743 259.376 48.439C259.376 49.0083 259.456 49.5147 259.614 49.958C259.778 50.4013 259.997 50.7747 260.272 51.078C260.548 51.3813 260.872 51.6147 261.245 51.778C261.619 51.9367 262.02 52.016 262.449 52.016C262.706 52.016 262.937 52.002 263.142 51.974C263.352 51.946 263.544 51.9017 263.716 51.841C263.894 51.7803 264.059 51.7033 264.213 51.61C264.372 51.512 264.528 51.393 264.682 51.253C264.729 51.211 264.778 51.1783 264.829 51.155C264.881 51.127 264.934 51.113 264.99 51.113ZM270.725 53.5H268.835V43.378H270.725V53.5ZM279.921 45.219C279.865 45.317 279.805 45.3893 279.739 45.436C279.679 45.478 279.602 45.499 279.508 45.499C279.41 45.499 279.303 45.464 279.186 45.394C279.074 45.3193 278.939 45.2377 278.78 45.149C278.622 45.0603 278.435 44.981 278.22 44.911C278.01 44.8363 277.761 44.799 277.471 44.799C277.21 44.799 276.981 44.8317 276.785 44.897C276.589 44.9577 276.424 45.044 276.288 45.156C276.158 45.268 276.06 45.4033 275.994 45.562C275.929 45.716 275.896 45.8863 275.896 46.073C275.896 46.311 275.962 46.5093 276.092 46.668C276.228 46.8267 276.405 46.962 276.624 47.074C276.844 47.186 277.093 47.2863 277.373 47.375C277.653 47.4637 277.94 47.5593 278.234 47.662C278.528 47.76 278.815 47.8767 279.095 48.012C279.375 48.1427 279.625 48.3107 279.844 48.516C280.064 48.7167 280.239 48.964 280.369 49.258C280.505 49.552 280.572 49.909 280.572 50.329C280.572 50.7863 280.493 51.2157 280.334 51.617C280.18 52.0137 279.952 52.3613 279.648 52.66C279.35 52.954 278.983 53.1873 278.549 53.36C278.115 53.528 277.618 53.612 277.058 53.612C276.736 53.612 276.419 53.5793 276.106 53.514C275.794 53.4533 275.493 53.3647 275.203 53.248C274.919 53.1313 274.65 52.9913 274.398 52.828C274.146 52.6647 273.922 52.4827 273.726 52.282L274.279 51.379C274.326 51.3137 274.387 51.26 274.461 51.218C274.536 51.1713 274.615 51.148 274.699 51.148C274.816 51.148 274.942 51.197 275.077 51.295C275.213 51.3883 275.374 51.4933 275.56 51.61C275.747 51.7267 275.964 51.834 276.211 51.932C276.463 52.0253 276.764 52.072 277.114 52.072C277.651 52.072 278.066 51.946 278.36 51.694C278.654 51.4373 278.801 51.071 278.801 50.595C278.801 50.329 278.734 50.112 278.598 49.944C278.468 49.776 278.293 49.636 278.073 49.524C277.854 49.4073 277.604 49.3093 277.324 49.23C277.044 49.1507 276.76 49.0643 276.47 48.971C276.181 48.8777 275.896 48.7657 275.616 48.635C275.336 48.5043 275.087 48.334 274.867 48.124C274.648 47.914 274.471 47.6527 274.335 47.34C274.205 47.0227 274.139 46.633 274.139 46.171C274.139 45.8023 274.212 45.443 274.356 45.093C274.506 44.743 274.72 44.4327 275 44.162C275.28 43.8913 275.626 43.6743 276.036 43.511C276.447 43.3477 276.918 43.266 277.45 43.266C278.048 43.266 278.598 43.3593 279.102 43.546C279.606 43.7327 280.036 43.994 280.39 44.33L279.921 45.219ZM285.645 53.5H283.755V43.378H285.645V53.5ZM299.104 48.439C299.104 49.181 298.981 49.8693 298.733 50.504C298.491 51.134 298.145 51.68 297.697 52.142C297.249 52.604 296.71 52.9657 296.08 53.227C295.45 53.4837 294.75 53.612 293.98 53.612C293.215 53.612 292.517 53.4837 291.887 53.227C291.257 52.9657 290.716 52.604 290.263 52.142C289.815 51.68 289.468 51.134 289.22 50.504C288.973 49.8693 288.849 49.181 288.849 48.439C288.849 47.697 288.973 47.011 289.22 46.381C289.468 45.7463 289.815 45.198 290.263 44.736C290.716 44.274 291.257 43.9147 291.887 43.658C292.517 43.3967 293.215 43.266 293.98 43.266C294.494 43.266 294.977 43.3267 295.429 43.448C295.882 43.5647 296.297 43.7327 296.675 43.952C297.053 44.1667 297.392 44.4303 297.69 44.743C297.994 45.051 298.25 45.3963 298.46 45.779C298.67 46.1617 298.829 46.577 298.936 47.025C299.048 47.473 299.104 47.9443 299.104 48.439ZM297.179 48.439C297.179 47.8837 297.105 47.3867 296.955 46.948C296.806 46.5047 296.594 46.129 296.318 45.821C296.043 45.513 295.707 45.2773 295.31 45.114C294.918 44.9507 294.475 44.869 293.98 44.869C293.486 44.869 293.04 44.9507 292.643 45.114C292.251 45.2773 291.915 45.513 291.635 45.821C291.36 46.129 291.148 46.5047 290.998 46.948C290.849 47.3867 290.774 47.8837 290.774 48.439C290.774 48.9943 290.849 49.4937 290.998 49.937C291.148 50.3757 291.36 50.749 291.635 51.057C291.915 51.3603 292.251 51.5937 292.643 51.757C293.04 51.9203 293.486 52.002 293.98 52.002C294.475 52.002 294.918 51.9203 295.31 51.757C295.707 51.5937 296.043 51.3603 296.318 51.057C296.594 50.749 296.806 50.3757 296.955 49.937C297.105 49.4937 297.179 48.9943 297.179 48.439ZM310.831 43.378V53.5H309.865C309.716 53.5 309.59 53.4767 309.487 53.43C309.389 53.3787 309.293 53.2947 309.2 53.178L303.915 46.43C303.943 46.738 303.957 47.0227 303.957 47.284V53.5H302.298V43.378H303.285C303.364 43.378 303.432 43.3827 303.488 43.392C303.549 43.3967 303.6 43.4107 303.642 43.434C303.689 43.4527 303.733 43.483 303.775 43.525C303.817 43.5623 303.864 43.6137 303.915 43.679L309.221 50.455C309.207 50.2917 309.195 50.1307 309.186 49.972C309.177 49.8133 309.172 49.6663 309.172 49.531V43.378H310.831ZM320.015 45.219C319.959 45.317 319.898 45.3893 319.833 45.436C319.772 45.478 319.695 45.499 319.602 45.499C319.504 45.499 319.397 45.464 319.28 45.394C319.168 45.3193 319.033 45.2377 318.874 45.149C318.715 45.0603 318.529 44.981 318.314 44.911C318.104 44.8363 317.854 44.799 317.565 44.799C317.304 44.799 317.075 44.8317 316.879 44.897C316.683 44.9577 316.517 45.044 316.382 45.156C316.251 45.268 316.153 45.4033 316.088 45.562C316.023 45.716 315.99 45.8863 315.99 46.073C315.99 46.311 316.055 46.5093 316.186 46.668C316.321 46.8267 316.499 46.962 316.718 47.074C316.937 47.186 317.187 47.2863 317.467 47.375C317.747 47.4637 318.034 47.5593 318.328 47.662C318.622 47.76 318.909 47.8767 319.189 48.012C319.469 48.1427 319.719 48.3107 319.938 48.516C320.157 48.7167 320.332 48.964 320.463 49.258C320.598 49.552 320.666 49.909 320.666 50.329C320.666 50.7863 320.587 51.2157 320.428 51.617C320.274 52.0137 320.045 52.3613 319.742 52.66C319.443 52.954 319.077 53.1873 318.643 53.36C318.209 53.528 317.712 53.612 317.152 53.612C316.83 53.612 316.513 53.5793 316.2 53.514C315.887 53.4533 315.586 53.3647 315.297 53.248C315.012 53.1313 314.744 52.9913 314.492 52.828C314.24 52.6647 314.016 52.4827 313.82 52.282L314.373 51.379C314.42 51.3137 314.48 51.26 314.555 51.218C314.63 51.1713 314.709 51.148 314.793 51.148C314.91 51.148 315.036 51.197 315.171 51.295C315.306 51.3883 315.467 51.4933 315.654 51.61C315.841 51.7267 316.058 51.834 316.305 51.932C316.557 52.0253 316.858 52.072 317.208 52.072C317.745 52.072 318.16 51.946 318.454 51.694C318.748 51.4373 318.895 51.071 318.895 50.595C318.895 50.329 318.827 50.112 318.692 49.944C318.561 49.776 318.386 49.636 318.167 49.524C317.948 49.4073 317.698 49.3093 317.418 49.23C317.138 49.1507 316.853 49.0643 316.564 48.971C316.275 48.8777 315.99 48.7657 315.71 48.635C315.43 48.5043 315.18 48.334 314.961 48.124C314.742 47.914 314.564 47.6527 314.429 47.34C314.298 47.0227 314.233 46.633 314.233 46.171C314.233 45.8023 314.305 45.443 314.45 45.093C314.599 44.743 314.814 44.4327 315.094 44.162C315.374 43.8913 315.719 43.6743 316.13 43.511C316.541 43.3477 317.012 43.266 317.544 43.266C318.141 43.266 318.692 43.3593 319.196 43.546C319.7 43.7327 320.129 43.994 320.484 44.33L320.015 45.219Z" fill="#4A4A4A"/>
</svg>
