<svg width="40" height="40" viewBox="0 0 40 40" fill="none" xmlns="http://www.w3.org/2000/svg">
<path d="M20.6354 5.91521C21.1354 5.77263 21.7129 5.81502 22.1393 6.12331C22.43 6.32755 22.6471 6.62812 22.7711 6.95953C22.5347 7.05202 22.2207 7.12909 22.1471 7.40654C22.1471 7.67629 22.0385 7.93834 21.868 8.14643C21.744 8.28901 21.5618 8.35452 21.3912 8.41232C21.4067 8.33525 21.4881 8.32369 21.5463 8.28516C21.7672 8.1734 21.9378 7.96146 21.9765 7.71483C22.0269 7.42196 21.8951 7.12523 21.6742 6.93256C21.3486 6.65124 20.7905 6.69749 20.5308 7.04816C20.368 7.24084 20.306 7.50288 20.3486 7.74951L20.3447 7.76878C20.3137 7.86126 20.3098 7.96146 20.3098 8.0578C20.3098 8.39691 20.306 8.73602 20.3137 9.07514C19.9222 8.84778 19.6354 8.45086 19.523 8.01541C19.2595 7.17533 19.7905 6.17726 20.6354 5.91521Z" fill="black"/>
<path d="M15.2592 9.74642C16.0705 9.17536 17.1506 8.99807 18.109 9.2795C18.5652 9.4246 18.9787 9.6789 19.3467 9.9807C19.6392 10.1975 19.8947 10.4687 20.2216 10.6431C20.6613 10.8869 21.227 10.9273 21.6811 10.6928C22.0412 10.5264 22.2905 10.2014 22.5222 9.89371C22.7673 9.56525 23.0367 9.24581 23.3509 8.97973C24.1393 8.34134 25.2384 8.12327 26.2195 8.3635C26.8858 8.54044 27.4654 8.9243 28.0391 9.28941C28.3646 9.48722 28.7103 9.69063 29.0993 9.71888C29.5391 9.78434 30.0089 9.69544 30.3655 9.42483C30.5291 9.67481 30.7578 9.87906 30.9987 10.051C30.9922 10.0633 30.9759 10.0922 30.9694 10.1045C30.9303 10.1397 30.8904 10.1672 30.851 10.1986C30.3932 10.5071 29.8443 10.6936 29.2888 10.6754C28.862 10.6589 28.4334 10.5884 28.0458 10.3933C27.5219 10.1275 27.0466 9.77129 26.5219 9.49785C26.0676 9.2634 25.5411 9.15294 25.0353 9.23405C24.6524 9.29817 24.2787 9.44658 23.9735 9.68843C23.5204 10.0391 23.1939 10.5158 22.8057 10.9254C22.4203 11.3619 21.8829 11.6906 21.2937 11.7573C20.7451 11.8391 20.1724 11.6987 19.7141 11.391C19.1887 11.0401 18.7099 10.6145 18.1479 10.3218C17.5907 10.0363 16.9077 9.99295 16.3265 10.241C15.5164 10.5717 14.9918 11.3059 14.3236 11.8307C13.8279 12.2208 13.1992 12.4623 12.5631 12.4565C12.1711 12.4364 11.7578 12.3991 11.4121 12.1957C11.3784 12.1722 11.3519 12.144 11.3221 12.12C11.538 11.9187 11.7224 11.6781 11.841 11.4058C12.2895 11.5866 12.8151 11.5809 13.2579 11.3863C13.5717 11.2598 13.8151 11.0245 14.0594 10.7969C14.4454 10.4379 14.8293 10.0597 15.2592 9.74642Z" fill="black"/>
<path d="M11.2905 13.1201C12.0657 13.124 12.837 13.1201 13.6122 13.1201C13.4843 13.3128 13.3525 13.5132 13.1549 13.6481C12.7828 13.8985 12.2711 13.9448 11.8719 13.729C11.6122 13.6018 11.4456 13.359 11.2905 13.1201Z" fill="black"/>
<path d="M28.0645 11.5312C28.8358 11.5158 29.6071 11.5196 30.3784 11.5235C30.2234 11.824 29.9637 12.0861 29.6342 12.1863C29.2311 12.352 28.7466 12.2479 28.421 11.9705C28.2738 11.8472 28.1769 11.6776 28.0645 11.5312Z" fill="black"/>
<path d="M19.4457 12.8208C19.531 12.8786 19.5659 12.9788 19.6163 13.0636C19.7713 13.3102 19.9768 13.5299 20.2326 13.6763C20.2481 15.6069 20.252 17.5376 20.2442 19.4643C20.2403 21.4952 20.2558 23.526 20.2403 25.553C20.2481 27.5684 20.2442 29.5838 20.2442 31.5992C20.2442 31.8189 20.2481 32.0424 20.2364 32.262C19.9651 32.2582 19.6938 32.262 19.4264 32.2428C19.4302 25.9268 19.4186 19.6108 19.4341 13.2909C19.438 13.1368 19.4341 12.9788 19.4457 12.8208Z" fill="black"/>
<path d="M28.8876 14.3084C29.0232 14.0271 29.1589 13.7458 29.3062 13.4722C29.3566 13.7342 29.4767 13.9693 29.5736 14.2159C29.8178 14.8556 30.1318 15.4645 30.4108 16.0887C30.6744 16.686 30.9457 17.2795 31.2131 17.8729C31.5232 18.5781 31.8139 19.2949 32.1434 19.9924C32.2907 20.3045 32.4147 20.6321 32.5697 20.9404C32.7131 21.2718 32.8411 21.6147 32.9961 21.9423C33.0232 22.0117 33.0349 22.0887 33.0349 22.162C33.031 22.925 33.0349 23.688 33.0349 24.451C33.6473 24.4471 34.2597 24.4548 34.8721 24.4471C35.0038 24.6937 35.124 24.9442 35.2558 25.1909C34.217 25.1832 33.1821 25.1793 32.1434 25.1831C32.1473 24.1774 32.1434 23.1677 32.1473 22.162C32.1318 22.0502 32.0659 21.9577 32.0271 21.8537C31.748 21.1831 31.4457 20.5203 31.1666 19.8498C30.8256 19.0945 30.4961 18.3354 30.1589 17.5801C29.8449 16.8595 29.5504 16.135 29.217 15.4221C29.1511 15.5839 29.062 15.7304 28.9883 15.8845C28.6666 16.5049 28.3527 17.1331 28.0504 17.7612C27.6395 18.5396 27.2752 19.345 26.8566 20.1234C26.6899 20.4625 26.5077 20.7901 26.3294 21.1253C26.062 21.0444 25.7752 21.0097 25.4961 21.0483C25.7325 20.6398 25.9186 20.2005 26.1395 19.7843C26.8294 18.3739 27.562 16.9828 28.248 15.5724C28.4535 15.1446 28.6899 14.7361 28.8876 14.3084Z" fill="black"/>
<path d="M21.3915 13.9228C21.6629 13.8688 21.9342 13.7917 22.1629 13.6299C22.1667 14.1463 22.1706 14.6588 22.1745 15.1752C22.1706 20.8707 22.1784 26.5702 22.1706 32.2657C21.907 32.2657 21.6474 32.2657 21.3838 32.258C21.4032 30.1386 21.3877 28.0191 21.3915 25.8996C21.3877 21.9073 21.3877 17.915 21.3915 13.9228Z" fill="black"/>
<path d="M8.61445 23.8033C9.78499 21.4487 10.9323 19.0865 12.1106 16.7358C12.2269 17.075 12.3393 17.4179 12.4129 17.7686C12.3044 17.969 12.2269 18.1848 12.13 18.3929C11.8393 19.0326 11.5059 19.653 11.2152 20.2927C10.8548 21.0518 10.4788 21.8033 10.1222 22.5624C9.85864 23.1597 9.54468 23.7339 9.27336 24.3274C9.35864 24.5624 9.45554 24.7936 9.53693 25.0249C9.59507 25.152 9.66096 25.2753 9.72685 25.3987C10.0137 24.9516 10.2772 24.4892 10.5486 24.0306C10.8858 24.0345 11.223 24.0345 11.5602 24.0306C11.5563 25.4295 11.5679 26.8322 11.5563 28.231C11.2501 28.2233 10.9439 28.2272 10.6416 28.2195C10.6455 27.4757 10.6377 26.7281 10.6377 25.9844C10.3005 26.4892 9.99817 27.021 9.66484 27.5258C9.4129 27.1019 9.16871 26.678 8.90127 26.2657C8.80437 26.1154 8.71135 25.9574 8.59895 25.8187C8.16096 26.6087 7.78499 27.4256 7.39352 28.2387C7.07957 28.2387 6.76561 28.2349 6.45166 28.2426C6.45554 28.2349 6.45941 28.2156 6.45941 28.2079C7.21523 26.7628 7.87414 25.2638 8.61445 23.8033Z" fill="black"/>
<path d="M25.1551 21.6494C25.6667 21.6224 26.2287 21.5531 26.69 21.8305C27.3489 22.1735 27.4845 23.1138 27.0931 23.6995C26.8838 23.9962 26.5233 24.1504 26.1667 24.1658C26.3334 24.5396 26.5078 24.9057 26.6783 25.2756C26.7752 25.476 26.8489 25.6841 26.9729 25.8729C26.6241 25.8729 26.2752 25.8729 25.9264 25.8729C25.7016 25.3373 25.469 24.8016 25.2597 24.2583C25.1435 24.2621 25.0233 24.2506 24.907 24.2583C24.8566 24.3392 24.8179 24.4278 24.783 24.5165C24.6008 24.975 24.3838 25.4182 24.1977 25.8729C23.8644 25.8729 23.5311 25.8729 23.1938 25.8768C23.5931 25.1484 23.8954 24.3739 24.252 23.6224C24.5427 22.9635 24.8799 22.3199 25.1551 21.6494ZM25.7171 22.4741C25.5892 22.8093 25.4148 23.1253 25.2559 23.449C25.469 23.4297 25.6783 23.4413 25.8915 23.4336C26.0892 23.422 26.3101 23.3257 26.3838 23.1292C26.4613 22.9134 26.3411 22.6706 26.1628 22.5434C26.0349 22.4471 25.8644 22.4625 25.7171 22.4741Z" fill="black"/>
<path d="M29.0038 21.6762C29.4147 21.6724 29.8216 21.6724 30.2325 21.6724C30.341 22.0654 30.4999 22.4469 30.6395 22.8323C31.0077 23.8535 31.3875 24.867 31.7713 25.8843C31.4263 25.8766 31.0775 25.8843 30.7325 25.8805C30.6511 25.5991 30.5348 25.3332 30.4534 25.0519C29.8914 25.0404 29.3255 25.0442 28.7635 25.0481C28.6627 25.3217 28.5852 25.5991 28.4806 25.8689C28.1317 25.8843 27.779 25.8727 27.4302 25.8727C27.5697 25.5799 27.6705 25.2716 27.7868 24.971C28.0658 24.2543 28.3294 23.5298 28.6046 22.8092C28.7325 22.4315 28.8837 22.0616 29.0038 21.6762ZM29.0503 24.208C29.4224 24.208 29.7945 24.2042 30.1627 24.2119C29.9728 23.734 29.8023 23.2485 29.6085 22.7745C29.3759 23.2369 29.2403 23.734 29.0503 24.208Z" fill="black"/>
<path d="M23.7441 26.4164C25.6472 26.4125 27.5503 26.4203 29.4534 26.4164C31.031 26.4125 32.6085 26.428 34.186 26.4087C33.9689 26.6168 33.748 26.8249 33.4883 26.9867C33.186 27.1833 32.8527 27.3181 32.5116 27.4337C31.9302 27.6495 31.3139 27.7459 30.6976 27.8075C29.5271 27.9463 28.341 27.8846 27.1666 27.8422C27.0697 27.8345 26.9767 27.8191 26.8837 27.8075C26.4224 27.7651 25.9612 27.7459 25.5038 27.6572C25.2713 27.6226 25.0387 27.5648 24.8062 27.5224C24.6085 27.4954 24.4806 27.3297 24.3488 27.2025C24.1124 26.9675 23.9263 26.69 23.7441 26.4164Z" fill="black"/>
<path d="M15.407 33.1638C15.8915 32.8247 16.5117 32.7477 17.0892 32.7631C19.8179 32.7746 22.5427 32.7592 25.2675 32.7669C25.7636 32.7592 26.283 32.8016 26.721 33.0482C26.9806 33.187 27.1899 33.4028 27.3837 33.6224C27.5233 33.7804 27.6202 33.9731 27.7055 34.1658C26.531 34.1542 25.3566 34.1696 24.1822 34.1619C20.9961 34.1581 17.814 34.1619 14.6279 34.1581C14.7985 33.765 15.0582 33.4143 15.407 33.1638Z" fill="black"/>
<path d="M22.7714 6.95947C22.9149 7.36024 22.8994 7.81496 22.7404 8.20803C22.5079 8.74753 21.9885 9.16371 21.3955 9.22922C21.3916 8.95562 21.3994 8.68202 21.3916 8.41227C21.566 8.35446 21.7482 8.28895 21.8683 8.14637C22.0428 7.93828 22.1474 7.67624 22.1474 7.40649C22.2211 7.12903 22.5389 7.0481 22.7714 6.95947Z" fill="#8A8E90"/>
<path d="M20.3101 8.05757C20.3101 7.96123 20.3139 7.86104 20.3449 7.76855C20.4729 8.01518 20.6356 8.27723 20.9263 8.34659C20.9263 8.64331 20.9186 8.94389 20.9225 9.24062C20.7132 9.22135 20.5077 9.17125 20.3139 9.08647V9.07877C20.3101 8.7358 20.3139 8.39669 20.3101 8.05757Z" fill="#8B8F92"/>
<path d="M30.9737 10.108C30.9346 10.1432 30.8947 10.1707 30.8552 10.202C30.3975 10.5105 29.8486 10.697 29.293 10.6788C28.8663 10.6623 28.4376 10.5918 28.05 10.3968C27.5261 10.131 27.0509 9.77474 26.5261 9.5013C26.0719 9.26685 25.5453 9.15638 25.0395 9.23749C24.6567 9.30161 24.2829 9.45002 23.9778 9.69188C23.5246 10.0426 23.1982 10.5192 22.8099 10.9289C22.4207 11.3658 21.8871 11.694 21.2979 11.7608C20.7493 11.8426 20.1766 11.7021 19.7184 11.3945C19.193 11.0436 18.7141 10.618 18.1522 10.3253C17.595 10.0398 16.9115 9.99257 16.3307 10.2445C15.5206 10.5751 14.996 11.3094 14.3279 11.8341C13.8322 12.2242 13.2035 12.4657 12.5674 12.46C12.175 12.436 11.762 12.4025 11.4164 12.1991C11.3926 12.411 11.4428 12.6226 11.4503 12.835C12.0634 12.7735 12.6774 12.7196 13.2859 12.6507C13.8485 12.5907 14.3593 12.3036 14.7885 11.9478C15.1756 11.6351 15.5226 11.2764 15.9012 10.957C16.3841 10.5566 17.0643 10.3949 17.6716 10.5665C18.0894 10.6808 18.4253 10.9744 18.7051 11.2895C18.9269 11.5371 19.113 11.8157 19.3773 12.0239C19.7103 12.2907 20.1048 12.4772 20.5175 12.5805C20.9068 12.6474 21.3164 12.6502 21.7024 12.5431C22.2992 12.4019 22.8324 12.035 23.2051 11.5533C23.4604 11.247 23.5776 10.8547 23.7872 10.5223C24.0278 10.1168 24.4252 9.79141 24.8977 9.6906C25.3998 9.54011 25.9422 9.65276 26.3965 9.88722C26.728 10.0689 27.0501 10.2709 27.3847 10.4445C27.9141 10.7252 28.4813 10.9941 29.0939 10.9636C29.7404 10.9217 30.3786 10.8032 31.0221 10.7346L31.0572 10.7347C31.0194 10.5294 31.0274 10.3154 30.9737 10.108Z" fill="#838383"/>
<path d="M20.2324 13.6763C20.4534 13.788 20.682 13.8844 20.9262 13.9345C20.9223 19.3487 20.9301 24.763 20.9262 30.1772C20.9301 30.8709 20.9185 31.5684 20.934 32.262C20.7014 32.2582 20.4689 32.2582 20.2363 32.2659C20.2479 32.0462 20.244 31.8227 20.244 31.603C20.244 29.5876 20.2479 27.5722 20.2402 25.5568C20.2518 23.526 20.2402 21.4952 20.244 19.4682C20.2557 17.5337 20.2479 15.6069 20.2324 13.6763Z" fill="#808688"/>
<path d="M22.8835 12.813C22.7944 12.8708 22.7556 12.9748 22.7013 13.0596C22.5657 13.287 22.3719 13.4758 22.1587 13.6299C22.1626 14.1463 22.1664 14.6588 22.1703 15.1752C22.1664 20.8708 22.1742 26.5664 22.1664 32.2658C22.4068 32.2542 22.6471 32.2581 22.8874 32.2581C22.8719 31.3217 22.8874 13.6569 22.8835 12.813Z" fill="#808688"/>
<path d="M12.1262 18.3928C12.2231 18.1847 12.3006 17.9689 12.4091 17.7686C12.4595 18.0537 12.5215 18.3389 12.5603 18.624C12.5409 18.7859 12.444 18.9285 12.3897 19.0788C12.1804 19.5373 11.9711 19.9998 11.7579 20.4583C11.63 20.7127 11.5021 20.967 11.3858 21.2291C11.0021 22.0614 10.6029 22.8899 10.1959 23.7146C9.97111 24.1501 9.80057 24.6125 9.537 25.0287C9.45173 24.7936 9.35483 24.5624 9.27344 24.3312C9.54476 23.7377 9.85871 23.1635 10.1223 22.5662C10.4827 21.8071 10.8548 21.0556 11.2153 20.2965C11.5021 19.6529 11.8393 19.0364 12.1262 18.3928Z" fill="#82898B"/>
<path d="M28.0467 17.7571C28.349 17.1289 28.663 16.5008 28.9847 15.8804C28.9769 15.8996 28.9653 15.942 28.9614 15.9613C29.0234 16.1309 29.1319 16.285 29.1862 16.4584C29.1009 16.7012 28.9459 16.9131 28.8374 17.1482C28.1668 18.5393 27.473 19.9228 26.8141 21.3178C26.6552 21.2445 26.4963 21.1713 26.3335 21.1174C26.5079 20.7821 26.6901 20.4546 26.8606 20.1154C27.2715 19.3409 27.6358 18.5393 28.0467 17.7571Z" fill="#848A8B"/>
<path d="M33.2054 21.1289C32.9457 20.5354 32.6744 19.942 32.3837 19.3639C32.031 18.624 31.6822 17.8803 31.3294 17.1404C30.8023 16.0845 30.3062 15.0133 29.7635 13.9651C29.6511 13.7608 29.5349 13.5528 29.376 13.3755C29.3527 13.4063 29.3294 13.4371 29.3101 13.4718C29.3604 13.7339 29.4806 13.9689 29.5775 14.2156C29.8217 14.8553 30.1356 15.4641 30.4147 16.0884C30.6783 16.6857 30.9496 17.2791 31.217 17.8726C31.5271 18.5778 31.8178 19.2946 32.1473 19.9921C32.2946 20.3042 32.4186 20.6318 32.5736 20.94C32.717 21.2714 32.8449 21.6144 33 21.942C33.0426 21.861 33.0465 21.7724 33.0426 21.6838C33.0426 21.4872 33.0736 21.283 33.2054 21.1289Z" fill="#7F8384"/>
<path d="M7.39355 28.2428C7.78503 27.4335 8.161 26.6127 8.59898 25.8228C8.71138 25.9653 8.80441 26.1195 8.90131 26.2698C8.59511 26.9326 8.27728 27.5877 7.95169 28.2389C7.76565 28.2428 7.5796 28.2466 7.39355 28.2428Z" fill="#848B8C"/>
<path d="M32.1435 25.1831C33.1823 25.1831 34.2171 25.1831 35.2559 25.1908C35.2598 25.2024 35.2753 25.2216 35.2792 25.2332C35.3722 25.4336 35.4768 25.6263 35.5505 25.8344C35.535 25.8459 35.5078 25.869 35.4923 25.8806C34.3761 25.8845 33.2559 25.8729 32.1357 25.8767C32.1435 25.6455 32.1396 25.4143 32.1435 25.1831Z" fill="#858A8D"/>
<path d="M15.5874 26.0578C15.5874 25.9961 15.5835 25.9345 15.5758 25.8728L15.5719 25.8613C15.4905 25.499 15.2773 25.1753 14.9866 24.948C14.3238 24.4239 13.2889 24.4509 12.6649 25.025C12.2386 25.4374 12.006 26.0501 12.0874 26.6397C12.1649 27.1214 12.3897 27.6031 12.7812 27.9075C13.1145 28.1773 13.5525 28.3044 13.9789 28.2736C14.068 28.2659 14.1649 28.2582 14.2579 28.2428C14.3432 28.2274 14.4285 28.2004 14.5021 28.1503C14.692 28.0193 15.1378 27.6763 15.3975 27.052C15.5603 26.659 15.5913 26.3044 15.5874 26.0578ZM13.1882 25.8844C13.2928 25.6956 13.4827 25.5491 13.6998 25.5106C13.9091 25.4682 14.1339 25.499 14.3122 25.6262C14.5835 25.8112 14.7347 26.1657 14.6494 26.4855C14.6068 26.6705 14.4827 26.8324 14.3277 26.9403C14.0215 27.1329 13.5835 27.0983 13.3238 26.8439C13.0719 26.5973 13.0137 26.1888 13.1882 25.8844Z" fill="black"/>
<path d="M34.186 26.4087C33.969 26.6168 33.7442 26.8249 33.4884 26.9867C33.186 27.1832 32.8527 27.3181 32.5116 27.4337C31.9302 27.6495 31.3139 27.7459 30.6977 27.8075C30.5543 27.8383 30.4147 27.873 30.2674 27.873C30.0465 27.8653 29.8294 27.927 29.6046 27.9154C29.0116 27.9039 28.4147 27.9462 27.8217 27.8769C27.5077 27.8615 27.186 27.9116 26.8798 27.8075C26.4186 27.7651 25.9574 27.7459 25.5 27.6572C25.2674 27.6225 25.0349 27.5647 24.8023 27.5224C24.7713 27.5224 24.7132 27.5185 24.686 27.5146C25.0969 27.9077 25.5775 28.2121 26.0736 28.4857C26.8992 28.9289 27.8217 29.2064 28.7597 29.2526C29.2132 29.2642 29.6744 29.2603 30.124 29.2102C30.438 29.1755 30.7442 29.0908 31.0543 29.0368C31.8217 28.8557 32.5504 28.5358 33.2248 28.1389C33.4341 28.0041 33.6434 27.8692 33.8294 27.7035C34.2597 27.3335 34.6318 26.8942 34.9186 26.4048C34.6822 26.3933 34.4341 26.401 34.186 26.4087Z" fill="#7F8587"/>
<path d="M15.5794 25.8726C15.6337 26.3273 15.4709 26.7897 15.1841 27.1404C14.7577 27.6606 14.0135 27.8533 13.3701 27.7107C13.4631 27.834 13.5562 27.9149 13.6221 27.9689C13.7112 28.0383 13.8624 28.1539 14.0794 28.2001C14.2228 28.2309 14.3391 28.2155 14.3701 28.2155C14.4321 28.2078 14.4825 28.1963 14.5174 28.1847C14.8352 28.0768 15.1492 27.9227 15.3701 27.6606C15.5213 27.5142 15.6221 27.3138 15.7073 27.1211C15.7771 26.9207 15.8624 26.7011 15.8042 26.4853C15.7655 26.2656 15.6841 26.0614 15.5794 25.8726Z" fill="#7F8587"/>
<path d="M17.5291 27.1253C17.2384 26.4432 16.9865 25.7495 16.6803 25.0713C16.4167 24.3931 16.1144 23.7303 15.8469 23.052C15.5601 22.343 15.2617 21.6378 14.9516 20.9364C14.6415 20.1503 14.2655 19.3873 13.9787 18.5896C13.8896 18.343 14.0717 18.289 14.0717 18.289L13.4748 17.1253C13.2384 16.6397 12.9942 16.1542 12.7345 15.6802C12.657 15.8073 12.6105 15.9499 12.5524 16.0848C12.533 16.1349 12.5058 16.185 12.5252 16.2389C12.5717 16.4663 12.6182 16.6937 12.688 16.9133C12.7617 17.1561 12.7965 17.4066 12.8702 17.6493C12.9438 17.8921 12.9826 18.1426 13.0369 18.3931C13.1182 18.7283 13.281 19.0328 13.4012 19.3526C13.6725 19.9846 13.9089 20.632 14.1958 21.2601C14.9438 23.0097 15.6454 24.7784 16.3818 26.5357C16.626 27.0983 16.8275 27.6763 17.0834 28.2351C17.3818 28.2505 17.6803 28.2351 17.9787 28.2467C17.8586 27.8613 17.6686 27.5029 17.5291 27.1253Z" fill="black"/>
<path d="M18.3779 27.3678C18.0485 26.6549 17.719 25.942 17.3857 25.2291C17.095 24.6318 16.843 24.0152 16.5291 23.4256C16.2151 22.7705 15.9283 22.1038 15.6027 21.4526C15.2927 20.8321 15.0175 20.1963 14.7035 19.5797C14.533 19.2252 14.1958 18.5123 14.1958 18.5123L13.8159 17.7686C13.843 17.8919 13.8702 18.019 13.8973 18.1424C13.9089 18.2002 13.9206 18.2541 13.9322 18.3119L13.9632 18.5046C13.9671 18.5316 13.9748 18.5585 13.9865 18.5894C14.2733 19.3871 14.6454 20.1501 14.9593 20.9362C15.2694 21.6375 15.564 22.3427 15.8547 23.0518C16.1221 23.73 16.4206 24.3928 16.688 25.0711C16.9942 25.7454 17.2462 26.4429 17.5368 27.125C17.6725 27.5027 17.8624 27.861 17.9826 28.2425C18.2462 28.2618 18.5097 28.2425 18.7733 28.258C18.6686 27.9497 18.5175 27.6607 18.3779 27.3678Z" fill="#868C8F"/>
<path d="M17.7579 28.7744L17.7463 28.786C17.5602 28.9594 17.3742 29.1328 17.1649 29.2754C16.7308 29.5528 16.254 29.7686 15.7502 29.8919C15.2928 29.996 14.8393 30.1116 14.3703 30.1501C13.2153 30.2812 12.0525 30.2349 10.8936 30.1964C9.95171 30.1232 8.99435 30.1039 8.0835 29.838C8.31993 30.0808 8.60288 30.2735 8.88195 30.4623C9.27729 30.6819 9.66877 30.9247 10.0951 31.0866C10.5215 31.2523 10.9633 31.3833 11.413 31.4719C11.8199 31.576 12.2424 31.6068 12.6649 31.6183C13.1843 31.6261 13.7114 31.6183 14.2153 31.495C14.444 31.4411 14.6765 31.4064 14.9013 31.3332C15.5137 31.1367 16.1106 30.8785 16.6416 30.5162C17.3509 30.0731 17.9633 29.4758 18.413 28.7744C18.1959 28.7744 17.9788 28.7744 17.7579 28.7744Z" fill="#767A7B"/>
<path d="M16.2888 28.7743C13.2345 28.7705 10.1802 28.7782 7.12598 28.7666C7.22675 28.8938 7.30427 29.0364 7.40505 29.1674C7.59497 29.4217 7.82365 29.6491 8.07947 29.8379C8.99032 30.1038 9.94768 30.1269 10.8895 30.1963C12.0485 30.2348 13.2112 30.2811 14.3663 30.15C14.8353 30.1154 15.2888 29.9997 15.7461 29.8918C16.25 29.7647 16.7229 29.5489 17.1609 29.2753C17.3702 29.1327 17.5601 28.9593 17.7423 28.7859L17.7539 28.7743H16.2888Z" fill="black"/>
</svg>
