<svg width="240" height="61" viewBox="0 0 240 61" fill="none" xmlns="http://www.w3.org/2000/svg">
<path d="M30.4375 8.72487C31.175 8.51456 32.0269 8.57708 32.6558 9.0318C33.0845 9.33306 33.4047 9.77641 33.5876 10.2652C33.2389 10.4017 32.7758 10.5153 32.6672 10.9246C32.6672 11.3225 32.5071 11.709 32.2556 12.0159C32.0726 12.2262 31.8039 12.3228 31.5524 12.4081C31.5752 12.2944 31.6953 12.2774 31.7811 12.2205C32.1069 12.0557 32.3585 11.7431 32.4156 11.3793C32.49 10.9473 32.2956 10.5096 31.9697 10.2254C31.4895 9.81051 30.6662 9.87872 30.2832 10.396C30.0431 10.6802 29.9516 11.0667 30.0145 11.4305L30.0088 11.4589C29.963 11.5953 29.9573 11.7431 29.9573 11.8852C29.9573 12.3854 29.9516 12.8856 29.963 13.3858C29.3856 13.0504 28.9625 12.4649 28.7968 11.8227C28.408 10.5835 29.1912 9.11138 30.4375 8.72487Z" fill="black"/>
<path d="M22.5075 14.3761C23.7041 13.5338 25.2973 13.2723 26.7108 13.6874C27.3838 13.9014 27.9937 14.2765 28.5365 14.7217C28.9679 15.0415 29.3448 15.4415 29.827 15.6987C30.4755 16.0583 31.31 16.1178 31.9797 15.772C32.5108 15.5266 32.8786 15.0472 33.2204 14.5934C33.5818 14.1089 33.9792 13.6377 34.4427 13.2452C35.6056 12.3036 37.2267 11.982 38.6739 12.3363C39.6567 12.5973 40.5116 13.1635 41.3578 13.702C41.8379 13.9938 42.3477 14.2938 42.9215 14.3355C43.5702 14.432 44.2633 14.3009 44.7892 13.9018C45.0305 14.2705 45.3679 14.5718 45.7231 14.8254C45.7136 14.8436 45.6895 14.8862 45.68 14.9043C45.6223 14.9562 45.5635 14.9968 45.5053 15.043C44.8301 15.4981 44.0204 15.7732 43.201 15.7463C42.5716 15.722 41.9393 15.618 41.3676 15.3303C40.5948 14.9382 39.8939 14.4128 39.1199 14.0095C38.4498 13.6636 37.6732 13.5007 36.9271 13.6204C36.3624 13.7149 35.8111 13.9338 35.3611 14.2906C34.6927 14.8078 34.2112 15.5109 33.6384 16.1152C33.07 16.7589 32.2773 17.2437 31.4082 17.3422C30.5991 17.4628 29.7543 17.2557 29.0784 16.8019C28.3035 16.2844 27.5971 15.6566 26.7683 15.2248C25.9464 14.8037 24.9389 14.7397 24.0816 15.1056C22.8868 15.5933 22.113 16.6764 21.1274 17.4504C20.3963 18.0258 19.4689 18.382 18.5307 18.3735C17.9525 18.3438 17.3428 18.2888 16.833 17.9888C16.7832 17.9541 16.7442 17.9125 16.7001 17.8772C17.0187 17.5802 17.2907 17.2253 17.4656 16.8236C18.1271 17.0903 18.9024 17.0819 19.5555 16.7949C20.0183 16.6084 20.3774 16.2613 20.7378 15.9256C21.3071 15.396 21.8734 14.8382 22.5075 14.3761Z" fill="black"/>
<path d="M16.6532 19.3521C17.7966 19.3577 18.9343 19.3521 20.0777 19.3521C19.8891 19.6363 19.6947 19.9318 19.4031 20.1308C18.8543 20.5002 18.0996 20.5684 17.5108 20.2501C17.1277 20.0626 16.8819 19.7045 16.6532 19.3521Z" fill="black"/>
<path d="M41.3951 17.0086C42.5328 16.9859 43.6705 16.9916 44.8082 16.9973C44.5795 17.4406 44.1965 17.8271 43.7105 17.9749C43.116 18.2193 42.4013 18.0659 41.9211 17.6566C41.7039 17.4747 41.5609 17.2246 41.3951 17.0086Z" fill="black"/>
<path d="M28.6824 18.9106C28.8082 18.9959 28.8596 19.1437 28.934 19.2687C29.1626 19.6325 29.4656 19.9565 29.843 20.1725C29.8658 23.0202 29.8716 25.8679 29.8601 28.7099C29.8544 31.7053 29.8773 34.7008 29.8544 37.6906C29.8658 40.6633 29.8601 43.6361 29.8601 46.6088C29.8601 46.9328 29.8658 47.2625 29.8487 47.5865C29.4485 47.5808 29.0483 47.5865 28.6538 47.558C28.6595 38.242 28.6424 28.9259 28.6653 19.6041C28.671 19.3767 28.6653 19.1437 28.6824 18.9106Z" fill="black"/>
<path d="M42.6092 21.1045C42.8093 20.6896 43.0094 20.2747 43.2267 19.8711C43.301 20.2576 43.4782 20.6043 43.6212 20.9681C43.9813 21.9117 44.4444 22.8097 44.856 23.7305C45.2448 24.6116 45.645 25.4869 46.0395 26.3622C46.4968 27.4024 46.9256 28.4596 47.4116 29.4884C47.6288 29.9488 47.8118 30.432 48.0404 30.8867C48.252 31.3755 48.4406 31.8814 48.6693 32.3645C48.7093 32.4669 48.7265 32.5805 48.7265 32.6885C48.7208 33.814 48.7265 34.9394 48.7265 36.0648C49.6298 36.0591 50.5331 36.0705 51.4364 36.0591C51.6307 36.4229 51.808 36.7924 52.0024 37.1562C50.4702 37.1448 48.9437 37.1391 47.4116 37.1448C47.4173 35.6613 47.4116 34.1721 47.4173 32.6885C47.3944 32.5237 47.2972 32.3873 47.24 32.2338C46.8284 31.2448 46.3825 30.2671 45.9709 29.2781C45.4678 28.1641 44.9818 27.0443 44.4844 25.9302C44.0213 24.8673 43.5869 23.7987 43.0952 22.7472C42.998 22.9859 42.8665 23.2019 42.7579 23.4293C42.2834 24.3444 41.8203 25.2709 41.3744 26.1974C40.7683 27.3456 40.2309 28.5335 39.6135 29.6817C39.3677 30.1819 39.099 30.665 38.836 31.1595C38.4415 31.0402 38.0184 30.989 37.6068 31.0459C37.9556 30.4433 38.23 29.7954 38.5558 29.1815C39.5735 27.1012 40.654 25.0492 41.6659 22.9689C41.9689 22.338 42.3177 21.7354 42.6092 21.1045Z" fill="black"/>
<path d="M31.5525 20.5365C31.9526 20.4569 32.3528 20.3432 32.6901 20.1045C32.6959 20.8661 32.7016 21.6221 32.7073 22.3838C32.7016 30.7847 32.713 39.1914 32.7016 47.5924C32.3128 47.5924 31.9298 47.5924 31.541 47.581C31.5696 44.4548 31.5467 41.3286 31.5525 38.2024C31.5467 32.3137 31.5467 26.4251 31.5525 20.5365Z" fill="black"/>
<path d="M12.7062 35.11C14.4328 31.6371 16.125 28.1528 17.863 24.6855C18.0345 25.1857 18.2003 25.6916 18.3089 26.2089C18.1489 26.5044 18.0345 26.8227 17.8916 27.1297C17.4628 28.0732 16.9712 28.9883 16.5424 29.9319C16.0107 31.0516 15.4561 32.16 14.9302 33.2798C14.5414 34.1608 14.0783 35.0077 13.6781 35.883C13.8039 36.2298 13.9468 36.5708 14.0669 36.9118C14.1526 37.0994 14.2498 37.2813 14.347 37.4632C14.7701 36.8039 15.1588 36.1218 15.559 35.4454C16.0564 35.4511 16.5538 35.4511 17.0512 35.4454C17.0455 37.5087 17.0626 39.5776 17.0455 41.6409C16.5938 41.6296 16.1422 41.6353 15.6962 41.6239C15.702 40.5269 15.6905 39.4242 15.6905 38.3272C15.1931 39.0718 14.7472 39.8562 14.2556 40.6008C13.8839 39.9755 13.5238 39.3503 13.1293 38.7421C12.9864 38.5204 12.8492 38.2874 12.6834 38.0828C12.0373 39.248 11.4828 40.453 10.9054 41.6523C10.4423 41.6523 9.97919 41.6466 9.51611 41.658C9.52183 41.6466 9.52755 41.6182 9.52755 41.6068C10.6424 39.4753 11.6143 37.2643 12.7062 35.11Z" fill="black"/>
<path d="M37.1036 31.9326C37.8583 31.8928 38.6873 31.7905 39.3676 32.1998C40.3395 32.7057 40.5396 34.0926 39.9622 34.9565C39.6535 35.3942 39.1218 35.6216 38.5958 35.6443C38.8416 36.1956 39.0989 36.7356 39.3504 37.2813C39.4934 37.5769 39.602 37.8838 39.7849 38.1623C39.2704 38.1623 38.7559 38.1623 38.2413 38.1623C37.9097 37.3722 37.5667 36.5822 37.258 35.7807C37.0865 35.7864 36.9093 35.7693 36.7378 35.7807C36.6634 35.9001 36.6063 36.0308 36.5548 36.1615C36.2861 36.8379 35.9659 37.4916 35.6915 38.1623C35.1999 38.1623 34.7082 38.1623 34.2108 38.168C34.7997 37.0937 35.2456 35.9512 35.7716 34.8428C36.2003 33.8709 36.6977 32.9217 37.1036 31.9326ZM37.9326 33.149C37.744 33.6435 37.4867 34.1096 37.2523 34.5871C37.5667 34.5586 37.8754 34.5757 38.1899 34.5643C38.4815 34.5473 38.8073 34.4052 38.916 34.1153C39.0303 33.797 38.8531 33.4389 38.5901 33.2513C38.4014 33.1092 38.1499 33.132 37.9326 33.149Z" fill="black"/>
<path d="M42.7807 31.9725C43.3867 31.9668 43.987 31.9668 44.593 31.9668C44.7531 32.5466 44.9875 33.1093 45.1933 33.6777C45.7364 35.1839 46.2967 36.6788 46.8627 38.1794C46.3539 38.168 45.8393 38.1794 45.3305 38.1737C45.2105 37.7588 45.039 37.3666 44.9189 36.9517C44.0899 36.9346 43.2552 36.9403 42.4263 36.946C42.2776 37.3496 42.1633 37.7588 42.0089 38.1567C41.4944 38.1794 40.9741 38.1624 40.4596 38.1624C40.6654 37.7304 40.8141 37.2757 40.9856 36.8323C41.3972 35.7751 41.786 34.7065 42.1919 33.6436C42.3805 33.0865 42.6035 32.5409 42.7807 31.9725ZM42.8493 35.7069C43.3982 35.7069 43.947 35.7012 44.4901 35.7126C44.21 35.0077 43.9584 34.2916 43.6726 33.5924C43.3296 34.2745 43.1295 35.0077 42.8493 35.7069Z" fill="black"/>
<path d="M35.0227 38.964C37.8298 38.9583 40.6369 38.9697 43.4439 38.964C45.7708 38.9583 48.0976 38.9811 50.4244 38.9526C50.1043 39.2596 49.7784 39.5665 49.3954 39.8052C48.9495 40.0951 48.4578 40.2941 47.9547 40.4646C47.0971 40.7829 46.1881 40.925 45.2791 41.0159C43.5526 41.2206 41.8031 41.1296 40.0709 41.0671C39.9279 41.0557 39.7907 41.033 39.6535 41.0159C38.9732 40.9534 38.2929 40.925 37.6182 40.7943C37.2752 40.7431 36.9322 40.6578 36.5892 40.5953C36.2976 40.5555 36.1089 40.3111 35.9146 40.1235C35.5658 39.7768 35.2914 39.3676 35.0227 38.964Z" fill="black"/>
<path d="M22.7253 48.9166C23.4399 48.4164 24.3547 48.3027 25.2065 48.3255C29.2313 48.3425 33.2504 48.3198 37.2695 48.3311C38.0013 48.3198 38.7674 48.3823 39.4134 48.7461C39.7964 48.9507 40.1051 49.269 40.391 49.593C40.5968 49.826 40.7397 50.1102 40.8655 50.3944C39.1332 50.3774 37.401 50.4001 35.6687 50.3888C30.9693 50.3831 26.2756 50.3888 21.5762 50.3831C21.8277 49.8033 22.2108 49.2861 22.7253 48.9166Z" fill="black"/>
<path d="M33.5876 10.2651C33.7992 10.8563 33.7763 11.527 33.5419 12.1068C33.1989 12.9025 32.4328 13.5164 31.5581 13.613C31.5524 13.2095 31.5638 12.8059 31.5524 12.408C31.8096 12.3227 32.0783 12.2261 32.2556 12.0158C32.5128 11.7089 32.6672 11.3224 32.6672 10.9245C32.7758 10.5152 33.2446 10.3959 33.5876 10.2651Z" fill="#8A8E90"/>
<path d="M29.9574 11.8853C29.9574 11.7432 29.9631 11.5954 30.0089 11.459C30.1975 11.8228 30.4376 12.2093 30.8664 12.3116C30.8664 12.7493 30.855 13.1926 30.8607 13.6303C30.552 13.6019 30.249 13.528 29.9631 13.4029V13.3915C29.9574 12.8857 29.9631 12.3855 29.9574 11.8853Z" fill="#8B8F92"/>
<path d="M45.6862 14.9092C45.6286 14.9611 45.5698 15.0017 45.5115 15.0479C44.8364 15.503 44.0267 15.778 43.2073 15.7512C42.5779 15.7269 41.9456 15.6228 41.3739 15.3351C40.6011 14.9431 39.9001 14.4177 39.1261 14.0143C38.4561 13.6685 37.6794 13.5056 36.9334 13.6252C36.3687 13.7198 35.8174 13.9387 35.3673 14.2955C34.6989 14.8127 34.2174 15.5158 33.6447 16.12C33.0706 16.7644 32.2836 17.2486 31.4145 17.3471C30.6053 17.4677 29.7606 17.2606 29.0846 16.8068C28.3098 16.2892 27.6034 15.6614 26.7746 15.2297C25.9527 14.8086 24.9446 14.739 24.0879 15.1105C22.893 15.5982 22.1192 16.6812 21.1337 17.4553C20.4026 18.0307 19.4752 18.3869 18.537 18.3784C17.9582 18.343 17.3491 18.2937 16.8393 17.9936C16.8042 18.3061 16.8783 18.6183 16.8892 18.9316C17.7936 18.8408 18.6993 18.7613 19.5968 18.6598C20.4267 18.5712 21.18 18.1478 21.8131 17.6229C22.3841 17.1618 22.896 16.6326 23.4544 16.1614C24.1666 15.5709 25.17 15.3323 26.0657 15.5855C26.682 15.7541 27.1774 16.1871 27.5901 16.6519C27.9172 17.0171 28.1918 17.428 28.5816 17.7352C29.0728 18.1286 29.6546 18.4038 30.2634 18.5561C30.8376 18.6549 31.4418 18.659 32.0112 18.5011C32.8913 18.2928 33.6779 17.7515 34.2276 17.0411C34.6041 16.5893 34.7771 16.0106 35.0862 15.5203C35.4411 14.9222 36.0273 14.4423 36.7241 14.2936C37.4648 14.0716 38.2648 14.2378 38.9349 14.5836C39.4239 14.8515 39.899 15.1495 40.3925 15.4056C41.1734 15.8196 42.01 16.2162 42.9136 16.1713C43.8671 16.1095 44.8084 15.9347 45.7577 15.8334L45.8095 15.8336C45.7537 15.5308 45.7654 15.2152 45.6862 14.9092Z" fill="#838383"/>
<path d="M29.843 20.1724C30.1689 20.3372 30.5062 20.4793 30.8664 20.5532C30.8607 28.5392 30.8721 36.5252 30.8664 44.5113C30.8721 45.5344 30.8549 46.5632 30.8778 47.5863C30.5348 47.5806 30.1918 47.5806 29.8487 47.592C29.8659 47.268 29.8602 46.9384 29.8602 46.6144C29.8602 43.6416 29.8659 40.6689 29.8545 37.6962C29.8716 34.7007 29.8545 31.7052 29.8602 28.7154C29.8773 25.8621 29.8659 23.0201 29.843 20.1724Z" fill="#808688"/>
<path d="M33.7535 18.8994C33.622 18.9847 33.5649 19.1381 33.4848 19.2632C33.2847 19.5985 32.9989 19.8771 32.6844 20.1044C32.6902 20.8661 32.6959 21.6221 32.7016 22.3837C32.6959 30.7847 32.7073 39.1856 32.6959 47.5923C33.0503 47.5752 33.4048 47.5809 33.7593 47.5809C33.7364 46.1997 33.7593 20.1442 33.7535 18.8994Z" fill="#808688"/>
<path d="M17.8859 27.1293C18.0288 26.8224 18.1431 26.5041 18.3032 26.2085C18.3775 26.6291 18.469 27.0497 18.5262 27.4703C18.4976 27.7091 18.3547 27.9194 18.2746 28.1411C17.9659 28.8175 17.6572 29.4995 17.3427 30.1759C17.1541 30.5511 16.9654 30.9262 16.7939 31.3127C16.2279 32.5405 15.6391 33.7625 15.0388 34.9789C14.7072 35.6212 14.4556 36.3033 14.0669 36.9172C13.9411 36.5704 13.7982 36.2294 13.6781 35.8884C14.0783 35.013 14.5414 34.1661 14.9301 33.2851C15.4618 32.1653 16.0107 31.057 16.5423 29.9372C16.9654 28.988 17.4628 28.0785 17.8859 27.1293Z" fill="#82898B"/>
<path d="M41.3686 26.1919C41.8145 25.2654 42.2776 24.339 42.7521 23.4238C42.7407 23.4522 42.7236 23.5148 42.7178 23.5432C42.8093 23.7933 42.9694 24.0206 43.0494 24.2764C42.9236 24.6345 42.695 24.9471 42.5349 25.2939C41.5458 27.3458 40.5225 29.3864 39.5506 31.444C39.3162 31.336 39.0818 31.228 38.8417 31.1484C39.0989 30.6539 39.3676 30.1707 39.6192 29.6706C40.2252 28.5281 40.7626 27.3458 41.3686 26.1919Z" fill="#848A8B"/>
<path d="M48.9781 31.1652C48.595 30.2899 48.1948 29.4146 47.766 28.562C47.2458 27.4706 46.7313 26.3736 46.211 25.2823C45.4335 23.7249 44.7017 22.1447 43.9013 20.5987C43.7355 20.2974 43.564 19.9905 43.3296 19.729C43.2953 19.7745 43.261 19.8199 43.2324 19.8711C43.3067 20.2576 43.484 20.6043 43.6269 20.9681C43.9871 21.9117 44.4502 22.8097 44.8618 23.7305C45.2505 24.6116 45.6507 25.4869 46.0452 26.3622C46.5026 27.4024 46.9314 28.4596 47.4173 29.4884C47.6346 29.9488 47.8175 30.432 48.0462 30.8867C48.2577 31.3755 48.4464 31.8814 48.6751 32.3646C48.7379 32.2452 48.7437 32.1145 48.7379 31.9837C48.7379 31.6938 48.7837 31.3926 48.9781 31.1652Z" fill="#7F8384"/>
<path d="M10.9054 41.6579C11.4828 40.4643 12.0374 39.2536 12.6834 38.0884C12.8492 38.2987 12.9864 38.526 13.1293 38.7477C12.6777 39.7254 12.2089 40.6917 11.7287 41.6522C11.4542 41.6579 11.1798 41.6636 10.9054 41.6579Z" fill="#848B8C"/>
<path d="M47.4116 37.145C48.9438 37.145 50.4702 37.145 52.0024 37.1564C52.0081 37.1734 52.031 37.2019 52.0367 37.2189C52.1739 37.5145 52.3283 37.7987 52.4369 38.1056C52.414 38.1227 52.374 38.1568 52.3511 38.1738C50.7046 38.1795 49.0524 38.1625 47.4001 38.1681C47.4116 37.8271 47.4059 37.4861 47.4116 37.145Z" fill="#858A8D"/>
<path d="M22.9912 38.4351C22.9912 38.3441 22.9855 38.2532 22.974 38.1623L22.9683 38.1452C22.8482 37.6109 22.5338 37.1335 22.105 36.7981C21.1274 36.0251 19.601 36.0649 18.6805 36.9118C18.0516 37.52 17.7086 38.4237 17.8287 39.2934C17.943 40.0039 18.2746 40.7144 18.852 41.1634C19.3437 41.5613 19.9897 41.7489 20.6186 41.7034C20.7501 41.692 20.893 41.6807 21.0302 41.6579C21.156 41.6352 21.2818 41.5954 21.3904 41.5215C21.6705 41.3282 22.328 40.8224 22.711 39.9016C22.9512 39.3218 22.9969 38.7989 22.9912 38.4351ZM19.4523 38.1793C19.6067 37.9008 19.8868 37.6848 20.207 37.628C20.5157 37.5654 20.8473 37.6109 21.1103 37.7985C21.5105 38.0713 21.7334 38.5942 21.6077 39.066C21.5448 39.3388 21.3618 39.5776 21.1331 39.7367C20.6815 40.0209 20.0355 39.9698 19.6524 39.5946C19.2808 39.2309 19.1951 38.6283 19.4523 38.1793Z" fill="black"/>
<path d="M50.4244 38.9524C50.1042 39.2593 49.7726 39.5662 49.3953 39.805C48.9494 40.0949 48.4577 40.2938 47.9546 40.4643C47.097 40.7826 46.188 40.9247 45.279 41.0157C45.0675 41.0611 44.8617 41.1123 44.6444 41.1123C44.3186 41.1009 43.9984 41.1919 43.6668 41.1748C42.7921 41.1578 41.9117 41.2203 41.037 41.118C40.5739 41.0952 40.0994 41.1691 39.6477 41.0157C38.9674 40.9531 38.2871 40.9247 37.6124 40.794C37.2694 40.7428 36.9264 40.6576 36.5834 40.595C36.5376 40.595 36.4519 40.5894 36.4119 40.5837C37.0179 41.1634 37.7268 41.6125 38.4586 42.016C39.6763 42.6697 41.037 43.079 42.4205 43.1472C43.0894 43.1642 43.7697 43.1585 44.4329 43.0846C44.896 43.0335 45.3476 42.9084 45.805 42.8289C46.937 42.5617 48.0118 42.0899 49.0065 41.5045C49.3153 41.3055 49.624 41.1066 49.8984 40.8622C50.533 40.3165 51.0818 39.6686 51.5049 38.9467C51.1561 38.9296 50.7903 38.941 50.4244 38.9524Z" fill="#7F8587"/>
<path d="M22.9798 38.1621C23.0598 38.8328 22.8197 39.5149 22.3967 40.0321C21.7678 40.7995 20.6701 41.0837 19.7211 40.8734C19.8583 41.0553 19.9955 41.1746 20.0927 41.2542C20.2242 41.3565 20.4471 41.527 20.7673 41.5952C20.9788 41.6407 21.1503 41.618 21.1961 41.618C21.2875 41.6066 21.3619 41.5896 21.4133 41.5725C21.8821 41.4134 22.3452 41.186 22.6711 40.7995C22.894 40.5835 23.0427 40.2879 23.1685 40.0037C23.2714 39.7082 23.3971 39.3842 23.3114 39.0659C23.2542 38.7419 23.1342 38.4406 22.9798 38.1621Z" fill="#7F8587"/>
<path d="M25.8555 40.0094C25.4267 39.0034 25.0551 37.9802 24.6035 36.9799C24.2147 35.9795 23.7688 35.0018 23.3743 34.0014C22.9513 32.9556 22.511 31.9154 22.0537 30.8809C21.5963 29.7214 21.0418 28.5959 20.6187 27.4194C20.4872 27.0556 20.7559 26.976 20.7559 26.976L19.8755 25.2594C19.5267 24.5432 19.1666 23.8271 18.7835 23.1279C18.6692 23.3155 18.6006 23.5258 18.5148 23.7248C18.4862 23.7986 18.4462 23.8725 18.4748 23.9521C18.5434 24.2875 18.612 24.6228 18.7149 24.9468C18.8235 25.3049 18.875 25.6744 18.9836 26.0325C19.0922 26.3905 19.1494 26.76 19.2295 27.1295C19.3495 27.624 19.5896 28.073 19.7669 28.5448C20.167 29.477 20.5158 30.4319 20.9389 31.3584C22.0422 33.9389 23.077 36.5479 24.1633 39.1398C24.5234 39.9696 24.8207 40.8222 25.1981 41.6464C25.6383 41.6692 26.0785 41.6464 26.5187 41.6635C26.3415 41.0951 26.0613 40.5665 25.8555 40.0094Z" fill="black"/>
<path d="M27.1075 40.3674C26.6216 39.3158 26.1356 38.2643 25.6439 37.2127C25.2152 36.3317 24.8436 35.4223 24.3805 34.5526C23.9174 33.5863 23.4943 32.603 23.0141 31.6424C22.5567 30.7273 22.1508 29.7894 21.6877 28.88C21.4362 28.3571 20.9388 27.3055 20.9388 27.3055L20.3785 26.2085C20.4186 26.3904 20.4586 26.578 20.4986 26.7598C20.5157 26.8451 20.5329 26.9247 20.5501 27.0099L20.5958 27.2941C20.6015 27.3339 20.6129 27.3737 20.6301 27.4192C21.0532 28.5958 21.602 29.7212 22.0651 30.8808C22.5224 31.9152 22.9569 32.9554 23.3857 34.0013C23.7802 35.0017 24.2204 35.9793 24.6149 36.9797C25.0665 37.9744 25.4381 39.0032 25.8669 40.0093C26.067 40.5663 26.3471 41.0949 26.5244 41.6576C26.9131 41.6861 27.3019 41.6576 27.6907 41.6804C27.5363 41.2256 27.3133 40.7993 27.1075 40.3674Z" fill="#868C8F"/>
<path d="M26.1927 42.4424L26.1756 42.4594C25.9012 42.7152 25.6268 42.971 25.318 43.1813C24.6777 43.5906 23.9745 43.9089 23.2313 44.0907C22.5567 44.2442 21.8878 44.4147 21.196 44.4716C19.4924 44.6648 17.7772 44.5966 16.0678 44.5398C14.6786 44.4318 13.2665 44.4034 11.923 44.0112C12.2717 44.3693 12.6891 44.6535 13.1007 44.932C13.6838 45.256 14.2612 45.6141 14.8901 45.8528C15.519 46.0972 16.1707 46.2905 16.8339 46.4212C17.4342 46.5747 18.0574 46.6201 18.6805 46.6372C19.4466 46.6485 20.2241 46.6372 20.9674 46.4553C21.3047 46.3757 21.6477 46.3246 21.9793 46.2166C22.8826 45.9267 23.763 45.5459 24.5462 45.0116C25.5925 44.3579 26.4957 43.4769 27.1589 42.4424C26.8388 42.4424 26.5186 42.4424 26.1927 42.4424Z" fill="#767A7B"/>
<path d="M24.026 42.442C19.5209 42.4363 15.0159 42.4477 10.5109 42.4307C10.6595 42.6182 10.7738 42.8285 10.9225 43.0218C11.2026 43.3969 11.5399 43.7323 11.9173 44.0108C13.2608 44.403 14.6729 44.4371 16.0621 44.5394C17.7715 44.5963 19.4866 44.6645 21.1903 44.4712C21.8821 44.4201 22.551 44.2495 23.2256 44.0904C23.9688 43.9028 24.6663 43.5845 25.3123 43.181C25.621 42.9706 25.9012 42.7149 26.1699 42.4591L26.187 42.442H24.026Z" fill="black"/>
<path d="M61.04 37V11.24H67.4L74.4 25.52L81.36 11.24H87.68V37H81.24V22.2L76.16 32.6H72.6L67.48 22.2V37H61.04ZM107.383 37.4C103.196 37.4 100.01 36.3333 97.8231 34.2C95.6365 32.0667 94.5431 28.7467 94.5431 24.24C94.5431 19.4667 95.6365 16.04 97.8231 13.96C100.01 11.88 103.196 10.84 107.383 10.84C111.57 10.84 114.756 11.88 116.943 13.96C119.13 16.04 120.223 19.4667 120.223 24.24C120.223 28.7467 119.13 32.0667 116.943 34.2C114.756 36.3333 111.57 37.4 107.383 37.4ZM107.383 31.92C109.543 31.92 111.116 31.3067 112.103 30.08C113.116 28.8267 113.623 26.88 113.623 24.24C113.623 21.36 113.116 19.3333 112.103 18.16C111.116 16.96 109.543 16.36 107.383 16.36C105.196 16.36 103.596 16.96 102.583 18.16C101.596 19.3333 101.103 21.36 101.103 24.24C101.103 26.88 101.596 28.8267 102.583 30.08C103.596 31.3067 105.196 31.92 107.383 31.92ZM127.107 37V11.24H133.467L140.467 25.52L147.427 11.24H153.747V37H147.307V22.2L142.227 32.6H138.667L133.547 22.2V37H127.107ZM161.41 37V11.24H180.41V16.2H167.85V21.6H178.93V26.64H167.85V32.04H180.41V37H161.41ZM187.081 37V11.24H192.601L203.561 26.64V11.24H210.041V37H204.481L193.521 21.64V37H187.081ZM223.672 37V16.2H216.112V11.24H237.672V16.2H230.112V37H223.672Z" fill="#232323"/>
<path d="M64.474 52.08V56H62.598V52.08L58.909 45.878H60.568C60.7313 45.878 60.8597 45.9177 60.953 45.997C61.051 46.0763 61.1327 46.1767 61.198 46.298L63.046 49.679C63.1533 49.8797 63.2467 50.0687 63.326 50.246C63.41 50.4233 63.4847 50.6007 63.55 50.778C63.6107 50.6007 63.6807 50.4233 63.76 50.246C63.8393 50.0687 63.9303 49.8797 64.033 49.679L65.874 46.298C65.9253 46.1953 66.0023 46.0997 66.105 46.011C66.2077 45.9223 66.3383 45.878 66.497 45.878H68.163L64.474 52.08ZM79.8102 50.939C79.8102 51.681 79.6866 52.3693 79.4392 53.004C79.1966 53.634 78.8512 54.18 78.4032 54.642C77.9552 55.104 77.4162 55.4657 76.7862 55.727C76.1562 55.9837 75.4562 56.112 74.6862 56.112C73.9209 56.112 73.2232 55.9837 72.5932 55.727C71.9632 55.4657 71.4219 55.104 70.9692 54.642C70.5212 54.18 70.1736 53.634 69.9262 53.004C69.6789 52.3693 69.5552 51.681 69.5552 50.939C69.5552 50.197 69.6789 49.511 69.9262 48.881C70.1736 48.2463 70.5212 47.698 70.9692 47.236C71.4219 46.774 71.9632 46.4147 72.5932 46.158C73.2232 45.8967 73.9209 45.766 74.6862 45.766C75.1996 45.766 75.6826 45.8267 76.1352 45.948C76.5879 46.0647 77.0032 46.2327 77.3812 46.452C77.7592 46.6667 78.0976 46.9303 78.3962 47.243C78.6996 47.551 78.9562 47.8963 79.1662 48.279C79.3762 48.6617 79.5349 49.077 79.6422 49.525C79.7542 49.973 79.8102 50.4443 79.8102 50.939ZM77.8852 50.939C77.8852 50.3837 77.8106 49.8867 77.6612 49.448C77.5119 49.0047 77.2996 48.629 77.0242 48.321C76.7489 48.013 76.4129 47.7773 76.0162 47.614C75.6242 47.4507 75.1809 47.369 74.6862 47.369C74.1916 47.369 73.7459 47.4507 73.3492 47.614C72.9572 47.7773 72.6212 48.013 72.3412 48.321C72.0659 48.629 71.8536 49.0047 71.7042 49.448C71.5549 49.8867 71.4802 50.3837 71.4802 50.939C71.4802 51.4943 71.5549 51.9937 71.7042 52.437C71.8536 52.8757 72.0659 53.249 72.3412 53.557C72.6212 53.8603 72.9572 54.0937 73.3492 54.257C73.7459 54.4203 74.1916 54.502 74.6862 54.502C75.1809 54.502 75.6242 54.4203 76.0162 54.257C76.4129 54.0937 76.7489 53.8603 77.0242 53.557C77.2996 53.249 77.5119 52.8757 77.6612 52.437C77.8106 51.9937 77.8852 51.4943 77.8852 50.939ZM87.0779 54.481C87.4419 54.481 87.7662 54.4203 88.0509 54.299C88.3402 54.1777 88.5829 54.0073 88.7789 53.788C88.9749 53.5687 89.1242 53.3027 89.2269 52.99C89.3342 52.6773 89.3879 52.3273 89.3879 51.94V45.878H91.2709V51.94C91.2709 52.542 91.1729 53.0997 90.9769 53.613C90.7855 54.1217 90.5079 54.5627 90.1439 54.936C89.7845 55.3047 89.3459 55.594 88.8279 55.804C88.3099 56.0093 87.7265 56.112 87.0779 56.112C86.4245 56.112 85.8389 56.0093 85.3209 55.804C84.8029 55.594 84.3619 55.3047 83.9979 54.936C83.6385 54.5627 83.3609 54.1217 83.1649 53.613C82.9735 53.0997 82.8779 52.542 82.8779 51.94V45.878H84.7609V51.933C84.7609 52.3203 84.8122 52.6703 84.9149 52.983C85.0222 53.2957 85.1739 53.564 85.3699 53.788C85.5705 54.0073 85.8132 54.1777 86.0979 54.299C86.3872 54.4203 86.7139 54.481 87.0779 54.481ZM97.9935 50.694C98.3482 50.694 98.6562 50.6497 98.9175 50.561C99.1835 50.4723 99.4005 50.351 99.5685 50.197C99.7412 50.0383 99.8695 49.8517 99.9535 49.637C100.037 49.4223 100.079 49.1867 100.079 48.93C100.079 48.4167 99.9092 48.0223 99.5685 47.747C99.2325 47.4717 98.7168 47.334 98.0215 47.334H96.8175V50.694H97.9935ZM102.837 56H101.136C100.814 56 100.581 55.874 100.436 55.622L98.3085 52.381C98.2292 52.2597 98.1405 52.1733 98.0425 52.122C97.9492 52.0707 97.8092 52.045 97.6225 52.045H96.8175V56H94.9345V45.878H98.0215C98.7075 45.878 99.2955 45.9503 99.7855 46.095C100.28 46.235 100.684 46.4333 100.996 46.69C101.314 46.9467 101.547 47.2547 101.696 47.614C101.846 47.9687 101.92 48.3607 101.92 48.79C101.92 49.1307 101.869 49.4527 101.766 49.756C101.668 50.0593 101.524 50.3347 101.332 50.582C101.146 50.8293 100.912 51.0463 100.632 51.233C100.357 51.4197 100.042 51.5667 99.6875 51.674C99.8088 51.744 99.9208 51.828 100.023 51.926C100.126 52.0193 100.219 52.1313 100.303 52.262L102.837 56ZM119.403 50.939C119.403 51.681 119.279 52.3623 119.032 52.983C118.785 53.6037 118.437 54.138 117.989 54.586C117.541 55.034 117.002 55.3817 116.372 55.629C115.742 55.8763 115.042 56 114.272 56H110.415V45.878H114.272C115.042 45.878 115.742 46.004 116.372 46.256C117.002 46.5033 117.541 46.851 117.989 47.299C118.437 47.7423 118.785 48.2743 119.032 48.895C119.279 49.5157 119.403 50.197 119.403 50.939ZM117.471 50.939C117.471 50.3837 117.396 49.8867 117.247 49.448C117.102 49.0047 116.89 48.6313 116.61 48.328C116.335 48.02 115.999 47.7843 115.602 47.621C115.21 47.4577 114.767 47.376 114.272 47.376H112.305V54.502H114.272C114.767 54.502 115.21 54.4203 115.602 54.257C115.999 54.0937 116.335 53.8603 116.61 53.557C116.89 53.249 117.102 52.8757 117.247 52.437C117.396 51.9937 117.471 51.4943 117.471 50.939ZM127.639 52.178L126.407 48.811C126.346 48.6617 126.283 48.4843 126.218 48.279C126.152 48.0737 126.087 47.852 126.022 47.614C125.961 47.852 125.898 48.076 125.833 48.286C125.767 48.4913 125.704 48.671 125.644 48.825L124.419 52.178H127.639ZM130.964 56H129.508C129.344 56 129.211 55.9603 129.109 55.881C129.006 55.797 128.929 55.6943 128.878 55.573L128.122 53.508H123.929L123.173 55.573C123.135 55.6803 123.063 55.7783 122.956 55.867C122.848 55.9557 122.715 56 122.557 56H121.087L125.07 45.878H126.988L130.964 56ZM135.442 56H133.552V45.878H135.442V56ZM145.177 54.446V56H139.248V45.878H141.131V54.446H145.177ZM151.082 52.08V56H149.206V52.08L145.517 45.878H147.176C147.339 45.878 147.468 45.9177 147.561 45.997C147.659 46.0763 147.741 46.1767 147.806 46.298L149.654 49.679C149.761 49.8797 149.855 50.0687 149.934 50.246C150.018 50.4233 150.093 50.6007 150.158 50.778C150.219 50.6007 150.289 50.4233 150.368 50.246C150.447 50.0687 150.538 49.8797 150.641 49.679L152.482 46.298C152.533 46.1953 152.61 46.0997 152.713 46.011C152.816 45.9223 152.946 45.878 153.105 45.878H154.771L151.082 52.08ZM170.711 50.939C170.711 51.681 170.588 52.3623 170.34 52.983C170.093 53.6037 169.745 54.138 169.297 54.586C168.849 55.034 168.31 55.3817 167.68 55.629C167.05 55.8763 166.35 56 165.58 56H161.723V45.878H165.58C166.35 45.878 167.05 46.004 167.68 46.256C168.31 46.5033 168.849 46.851 169.297 47.299C169.745 47.7423 170.093 48.2743 170.34 48.895C170.588 49.5157 170.711 50.197 170.711 50.939ZM168.779 50.939C168.779 50.3837 168.705 49.8867 168.555 49.448C168.411 49.0047 168.198 48.6313 167.918 48.328C167.643 48.02 167.307 47.7843 166.91 47.621C166.518 47.4577 166.075 47.376 165.58 47.376H163.613V54.502H165.58C166.075 54.502 166.518 54.4203 166.91 54.257C167.307 54.0937 167.643 53.8603 167.918 53.557C168.198 53.249 168.411 52.8757 168.555 52.437C168.705 51.9937 168.779 51.4943 168.779 50.939ZM175.804 47.376V50.183H179.346V51.632H175.804V54.495H180.298V56H173.914V45.878H180.298V47.376H175.804ZM190.239 53.613C190.341 53.613 190.432 53.6527 190.512 53.732L191.254 54.537C190.843 55.0457 190.337 55.4353 189.735 55.706C189.137 55.9767 188.419 56.112 187.579 56.112C186.827 56.112 186.151 55.9837 185.549 55.727C184.951 55.4703 184.44 55.1133 184.016 54.656C183.591 54.1987 183.264 53.6527 183.036 53.018C182.812 52.3833 182.7 51.6903 182.7 50.939C182.7 50.1783 182.821 49.483 183.064 48.853C183.306 48.2183 183.647 47.6723 184.086 47.215C184.529 46.7577 185.056 46.403 185.668 46.151C186.279 45.8943 186.956 45.766 187.698 45.766C188.435 45.766 189.088 45.8873 189.658 46.13C190.232 46.3727 190.719 46.69 191.121 47.082L190.491 47.957C190.453 48.013 190.404 48.062 190.344 48.104C190.288 48.146 190.208 48.167 190.106 48.167C190.036 48.167 189.963 48.1483 189.889 48.111C189.814 48.069 189.732 48.02 189.644 47.964C189.555 47.9033 189.452 47.838 189.336 47.768C189.219 47.698 189.084 47.635 188.93 47.579C188.776 47.5183 188.596 47.4693 188.391 47.432C188.19 47.39 187.957 47.369 187.691 47.369C187.238 47.369 186.823 47.4507 186.445 47.614C186.071 47.7727 185.749 48.006 185.479 48.314C185.208 48.6173 184.998 48.9907 184.849 49.434C184.699 49.8727 184.625 50.3743 184.625 50.939C184.625 51.5083 184.704 52.0147 184.863 52.458C185.026 52.9013 185.245 53.2747 185.521 53.578C185.796 53.8813 186.12 54.1147 186.494 54.278C186.867 54.4367 187.268 54.516 187.698 54.516C187.954 54.516 188.185 54.502 188.391 54.474C188.601 54.446 188.792 54.4017 188.965 54.341C189.142 54.2803 189.308 54.2033 189.462 54.11C189.62 54.012 189.777 53.893 189.931 53.753C189.977 53.711 190.026 53.6783 190.078 53.655C190.129 53.627 190.183 53.613 190.239 53.613ZM195.973 56H194.083V45.878H195.973V56ZM205.17 47.719C205.114 47.817 205.053 47.8893 204.988 47.936C204.927 47.978 204.85 47.999 204.757 47.999C204.659 47.999 204.551 47.964 204.435 47.894C204.323 47.8193 204.187 47.7377 204.029 47.649C203.87 47.5603 203.683 47.481 203.469 47.411C203.259 47.3363 203.009 47.299 202.72 47.299C202.458 47.299 202.23 47.3317 202.034 47.397C201.838 47.4577 201.672 47.544 201.537 47.656C201.406 47.768 201.308 47.9033 201.243 48.062C201.177 48.216 201.145 48.3863 201.145 48.573C201.145 48.811 201.21 49.0093 201.341 49.168C201.476 49.3267 201.653 49.462 201.873 49.574C202.092 49.686 202.342 49.7863 202.622 49.875C202.902 49.9637 203.189 50.0593 203.483 50.162C203.777 50.26 204.064 50.3767 204.344 50.512C204.624 50.6427 204.873 50.8107 205.093 51.016C205.312 51.2167 205.487 51.464 205.618 51.758C205.753 52.052 205.821 52.409 205.821 52.829C205.821 53.2863 205.741 53.7157 205.583 54.117C205.429 54.5137 205.2 54.8613 204.897 55.16C204.598 55.454 204.232 55.6873 203.798 55.86C203.364 56.028 202.867 56.112 202.307 56.112C201.985 56.112 201.667 56.0793 201.355 56.014C201.042 55.9533 200.741 55.8647 200.452 55.748C200.167 55.6313 199.899 55.4913 199.647 55.328C199.395 55.1647 199.171 54.9827 198.975 54.782L199.528 53.879C199.574 53.8137 199.635 53.76 199.71 53.718C199.784 53.6713 199.864 53.648 199.948 53.648C200.064 53.648 200.19 53.697 200.326 53.795C200.461 53.8883 200.622 53.9933 200.809 54.11C200.995 54.2267 201.212 54.334 201.46 54.432C201.712 54.5253 202.013 54.572 202.363 54.572C202.899 54.572 203.315 54.446 203.609 54.194C203.903 53.9373 204.05 53.571 204.05 53.095C204.05 52.829 203.982 52.612 203.847 52.444C203.716 52.276 203.541 52.136 203.322 52.024C203.102 51.9073 202.853 51.8093 202.573 51.73C202.293 51.6507 202.008 51.5643 201.719 51.471C201.429 51.3777 201.145 51.2657 200.865 51.135C200.585 51.0043 200.335 50.834 200.116 50.624C199.896 50.414 199.719 50.1527 199.584 49.84C199.453 49.5227 199.388 49.133 199.388 48.671C199.388 48.3023 199.46 47.943 199.605 47.593C199.754 47.243 199.969 46.9327 200.249 46.662C200.529 46.3913 200.874 46.1743 201.285 46.011C201.695 45.8477 202.167 45.766 202.699 45.766C203.296 45.766 203.847 45.8593 204.351 46.046C204.855 46.2327 205.284 46.494 205.639 46.83L205.17 47.719ZM210.893 56H209.003V45.878H210.893V56ZM224.353 50.939C224.353 51.681 224.229 52.3693 223.982 53.004C223.739 53.634 223.394 54.18 222.946 54.642C222.498 55.104 221.959 55.4657 221.329 55.727C220.699 55.9837 219.999 56.112 219.229 56.112C218.463 56.112 217.766 55.9837 217.136 55.727C216.506 55.4657 215.964 55.104 215.512 54.642C215.064 54.18 214.716 53.634 214.469 53.004C214.221 52.3693 214.098 51.681 214.098 50.939C214.098 50.197 214.221 49.511 214.469 48.881C214.716 48.2463 215.064 47.698 215.512 47.236C215.964 46.774 216.506 46.4147 217.136 46.158C217.766 45.8967 218.463 45.766 219.229 45.766C219.742 45.766 220.225 45.8267 220.678 45.948C221.13 46.0647 221.546 46.2327 221.924 46.452C222.302 46.6667 222.64 46.9303 222.939 47.243C223.242 47.551 223.499 47.8963 223.709 48.279C223.919 48.6617 224.077 49.077 224.185 49.525C224.297 49.973 224.353 50.4443 224.353 50.939ZM222.428 50.939C222.428 50.3837 222.353 49.8867 222.204 49.448C222.054 49.0047 221.842 48.629 221.567 48.321C221.291 48.013 220.955 47.7773 220.559 47.614C220.167 47.4507 219.723 47.369 219.229 47.369C218.734 47.369 218.288 47.4507 217.892 47.614C217.5 47.7773 217.164 48.013 216.884 48.321C216.608 48.629 216.396 49.0047 216.247 49.448C216.097 49.8867 216.023 50.3837 216.023 50.939C216.023 51.4943 216.097 51.9937 216.247 52.437C216.396 52.8757 216.608 53.249 216.884 53.557C217.164 53.8603 217.5 54.0937 217.892 54.257C218.288 54.4203 218.734 54.502 219.229 54.502C219.723 54.502 220.167 54.4203 220.559 54.257C220.955 54.0937 221.291 53.8603 221.567 53.557C221.842 53.249 222.054 52.8757 222.204 52.437C222.353 51.9937 222.428 51.4943 222.428 50.939ZM236.079 45.878V56H235.113C234.964 56 234.838 55.9767 234.735 55.93C234.637 55.8787 234.542 55.7947 234.448 55.678L229.163 48.93C229.191 49.238 229.205 49.5227 229.205 49.784V56H227.546V45.878H228.533C228.613 45.878 228.68 45.8827 228.736 45.892C228.797 45.8967 228.848 45.9107 228.89 45.934C228.937 45.9527 228.981 45.983 229.023 46.025C229.065 46.0623 229.112 46.1137 229.163 46.179L234.469 52.955C234.455 52.7917 234.444 52.6307 234.434 52.472C234.425 52.3133 234.42 52.1663 234.42 52.031V45.878H236.079Z" fill="#4A4A4A"/>
</svg>
