<svg width="32" height="31" viewBox="0 0 32 31" fill="none" xmlns="http://www.w3.org/2000/svg">
<path d="M29.3332 28.4166L26.6665 25.8333M15.3332 27.1249C16.9966 27.1249 18.6437 26.8075 20.1805 26.1909C21.7173 25.5742 23.1136 24.6703 24.2899 23.5309C25.4661 22.3914 26.3991 21.0387 27.0356 19.5499C27.6722 18.0612 27.9998 16.4655 27.9998 14.8541C27.9998 13.2427 27.6722 11.647 27.0356 10.1582C26.3991 8.66947 25.4661 7.31675 24.2899 6.1773C23.1136 5.03784 21.7173 4.13398 20.1805 3.51731C18.6437 2.90065 16.9966 2.58325 15.3332 2.58325C11.9738 2.58325 8.75195 3.87607 6.37648 6.1773C4.00102 8.47852 2.6665 11.5997 2.6665 14.8541C2.6665 18.1085 4.00102 21.2296 6.37648 23.5309C8.75195 25.8321 11.9738 27.1249 15.3332 27.1249V27.1249Z" stroke="white" stroke-opacity="0.96" stroke-width="1.5" stroke-linecap="round" stroke-linejoin="round"/>
</svg>
